<?xml version="1.0" encoding="utf-8"?>
<!-- Generator: Adobe Illustrator 27.3.1, SVG Export Plug-In . SVG Version: 6.00 Build 0)  -->
<svg version="1.1" id="Layer_1" xmlns="http://www.w3.org/2000/svg" xmlns:xlink="http://www.w3.org/1999/xlink" x="0px" y="0px"
	 viewBox="0 0 512 512" style="enable-background:new 0 0 512 512;" xml:space="preserve">
<style type="text/css">
	.st0{opacity:0.17;}
	.st1{fill:#DAA520;}
</style>
<g class="st0">
	<path class="st1" d="M514.9,378.8C514.9,378.8,515,378.8,514.9,378.8C515,378.9,515,378.8,514.9,378.8
		C515.1,378.8,515,378.8,514.9,378.8C515.1,378.8,515,378.8,514.9,378.8z M421.2,388.1c0.1,0.1,0.2,0.1,0.2,0.1s0.1-0.1,0.2-0.2
		c-0.1-0.1-0.2-0.2-0.2-0.1C421.3,388,421.2,388.1,421.2,388.1z M490,304.2L490,304.2c0-0.2,0-0.2,0-0.3c0-0.1-0.1,0-0.1,0
		C489.9,304,489.9,304.1,490,304.2z M515.1,379.5c-1.4,0.4-2.5,0.2-3.2-0.9C512.2,380.5,513.3,381,515.1,379.5z M387.8,428.2
		c0.7,0.5,1-0.1,1.3-0.5c0.6-0.7,1.1-1.4,1.8-2c-1.1,0.2-2.3,0.1-3,1.1C387.5,427.2,387.4,427.7,387.8,428.2z M445.6,356.8
		c0.4,0.7,1,0.4,1.5,0.1c1.1-0.7,2.5-1.1,3.7-1.4c-1.6-0.4-3-0.9-4.6-0.1C445.7,355.8,445.4,356.3,445.6,356.8z M365.2,365.5
		c1.5,0.7,3.1,0.5,4.6,0c-1.4-0.4-2.6-1-3.7-1.7c-0.5-0.4-1.1-0.4-1.6,0.2C364.1,364.7,364.6,365.2,365.2,365.5z M387.4,436.5
		c0.9,0.1,1.1-0.7,1.1-1.2c0.1-1.8,0.4-3.5,1.1-5.2c-1.3,1-2.5,2.1-3.1,3.6c-0.2,0.4-0.3,1-0.3,1.4
		C386.3,435.8,386.6,436.4,387.4,436.5z M364.2,373c0.5,1.1,2.3,1.3,3.2,0.4c1.1-1.1,1.1-2.6,1-4.1c-0.1-0.4-0.4-0.6-0.7-0.4
		c-1,0.7-2,1.4-2.9,2.2C364,371.7,363.9,372.3,364.2,373z M441.2,365.9c0.9,0.4,1.4-0.2,1.8-1c1-2,2.4-3.7,3.9-5.2
		c-0.1-0.1-0.2-0.3-0.3-0.4c-1.6,0.8-3.2,1.6-4.7,2.5c-0.6,0.4-1.1,1.1-1.2,1.9C440.4,364.8,440.4,365.5,441.2,365.9z M362.2,359.6
		c1.1,0.6,2.4,1.1,3.7,1.4c-1.8-1.7-3.1-3.7-4.3-5.8c-0.4-0.6-1.1-1.1-1.9-0.6c-0.7,0.4-0.7,1.2-0.5,1.9
		C359.6,358,360.9,358.8,362.2,359.6z M400.6,445.3c0.9,0.1,1.8,0,2-1c0.3-1.1-0.6-1.6-1.4-1.8c-2.3-0.5-4.5-1.1-6.4-2.7
		C395.3,442.6,398.1,444.9,400.6,445.3z M390.9,376.7c1.8,0.6,2.9,1.6,3.9,2.9c0.2,0.4,0.6,0.5,1,0.6c1,0.4,1.9,0.5,2.5-0.4
		s0.3-1.8-0.5-2.6C396,375.8,393.2,375.4,390.9,376.7z M390.7,442.8c0.8,1.3,2.2,1.8,3.2,1.1c1-0.6,0.8-1.8-0.4-3
		c-1.5-1.6-2.4-3.5-3.2-5.4c-0.4,2.2-0.4,4.3,0.1,6.4C390.4,442.2,390.5,442.5,390.7,442.8z M400.2,401.3c1.2,1.1,2.7,1.8,4.4,2
		c1.5,0.2,3,0.4,4.5,0.4c-2.8-1-4.8-2.8-6.8-4.8c-0.7-0.7-1.8-1.1-2.5-0.2C398.9,399.6,399.3,400.5,400.2,401.3z M437.5,396.1
		c0.7,1.1,2,1.6,3.5,1.8c0.4,0,0.8,0.1,1.1,0c0.7-0.2,1.8,0.3,2.1-0.5c0.3-0.5-0.8-0.7-1.1-1.3c-0.5-1-1.1-1.8-1.8-2.6
		c-0.8-1.1-2.3-1.7-3.1-1.1C437.1,393.1,436.8,394.7,437.5,396.1z M450.1,381.1c0.8,0.9,1.8,1.4,2.9,1.6c0.5,0.1,1.1,0.1,1.6-0.5
		c0.4-0.5,0.3-1-0.1-1.6c-0.3-0.5-0.5-1-1-1.2c-2.5-1.6-4.6-3.6-6.1-6.2C447.9,376,448.2,378.9,450.1,381.1z M503.7,411.7
		c0.9,0.5,1.5,0.4,1.9-0.5c0.4-0.6,0.4-1.3,0.2-2c-1.4-3.4-3.5-6.1-6.6-8.1c1.4,2.5,2,5.3,2.7,8.1
		C502.3,410.1,502.7,411.1,503.7,411.7z M562.8,321.4c0.6,1,1.4,1.6,2.5,1.8c0.7,0.1,1.5,0.3,1.9-0.5c0.4-0.7,0.4-1.5-0.2-2.2
		c-0.4-0.5-1-0.9-1.4-1.3c-2.1-1.8-3.9-3.7-5.3-6.2C560.7,315.9,561,318.8,562.8,321.4z M442.9,376.9c0.7,0.6,1.5,1.1,2.4,0.6
		c1-0.4,1.2-1.6,1-2.5c-1.1-2.8-1.6-5.6-1.4-8.7c-1.5,2.5-2.8,4.9-2.9,7.8C441.8,375.3,442.1,376.2,442.9,376.9z M366.3,347.1
		c1.1-0.9,1.3-1.8,1.8-2.6c1.1-1.6,2.6-2.7,4.1-3.9c0.2-0.1,0.4-0.2,0.5-0.4c1.3-1,1.8-2.1,1.2-2.9s-2.6-0.8-3.6,0.1
		c-0.8,0.7-1.6,1.4-2,2.5C367.2,342.1,366.6,344.4,366.3,347.1z M521,428.3c1.1,0,1.6-1,1.7-2c0.2-1.6-0.3-3.1-1.1-4.4
		c-1.3-1.8-2.7-3.6-4.7-4.9c1.8,2.9,2,6.1,2.2,9.3C519.2,427.5,519.8,428.3,521,428.3z M496.6,307c-1.8-2-1.2-3.9-0.7-5.7
		c0.4-1.1,0.3-2.2-0.7-3.1c-0.7-0.6-1.6-0.7-2.5-0.4c-1.1,0.5-1.8,1.5-1.8,2.8C491,303.6,493.1,306,496.6,307z M363.8,354.4
		c0.4-1.1,0-1.9,0-2.8c0.1-1.8,0.4-3.6,1-5.3c0.4-0.7,0.5-1.5,0.5-2.3c0-0.9-0.4-1.5-1.1-1.8c-0.8-0.4-1.6-0.3-2.2,0.5
		c-1,1.1-1.4,2.5-1.1,3.9C361.2,349.4,362.3,351.8,363.8,354.4z M404.8,388.2c0.7-3.9,2.6-6.8,5.1-9.7c0.4-0.5,0.5-1.1,0.6-1.6
		c0.3-1.5-0.9-2.3-2.3-1.8c-1.6,0.5-2.5,1.6-3.2,3.1C403.5,381.5,404,384.9,404.8,388.2z M481.1,350.4c2.1,0.7,4,0.1,5.6-1.1
		c2.2-1.7,3.9-3.8,5.6-5.9c0.2-0.2,0.2-0.5,0.4-1c-3.1,2.3-6.1,3.5-9.7,3.9c-0.9,0.1-1.8,0.4-2.5,1.1
		C479.3,348.4,479.5,349.8,481.1,350.4z M403.9,396.9c0.1,0,0.2,0,0.7-0.1c-2-3.3-2-6.8-2-10.4c0-0.5-0.1-1-0.3-1.4
		c-0.7-1.6-2.5-1.8-3.5-0.6c-1.4,1.6-1.4,3.3-0.6,5.1C399.3,392.5,401.7,394.6,403.9,396.9z M380.2,429.2c0.9,0.7,2.8,0.1,3.9-1.1
		c0.7-0.8,1.1-1.7,1.8-2.5c1.6-2.6,3.3-5.3,5.8-7.4c-4.1,1.7-8.1,3.5-11,7.1C379.5,426.5,379.5,428.6,380.2,429.2z M511.3,423.1
		c0.9,0,1.6-0.6,1.9-1.4c0.9-1.8,0.8-3.7,0.1-5.4c-1.1-3.1-3.2-5.6-5.2-8.1c-0.2-0.3-0.4-0.4-0.9-0.2c0.8,1.8,1.4,3.5,1.6,5.4
		c0.3,1.8,0.4,3.8,0.1,5.6c-0.1,1,0.1,1.8,0.4,2.6C510,422.5,510.6,423.2,511.3,423.1z M365.8,383.1c1.1,1.6,4.1,1.6,5.4,0
		c1.4-1.8,2.1-3.7,1.7-6c-0.4-1.7-0.7-3.2-1.8-4.7c0.2,2.8-1.6,4.4-3.7,5.7C365.4,379.5,364.7,381.7,365.8,383.1z M388.8,386.8
		c1.2,1.6,3.2,2.2,4.6,1.3c1.3-0.8,1.7-2.8,0.8-4.6c-1.1-2.2-2.9-3.7-5.1-4.6c-1.3-0.5-2.7-1.1-4.2-1.1c2.6,1.8,3,4.4,3.2,7
		C388.3,385.6,388.4,386.2,388.8,386.8z M473.9,363c2.1,1,4.1,0.6,6-0.6c3.3-2.2,5.7-5.3,7.9-8.5c-1.1,0.6-2.2,1.3-3.4,1.9
		c-2.3,1.1-4.7,1.8-7.2,2.2c-1.6,0.2-3.2,0.4-4.2,1.9C472.3,361.1,472.6,362.4,473.9,363z M500.7,352.7c1.1,1.8,4,2.4,5.8,1
		c1.4-1.1,1.3-3,0.2-4.6c-0.7-1-1.6-1.8-2.5-2.7c-1.1-1.1-2-2.2-1.9-4.2C499.7,345.3,499.1,349.8,500.7,352.7z M499.1,320.4
		c2.5-0.3,4.5-1.8,6.6-3.1c-2.2-0.1-3.8-1.4-5.4-2.6c-1-0.7-1.8-1.5-3-1.8c-2.1-0.5-3.7,0.5-3.9,2.6
		C493.2,318.7,495.6,320.8,499.1,320.4z M369.4,426.6c2.3,1.2,4.7,1.1,6.8-0.6c2.5-2.1,4.8-4.3,7.1-6.4c1.4-1.4,3.1-2.5,5-3.4
		c-0.7-0.7-1.2-0.2-1.7,0c-2.9,1.1-5,3.5-7.4,5.4c-1.4,1.1-2.6,2.5-4.3,3.3c-2.3,1.4-5.6,0.4-6.9-2.1c-1.1-2-0.1-4.9,2.3-6.1
		c0.7-0.4,1.5-0.5,2.2,0.1c0.6,0.5,0.7,1.1,0.5,2c-0.4,1-1,1.3-1.9,1.1c0.9,1,1.6,0.8,2.3-0.1c0.9-1.1,1-2.6,0.3-3.6
		c-0.8-1.1-2.2-1.6-3.5-1c-2.2,1.1-3.9,2.7-4.1,5.3C365.8,423.3,367.1,425.4,369.4,426.6z M563.7,333.7c1.6,0.4,2.6-0.6,2.5-2.2
		c-0.1-1.1-0.5-2.2-1.2-2.9c-3.2-3.5-5.6-7.5-6.9-12.5c-0.1,0.6-0.3,0.9-0.3,1.1c0.1,3.9-0.4,8,1.1,11.8
		C559.8,331.5,561.2,333.2,563.7,333.7z M375.2,411.5c1.1,2.2,3.1,3.3,5.4,3.7c3.7,0.5,7.1-0.5,10.4-1.8c1.1-0.5,2.5-0.7,3.8-1.8
		c-1.7,0.3-3,0.5-4.3,0.5c-3.7,0.1-6.8-1-9.9-2.9c-1.1-0.6-2.1-1.1-3.4-1.1C375.2,408.1,374.2,409.6,375.2,411.5z M435,345.2
		c1.6,0.7,3.2,0.2,4.7-0.3c4.3-1.2,8.7-1.9,13.1-0.5c0.2,0.1,0.4,0.1,0.6-0.3c-1.4-1.1-3.1-1.9-4.7-2.7c-3.4-1.7-7-3-10.9-1.8
		c-1.6,0.4-2.8,1.3-3.7,2.6C433.3,343.4,433.8,344.6,435,345.2z M438.5,335c0.9,0.6,1.9,0.7,2.9,1c4.2,0.7,8.2,2.2,11.5,5.1
		c0.2,0.1,0.4,0.3,0.6,0.4c-0.6-2-1.8-3.5-2.9-5.1c-1.8-2.5-3.5-4.7-6.2-6.2c-1.6-0.9-3.2-1.1-4.9-0.7c-1.3,0.4-2.3,1.1-2.5,2.5
		C436.8,333.3,437.5,334.2,438.5,335z M375,390.9c0.7,1.4,2.2,2.1,3.9,1.8c1.6-0.3,3-1.1,3.6-2.6c1-2.6,1-5.2-0.4-7.8
		c-1.1-2.2-2.5-4.2-4.3-6.2c0.1,0.6,0.1,1,0.2,1.1c1,2.1,0.4,3.9-0.7,5.8c-0.6,1.1-1.3,2-2,2.8C374,387.3,374,389,375,390.9z
		 M511.3,347c2,0,3.4-1,4-2.6c0.5-1.8,0.4-3.5-1-4.8c-0.5-0.6-1.1-1.1-1.8-1.8c-2.5-2.4-4.3-4.9-2.8-8.6c-2.5,3.5-5,7.1-4.3,11.7
		C506.1,344.5,508.1,347.1,511.3,347z M508.9,313.6c3.5-0.8,6.1-2.9,8.5-5.4c-3.7,1.8-6.4-0.4-9-2.5c-1.4-1.1-2.6-2.5-4.7-2.2
		c-3,0.4-4.7,3.2-3.5,6C501.5,312.7,505.2,314.4,508.9,313.6z M532,324.7c3.5,0.8,6.7-0.1,9.6-2c3.9-2.5,6.8-6,9.5-9.6
		c0.1-0.1,0.1-0.3,0.4-0.8c-0.9,0.5-1.5,0.9-2.1,1.3c-4.2,3-9,3.9-14,4.3c-1.4,0.1-2.8,0.1-4.1,0.7c-1.4,0.7-2.6,1.5-2.5,3.2
		C528.5,323,530.3,324.4,532,324.7z M538.3,335c1.7,1.1,3.5,1,5.4,0.3c2.6-1,4.3-3,5.4-5.4c2.1-4.5,3.2-9.1,4.1-14
		c0.1-0.1-0.1-0.3-0.2-0.8c-2,4-4.6,7.1-7.7,9.7c-1.9,1.6-4.3,2.5-6.2,4.1C536.8,330.6,536.4,333.7,538.3,335z M466.2,380.3
		c3.4,0.5,6.2-0.9,8.6-3.1c3.5-3.2,5.8-7.3,8.1-11.4c0.5-1,1.2-1.9,1.4-3.2c-2,1.8-3.9,3.5-6,4.9c-3.1,2.1-6.4,3.7-9.9,4.9
		c-1.5,0.5-2.8,1.1-3.9,2.2c-1.1,1-1.6,2.2-1.1,3.7C463.8,379.7,465,380.2,466.2,380.3z M514.5,335.7c1.5,2.6,5.7,4.5,9.1,2
		c2.6-1.9,3.2-6.4,1.1-9.1c-1.8-2.2-3.2-4.5-3.9-7.3c-0.5-2.2-0.1-4.1,1-6c0.3-0.4,0.5-0.9,0.7-1.3c-3.9,3.7-7.5,7.5-9,12.8
		C512.7,329.9,513,333,514.5,335.7z M512.4,304.6c5.2,1.1,9.4-1,13.2-4.1c2.3-1.8,4.1-4.1,6-6.7c-1.1,0.3-1.4,0.9-2,1.2
		c-3.2,2.2-6.5,1.1-9.7-0.2c-1.2-0.5-2.4-1.2-3.5-1.8c-2.5-1.3-4.7-1.1-6.9,0.4c-2.4,1.6-3.2,4.1-2.2,6.8
		C508.1,302.6,509.9,304.1,512.4,304.6z M351.5,382.5c3.2,5.2,7.7,9.1,12.5,12.7c4.1,3.1,8.7,5.4,13.4,7.4
		c8.2,3.2,16.7,4.9,25.4,5.4c1.8,0.1,3.7,0.6,5.5,0.6c0.4,0,1-0.1,1,0.4c0.1,0.5-0.5,0.4-0.8,0.5c-3.1,1.1-6.2,1.8-8.7,4.1
		c-5.1,4.6-8.5,9.8-6.9,16.9c1.8,8.3,10.9,14,18.9,9.7c4.1-2.1,7.3-7.3,5.1-12.9c-1.2-3.2-3.7-5.4-7.1-6c-3.1-0.5-5.7,0.4-7.6,2.9
		c-3,3.9-1.1,9,3.7,10c3.1,0.7,6.1-2.4,5.3-5.4c-0.4-1.4-2.1-2.6-3.4-2.5s-2.2,1.1-2.5,2.4c-0.1,1.1,0.7,1.6,1.6,1.8
		c1,0.3,1.1-0.5,1.4-1.4c-0.7,0.1-1.2,1.1-1.8,0.3c-0.4-0.5-0.3-1,0.1-1.4c0.5-0.7,1.2-1,2-0.5c1.4,0.7,2,1.9,1.5,3.2
		c-0.5,1.4-2.4,2.5-3.8,2.1c-2-0.4-3.8-2.5-3.9-4.5c-0.1-2.1,1.8-4.6,3.9-5.1c3.1-0.7,5.6,0.4,7.5,2.8c1.8,2.3,2.2,4.9,0.9,7.5
		c-2.7,5.6-10.1,7-15.1,3.1c-5.6-4.4-6.2-11.5-2.8-17.2c2.9-4.9,7.6-7.5,12.6-9.7c4-1.8,8.2-1.2,12.4-1.7c0.7-0.1,1.4-0.1,2-0.2
		c0.4,0,0.7-0.4,1,0.1c0.2,0.4-0.2,0.5-0.4,0.9c-1.6,2-1.8,4.8-0.5,6.8c1.1,1.7,3.2,2.1,4.3,0.9c-2.1,0.6-3.9-0.5-4.3-2.7
		c-0.5-3.7,1.4-6,5.2-6.3c2.5-0.4,4.7-1,7-1.8c4.5-1.3,9-2.4,13.2-3.9c5.1-1.9,10.1-4.1,14.7-6.9c4.6-2.7,8.6-5.8,12.5-9.4
		c6-5.6,10.7-12.1,14.2-19.5c0.1-0.3,0.1-0.6,0.7-0.6c0.1,2.8,0.1,5.6,0.5,8.5c0.7,5.2,2,10.3,4.1,15.1c3.2,7.2,7.7,13.2,13.6,18.4
		c6.6,5.9,14.2,9.7,22.9,11.8c6.2,1.5,12.5,2,18.9,1.1c5.4-0.8,10.6-2.5,15.4-5.3c10.9-6.4,17.8-15.7,20.6-28.1
		c1.6-7,1.1-13.9-1.4-20.5c-2.7-6.9-7.3-12.6-13.6-16.8c-7-4.6-14.7-6.8-23-6c-13.6,1.2-24.6,12.8-25.2,26.5c0,0.4,0.2,1-0.3,1.1
		s-0.8-0.4-1.1-0.7c-5.4-5-14-2.6-16,4.3c-1.1,4,1.2,8.5,5.1,9.4c2.3,0.5,4.7-0.2,6.3-2.3c1.5-2,1.6-4.1,0.3-6.1
		c-1.5-2.4-4.8-2.4-6.2-0.1c-0.3,0.4-0.6,0.9-0.2,1.4c0.2-0.2,0.4-0.4,0.4-0.5c1-1.6,2.5-2.3,3.8-1.8c1.6,0.7,2.6,2.8,2.2,4.6
		c-0.6,2.3-2.5,4.1-5.1,4.1c-2.2-0.1-4.7-1.9-5.4-4.1c-1.3-4.1,0.5-7.3,3.9-9.4c3.3-2.1,7.9-1.4,10.5,1.6c4.9,5.6,3.6,13.3-2.5,17.5
		c-6.7,4.7-13.8,2.6-18.9-2.5c-2.9-2.9-4.3-6.4-4.9-10.4c-1.1-7.2-1.6-14.4-0.3-21.6c2-10.5,6-20.3,11.9-29.1
		c6.1-9.1,13.6-16.9,22.2-23.8c4.7-3.7,9.4-7.1,14.6-10c0.7-0.4,1.5-1,2.2-1.4c0.2-0.1,0.4-0.4,0.7-0.1s0.1,0.4,0,0.7
		c-2.2,4.6-0.7,8.6,1.8,12.5c2.1,3.2,7.6,4.3,11.4,2.5c3.6-1.8,5.1-6.1,3.7-10.2c-0.5-1.6-1.4-3.1-2.8-3.9c-1.4-1-3.4-0.9-4.6,0.1
		c-1.2,1-1.8,3.2-1.3,4.6s1.5,1.8,3.2,1.5c0-0.4-0.4-0.4-0.6-0.4c-1.4-0.4-2-1.2-1.7-2.5c0.4-1.4,1.6-2.4,2.9-2.1
		c0.7,0.1,1.4,0.5,1.8,1.1c1.6,1.9,1.8,4.2,1.2,6.4c-0.5,1.8-1.8,3.2-3.7,3.6c-5.3,1.2-9.1-1.4-10.3-6.7c-1-4.7,0.9-8.2,4.7-10.4
		c5.2-2.8,10.5-5.2,16.1-7.3c1.1-0.4,2.3-1.1,3.5-1.7l-0.4-0.7c-2.4,1.4-4.9,2-7.4,3.1c-2,0.9-4.1,1.6-6.2,2.5
		c-4.9,2.1-9.8,4.6-14.4,7.2c-8.1,4.7-15.9,9.9-22.8,16.1c-4.7,4.3-9.1,8.9-13.1,13.9c-0.3,0.4-0.5,0.7-1,0.8
		c-2.8,0.5-5.5,1.1-8.3,0.7c-3.9-0.5-8.1-4.2-9.3-8c-1-2.9-1.1-5.8,0.2-8.6c0.1-0.1,0.1-0.2,0.1-0.4s-0.1-0.1-0.3-0.5
		c-1.6,2.8-2.1,5.6-1.1,8.5c2.7,8.8,9,11.5,17.7,10c-0.4,1-1,1.1-1.4,1.2c-5.4,2.2-11.9,0.6-15.8-3.7c-2.5-2.6-4.2-5.6-4.2-9.4
		c0-1.8,0.6-3.4,1-5.2c0.3-0.8,1-1.5,0.9-2.7c-0.7,0.9-1.3,1.6-1.3,2.5c-1,2.7-2,5.5-1,8.4c2.6,7.9,9.8,13.9,18.9,11.8
		c0.4-0.1,0.6-0.3,0.8,0c0.3,0.4-0.1,0.6-0.3,1c-1.4,3-3.9,5-6.5,7c-2.7,2.2-5.6,4.3-9,5.7c-7.4,3.2-14.8,4.7-22.8,2
		c-6.8-2.3-11.4-6.8-13.7-13.6c-2.3-6.8-1.6-13.3,2.8-19.1c3.9-5.3,11.3-7.7,17.2-5.8c6.8,2.2,10.4,9.2,9.1,16.1
		c-1,5.6-6,9.1-10.9,9c-3.4-0.1-6.6-2.4-7.5-5.8c-1-3.2-0.7-6.6,2.4-8.8c1.4-1.1,4.5-1.4,5.9-0.6c2,1.1,2.5,3.1,2.5,5.1
		c-0.1,1.8-1.8,3.2-3.6,3.1c-1.6-0.1-2.5-1.4-1.9-2.9c0.4-1,1.1-0.6,2-0.7c-1.4-0.7-2.3-0.4-2.5,0.8c-0.4,1.2,0.4,2.9,1.2,3.3
		c1.1,0.5,3.6,0.2,4.4-0.7c1.7-1.8,1.8-5.1,0.4-7c-1.6-2.2-4.7-3-7.4-1.8c-4.1,1.8-5.8,6-4.6,10.4c1.8,6.8,9.1,8.4,14.2,6
		c6.8-3.1,9-10.6,6.6-17.4c-2.6-7.5-9-11.1-16.1-10.4c-7.8,0.7-13.1,5.2-15.7,12.3c-4.1,11.1,1.1,23.7,11.7,28.8
		c7,3.4,14.2,3.2,21.5,1c6-1.9,11.2-5.2,15.9-9.4c0.1-0.1,0.3-0.1,0.4-0.1c0.4,0.4,0.1,0.6-0.1,1c-3.5,6.6-5.5,13.6-7.3,20.9
		c-1,4.1-2.9,7.9-5,11.5c-3.6,6.3-8.2,11.7-13.7,16.4c-3.5,3-7.5,4.6-11.9,4.9c-8.9,1-16.2-1.8-21.8-9c-3.3-4.3-4.2-9.5-3.2-14.8
		c1-5,3.3-9.2,7.4-12.4c7.5-5.8,17.5-3.8,22.1,3.3c2.5,3.9,2,8.2-0.1,12.3c-1.1,2-2.6,3.5-4.7,4.7c-3.2,1.8-8.5,1.1-11.3-2.5
		c-2.5-3.2-0.9-9.1,3.1-10.6c1.7-0.5,5.1,0.6,6,2.1c0.4,0.8-0.4,3.3-1.4,4.2c-0.9,0.7-1.6,0.5-3-0.9c0.1,1,0.7,1.7,1.7,1.9
		c1,0.4,1.6-0.2,2.2-0.8c1.1-1.4,2-3,1.1-4.7c-1-1.8-2.8-2.8-4.9-3c-2.8-0.2-5.3,1.8-6.5,5c-1.8,4.7,0.4,9.1,5.4,11
		c5.4,2,10.4,0.2,13.9-5.4c3.2-4.9,3.1-11.7-0.7-16.1c-3.9-4.7-9-6.8-15.1-6.1c-7.5,0.9-12.5,5.4-15.7,12c-2.6,5.4-3,11.1-1.1,16.7
		c1.8,5.3,5.3,9.3,10,12.1c5,3.1,10.4,4.3,16.2,3.8c0.4-0.1,0.7-0.1,1.1-0.1c0.1,0.4,0,0.5-0.1,0.5c-5.3,3.3-10.9,6-16.8,8.1
		c-2.9,1.1-5.3-0.4-7.3-2.2c-2.4-2.2-2.8-5.2-2.5-8.3c0.8-1.1,1.2-2.5,2.5-3.4c-1.5,0.1-2.6,1.7-2.7,3.3c-1,1.8-0.8,3.7-0.1,5.5
		c1.1,3.1,3.2,5.1,6.3,6c-1.1,1.2-2.2,1.4-3.8,0.5c-4.7-2.5-6.8-8.2-4.7-13.2c0.1-0.3,0.1-0.5-0.1-0.7c-1.9,1.5-1.8,5.4-1.1,7.5
		c0.8,2.8,2.5,5,5,6.7c0.3,0.2,0.7,0.4,0.6,0.7s-0.4,0.4-0.7,0.4c-0.1,0-0.1,0-0.1,0c-3.1,0.9-3.6,0.7-5.2-2.2
		c-0.4-0.7-0.7-1.7-1.4-2.2c-1.1-0.9-2.8-1-3.9-0.2c-1,0.8-1.4,2.5-0.9,3.9c0.4,0.8,0.9,1.5,1.6,2c0.3,0.2,0.7,0.4,0.6,0.7
		c-0.1,0.4-0.5,0.3-0.9,0.4c-0.9,0.2-1.8,0.4-2.6,0.5c-4.6,1.2-8.1-0.6-11.3-3.4c-6.4-5.4-6.8-15.4-1-21.1
		c4.6-4.6,12.3-4.6,16.3,0.1c2.3,2.8,2.6,6,1.4,9.4c-1.1,3-3.2,4.8-6.4,5.2c-2.8,0.4-5.4-1.1-6.6-3.5c-1-2-0.4-4.9,1.3-6.5
		c1.4-1.4,4.2-1.4,5.5-0.2c1.4,1.3,1.4,3,0.2,4.7c-0.5,0.4-1,0.4-1.6,0.4c-1.6-0.1-2-0.7-1.5-2.2c0.1-0.3,0.4-0.5,0.2-0.8
		c-1,0.5-1.4,2.2-1,2.9c0.7,1,2.6,1.1,3.7,0.4c1.6-1.1,2-2.6,1.5-4.5c-0.5-1.6-2.3-2.6-4.3-2.7c-3.5-0.1-5.8,3.2-5.4,6.8
		c0.4,5.2,6,6.9,9.6,5.8c6.1-1.8,7.7-9,5.8-13.6c-3.2-7.6-13.6-8.5-19.1-3.4c-7.1,6.5-6.5,18.2,1.2,24.1c1,0.7,1.9,1.4,3,1.9
		c0.4,0.1,0.8,0.1,0.7,0.5c-0.1,0.5-0.6,0.4-1,0.4c-3.2,0.2-6.5,0.1-9.8-0.1c-8.1-0.4-16-1.8-23.6-4.6c-9.7-3.5-18.3-8.8-24.9-16.8
		c-6.4-7.6-10.3-16.4-10.3-26.5c0-11.4,4-21.1,12.1-29.1c6.2-6.3,13.8-9.8,22.6-10c10.3-0.4,18.8,3.5,24.9,11.6
		c4.7,6.2,5.8,13.6,3.7,21.3c-1.7,6-4.9,10.7-9.8,14.3c-9.1,6.8-21.4,4.5-27.5-4.1c-3.7-5.3-3.2-12.5,1-18.1c3-4,6.8-6.4,11.9-5.6
		c3.3,0.5,6.2,2,8.1,4.9c2.1,3.2,1.6,7.5-1.2,10.6c-2.9,3.2-6,3.6-9.3,0.9c-2-1.7-2.2-3.1-0.7-5.4c1.8-3,3.9-2,5.2,0.4
		c0.4-1.4-0.4-2.1-1.4-2.6c-1.1-0.7-2.4-0.8-3.3,0.4c-0.7,0.7-1.4,1.7-1.9,2.5c-1,1.6-0.4,3.7,1.1,5.2c3.1,3,7.5,3.9,11.2-0.1
		c3.7-3.9,4.4-8.5,2.1-12.5c-3.1-5.5-11.1-7.9-16.9-5.3c-7.5,3.4-12,12.6-10.2,20.6c1.4,6,5.3,9.9,10.4,12.5
		c6.8,3.4,13.7,3.2,20.4-0.1c4.2-2.1,7.5-5.4,10.1-9.3c4.7-7.3,6.4-15.2,4.1-23.7c-2-7.5-6.6-13.2-13.1-17.2
		c-9.6-6-19.8-6.7-30.3-2.8c-6.1,2.3-11.3,6.1-15.5,11.1c-4,4.7-7.2,10-9,15.9c-2.6,9-2.5,17.9,0.4,26.8
		C346.9,375.4,349.1,378.9,351.5,382.5z M499.3,387c0.4,0.4,1,0.9,1.4,1.3c2.5,2.5,5.4,4.1,8.9,4.8c6.2,1.3,14-3.1,16.1-9
		c0.3-0.7,0.1-2,1-2.1c0.8-0.1,0.8,1.1,1.4,1.7c0.1,0.1,0.2,0.1,0.2,0.2c3.5,4.7,8.2,7.7,14,9c4.1,1,8.2,0.9,12-1
		c5.5-2.6,8.8-7.1,9.8-13.2c0.6-3.3,0.1-6.6-2.1-9.4c-2.2-2.8-4.9-4.3-8.2-5.2c-4.7-1.4-9,0.4-11.2,4.9c-1,2.1-1.5,4.3-0.5,6.5
		c1.1,2.5,3.3,3.2,5.8,3.6c2.6,0.4,4.9-2.1,4.1-4.7c-0.3-0.8-0.8-1.1-1.8-1c0.3,0.6,0.9,0.4,1.1,0.8c0.5,1.1-0.5,3.5-1.8,3.9
		c-2.2,0.7-6.1-1.4-6.5-3.8c-0.5-3.3,1.7-8.5,6.6-9c2.5-0.4,4.9,0.4,7.1,1.8c2.8,1.7,4.9,3.9,5.4,7.4c0.9,6.7-4.1,14.3-10.9,15.9
		c-5.6,1.2-10.6-0.2-15.2-3.2c-3.9-2.5-6.7-6-7.9-10.4c-1.2-4.3-0.9-8.6,0.7-12.7c3.6-9.4,10.4-14.7,20.4-16.2
		c5.4-0.7,10.4,0.4,15.3,2.4c6.4,2.6,11.5,6.8,15.1,12.6c5,8.1,5.8,16.7,3.2,25.7c-2.8,9.9-9,17.3-17.7,22.6
		c-6,3.6-12.6,5.4-19.7,5.6c-6.1,0.1-12-1-17.8-3.1c-5.6-2-10.6-5-15.3-8.9c-4.4-3.7-7.9-8.2-10.9-13c-1-1.5-1.6-3.2-2.5-4.7
		C499.1,387,499.1,387,499.3,387z M506.8,394.9c-0.2,1.4-0.4,2.8,1,3.9c0.4,0.3,0.9,0.6,1.3,0.1c0.4-0.4,0.4-1-0.1-1.3
		C508,396.7,507.6,395.8,506.8,394.9z M511.7,397.5c0.5,1.8,1.8,3.2,3.5,3.9c0.9,0.4,1.9,0.5,2.3-0.5c0.4-1.1-0.6-1.4-1.4-1.7
		C514.7,398.9,513,398.5,511.7,397.5z M517.2,397.8c2.7,0.5,5.4,1.7,8.2,0.4c0.6-0.4,1.1-0.7,1.3-1.5c0.4-1.3-0.4-2.2-1.7-2
		c-0.5,0.1-1,0.2-1.4,0.5c-1.6,1.4-3.7,2-5.8,2.2C517.7,397.4,517.4,397.4,517.2,397.8z M524.1,409.7
		C524,409.6,524,409.6,524.1,409.7C524,409.7,524,409.7,524.1,409.7L524.1,409.7L524.1,409.7z M524.2,409.7L524.2,409.7L524.2,409.7
		C524.2,409.8,524.2,409.7,524.2,409.7z M524.8,409.7c1.3,1,2.8,1.1,4.3,1.4c3.5,0.6,6.9,0.7,10.2-1.4c2.4-1.5,3.5-3.7,3.2-6.2
		c-0.3-3.1-4.1-4.9-6.8-3.5c-1.1,0.5-2.2,1.3-2.6,2.6c-0.4,0.8-0.8,1.5-1.1,2.2C530.3,407.5,528.5,409.8,524.8,409.7z M511.8,378
		c0-0.1-0.1-0.3-0.1-0.4c-0.1,0.1-0.1,0.2-0.1,0.4C511.6,378,511.7,378,511.8,378z M511.7,377.6L511.7,377.6
		C511.7,377.5,511.7,377.5,511.7,377.6C511.7,377.5,511.7,377.6,511.7,377.6L511.7,377.6z M529.3,387c-0.3-0.9-1.3-1.1-2-0.5
		c-0.4,0.4-0.6,0.7-0.7,1.1c-0.8,2.5-2,4.6-4.1,6.4c2.7-0.1,6.1-2.8,6.8-5C529.5,388.2,529.4,387.6,529.3,387z M539.4,413.1
		c3.9,0.5,7.6,1,10.6-2.3c1.8-1.9,1.9-4.5,0.5-6c-2-2.1-4.9-1.6-5.9,1.2c-0.4,1.2-0.7,2.5-1.3,3.7
		C542.2,411.8,541.6,412.4,539.4,413.1z M552.1,413.9c1.2,0.1,3.2-0.4,4.6-1c2.6-1.4,3.3-3.4,1.8-5.5c-1-1.4-2.6-1.4-3.7-0.1
		c-0.5,0.7-1,1.5-1.2,2.3c-0.4,1.3-0.7,2.6-1.8,3.6C551.4,413.7,551.4,413.9,552.1,413.9z M550.5,396.1c1.8,1.3,3.2,3.2,5.6,3.2
		c0.7,0.1,1.4-0.1,1.8-0.7c0.5-0.7,0.5-1.2-0.4-1.6c-0.2-0.1-0.4-0.2-0.5-0.2C554.8,396.7,552.6,396.9,550.5,396.1z M561.4,392.4
		c-1.1,0.3-2.2,0.5-3.3,0.8c3.7,0.6,7.4,1.8,10.9-0.4c0.1-0.1,0.1-0.1,0.3-0.1c1.1-0.7,1.8-2.4,1.1-3c-0.9-1-2-1-3.1-0.3
		C565.4,390.6,563.6,391.8,561.4,392.4z M568.6,384.6c1.9-1.3,3.7-2.8,5.2-4.7c1.5-1.8,2.2-3.9,1.3-6.2c-0.7-2-3-2.5-4.3-0.9
		c-0.5,0.6-1,1.4-1.1,2.2c-0.4,4.1-1.8,7.9-4.6,11.2c-0.1,0.1-0.3,0.3-0.1,0.6C566.6,386.4,567.5,385.3,568.6,384.6z M569.2,364.2
		c-0.4-1.8-1.1-3.2-2.5-4.3c-0.7-0.5-1.6-0.9-2.5-0.5s-1,1.4-1,2.3c0.1,0.7,0.2,1.6,0.5,2.2c2,3.9,3.5,7.8,3.2,12.3
		C568.5,372.3,570,368.5,569.2,364.2z"/>
	<path class="st1" d="M351.5,382.5c3.2,5.2,7.7,9.1,12.5,12.7c4.1,3.1,8.7,5.4,13.4,7.4c8.2,3.2,16.7,4.9,25.4,5.4
		c1.8,0.1,3.7,0.6,5.5,0.6c0.4,0,1-0.1,1,0.4c0.1,0.5-0.5,0.4-0.8,0.5c-3.1,1.1-6.2,1.8-8.7,4.1c-5.1,4.6-8.5,9.8-6.9,16.9
		c1.8,8.3,10.9,14,18.9,9.7c4.1-2.1,7.3-7.3,5.1-12.9c-1.2-3.2-3.7-5.4-7.1-6c-3.1-0.5-5.7,0.4-7.6,2.9c-3,3.9-1.1,9,3.7,10
		c3.1,0.7,6.1-2.4,5.3-5.4c-0.4-1.4-2.1-2.6-3.4-2.5s-2.2,1.1-2.5,2.4c-0.1,1.1,0.7,1.6,1.6,1.8c1,0.3,1.1-0.5,1.4-1.4
		c-0.7,0.1-1.2,1.1-1.8,0.3c-0.4-0.5-0.3-1,0.1-1.4c0.5-0.7,1.2-1,2-0.5c1.4,0.7,2,1.9,1.5,3.2c-0.5,1.4-2.4,2.5-3.8,2.1
		c-2-0.4-3.8-2.5-3.9-4.5c-0.1-2.1,1.8-4.6,3.9-5.1c3.1-0.7,5.6,0.4,7.5,2.8c1.8,2.3,2.2,4.9,0.9,7.5c-2.7,5.6-10.1,7-15.1,3.1
		c-5.6-4.4-6.2-11.5-2.8-17.2c2.9-4.9,7.6-7.5,12.6-9.7c4-1.8,8.2-1.2,12.4-1.7c0.7-0.1,1.4-0.1,2-0.2c0.4,0,0.7-0.4,1,0.1
		c0.2,0.4-0.2,0.5-0.4,0.9c-1.6,2-1.8,4.8-0.5,6.8c1.1,1.7,3.2,2.1,4.3,0.9c-2.1,0.6-3.9-0.5-4.3-2.7c-0.5-3.7,1.4-6,5.2-6.3
		c2.5-0.4,4.7-1,7-1.8c4.5-1.3,9-2.4,13.2-3.9c5.1-1.9,10.1-4.1,14.7-6.9c4.6-2.7,8.6-5.8,12.5-9.4c6-5.6,10.7-12.1,14.2-19.5
		c0.1-0.3,0.1-0.6,0.7-0.6c0.1,2.8,0.1,5.6,0.5,8.5c0.7,5.2,2,10.3,4.1,15.1c3.2,7.2,7.7,13.2,13.6,18.4c6.6,5.9,14.2,9.7,22.9,11.8
		c6.2,1.5,12.5,2,18.9,1.1c5.4-0.8,10.6-2.5,15.4-5.3c10.9-6.4,17.8-15.7,20.6-28.1c1.6-7,1.1-13.9-1.4-20.5
		c-2.7-6.9-7.3-12.6-13.6-16.8c-7-4.6-14.7-6.8-23-6c-13.6,1.2-24.6,12.8-25.2,26.5c0,0.4,0.2,1-0.3,1.1s-0.8-0.4-1.1-0.7
		c-5.4-5-14-2.6-16,4.3c-1.1,4,1.2,8.5,5.1,9.4c2.3,0.5,4.7-0.2,6.3-2.3c1.5-2,1.6-4.1,0.3-6.1c-1.5-2.4-4.8-2.4-6.2-0.1
		c-0.3,0.4-0.6,0.9-0.2,1.4c0.2-0.2,0.4-0.4,0.4-0.5c1-1.6,2.5-2.3,3.8-1.8c1.6,0.7,2.6,2.8,2.2,4.6c-0.6,2.3-2.5,4.1-5.1,4.1
		c-2.2-0.1-4.7-1.9-5.4-4.1c-1.3-4.1,0.5-7.3,3.9-9.4c3.3-2.1,7.9-1.4,10.5,1.6c4.9,5.6,3.6,13.3-2.5,17.5
		c-6.7,4.7-13.8,2.6-18.9-2.5c-2.9-2.9-4.3-6.4-4.9-10.4c-1.1-7.2-1.6-14.4-0.3-21.6c2-10.5,6-20.3,11.9-29.1
		c6.1-9.1,13.6-16.9,22.2-23.8c4.7-3.7,9.4-7.1,14.6-10c0.7-0.4,1.5-1,2.2-1.4c0.2-0.1,0.4-0.4,0.7-0.1s0.1,0.4,0,0.7
		c-2.2,4.6-0.7,8.6,1.8,12.5c2.1,3.2,7.6,4.3,11.4,2.5c3.6-1.8,5.1-6.1,3.7-10.2c-0.5-1.6-1.4-3.1-2.8-3.9c-1.4-1-3.4-0.9-4.6,0.1
		c-1.2,1-1.8,3.2-1.3,4.6s1.5,1.8,3.2,1.5c0-0.4-0.4-0.4-0.6-0.4c-1.4-0.4-2-1.2-1.7-2.5c0.4-1.4,1.6-2.4,2.9-2.1
		c0.7,0.1,1.4,0.5,1.8,1.1c1.6,1.9,1.8,4.2,1.2,6.4c-0.5,1.8-1.8,3.2-3.7,3.6c-5.3,1.2-9.1-1.4-10.3-6.7c-1-4.7,0.9-8.2,4.7-10.4
		c5.2-2.8,10.5-5.2,16.1-7.3c1.1-0.4,2.3-1.1,3.5-1.7l-0.4-0.7c-2.4,1.4-4.9,2-7.4,3.1c-2,0.9-4.1,1.6-6.2,2.5
		c-4.9,2.1-9.8,4.6-14.4,7.2c-8.1,4.7-15.9,9.9-22.8,16.1c-4.7,4.3-9.1,8.9-13.1,13.9c-0.3,0.4-0.5,0.7-1,0.8
		c-2.8,0.5-5.5,1.1-8.3,0.7c-3.9-0.5-8.1-4.2-9.3-8c-1-2.9-1.1-5.8,0.2-8.6c0.1-0.1,0.1-0.2,0.1-0.4s-0.1-0.1-0.3-0.5
		c-1.6,2.8-2.1,5.6-1.1,8.5c2.7,8.8,9,11.5,17.7,10c-0.4,1-1,1.1-1.4,1.2c-5.4,2.2-11.9,0.6-15.8-3.7c-2.5-2.6-4.2-5.6-4.2-9.4
		c0-1.8,0.6-3.4,1-5.2c-0.2-0.1-0.4-0.1-0.4-0.2c-1,2.7-2,5.5-1,8.4c2.6,7.9,9.8,13.9,18.9,11.8c0.4-0.1,0.6-0.3,0.8,0
		c0.3,0.4-0.1,0.6-0.3,1c-1.4,3-3.9,5-6.5,7c-2.7,2.2-5.6,4.3-9,5.7c-7.4,3.2-14.8,4.7-22.9,2.1c-6.8-2.3-11.4-6.8-13.7-13.6
		c-2.3-6.8-1.6-13.3,2.8-19.1c3.9-5.3,11.3-7.7,17.2-5.8c6.8,2.2,10.4,9.2,9.1,16.1c-1,5.6-6,9.1-10.9,9c-3.4-0.1-6.6-2.4-7.5-5.8
		c-1-3.2-0.7-6.6,2.4-8.8c1.4-1.1,4.5-1.4,5.9-0.6c2,1.1,2.5,3.1,2.5,5.1c-0.1,1.8-1.8,3.2-3.6,3.1c-1.6-0.1-2.5-1.4-1.9-2.9
		c0.4-1,1.1-0.6,2-0.7c-1.4-0.7-2.3-0.4-2.5,0.8c-0.4,1.2,0.4,2.9,1.2,3.3c1.1,0.5,3.6,0.2,4.4-0.7c1.7-1.8,1.8-5.1,0.4-7
		c-1.6-2.2-4.7-3-7.4-1.8c-4.1,1.8-5.8,6-4.6,10.4c1.8,6.8,9.1,8.4,14.2,6c6.8-3.1,9-10.6,6.6-17.4c-2.6-7.5-9-11.1-16.1-10.4
		c-7.8,0.7-13.1,5.2-15.7,12.3c-4.1,11.1,1.1,23.7,11.7,28.8c7,3.4,14.2,3.2,21.5,1c6-1.9,11.2-5.2,15.9-9.4
		c0.1-0.1,0.3-0.1,0.4-0.1c0.4,0.4,0.1,0.6-0.1,1c-3.5,6.6-5.5,13.6-7.3,20.9c-1,4.1-2.9,7.9-5,11.5c-3.6,6.3-8.2,11.7-13.7,16.4
		c-3.5,3-7.5,4.6-11.9,4.9c-8.9,1-16.2-1.8-21.8-9c-3.3-4.3-4.2-9.5-3.2-14.8c1-5,3.3-9.2,7.4-12.4c7.5-5.8,17.5-3.8,22.1,3.3
		c2.5,3.9,2,8.2-0.1,12.3c-1.1,2-2.6,3.5-4.7,4.7c-3.2,1.8-8.5,1.1-11.3-2.5c-2.5-3.2-0.9-9.1,3.1-10.6c1.7-0.5,5.1,0.6,6,2.1
		c0.4,0.8-0.4,3.3-1.4,4.2c-0.9,0.7-1.6,0.5-3-0.9c0.1,1,0.7,1.7,1.7,1.9c1,0.4,1.6-0.2,2.2-0.8c1.1-1.4,2-3,1.1-4.7
		c-1-1.8-2.8-2.8-4.9-3c-2.8-0.2-5.3,1.8-6.5,5c-1.8,4.7,0.4,9.1,5.4,11c5.4,2,10.4,0.2,13.9-5.4c3.2-4.9,3.1-11.7-0.7-16.1
		c-3.9-4.7-9-6.8-15.1-6.1c-7.5,0.9-12.5,5.4-15.7,12c-2.6,5.4-3,11.1-1.1,16.7c1.8,5.3,5.3,9.3,10,12.1c5,3.1,10.4,4.3,16.2,3.8
		c0.4-0.1,0.7-0.1,1.1-0.1c0.1,0.4,0,0.5-0.1,0.5c-5.3,3.3-10.9,6-16.8,8.1c-2.9,1.1-5.3-0.4-7.3-2.2c-2.4-2.2-2.8-5.2-2.5-8.3
		c-0.1,0.1-0.2,0.1-0.2-0.1c-1,1.8-0.8,3.7-0.1,5.5c1.1,3.1,3.2,5.1,6.3,6c-1.1,1.2-2.2,1.4-3.8,0.5c-4.7-2.5-6.8-8.2-4.7-13.2
		c0.1-0.3,0.1-0.5-0.1-0.7c-1.9,1.5-1.8,5.4-1.1,7.5c0.8,2.8,2.5,5,5,6.7c0.3,0.2,0.7,0.4,0.6,0.7c-0.1,0.4-0.4,0.4-0.7,0.4
		c-0.1,0-0.1,0-0.1,0c-3.1,0.9-3.6,0.7-5.2-2.2c-0.4-0.7-0.7-1.7-1.4-2.2c-1.1-0.9-2.8-1-3.9-0.2c-1,0.8-1.4,2.5-0.9,3.9
		c0.4,0.8,0.9,1.5,1.6,2c0.3,0.2,0.7,0.4,0.6,0.7c-0.1,0.4-0.5,0.3-0.9,0.4c-0.9,0.2-1.8,0.4-2.6,0.5c-4.6,1.2-8.1-0.6-11.3-3.4
		c-6.4-5.4-6.8-15.4-1-21.1c4.6-4.6,12.3-4.6,16.3,0.1c2.3,2.8,2.6,6,1.4,9.4c-1.1,3-3.2,4.8-6.4,5.2c-2.8,0.4-5.4-1.1-6.6-3.5
		c-1-2-0.4-4.9,1.3-6.5c1.4-1.4,4.2-1.4,5.5-0.2c1.4,1.3,1.4,3,0.2,4.7c0,0.3,0,0.4,0,0.7c1.6-1.1,2-2.6,1.5-4.5
		c-0.5-1.6-2.3-2.6-4.3-2.7c-3.5-0.1-5.8,3.2-5.4,6.8c0.4,5.2,6,6.9,9.6,5.8c6.1-1.8,7.7-9,5.8-13.6c-3.2-7.6-13.6-8.5-19.1-3.4
		c-7.1,6.5-6.5,18.2,1.2,24.1c1,0.7,1.9,1.4,3,1.9c0.4,0.1,0.8,0.1,0.7,0.5c-0.1,0.5-0.6,0.4-1,0.4c-3.2,0.2-6.5,0.1-9.8-0.1
		c-8.1-0.4-16-1.8-23.6-4.6c-9.7-3.5-18.3-8.8-24.9-16.8c-6.4-7.6-10.3-16.4-10.3-26.5c0-11.4,4-21.1,12.1-29.1
		c6.2-6.3,13.8-9.8,22.6-10c10.3-0.4,18.8,3.5,24.9,11.6c4.7,6.2,5.8,13.6,3.7,21.3c-1.7,6-4.9,10.7-9.8,14.3
		c-9.1,6.8-21.4,4.5-27.5-4.1c-3.7-5.3-3.2-12.5,1-18.1c3-4,6.8-6.4,11.9-5.6c3.3,0.5,6.2,2,8.1,4.9c2.1,3.2,1.6,7.5-1.2,10.6
		c-2.9,3.2-6,3.6-9.3,0.9c-2-1.7-2.2-3.1-0.7-5.4c1.8-3,3.9-2,5.2,0.4c0.4-1.4-0.4-2.1-1.4-2.6c-1.1-0.7-2.4-0.8-3.3,0.4
		c-0.7,0.7-1.4,1.7-1.9,2.5c-1,1.6-0.4,3.7,1.1,5.2c3.1,3,7.5,3.9,11.2-0.1c3.7-3.9,4.4-8.5,2.1-12.5c-3.1-5.5-11.1-7.9-16.9-5.3
		c-7.5,3.4-12,12.6-10.2,20.6c1.4,6,5.3,9.9,10.4,12.5c6.8,3.4,13.7,3.2,20.4-0.1c4.2-2.1,7.5-5.4,10.1-9.3
		c4.7-7.3,6.4-15.2,4.1-23.7c-2-7.5-6.6-13.2-13.1-17.2c-9.6-6-19.8-6.7-30.3-2.8c-6.1,2.3-11.3,6.1-15.5,11.1c-4,4.7-7.2,10-9,15.9
		c-2.6,9-2.5,17.9,0.4,26.8C346.9,375.4,349.1,378.9,351.5,382.5z M499.3,387c0.4,0.4,1,0.9,1.4,1.3c2.5,2.5,5.4,4.1,8.9,4.8
		c6.2,1.3,14-3.1,16.1-9c0.3-0.7,0.1-2,1-2.1c0.8-0.1,0.8,1.1,1.4,1.7c0.1,0.1,0.2,0.1,0.2,0.2c3.5,4.7,8.2,7.7,14,9
		c4.1,1,8.2,0.9,12-1c5.5-2.6,8.8-7.1,9.8-13.2c0.6-3.3,0.1-6.6-2.1-9.4c-2.2-2.8-4.9-4.3-8.2-5.2c-4.7-1.4-9,0.4-11.2,4.9
		c-1,2.1-1.5,4.3-0.5,6.5c1.1,2.5,3.3,3.2,5.8,3.6c2.6,0.4,4.9-2.1,4.1-4.7c-0.3-0.8-0.8-1.1-1.8-1c0.3,0.6,0.9,0.4,1.1,0.8
		c0.5,1.1-0.5,3.5-1.8,3.9c-2.2,0.7-6.1-1.4-6.5-3.8c-0.5-3.3,1.7-8.5,6.6-9c2.5-0.4,4.9,0.4,7.1,1.8c2.8,1.7,4.9,3.9,5.4,7.4
		c0.9,6.7-4.1,14.3-10.9,15.9c-5.6,1.2-10.6-0.2-15.2-3.2c-3.9-2.5-6.7-6-7.9-10.4c-1.2-4.3-0.9-8.6,0.7-12.7
		c3.6-9.4,10.4-14.7,20.4-16.2c5.4-0.7,10.4,0.4,15.3,2.4c6.4,2.6,11.5,6.8,15.1,12.6c5,8.1,5.8,16.7,3.2,25.7
		c-2.8,9.9-9,17.3-17.7,22.6c-6,3.6-12.6,5.4-19.7,5.6c-6.1,0.1-12-1-17.8-3.1c-5.6-2-10.6-5-15.3-8.9c-4.4-3.7-7.9-8.2-10.9-13
		c-1-1.5-1.6-3.2-2.5-4.7C499.1,387,499.1,387,499.3,387z M511.7,377.5L511.7,377.5L511.7,377.5L511.7,377.5z"/>
	<path class="st1" d="M525.5,300.5c-3.8,3.1-7.9,5.4-13.2,4.1c-2.6-0.6-4.3-2-5.1-4.5c-1-2.8-0.1-5.3,2.2-6.8
		c2.2-1.5,4.6-1.7,6.9-0.4c1.1,0.6,2.3,1.4,3.5,1.8c3.2,1.3,6.3,2.5,9.6,0.3c0.5-0.4,1-1,2-1.2C529.6,296.5,527.8,298.6,525.5,300.5
		z"/>
	<path class="st1" d="M521.8,315.3c-1.1,1.9-1.6,3.9-1,6c0.7,2.7,2.2,5,3.9,7.3c2.1,2.7,1.6,7.3-1.1,9.1c-3.4,2.5-7.6,0.7-9.1-2
		c-1.6-2.7-1.8-5.8-1-9c1.4-5.4,5-9.1,9-12.8C522.2,314.4,522,314.9,521.8,315.3z"/>
	<path class="st1" d="M482.9,365.8c-2.3,4.1-4.6,8.2-8.1,11.4c-2.5,2.2-5.2,3.6-8.6,3.1c-1.2-0.2-2.5-0.6-2.8-1.9
		c-0.4-1.4,0.1-2.7,1.1-3.7c1.1-1.1,2.5-1.8,3.9-2.2c3.5-1.2,6.8-2.8,9.9-4.9c2.1-1.4,3.9-3.2,5.9-4.9
		C484.1,363.8,483.4,364.8,482.9,365.8z"/>
	<path class="st1" d="M553,315.8c-1,4.8-2,9.6-4.1,14c-1.1,2.5-2.8,4.4-5.4,5.4c-1.8,0.7-3.6,1-5.4-0.3c-1.8-1.3-1.5-4.5,0.7-6.2
		c1.9-1.6,4.3-2.5,6.2-4.1c3.2-2.6,5.8-5.6,7.7-9.7C553,315.7,553,315.8,553,315.8z"/>
	<path class="st1" d="M551,313.1c-2.7,3.7-5.6,7.1-9.5,9.6c-2.9,1.8-6.1,2.8-9.6,2c-1.7-0.4-3.4-1.7-3.4-2.8
		c-0.1-1.8,1.1-2.5,2.5-3.2c1.3-0.6,2.7-0.6,4.1-0.7c5-0.4,9.8-1.3,14-4.3c0.6-0.4,1.2-0.7,2.1-1.3C551.1,312.9,551.1,313,551,313.1
		z"/>
	<path class="st1" d="M508.9,313.6c-3.7,0.9-7.4-0.8-8.7-3.9c-1.2-2.8,0.4-5.6,3.5-6c2-0.3,3.2,1,4.7,2.2c2.6,2.2,5.3,4.1,9,2.5
		C514.9,310.7,512.3,312.8,508.9,313.6z"/>
	<path class="st1" d="M512.7,337.9c0.5,0.5,1.1,1.1,1.8,1.8c1.3,1.4,1.6,3.1,1,4.9c-0.5,1.7-2,2.6-4,2.6c-3.3,0.1-5.4-2.5-5.9-6.1
		c-0.7-4.7,1.8-8.2,4.3-11.7C508.4,333,510.3,335.4,512.7,337.9z"/>
	<path class="st1" d="M382.1,382.4c1.3,2.6,1.3,5.2,0.4,7.8c-0.6,1.6-2,2.5-3.6,2.6c-1.6,0.4-3.1-0.5-3.8-1.8
		c-1.1-1.9-1-3.7,0.1-5.1c0.7-1,1.4-1.8,2-2.8c1.1-1.8,1.7-3.7,0.7-5.8c-0.1-0.3-0.1-0.5-0.2-1.1C379.7,378.1,381,380.1,382.1,382.4
		z"/>
	<path class="st1" d="M452.9,340.9c-3.2-2.9-7.3-4.3-11.5-5.1c-1.1-0.2-2-0.4-2.9-1c-1.1-0.7-1.8-1.7-1.6-3.1
		c0.2-1.4,1.1-2.2,2.5-2.5c1.8-0.4,3.4-0.2,4.9,0.7c2.6,1.5,4.6,3.8,6.2,6.2c1.1,1.6,2.3,3.1,2.9,5.1
		C453.3,341.2,453.1,341.1,452.9,340.9z"/>
	<path class="st1" d="M452.8,344.4c-4.4-1.4-8.8-0.7-13.1,0.5c-1.6,0.5-3.1,1-4.7,0.3c-1.3-0.5-1.8-1.8-1-3c0.8-1.4,2.1-2.2,3.7-2.6
		c3.9-1.1,7.5,0.2,10.9,1.8c1.6,0.8,3.2,1.6,4.7,2.7C453.3,344.5,453,344.5,452.8,344.4z"/>
	<path class="st1" d="M391.1,413.3c-3.3,1.4-6.8,2.5-10.4,1.8c-2.5-0.4-4.3-1.5-5.4-3.7c-1-1.8,0.1-3.4,2.1-3.5
		c1.3,0,2.4,0.5,3.4,1.1c3,2,6.3,3.1,9.9,2.9c1.4-0.1,2.6-0.4,4.3-0.5C393.7,412.7,392.4,412.9,391.1,413.3z"/>
	<path class="st1" d="M565,328.7c0.7,0.7,1.1,1.8,1.2,2.9c0.1,1.6-1,2.6-2.5,2.2c-2.5-0.5-3.9-2.4-4.7-4.7
		c-1.4-3.9-1.1-7.9-1.1-11.8c0-0.3,0.1-0.5,0.3-1.1C559.4,321.1,561.7,325.1,565,328.7z"/>
	<path class="st1" d="M373.1,418.8c0.2-0.8,0.1-1.4-0.5-2c-0.7-0.6-1.5-0.5-2.2-0.1c-2.3,1.1-3.3,4.1-2.3,6.1
		c1.3,2.5,4.7,3.4,6.9,2.1c1.6-1,2.8-2.2,4.3-3.3c2.5-1.8,4.6-4.2,7.4-5.4c0.5-0.2,1-0.7,1.7,0c-1.9,1-3.6,2-5,3.3
		c-2.3,2.2-4.7,4.4-7.1,6.4c-2,1.8-4.6,1.8-6.8,0.6c-2.3-1.1-3.6-3.2-3.3-5.9c0.3-2.5,1.8-4.2,4.1-5.3c1.2-0.5,2.7-0.1,3.5,1
		c0.7,1,0.5,2.5-0.3,3.6c-0.7,0.8-1.4,1-2.3,0.1C372.2,420.1,372.8,419.7,373.1,418.8z"/>
	<path class="st1" d="M499.1,320.4c-3.5,0.4-6-1.7-5.7-4.7c0.2-2.2,1.8-3.2,3.9-2.6c1.1,0.4,2,1.1,3,1.8c1.6,1.1,3.1,2.5,5.4,2.6
		C503.5,318.6,501.6,320.1,499.1,320.4z"/>
	<path class="st1" d="M504.2,346.4c0.9,0.9,1.7,1.8,2.5,2.7c1.1,1.6,1.2,3.5-0.2,4.6c-1.7,1.4-4.7,0.9-5.8-1
		c-1.6-2.8-1.1-7.4,1.6-10.4C502.2,344.1,503.1,345.2,504.2,346.4z"/>
	<path class="st1" d="M479.9,362.4c-1.8,1.1-3.9,1.6-6,0.6c-1.4-0.5-1.7-1.8-1-3c1-1.6,2.6-1.8,4.2-1.9c2.5-0.4,4.9-1,7.2-2.2
		c1.1-0.6,2.3-1.3,3.4-1.9C485.5,357.1,483.3,360.2,479.9,362.4z"/>
	<path class="st1" d="M389.1,378.9c2.2,1,4,2.5,5.1,4.6c0.9,1.8,0.5,3.8-0.8,4.6c-1.4,0.9-3.4,0.4-4.6-1.3c-0.4-0.5-0.5-1.1-0.6-1.9
		c-0.4-2.6-0.6-5.4-3.2-7C386.4,377.9,387.8,378.4,389.1,378.9z"/>
	<path class="st1" d="M372.9,377.1c0.4,2.3-0.2,4.3-1.7,6c-1.4,1.6-4.3,1.6-5.4,0c-1.1-1.5-0.4-3.7,1.7-4.9c2.1-1.3,3.9-2.8,3.7-5.7
		C372.1,373.9,372.5,375.5,372.9,377.1z"/>
	<path class="st1" d="M508.4,408.2c2,2.5,3.9,5.1,5.2,8.1c0.7,1.8,0.7,3.6-0.1,5.4c-0.4,0.8-1.1,1.3-1.9,1.4
		c-0.9,0.1-1.4-0.6-1.8-1.4s-0.5-1.7-0.4-2.6c0.1-1.8,0.1-3.8-0.1-5.6c-0.3-1.9-0.9-3.7-1.6-5.4C507.9,407.8,508.2,408,508.4,408.2z
		"/>
	<path class="st1" d="M385.8,425.5c-0.5,1-1.1,1.8-1.8,2.5c-1.1,1.3-3.1,1.8-3.9,1.1c-0.7-0.5-0.6-2.7,0.4-3.9
		c2.8-3.6,6.8-5.4,11-7.1C389,420.2,387.4,422.8,385.8,425.5z"/>
	<path class="st1" d="M403.9,396.9c-2.1-2.4-4.6-4.5-5.8-7.5c-0.7-1.8-0.7-3.5,0.6-5.1c1.1-1.2,2.9-1,3.5,0.6c0.2,0.4,0.4,1,0.3,1.4
		c-0.1,3.6,0,7,2,10.4C404,396.9,403.9,396.9,403.9,396.9z"/>
	<path class="st1" d="M492.4,343.2c-1.7,2.1-3.5,4.2-5.6,5.9c-1.6,1.2-3.5,1.9-5.6,1.1c-1.6-0.5-1.8-2-0.6-3.2
		c0.7-0.7,1.6-1,2.5-1.1c3.5-0.4,6.7-1.7,9.7-3.9C492.6,342.8,492.5,343,492.4,343.2z"/>
	<path class="st1" d="M405,378.2c0.7-1.5,1.8-2.5,3.2-3.1c1.4-0.5,2.5,0.3,2.2,1.8c-0.1,0.5-0.3,1.1-0.6,1.6
		c-2.4,2.8-4.4,5.8-5.1,9.7C404,384.9,403.5,381.5,405,378.2z"/>
	<path class="st1" d="M360.8,346.7c-0.3-1.5,0.2-2.7,1.1-3.9c0.7-0.8,1.4-0.8,2.2-0.5c0.8,0.3,1.1,1,1.1,1.8s-0.2,1.6-0.5,2.3
		c-0.6,1.8-1,3.5-1,5.3c0,0.8,0.4,1.7,0,2.8C362.3,351.8,361.2,349.4,360.8,346.7z"/>
	<path class="st1" d="M490.9,300.8c0-1.4,0.5-2.3,1.8-2.8c0.9-0.4,1.8-0.4,2.5,0.4c1,0.8,1.1,1.8,0.7,3.1c-0.5,1.8-1.1,3.7,0.7,5.7
		C493.1,306,491,303.6,490.9,300.8z"/>
	<path class="st1" d="M521.6,421.9c1,1.3,1.4,2.7,1.1,4.4c-0.1,1.1-0.5,2-1.7,2c-1.1,0-1.8-0.9-1.9-2c-0.2-3.2-0.5-6.4-2.2-9.3
		C518.8,418.3,520.2,420.1,521.6,421.9z"/>
	<path class="st1" d="M368.3,339.9c0.5-1,1.2-1.8,2-2.5c1.1-1,3.1-0.9,3.6-0.1s0.1,1.9-1.2,2.9c-0.2,0.1-0.4,0.2-0.5,0.4
		c-1.6,1.1-3,2.4-4.1,3.9c-0.6,0.7-0.8,1.8-1.8,2.6C366.6,344.4,367.1,342.1,368.3,339.9z"/>
	<path class="st1" d="M446.2,375.2c0.4,0.9,0.1,1.9-1,2.5c-0.9,0.4-1.7,0.1-2.4-0.6c-0.8-0.7-1-1.8-1-2.6c0.1-2.9,1.5-5.4,2.9-7.8
		C444.6,369.5,445.2,372.4,446.2,375.2z"/>
	<path class="st1" d="M565.7,319.3c0.5,0.4,1,0.7,1.4,1.3c0.5,0.6,0.7,1.4,0.2,2.2c-0.5,0.9-1.1,0.7-1.9,0.5c-1.1-0.3-2-1-2.5-1.8
		c-1.7-2.5-2-5.4-2.3-8.4C561.7,315.5,563.6,317.5,565.7,319.3z"/>
	<path class="st1" d="M505.8,409.2c0.3,0.6,0.1,1.4-0.2,2c-0.4,0.9-1,1.1-1.9,0.5c-1-0.6-1.5-1.6-1.8-2.6c-0.7-2.7-1.4-5.4-2.7-8.1
		C502.3,403.1,504.5,405.8,505.8,409.2z"/>
	<path class="st1" d="M453.5,379.5c0.5,0.4,0.7,0.8,1,1.2c0.3,0.5,0.4,1,0.1,1.6c-0.4,0.6-1,0.6-1.6,0.5c-1.1-0.1-2.1-0.7-2.9-1.6
		c-2-2.2-2.2-5.1-2.6-7.9C449,375.9,451.1,377.8,453.5,379.5z"/>
	<path class="st1" d="M438.2,392.4c0.8-0.5,2.3-0.1,3.1,1.1c0.6,0.9,1.1,1.8,1.8,2.6c0.4,0.5,1.4,0.7,1.1,1.3
		c-0.4,0.7-1.4,0.3-2.1,0.5c-0.4,0.1-0.7,0.1-1.1,0c-1.4-0.2-2.7-0.7-3.5-1.8C436.8,394.7,437.1,393.1,438.2,392.4z"/>
	<path class="st1" d="M404.6,403.3c-1.8-0.2-3.2-0.9-4.5-2c-0.9-0.8-1.2-1.8-0.5-2.7c0.7-1,1.8-0.5,2.5,0.2c2,2,4.1,3.9,6.8,4.8
		C407.5,403.8,406,403.5,404.6,403.3z"/>
	<path class="st1" d="M393.5,440.9c1.2,1.3,1.3,2.4,0.4,3c-1,0.7-2.4,0.2-3.2-1.1c-0.2-0.4-0.4-0.6-0.4-1c-0.4-2.1-0.4-4.2-0.1-6.4
		C391.1,437.6,391.9,439.4,393.5,440.9z"/>
	<path class="st1" d="M397.6,377.3c0.8,0.7,1.1,1.7,0.5,2.6c-0.6,1-1.6,0.9-2.5,0.4c-0.4-0.2-0.7-0.4-1-0.6c-1-1.3-2.1-2.4-3.9-2.9
		C393.2,375.4,396,375.8,397.6,377.3z"/>
	<path class="st1" d="M401.1,442.6c0.9,0.2,1.7,0.6,1.4,1.7c-0.3,1.1-1.1,1.1-2,1c-2.5-0.3-5.3-2.6-5.8-5.4
		C396.7,441.5,398.9,442,401.1,442.6z"/>
	<path class="st1" d="M362.2,359.5c-1.3-0.7-2.5-1.6-3-3.1c-0.3-0.7-0.3-1.5,0.5-1.9s1.6,0,1.9,0.6c1.1,2.2,2.5,4.1,4.3,5.8
		C364.5,360.7,363.3,360.2,362.2,359.5z"/>
	<path class="st1" d="M446.9,359.9c-1.7,1.5-3.1,3.2-3.9,5.2c-0.4,0.7-0.8,1.3-1.8,1c-1-0.4-0.9-1.1-0.6-2c0.2-0.8,0.6-1.6,1.2-1.9
		c1.5-1,3.2-1.7,4.7-2.5C446.7,359.7,446.8,359.8,446.9,359.9z"/>
	<path class="st1" d="M364.6,371.2c1-0.7,1.9-1.5,2.9-2.2c0.4-0.4,0.6-0.1,0.7,0.4c0.2,1.5,0.2,2.9-1,4.1c-0.9,1-2.6,0.7-3.2-0.4
		C363.9,372.3,364,371.7,364.6,371.2z"/>
	<path class="st1" d="M388.5,435.2c-0.1,0.6-0.3,1.4-1.1,1.2c-0.8-0.1-1.1-0.7-1.1-1.4c0-0.5,0.1-1,0.3-1.4c0.6-1.5,1.8-2.6,3.1-3.6
		C388.8,431.8,388.6,433.4,388.5,435.2z"/>
	<path class="st1" d="M365.2,365.5c-0.5-0.4-1.1-0.7-0.7-1.5c0.4-0.6,1.1-0.5,1.6-0.2c1.1,0.7,2.5,1.2,3.7,1.7
		C368.2,365.9,366.6,366.3,365.2,365.5z"/>
	<path class="st1" d="M447.1,356.9c-0.5,0.4-1.1,0.6-1.5-0.1c-0.3-0.6,0.2-1.1,0.7-1.4c1.5-0.8,3-0.4,4.6,0.1
		C449.5,355.9,448.2,356.3,447.1,356.9z"/>
	<path class="st1" d="M419.4,390.6c-0.5-0.8-0.1-2.4,1-2.9c0.3,0.4-0.1,0.5-0.2,0.8c-0.5,1.4-0.1,2.1,1.5,2.2
		c0.5,0.1,1.1-0.1,1.6-0.4c0,0.3,0,0.5,0,0.7C422,391.7,420.1,391.5,419.4,390.6z"/>
	<path class="st1" d="M389,427.6c-0.4,0.4-0.6,1.1-1.3,0.5c-0.5-0.4-0.2-1,0.1-1.5c0.6-1.1,1.8-1,3-1.1
		C390.3,426.2,389.6,426.9,389,427.6z"/>
	<path class="st1" d="M435.1,389c0.1-1.7,1.2-3.2,2.7-3.3c-1.3,1-1.8,2.3-2.5,3.4C435.3,389.1,435.2,389.1,435.1,389z"/>
	<path class="st1" d="M515.1,379.5c-1.8,1.4-2.9,1.1-3.2-0.9C512.7,379.6,513.7,379.8,515.1,379.5z"/>
	<path class="st1" d="M486.3,303.3c0.1,1.2-0.6,1.9-0.9,2.7c-0.2-0.1-0.4-0.1-0.4-0.2C485,304.9,485.6,304.2,486.3,303.3z"/>
	<path class="st1" d="M490,303.9c0.1,0.1,0.1,0.1,0.1,0.2c-0.1,0-0.1,0-0.1,0C489.9,304,489.9,304,490,303.9
		C489.9,303.9,490,303.9,490,303.9z"/>
	<path class="st1" d="M421.4,387.9c0.1,0,0.1,0.1,0.2,0.1c-0.1,0.1-0.1,0.2-0.2,0.2s-0.1-0.1-0.2-0.1
		C421.2,388.1,421.3,388,421.4,387.9z"/>
	<path class="st1" d="M511.7,377.5c0,0.1,0.1,0.3,0.1,0.4c-0.1,0-0.1,0-0.2,0C511.6,377.8,511.6,377.7,511.7,377.5L511.7,377.5z"/>
	<path class="st1" d="M515,378.8L515,378.8C515.1,378.8,515.1,378.8,515,378.8L515,378.8L515,378.8z"/>
	<path class="st1" d="M532,404.9c0.4-0.7,1-1.4,1.1-2.2c0.5-1.3,1.5-2,2.6-2.6c2.6-1.3,6.4,0.4,6.8,3.5c0.3,2.5-1,4.7-3.2,6.2
		c-3.2,2-6.7,2-10.2,1.4c-1.5-0.3-3-0.4-4.3-1.4C528.5,409.8,530.3,407.5,532,404.9z"/>
	<path class="st1" d="M543.5,409.6c0.6-1.1,0.9-2.5,1.3-3.7c1-2.8,3.9-3.4,5.9-1.2c1.4,1.6,1.1,4.1-0.5,6c-3.1,3.3-6.8,2.8-10.6,2.3
		C541.6,412.4,542.2,411.8,543.5,409.6z"/>
	<path class="st1" d="M565.3,386.2c2.6-3.2,4.1-7,4.6-11.2c0.1-0.9,0.5-1.6,1.1-2.2c1.4-1.6,3.5-1.1,4.3,0.9c1,2.4,0.2,4.4-1.3,6.2
		c-1.5,1.8-3.2,3.3-5.2,4.7c-1.1,0.8-2,1.9-3.4,2.3C565,386.6,565.2,386.4,565.3,386.2z"/>
	<path class="st1" d="M563.7,363.9c-0.4-0.7-0.5-1.4-0.5-2.2c-0.1-1,0.1-1.8,1-2.3c0.9-0.4,1.8-0.1,2.5,0.5c1.4,1.1,2.2,2.6,2.5,4.3
		c1,4.3-0.7,8.1-2.2,12C567.2,371.7,565.8,367.7,563.7,363.9z"/>
	<path class="st1" d="M551.8,413.2c1.1-1,1.4-2.3,1.8-3.6c0.3-0.9,0.7-1.6,1.2-2.3c1.1-1.3,2.7-1.2,3.7,0.1c1.5,2.1,0.8,4.1-1.8,5.5
		c-1.2,0.7-3.2,1.1-4.6,1C551.4,413.9,551.4,413.7,551.8,413.2z"/>
	<path class="st1" d="M561.3,392.5c2.2-0.5,4-1.8,6-3.1c1.1-0.6,2.2-0.7,3.1,0.3c0.5,0.6-0.1,2.2-1.1,3c-0.1,0.1-0.2,0.1-0.3,0.1
		c-3.5,2.2-7.2,1-10.9,0.4C559.1,393,560.2,392.7,561.3,392.5z"/>
	<path class="st1" d="M517.9,397.4c2.1-0.2,4.1-0.7,5.8-2.2c0.4-0.4,0.8-0.4,1.4-0.5c1.4-0.1,2.2,0.7,1.7,2
		c-0.3,0.7-0.7,1.1-1.3,1.5c-2.8,1.4-5.4,0.2-8.2-0.4C517.4,397.4,517.7,397.4,517.9,397.4z"/>
	<path class="st1" d="M526.5,387.6c0.1-0.4,0.4-0.7,0.7-1.1c0.7-0.6,1.8-0.4,2,0.5c0.2,0.5,0.1,1.2-0.1,1.8c-0.7,2.2-4.1,4.8-6.8,5
		C524.5,392.1,525.7,390,526.5,387.6z"/>
	<path class="st1" d="M557,396.9c0.2,0,0.4,0.1,0.5,0.2c0.9,0.4,1,0.9,0.4,1.6c-0.4,0.6-1.1,0.7-1.8,0.7c-2.5,0-3.9-1.8-5.6-3.2
		C552.6,396.9,554.8,396.7,557,396.9z"/>
	<path class="st1" d="M511.7,397.5c1.4,1,2.9,1.4,4.5,1.8c0.8,0.3,1.8,0.6,1.4,1.7c-0.4,1-1.5,1-2.3,0.5
		C513.5,400.7,512.2,399.5,511.7,397.5z"/>
	<path class="st1" d="M506.9,394.8c0.7,1,1.1,1.9,2,2.6c0.4,0.4,0.4,1,0.1,1.3c-0.4,0.5-0.9,0.2-1.3-0.1
		C506.5,397.6,506.7,396.3,506.9,394.8z"/>
	<path class="st1" d="M524,409.7L524,409.7L524,409.7L524,409.7z"/>
	<path class="st1" d="M524.2,409.7c-0.1,0-0.1-0.1-0.2-0.1C524.2,409.6,524.2,409.6,524.2,409.7
		C524.2,409.7,524.2,409.8,524.2,409.7z"/>
	<path class="st1" d="M524,409.7C524.1,409.7,524.1,409.7,524,409.7C524.1,409.7,524.1,409.7,524,409.7L524,409.7z"/>
</g>
<g class="st0">
	<path class="st1" d="M2.3,376.7C2.3,376.7,2.2,376.7,2.3,376.7L2.3,376.7L2.3,376.7L2.3,376.7z M95.9,385.8c-0.1,0-0.1,0.1-0.2,0.1
		c0.1,0.1,0.1,0.2,0.2,0.2s0.1-0.1,0.2-0.1C96,386,96,385.9,95.9,385.8z M27.4,301.8C27.3,301.8,27.3,301.7,27.4,301.8
		c-0.2,0.1-0.2,0.1-0.2,0.2c0.1,0,0.1,0.1,0.1,0.1C27.3,302,27.4,301.9,27.4,301.8z M5.5,376.6c-0.7,1.1-1.8,1.1-3.2,0.9
		C4,378.9,5.1,378.4,5.5,376.6z M129.5,424.6c-0.6-1.1-1.8-1-3-1.1c0.5,0.7,1.1,1.4,1.8,2c0.4,0.4,0.6,1.1,1.3,0.5
		C130.1,425.6,129.7,425.1,129.5,424.6z M71,353.4c-1.5-0.8-3-0.4-4.6,0.1c1.3,0.4,2.6,0.7,3.7,1.4c0.5,0.4,1.1,0.7,1.5-0.1
		C72,354.2,71.5,353.7,71,353.4z M152.8,361.9c-0.4-0.6-1.1-0.5-1.6-0.2c-1.1,0.7-2.5,1.2-3.7,1.7c1.6,0.5,3.1,0.7,4.6,0
		C152.6,363.1,153.2,362.6,152.8,361.9z M131.1,433c0-0.5-0.1-1-0.3-1.4c-0.6-1.6-1.8-2.6-3.1-3.6c0.8,1.7,1,3.3,1.1,5.2
		c0.1,0.6,0.3,1.4,1.1,1.2C130.8,434.3,131,433.7,131.1,433z M152.6,369.1c-1-0.7-1.9-1.5-2.9-2.2c-0.4-0.4-0.7-0.1-0.7,0.4
		c-0.2,1.5-0.2,2.9,1,4.1c0.9,1,2.6,0.7,3.2-0.4C153.4,370.3,153.2,369.5,152.6,369.1z M76.6,361.9c-0.2-0.8-0.6-1.6-1.2-1.9
		c-1.5-1-3.2-1.7-4.7-2.5c-0.1,0.1-0.2,0.3-0.3,0.4c1.6,1.5,3,3.2,3.9,5.2c0.4,0.7,0.8,1.3,1.8,1C77,363.5,76.9,362.7,76.6,361.9z
		 M158.1,354.4c0.2-0.7,0.4-1.6-0.5-1.9c-0.8-0.4-1.6,0.1-1.9,0.6c-1.1,2.2-2.5,4.1-4.3,5.8c1.4-0.2,2.6-0.7,3.7-1.4
		C156.5,356.7,157.6,355.9,158.1,354.4z M122.5,437.7c-2,1.6-4.1,2.2-6.4,2.7c-0.8,0.2-1.7,0.6-1.4,1.8c0.3,1,1.1,1.1,2,1
		C119.3,442.8,121.9,440.4,122.5,437.7z M119.8,375.2c-0.8,0.7-1.1,1.7-0.5,2.6c0.5,1,1.6,0.8,2.5,0.4c0.4-0.2,0.7-0.4,1-0.6
		c1-1.3,2-2.3,3.9-2.9C124.1,373.4,121.3,373.7,119.8,375.2z M127,439.7c0.5-2.1,0.4-4.2,0.1-6.4c-0.8,2-1.7,3.9-3.2,5.4
		c-1.2,1.3-1.3,2.4-0.4,3c1,0.7,2.4,0.2,3.2-1.1C126.7,440.4,126.9,440.1,127,439.7z M117.7,396.5c-0.7-1-1.8-0.5-2.5,0.2
		c-2,2-4.1,3.9-6.8,4.8c1.6,0.1,3-0.1,4.5-0.4c1.7-0.3,3.2-0.9,4.4-2C118,398.4,118.4,397.5,117.7,396.5z M79.1,390.3
		c-0.8-0.5-2.3,0-3.1,1.1c-0.6,0.9-1.1,1.8-1.8,2.6c-0.4,0.5-1.4,0.7-1.1,1.3c0.4,0.7,1.4,0.4,2.1,0.5c0.4,0.1,0.7,0.1,1.1,0
		c1.4-0.2,2.7-0.7,3.5-1.8C80.6,392.6,80.2,391,79.1,390.3z M69.9,371.1c-1.6,2.6-3.7,4.6-6.1,6.2c-0.5,0.4-0.7,0.8-1,1.2
		c-0.3,0.5-0.4,1-0.1,1.6c0.4,0.6,1,0.6,1.6,0.5c1.1-0.1,2.1-0.7,2.9-1.6C69.3,376.8,69.4,374,69.9,371.1z M15.3,407
		c0.7-2.7,1.4-5.4,2.7-8.1c-3.1,2-5.2,4.7-6.6,8.1c-0.3,0.7-0.1,1.4,0.2,2c0.4,0.9,1,1.1,1.9,0.5C14.5,408.9,15.1,408,15.3,407z
		 M-43.1,310.9c-1.2,2.5-3.2,4.5-5.3,6.2c-0.5,0.4-1,0.8-1.4,1.3c-0.5,0.7-0.6,1.4-0.2,2.2c0.5,0.8,1.2,0.6,1.9,0.5
		c1.1-0.2,1.9-0.9,2.5-1.8C-43.7,316.7-43.4,313.8-43.1,310.9z M75.3,372.2c-0.1-2.9-1.5-5.4-2.9-7.8c0.4,3.1-0.3,5.9-1.4,8.7
		c-0.4,0.9-0.1,1.9,1,2.5c0.9,0.4,1.6,0,2.4-0.6C75.2,374.1,75.4,373.1,75.3,372.2z M149,337.8c-0.5-1-1.2-1.8-2-2.5
		c-1.1-1-3.1-0.9-3.6-0.1s-0.1,1.9,1.2,2.9c0.2,0.1,0.4,0.2,0.5,0.4c1.6,1.1,3,2.3,4.1,3.9c0.5,0.7,0.7,1.8,1.8,2.6
		C150.6,342.3,150.2,340,149,337.8z M-1.7,424.2c0.2-3.2,0.5-6.4,2.2-9.3c-1.9,1.3-3.4,3.1-4.7,4.9c-1,1.4-1.3,2.8-1.1,4.4
		c0.1,1.1,0.5,2,1.7,2C-2.5,426.2-1.8,425.4-1.7,424.2z M26.3,298.7c0-1.3-0.6-2.2-1.8-2.8c-0.8-0.4-1.8-0.4-2.5,0.4
		c-1,0.7-1.1,1.8-0.7,3.1c0.5,1.8,1.1,3.7-0.7,5.7C24.2,303.9,26.3,301.5,26.3,298.7z M156.6,344.6c0.3-1.5-0.2-2.8-1.1-3.9
		c-0.7-0.8-1.4-0.9-2.2-0.5c-0.9,0.4-1.1,1-1.1,1.8s0.2,1.6,0.5,2.3c0.6,1.8,1,3.4,1,5.3c0,0.9-0.4,1.7,0,2.8
		C155.1,349.7,156.1,347.3,156.6,344.6z M112.3,376.1c-0.7-1.5-1.7-2.5-3.2-3.1c-1.4-0.5-2.5,0.3-2.3,1.8c0.1,0.5,0.3,1.1,0.6,1.6
		c2.4,2.8,4.4,5.8,5.1,9.7C113.3,382.8,113.8,379.4,112.3,376.1z M36.8,345.2c-0.7-0.7-1.6-1-2.5-1.1c-3.5-0.4-6.7-1.6-9.7-3.9
		c0.2,0.5,0.2,0.8,0.4,1c1.7,2.1,3.5,4.2,5.6,5.9c1.6,1.2,3.5,1.9,5.6,1.1C37.8,347.7,38,346.3,36.8,345.2z M119.2,387.4
		c0.7-1.8,0.7-3.5-0.6-5.1c-1.1-1.2-2.9-1-3.5,0.6c-0.2,0.4-0.3,1-0.3,1.4c0.1,3.5,0,7-2,10.4c0.5,0,0.6,0.1,0.7,0.1
		C115.6,392.5,118,390.4,119.2,387.4z M136.8,423.2c-2.8-3.6-6.8-5.4-11-7.1c2.5,2.1,4.1,4.7,5.8,7.4c0.5,0.9,1.1,1.8,1.8,2.5
		c1.1,1.3,3.1,1.8,3.9,1.1C137.9,426.5,137.7,424.4,136.8,423.2z M7.7,419.7c0.4-0.8,0.5-1.7,0.4-2.6c-0.1-1.9-0.1-3.8,0.1-5.6
		c0.3-1.9,0.8-3.8,1.6-5.4c-0.5-0.3-0.7-0.1-0.9,0.2c-2,2.5-3.9,5.1-5.2,8.1C3,416,3,417.8,3.8,419.6c0.4,0.8,1.1,1.4,1.9,1.4
		C6.8,421.1,7.3,420.4,7.7,419.7z M149.9,376.1c-2.1-1.3-3.9-2.8-3.7-5.7c-1,1.5-1.4,3.1-1.8,4.7c-0.4,2.3,0.2,4.3,1.7,6
		c1.3,1.6,4.3,1.6,5.4,0C152.6,379.6,151.8,377.4,149.9,376.1z M129.2,382.8c0.4-2.6,0.6-5.4,3.2-7c-1.5,0-2.9,0.5-4.2,1.1
		c-2.2,1-4,2.5-5.1,4.6c-0.9,1.8-0.5,3.8,0.8,4.6c1.4,0.9,3.4,0.4,4.6-1.3C128.9,384.1,129,383.5,129.2,382.8z M44.3,357.9
		c-1-1.6-2.6-1.8-4.2-1.9c-2.5-0.4-4.9-1.1-7.2-2.2c-1.1-0.6-2.2-1.3-3.4-1.9c2.3,3.2,4.7,6.3,7.9,8.5c1.8,1.1,3.9,1.5,6,0.6
		C44.8,360.2,45,359,44.3,357.9z M15,340.1c0.1,1.9-0.9,3.1-1.9,4.2c-0.9,0.9-1.7,1.8-2.5,2.7c-1.1,1.6-1.2,3.5,0.2,4.6
		c1.7,1.4,4.7,0.9,5.8-1C18.3,347.7,17.7,343.2,15,340.1z M23.9,313.6c-0.2-2.2-1.8-3.2-3.9-2.6c-1.1,0.4-2,1.1-3,1.8
		c-1.6,1.1-3.2,2.5-5.4,2.6c2.2,1.2,4.1,2.8,6.6,3.1C21.7,318.7,24.2,316.6,23.9,313.6z M151.3,418.6c-0.3-2.5-1.8-4.2-4.1-5.3
		c-1.3-0.6-2.7-0.1-3.5,1c-0.7,1-0.6,2.5,0.3,3.6c0.7,0.9,1.4,1,2.3,0.1c-1.1,0.1-1.7-0.3-1.9-1.1c-0.2-0.8-0.1-1.4,0.5-2
		c0.7-0.6,1.5-0.5,2.2-0.1c2.3,1.1,3.3,4.1,2.3,6.1c-1.3,2.5-4.7,3.4-6.9,2.1c-1.6-1-2.8-2.2-4.3-3.3c-2.5-1.8-4.6-4.2-7.4-5.4
		c-0.5-0.2-1-0.7-1.7,0c1.9,1,3.6,2,5,3.4c2.3,2.2,4.7,4.3,7.1,6.4c2.1,1.8,4.6,1.8,6.8,0.6C150.2,423.3,151.6,421.2,151.3,418.6z
		 M-41.6,327.1c1.4-3.9,1.1-7.9,1.1-11.8c0-0.3-0.1-0.5-0.3-1.1c-1.3,4.9-3.7,9-6.9,12.5c-0.7,0.7-1.1,1.8-1.2,2.9
		c-0.1,1.6,1,2.6,2.5,2.2C-43.8,331.1-42.4,329.4-41.6,327.1z M140.1,406c-1.3,0-2.4,0.5-3.4,1.1c-3.1,2-6.2,3.1-9.9,2.9
		c-1.4-0.1-2.6-0.4-4.3-0.5c1.2,1.1,2.6,1.3,3.8,1.8c3.3,1.3,6.8,2.5,10.4,1.8c2.4-0.4,4.3-1.5,5.4-3.7
		C143.1,407.5,142.1,406,140.1,406z M83.3,340.1c-0.9-1.4-2.1-2.2-3.7-2.6c-3.9-1.1-7.5,0.2-10.9,1.8c-1.6,0.8-3.2,1.6-4.7,2.7
		c0.3,0.4,0.4,0.4,0.6,0.3c4.4-1.4,8.8-0.7,13.1,0.5c1.6,0.4,3.1,1,4.7,0.3C83.6,342.5,84,341.3,83.3,340.1z M80.4,329.8
		c-0.2-1.4-1.1-2.2-2.5-2.5c-1.8-0.4-3.4-0.2-4.9,0.7c-2.6,1.5-4.5,3.9-6.2,6.2c-1.1,1.6-2.3,3.1-2.9,5.1c0.2-0.1,0.4-0.3,0.6-0.4
		c3.2-2.9,7.3-4.3,11.5-5.1c1-0.2,2-0.4,2.9-1C79.8,332.1,80.6,331.2,80.4,329.8z M142.2,383.8c-0.7-0.9-1.4-1.8-2-2.8
		c-1.1-1.8-1.7-3.7-0.7-5.8c0.1-0.3,0.1-0.5,0.2-1.1c-1.9,2-3.2,4.1-4.3,6.2c-1.3,2.6-1.3,5.2-0.4,7.8c0.6,1.6,2,2.5,3.6,2.6
		c1.6,0.4,3.1-0.5,3.9-1.8C143.3,386.9,143.3,385.2,142.2,383.8z M11.8,338.8c0.6-4.6-1.8-8.2-4.3-11.7c1.6,3.7-0.4,6.2-2.8,8.6
		c-0.5,0.5-1.2,1.1-1.8,1.8c-1.4,1.4-1.6,3.1-1,4.8c0.5,1.7,2,2.6,4,2.6C9.2,345,11.3,342.4,11.8,338.8z M17.1,307.6
		c1.2-2.8-0.5-5.6-3.5-6c-2.1-0.3-3.3,1-4.7,2.2c-2.6,2.2-5.4,4.1-9,2.5c2.5,2.4,5.1,4.6,8.5,5.4C12.1,312.3,15.8,310.7,17.1,307.6z
		 M-11.2,319.8c0.1-1.8-1.1-2.5-2.5-3.2c-1.3-0.6-2.7-0.6-4.1-0.7c-5-0.4-9.8-1.3-14-4.3c-0.6-0.4-1.2-0.7-2.1-1.3
		c0.2,0.5,0.2,0.7,0.4,0.8c2.7,3.6,5.6,7.1,9.5,9.6c2.9,1.8,6.1,2.8,9.6,2C-13,322.3-11.2,320.9-11.2,319.8z M-21.6,326.7
		c-1.9-1.6-4.3-2.5-6.2-4.1c-3.2-2.6-5.8-5.6-7.7-9.7c-0.1,0.5-0.2,0.7-0.2,0.8c1,4.8,2,9.6,4.1,14c1.1,2.4,2.7,4.4,5.4,5.4
		c1.8,0.7,3.6,1,5.4-0.3S-19.5,328.5-21.6,326.7z M53.9,376.3c0.4-1.4-0.1-2.7-1.1-3.7c-1.1-1.1-2.5-1.7-3.9-2.2
		c-3.5-1.2-6.8-2.8-9.9-4.9c-2.1-1.5-3.9-3.2-6-4.9c0.1,1.2,0.8,2.2,1.4,3.2c2.3,4.1,4.6,8.2,8.1,11.4c2.5,2.2,5.2,3.6,8.6,3.1
		C52.3,378.1,53.5,377.6,53.9,376.3z M3.8,324.7c-1.4-5.4-5-9.1-9-12.8c0.3,0.4,0.4,1,0.7,1.3c1.1,1.8,1.6,3.9,1,6
		c-0.7,2.7-2.2,5.1-3.9,7.3c-2.1,2.7-1.6,7.2,1.1,9.1c3.5,2.5,7.6,0.7,9.1-2C4.4,330.9,4.6,327.8,3.8,324.7z M10,298
		c0.9-2.8,0.1-5.2-2.2-6.8c-2.2-1.5-4.6-1.6-6.9-0.4c-1.1,0.6-2.3,1.4-3.5,1.8c-3.2,1.3-6.3,2.5-9.7,0.2c-0.5-0.4-1-1-2-1.2
		c1.8,2.6,3.7,4.8,6,6.7c3.8,3.1,7.9,5.4,13.2,4.1C7.6,302,9.2,300.5,10,298z M171.7,369.4c3-8.9,3.1-17.8,0.4-26.8
		c-1.8-6-4.9-11.2-9-15.9c-4.3-5-9.5-8.8-15.5-11.1c-10.4-3.9-20.7-3.2-30.3,2.8c-6.5,4-11.1,9.6-13.1,17.2
		c-2.3,8.5-0.6,16.4,4.1,23.7c2.6,3.9,5.9,7.2,10.1,9.3c6.7,3.3,13.7,3.5,20.4,0.1c5.3-2.6,9.1-6.7,10.4-12.5
		c1.8-7.9-2.8-17.2-10.2-20.6c-5.8-2.6-13.8-0.4-16.9,5.3c-2.2,4.1-1.6,8.6,2.1,12.5c3.7,4,8.2,3.1,11.2,0.1c1.6-1.6,2-3.7,1.1-5.2
		c-0.5-1-1.1-1.8-1.9-2.5c-1-1.1-2.2-1-3.3-0.4c-1,0.5-1.7,1.1-1.4,2.6c1.2-2.4,3.3-3.3,5.2-0.4c1.4,2.3,1.2,3.7-0.7,5.4
		c-3.2,2.7-6.4,2.5-9.3-0.9c-2.8-3.2-3.3-7.5-1.2-10.6c1.9-2.9,4.7-4.4,8.1-4.9c5.2-0.7,9,1.6,11.9,5.6c4.1,5.6,4.7,12.8,1,18.1
		c-6.1,8.6-18.4,10.9-27.5,4.1c-4.9-3.6-8.2-8.4-9.8-14.3c-2.2-7.7-1.1-15.1,3.7-21.3c6.2-8.1,14.7-11.9,24.9-11.6
		c8.9,0.4,16.3,3.7,22.6,10c8.1,8.1,12.1,17.8,12.1,29.1c0,10.2-3.9,19-10.3,26.5c-6.7,7.9-15.3,13.2-24.9,16.8
		c-7.6,2.8-15.5,4.1-23.6,4.6c-3.2,0.2-6.5,0.2-9.8,0.1c-0.4,0-0.9,0.2-1-0.4c-0.1-0.4,0.4-0.4,0.7-0.5c1.1-0.5,2-1.1,3-1.9
		c7.8-6,8.3-17.5,1.2-24.1c-5.6-5.1-16-4.1-19.1,3.4c-2,4.7-0.4,11.8,5.8,13.6c3.7,1.1,9.2-0.7,9.6-5.8c0.3-3.7-1.9-6.9-5.4-6.8
		c-2,0.1-3.9,1.1-4.3,2.7c-0.5,1.8-0.1,3.4,1.5,4.5c1.1,0.7,3.1,0.5,3.7-0.4c0.5-0.8,0.1-2.4-1-2.9c-0.3,0.4,0.1,0.5,0.2,0.8
		c0.5,1.4,0.1,2.1-1.5,2.2c-0.5,0-1.1-0.1-1.6-0.4c-1.3-1.7-1.2-3.4,0.2-4.7c1.3-1.2,4.1-1.1,5.5,0.2c1.7,1.6,2.2,4.5,1.3,6.5
		c-1.1,2.5-3.8,3.9-6.6,3.5c-3.2-0.4-5.4-2.3-6.4-5.2c-1.2-3.3-0.9-6.6,1.4-9.4c3.9-4.7,11.8-4.7,16.3-0.1c5.9,5.8,5.5,15.7-1,21.1
		c-3.2,2.8-6.8,4.7-11.3,3.4c-0.9-0.3-1.7-0.4-2.6-0.5c-0.4-0.1-0.7,0.1-0.9-0.4c-0.1-0.4,0.4-0.5,0.6-0.7c0.7-0.5,1.3-1.1,1.6-2
		c0.5-1.3,0.1-3.1-0.9-3.9c-1.1-0.8-2.7-0.7-3.9,0.2c-0.7,0.5-1,1.4-1.4,2.2c-1.6,2.8-2.1,3.1-5.2,2.2c-0.1,0-0.1,0-0.1,0
		c-0.4-0.1-0.7-0.1-0.7-0.4c-0.1-0.4,0.4-0.5,0.6-0.7c2.5-1.6,4.2-3.8,5-6.7c0.6-2.2,0.7-6.1-1.1-7.5c-0.2,0.2-0.1,0.4-0.1,0.7
		c2,5,0,10.7-4.7,13.2c-1.6,0.8-2.6,0.7-3.8-0.5c3.1-1,5.3-3,6.3-6c0.7-1.8,0.9-3.7-0.1-5.5c-0.1-1.7-1.2-3.2-2.7-3.3
		c1.3,1,1.8,2.3,2.5,3.4c0.4,3.1-0.1,6.1-2.5,8.3c-2,1.9-4.4,3.2-7.3,2.2c-5.9-2.1-11.5-4.7-16.8-8.1c-0.2-0.1-0.3-0.3-0.1-0.5
		c0.4,0,0.7,0.1,1.1,0.1c5.8,0.5,11.2-0.7,16.2-3.8c4.7-2.8,8.3-6.8,10-12.1c1.8-5.6,1.5-11.2-1.1-16.7c-3.2-6.7-8.2-11.1-15.7-12
		c-6.1-0.7-11.2,1.5-15.1,6.1c-3.7,4.5-3.9,11.1-0.7,16.1c3.5,5.4,8.4,7.3,13.9,5.4c5-1.8,7.2-6.2,5.4-11c-1.2-3.2-3.7-5.2-6.5-5
		c-2.2,0.1-3.9,1.1-4.9,3c-1,1.8-0.1,3.2,1.1,4.7c0.5,0.6,1.2,1.1,2.2,0.8c1-0.3,1.6-1,1.7-1.9c-1.4,1.4-2.1,1.6-3,0.9
		c-1.1-0.8-1.8-3.3-1.4-4.2c0.9-1.5,4.2-2.7,6-2.1c3.9,1.4,5.6,7.4,3.1,10.6c-2.8,3.5-8.1,4.3-11.3,2.5c-2-1.1-3.5-2.7-4.7-4.7
		c-2.2-4-2.6-8.3-0.1-12.3c4.6-7.1,14.7-9.1,22.1-3.3c4,3.2,6.5,7.4,7.4,12.4c1,5.4,0.1,10.4-3.2,14.8c-5.5,7.1-13,9.9-21.8,9
		c-4.4-0.5-8.5-2-11.9-4.9c-5.4-4.7-10.1-10.2-13.7-16.4c-2.1-3.7-4-7.5-5-11.5c-1.7-7.3-3.8-14.2-7.3-20.9c-0.1-0.4-0.4-0.5-0.1-1
		c0.1,0.1,0.4,0.1,0.4,0.1c4.7,4.3,9.9,7.5,15.9,9.4c7.3,2.2,14.5,2.5,21.5-1c10.6-5.2,15.8-17.8,11.7-28.8
		c-2.6-7.2-8-11.6-15.7-12.3c-7-0.7-13.5,2.9-16.1,10.4c-2.4,6.8-0.2,14.3,6.6,17.4c5.1,2.4,12.3,0.7,14.2-6
		c1.2-4.6-0.4-8.6-4.6-10.4c-2.5-1.1-5.8-0.4-7.4,1.8c-1.4,2-1.3,5.2,0.4,7c0.7,0.9,3.2,1.2,4.4,0.7c0.9-0.4,1.6-2.1,1.2-3.3
		c-0.3-1.1-1.1-1.6-2.5-0.8c0.7,0.1,1.6-0.2,2,0.7c0.5,1.5-0.4,2.8-1.9,2.9c-1.9,0.1-3.5-1.1-3.6-3.1c-0.1-2.1,0.5-3.9,2.5-5.1
		c1.4-0.8,4.5-0.4,5.9,0.6c3.1,2.2,3.2,5.6,2.4,8.8c-1,3.3-4.1,5.6-7.5,5.8c-5,0.2-9.9-3.3-10.9-9c-1.2-6.8,2.2-13.8,9.1-16.1
		c5.9-1.9,13.2,0.5,17.2,5.8c4.4,5.8,5.1,12.3,2.8,19.1c-2.3,6.8-6.8,11.2-13.7,13.6c-8.1,2.6-15.5,1.1-22.8-2
		c-3.2-1.4-6.2-3.5-9-5.7c-2.5-2-5.1-4-6.5-7c-0.1-0.4-0.4-0.5-0.3-1c0.2-0.4,0.5-0.1,0.8,0c9.1,2.1,16.2-3.9,18.9-11.8
		c1-2.9-0.1-5.7-1-8.4c0-1-0.5-1.7-1.3-2.5c-0.1,1.2,0.6,1.9,0.9,2.7c0.4,1.8,1,3.3,1,5.2c0,3.7-1.8,6.7-4.2,9.4
		c-3.9,4.3-10.5,5.8-15.8,3.7c-0.5-0.2-1.1-0.4-1.4-1.2c8.8,1.6,15-1.2,17.7-10c0.9-2.8,0.4-5.6-1.1-8.5c-0.2,0.4-0.3,0.4-0.3,0.5
		s0,0.2,0.1,0.4c1.4,2.8,1.1,5.7,0.2,8.6c-1.2,3.8-5.4,7.5-9.3,8c-2.8,0.4-5.6-0.3-8.3-0.7c-0.5-0.1-0.7-0.5-1-0.8
		c-3.9-5-8.3-9.6-13.1-13.9c-6.9-6.3-14.7-11.5-22.8-16.1c-4.7-2.6-9.5-5.1-14.4-7.2c-2.1-0.9-4.2-1.6-6.2-2.5
		c-2.5-1.1-5.1-1.8-7.4-3.1l-0.4,0.7c1.1,0.5,2.3,1.1,3.5,1.7c5.6,2,10.9,4.5,16.1,7.3c3.9,2.1,5.6,5.7,4.7,10.4
		c-1.1,5.3-5,7.9-10.3,6.7c-1.9-0.4-3.2-1.8-3.7-3.6c-0.6-2.3-0.4-4.6,1.2-6.4c0.5-0.5,1.1-1,1.8-1.1c1.3-0.2,2.6,0.7,2.9,2.1
		c0.4,1.3-0.3,2.1-1.7,2.5c-0.3,0.1-0.6,0.1-0.6,0.4c1.7,0.4,2.5,0,3.2-1.5c0.5-1.3-0.1-3.5-1.3-4.6c-1.1-1-3.1-1.1-4.6-0.1
		c-1.4,1-2.2,2.4-2.8,3.9c-1.4,4,0.1,8.3,3.7,10.2c3.8,1.9,9.3,0.9,11.4-2.5c2.5-3.9,3.9-7.9,1.8-12.5c-0.1-0.3-0.3-0.4,0-0.7
		c0.3-0.3,0.4,0,0.7,0.1c0.7,0.5,1.4,1,2.2,1.4c5.2,2.8,9.9,6.4,14.6,10c8.6,6.8,16.1,14.7,22.2,23.8c6,9,9.9,18.6,11.9,29.1
		c1.4,7.2,1,14.4-0.3,21.6c-0.7,3.9-2.1,7.4-4.9,10.4c-5,5.2-12.3,7.2-18.9,2.5c-6.1-4.2-7.4-12-2.5-17.5c2.6-3,7.1-3.8,10.5-1.6
		c3.2,2,5.2,5.2,3.9,9.4c-0.7,2.2-3.2,4-5.4,4.1c-2.6,0.1-4.5-1.8-5.1-4.1c-0.5-1.7,0.5-3.8,2.2-4.6c1.3-0.5,2.7,0.1,3.8,1.8
		c0.1,0.2,0.4,0.4,0.4,0.5c0.4-0.5,0.1-1.1-0.2-1.4c-1.4-2.3-4.7-2.3-6.2,0.1c-1.3,2-1.2,4.1,0.3,6.1c1.6,2.1,4,2.8,6.3,2.3
		c3.9-1,6.2-5.4,5.1-9.4c-2-7-10.6-9.4-16-4.3c-0.4,0.4-0.6,1-1.1,0.7c-0.3-0.1,0-0.7,0-1.1c-0.6-13.7-11.6-25.3-25.2-26.5
		c-8.3-0.7-16,1.5-23,6c-6.3,4.1-10.9,9.7-13.6,16.8c-2.6,6.7-3,13.5-1.4,20.5c2.8,12.5,9.8,21.8,20.6,28.1c4.7,2.8,10,4.4,15.4,5.3
		c6.4,1,12.6,0.5,18.9-1.1c8.6-2.1,16.3-6,22.9-11.8c5.8-5.2,10.4-11.2,13.6-18.4c2.2-4.9,3.5-9.9,4.1-15.1c0.4-2.8,0.4-5.6,0.5-8.5
		c0.5,0,0.5,0.4,0.7,0.6c3.5,7.5,8.2,13.9,14.2,19.5c3.9,3.6,7.9,6.7,12.5,9.4c4.7,2.8,9.7,5.1,14.7,6.9c4.3,1.6,8.8,2.7,13.2,3.9
		c2.4,0.7,4.7,1.4,7,1.8c3.8,0.4,5.8,2.6,5.2,6.3c-0.4,2.2-2.2,3.3-4.3,2.7c1.1,1.2,3.2,0.8,4.3-0.9c1.3-2,1.1-4.7-0.5-6.8
		c-0.3-0.3-0.6-0.4-0.4-0.9c0.3-0.4,0.6-0.2,1-0.1c0.7,0.1,1.4,0.1,2,0.2c4.1,0.4,8.3-0.1,12.4,1.7c5,2.2,9.7,4.7,12.6,9.7
		c3.3,5.8,2.8,12.7-2.8,17.2c-5,3.9-12.4,2.5-15.1-3.1c-1.3-2.6-1-5.3,0.9-7.5c1.8-2.5,4.3-3.6,7.5-2.8c2.2,0.5,4,3,3.9,5.1
		c-0.1,2-1.8,4-3.9,4.5c-1.4,0.4-3.2-0.7-3.8-2.1c-0.4-1.3,0.1-2.5,1.5-3.2c0.9-0.4,1.6-0.2,2,0.5c0.4,0.5,0.5,1,0.1,1.4
		c-0.6,0.8-1.1-0.1-1.8-0.3c0.2,0.9,0.4,1.6,1.4,1.4c0.9-0.2,1.7-0.6,1.6-1.8c-0.2-1.4-1.1-2.2-2.5-2.4c-1.4-0.1-3.1,1.1-3.4,2.5
		c-0.8,3,2.2,6.1,5.3,5.4c4.7-1.1,6.7-6.2,3.7-10c-1.9-2.5-4.6-3.5-7.6-2.9c-3.5,0.6-5.8,2.8-7.1,6c-2.2,5.6,1,10.8,5.1,12.9
		c8.1,4.1,17.2-1.4,18.9-9.7c1.6-7.1-1.8-12.5-6.9-16.9c-2.5-2.2-5.6-3.1-8.7-4.1c-0.4-0.1-1,0.1-0.8-0.5c0.1-0.5,0.6-0.4,1-0.4
		c1.8,0,3.7-0.5,5.5-0.6c8.8-0.5,17.3-2.2,25.4-5.4c4.7-1.9,9.3-4.3,13.4-7.4c4.8-3.5,9.2-7.5,12.5-12.7
		C168.2,376.8,170.5,373.3,171.7,369.4z M18.6,384.9c-0.9,1.6-1.6,3.2-2.5,4.7c-3.1,4.9-6.5,9.4-10.9,13c-4.7,3.9-9.7,6.8-15.3,8.9
		c-5.8,2-11.7,3.2-17.8,3.1c-7-0.2-13.6-2-19.7-5.6c-8.8-5.3-14.8-12.6-17.7-22.6c-2.6-9-1.8-17.6,3.2-25.7
		c3.7-5.8,8.7-10,15.1-12.6c4.9-2,10-3.1,15.3-2.4c9.9,1.4,16.8,6.8,20.4,16.2c1.6,4.1,2,8.4,0.7,12.7c-1.3,4.6-4.1,7.9-7.9,10.4
		c-4.6,3-9.6,4.4-15.2,3.2c-6.8-1.6-11.7-9.1-10.9-15.9c0.4-3.4,2.6-5.6,5.4-7.4c2.2-1.3,4.6-2,7.1-1.8c4.9,0.5,7.1,5.7,6.6,9
		c-0.4,2.4-4.3,4.6-6.5,3.8c-1.3-0.4-2.5-2.7-1.8-3.9c0.2-0.5,0.9-0.2,1.1-0.8c-1-0.2-1.6,0.1-1.8,1c-0.7,2.6,1.5,5.1,4.1,4.7
		c2.5-0.4,4.7-1.1,5.8-3.6c1-2.2,0.5-4.4-0.5-6.5c-2.2-4.6-6.4-6.3-11.2-4.9c-3.2,1-6.1,2.5-8.2,5.2c-2.2,2.8-2.6,6.1-2.1,9.4
		c1,6,4.3,10.5,9.8,13.2c3.9,1.8,7.9,2,12,1c5.7-1.4,10.4-4.3,14-9c0.1-0.1,0.1-0.2,0.2-0.2c0.5-0.5,0.5-1.8,1.4-1.7
		c0.9,0.1,0.7,1.4,1,2.1c2,6,9.7,10.4,16.1,9c3.5-0.7,6.4-2.3,8.9-4.8c0.4-0.4,1-0.9,1.4-1.3C18.2,384.9,18.3,384.9,18.6,384.9z
		 M8.4,395.4c-0.4,0.4-0.5,1-0.1,1.3c0.4,0.5,1,0.1,1.3-0.1c1.2-1.1,1.1-2.5,1-3.9C9.9,393.7,9.3,394.6,8.4,395.4z M1.3,397.3
		c-0.7,0.3-1.8,0.6-1.4,1.7c0.4,1,1.5,1,2.3,0.5c1.7-0.9,2.9-2.1,3.5-3.9C4.2,396.4,2.7,396.8,1.3,397.3z M-0.7,395.3
		c-2.1-0.2-4.1-0.7-5.8-2.2c-0.4-0.4-0.8-0.4-1.4-0.5c-1.2-0.1-2,0.8-1.6,2.1c0.2,0.7,0.7,1.1,1.3,1.5c2.8,1.4,5.4,0.2,8.2-0.4
		C-0.1,395.3-0.3,395.3-0.7,395.3z M-6.7,407.7L-6.7,407.7C-6.6,407.7-6.6,407.6-6.7,407.7L-6.7,407.7L-6.7,407.7z M-6.9,407.7
		c0.1,0,0.1-0.1,0.2-0.1C-6.8,407.6-6.8,407.5-6.9,407.7L-6.9,407.7z M-14.5,402.7c-0.4-0.7-1-1.4-1.1-2.2c-0.5-1.3-1.5-2-2.6-2.6
		c-2.6-1.3-6.5,0.5-6.8,3.5c-0.2,2.5,1,4.7,3.2,6.2c3.2,2,6.7,2,10.2,1.4c1.5-0.3,3-0.4,4.3-1.4C-11.2,407.7-13,405.4-14.5,402.7z
		 M5.7,375.9c-0.1-0.1-0.1-0.2-0.1-0.4c0,0.1-0.1,0.3-0.1,0.4C5.6,375.9,5.6,375.9,5.7,375.9z M5.6,375.5L5.6,375.5L5.6,375.5
		L5.6,375.5L5.6,375.5z M-12,386.8c0.7,2.2,4.1,4.9,6.8,5c-2-1.8-3.2-3.9-4.1-6.4c-0.1-0.4-0.4-0.7-0.7-1.1c-0.7-0.6-1.8-0.4-2,0.5
		C-12.2,385.5-12.2,386.1-12,386.8z M-26.1,407.6c-0.6-1.1-0.9-2.5-1.3-3.7c-1-2.8-3.9-3.3-5.9-1.2c-1.4,1.6-1.1,4,0.5,6
		c3,3.2,6.8,2.8,10.6,2.3C-24.3,410.3-24.9,409.8-26.1,407.6z M-34.5,411.1c-1-1.1-1.4-2.3-1.8-3.6c-0.4-0.8-0.7-1.6-1.2-2.3
		c-1.1-1.3-2.7-1.2-3.7,0.1c-1.5,2.1-0.8,4.1,1.8,5.5c1.2,0.7,3.2,1.1,4.6,1C-34.1,411.9-34,411.6-34.5,411.1z M-39.6,394.7
		c-0.2,0-0.4,0.1-0.5,0.2c-0.9,0.4-1,0.9-0.4,1.6c0.4,0.6,1.1,0.7,1.8,0.7c2.5,0,3.9-1.8,5.6-3.2C-35.3,394.8-37.5,394.6-39.6,394.7
		z M-49.9,387.3c-1.1-0.6-2.2-0.7-3.1,0.3c-0.5,0.6,0.1,2.3,1.1,3c0.1,0.1,0.2,0.1,0.3,0.1c3.5,2.2,7.2,1.1,10.9,0.4
		c-1.1-0.3-2.2-0.5-3.3-0.8C-46.2,389.8-48.1,388.5-49.9,387.3z M-47.9,384.7c0.2-0.4,0-0.5-0.1-0.6c-2.6-3.2-4.1-7-4.6-11.2
		c-0.1-0.9-0.5-1.6-1.1-2.2c-1.4-1.6-3.5-1.1-4.3,0.9c-1,2.4-0.2,4.4,1.3,6.2c1.5,1.8,3.2,3.3,5.2,4.7
		C-50.2,383.2-49.3,384.3-47.9,384.7z M-49.6,374.1c-0.4-4.5,1.1-8.4,3.2-12.3c0.4-0.7,0.5-1.5,0.5-2.2c0.1-1-0.1-1.8-1-2.3
		c-0.9-0.4-1.8-0.1-2.5,0.5c-1.4,1.1-2.2,2.6-2.5,4.3C-52.8,366.4-51.1,370.3-49.6,374.1z"/>
	<path class="st1" d="M171.7,369.4c3-8.9,3.1-17.8,0.4-26.8c-1.8-6-4.9-11.2-9-15.9c-4.3-5-9.5-8.8-15.5-11.1
		c-10.4-3.9-20.7-3.2-30.3,2.8c-6.5,4-11.1,9.6-13.1,17.2c-2.3,8.5-0.6,16.4,4.1,23.7c2.6,3.9,5.9,7.2,10.1,9.3
		c6.7,3.3,13.7,3.5,20.4,0.1c5.3-2.6,9.1-6.7,10.4-12.5c1.8-7.9-2.8-17.2-10.2-20.6c-5.8-2.6-13.8-0.4-16.9,5.3
		c-2.2,4.1-1.6,8.6,2.1,12.5c3.7,4,8.2,3.1,11.2,0.1c1.6-1.6,2-3.7,1.1-5.2c-0.5-1-1.1-1.8-1.9-2.5c-1-1.1-2.2-1-3.3-0.4
		c-1,0.5-1.7,1.1-1.4,2.6c1.2-2.4,3.3-3.3,5.2-0.4c1.4,2.3,1.2,3.7-0.7,5.4c-3.2,2.7-6.4,2.5-9.3-0.9c-2.8-3.2-3.3-7.5-1.2-10.6
		c1.9-2.9,4.7-4.4,8.1-4.9c5.2-0.7,9,1.6,11.9,5.6c4.1,5.6,4.7,12.8,1,18.1c-6.1,8.6-18.4,10.9-27.5,4.1c-4.9-3.6-8.2-8.4-9.8-14.3
		c-2.2-7.7-1.1-15.1,3.7-21.3c6.2-8.1,14.7-11.9,24.9-11.6c8.9,0.4,16.3,3.7,22.6,10c8.1,8.1,12.1,17.8,12.1,29.1
		c0,10.2-3.9,19-10.3,26.5c-6.7,7.9-15.3,13.2-24.9,16.8c-7.6,2.8-15.5,4.1-23.6,4.6c-3.2,0.2-6.5,0.2-9.8,0.1c-0.4,0-0.9,0.2-1-0.4
		c-0.1-0.4,0.4-0.4,0.7-0.5c1.1-0.5,2-1.1,3-1.9c7.8-6,8.3-17.5,1.2-24.1c-5.6-5.1-16-4.1-19.1,3.4c-2,4.7-0.4,11.8,5.8,13.6
		c3.7,1.1,9.2-0.7,9.6-5.8c0.3-3.7-1.9-6.9-5.4-6.8c-2,0.1-3.9,1.1-4.3,2.7c-0.5,1.8-0.1,3.4,1.5,4.5c0-0.3,0-0.5,0-0.7
		c-1.3-1.7-1.2-3.4,0.2-4.7c1.3-1.2,4.1-1.1,5.5,0.2c1.7,1.6,2.2,4.5,1.3,6.5c-1.1,2.5-3.8,3.9-6.6,3.5c-3.2-0.4-5.4-2.3-6.4-5.2
		c-1.2-3.3-0.9-6.6,1.4-9.4c3.9-4.7,11.8-4.7,16.3-0.1c5.9,5.8,5.5,15.7-1,21.1c-3.2,2.8-6.8,4.7-11.3,3.4c-0.9-0.3-1.7-0.4-2.6-0.5
		c-0.4-0.1-0.7,0.1-0.9-0.4c-0.1-0.4,0.4-0.5,0.6-0.7c0.7-0.5,1.3-1.1,1.6-2c0.5-1.3,0.1-3.1-0.9-3.9c-1.1-0.8-2.7-0.7-3.9,0.2
		c-0.7,0.5-1,1.4-1.4,2.2c-1.6,2.8-2.1,3.1-5.2,2.2c-0.1,0-0.1,0-0.1,0c-0.4-0.1-0.7-0.1-0.7-0.4c-0.1-0.4,0.4-0.5,0.6-0.7
		c2.5-1.6,4.2-3.8,5-6.7c0.6-2.2,0.7-6.1-1.1-7.5c-0.2,0.2-0.1,0.4-0.1,0.7c2,5,0,10.7-4.7,13.2c-1.6,0.8-2.6,0.7-3.8-0.5
		c3.1-1,5.3-3,6.3-6c0.7-1.8,0.9-3.7-0.1-5.5c-0.1,0.1-0.1,0.1-0.2,0.1c0.4,3.1-0.1,6.1-2.5,8.3c-2,1.9-4.4,3.2-7.3,2.2
		c-5.9-2.1-11.5-4.7-16.8-8.1c-0.2-0.1-0.3-0.3-0.1-0.5c0.4,0,0.7,0.1,1.1,0.1c5.8,0.5,11.2-0.7,16.2-3.8c4.7-2.8,8.3-6.8,10-12.1
		c1.8-5.6,1.5-11.2-1.1-16.7c-3.2-6.7-8.2-11.1-15.7-12c-6.1-0.7-11.2,1.5-15.1,6.1c-3.7,4.5-3.9,11.1-0.7,16.1
		c3.5,5.4,8.4,7.3,13.9,5.4c5-1.8,7.2-6.2,5.4-11c-1.2-3.2-3.7-5.2-6.5-5c-2.2,0.1-3.9,1.1-4.9,3c-1,1.8-0.1,3.2,1.1,4.7
		c0.5,0.6,1.2,1.1,2.2,0.8c1-0.3,1.6-1,1.7-1.9c-1.4,1.4-2.1,1.6-3,0.9c-1.1-0.8-1.8-3.3-1.4-4.2c0.9-1.5,4.2-2.7,6-2.1
		c3.9,1.4,5.6,7.4,3.1,10.6c-2.8,3.5-8.1,4.3-11.3,2.5c-2-1.1-3.5-2.7-4.7-4.7c-2.2-4-2.6-8.3-0.1-12.3c4.6-7.1,14.7-9.1,22.1-3.3
		c4,3.2,6.5,7.4,7.4,12.4c1,5.4,0.1,10.4-3.2,14.8c-5.5,7.1-13,9.9-21.8,9c-4.4-0.5-8.5-2-11.9-4.9c-5.4-4.7-10.1-10.2-13.7-16.4
		c-2.1-3.7-4-7.5-5-11.5c-1.7-7.3-3.8-14.2-7.3-20.9c-0.1-0.4-0.4-0.5-0.1-1c0.1,0.1,0.4,0.1,0.4,0.1c4.7,4.3,9.9,7.5,15.9,9.4
		c7.3,2.2,14.5,2.5,21.5-1c10.6-5.2,15.8-17.8,11.7-28.8c-2.6-7.2-8-11.6-15.7-12.3c-7-0.7-13.5,2.9-16.1,10.4
		c-2.4,6.8-0.2,14.3,6.6,17.4c5.1,2.4,12.3,0.7,14.2-6c1.2-4.6-0.4-8.6-4.6-10.4c-2.5-1.1-5.8-0.4-7.4,1.8c-1.4,2-1.3,5.2,0.4,7
		c0.7,0.9,3.2,1.2,4.4,0.7c0.9-0.4,1.6-2.1,1.2-3.3c-0.3-1.1-1.1-1.6-2.5-0.8c0.7,0.1,1.6-0.2,2,0.7c0.5,1.5-0.4,2.8-1.9,2.9
		c-1.9,0.1-3.5-1.1-3.6-3.1c-0.1-2.1,0.5-3.9,2.5-5.1c1.4-0.8,4.5-0.4,5.9,0.6c3.1,2.2,3.2,5.6,2.4,8.8c-1,3.3-4.1,5.6-7.5,5.8
		c-5,0.2-9.9-3.3-10.9-9c-1.2-6.8,2.2-13.8,9.1-16.1c5.9-1.9,13.2,0.5,17.2,5.8c4.4,5.8,5.1,12.3,2.8,19.1
		c-2.3,6.8-6.8,11.2-13.7,13.6c-8.1,2.6-15.5,1.1-22.9-2.1c-3.2-1.4-6.2-3.5-9-5.7c-2.5-2-5.1-4-6.5-7c-0.1-0.4-0.4-0.5-0.3-1
		c0.2-0.4,0.5-0.1,0.8,0c9.1,2.1,16.2-3.9,18.9-11.8c1-2.9-0.1-5.7-1-8.4c-0.2,0.1-0.4,0.1-0.4,0.2c0.4,1.8,1,3.3,1,5.2
		c0,3.7-1.8,6.7-4.2,9.4c-3.9,4.3-10.5,5.8-15.8,3.7c-0.5-0.2-1.1-0.4-1.4-1.2c8.8,1.6,15-1.2,17.7-10c0.9-2.8,0.4-5.6-1.1-8.5
		c-0.2,0.4-0.3,0.4-0.3,0.5s0,0.2,0.1,0.4c1.4,2.8,1.1,5.7,0.2,8.6c-1.2,3.8-5.4,7.5-9.3,8c-2.8,0.4-5.6-0.3-8.3-0.7
		c-0.5-0.1-0.7-0.5-1-0.8c-3.9-5-8.3-9.6-13.1-13.9c-6.9-6.3-14.7-11.5-22.8-16.1c-4.7-2.6-9.5-5.1-14.4-7.2
		c-2.1-0.9-4.2-1.6-6.2-2.5c-2.5-1.1-5.1-1.8-7.4-3.1l-0.4,0.7c1.1,0.5,2.3,1.1,3.5,1.7c5.6,2,10.9,4.5,16.1,7.3
		c3.9,2.1,5.6,5.7,4.7,10.4c-1.1,5.3-5,7.9-10.3,6.7c-1.9-0.4-3.2-1.8-3.7-3.6c-0.6-2.3-0.4-4.6,1.2-6.4c0.5-0.5,1.1-1,1.8-1.1
		c1.3-0.2,2.6,0.7,2.9,2.1c0.4,1.3-0.3,2.1-1.7,2.5c-0.3,0.1-0.6,0.1-0.6,0.4c1.7,0.4,2.5,0,3.2-1.5c0.5-1.3-0.1-3.5-1.3-4.6
		c-1.1-1-3.1-1.1-4.6-0.1c-1.4,1-2.2,2.4-2.8,3.9c-1.4,4,0.1,8.3,3.7,10.2c3.8,1.9,9.3,0.9,11.4-2.5c2.5-3.9,3.9-7.9,1.8-12.5
		c-0.1-0.3-0.3-0.4,0-0.7c0.3-0.3,0.4,0,0.7,0.1c0.7,0.5,1.4,1,2.2,1.4c5.2,2.8,9.9,6.4,14.6,10c8.6,6.8,16.1,14.7,22.2,23.8
		c6,9,9.9,18.6,11.9,29.1c1.4,7.2,1,14.4-0.3,21.6c-0.7,3.9-2.1,7.4-4.9,10.4c-5,5.2-12.3,7.2-18.9,2.5c-6.1-4.2-7.4-12-2.5-17.5
		c2.6-3,7.1-3.8,10.5-1.6c3.2,2,5.2,5.2,3.9,9.4c-0.7,2.2-3.2,4-5.4,4.1c-2.6,0.1-4.5-1.8-5.1-4.1c-0.5-1.7,0.5-3.8,2.2-4.6
		c1.3-0.5,2.7,0.1,3.8,1.8c0.1,0.2,0.4,0.4,0.4,0.5c0.4-0.5,0.1-1.1-0.2-1.4c-1.4-2.3-4.7-2.3-6.2,0.1c-1.3,2-1.2,4.1,0.3,6.1
		c1.6,2.1,4,2.8,6.3,2.3c3.9-1,6.2-5.4,5.1-9.4c-2-7-10.6-9.4-16-4.3c-0.4,0.4-0.6,1-1.1,0.7c-0.5-0.1-0.3-0.7-0.3-1.1
		c-0.6-13.7-11.6-25.3-25.2-26.5c-8.3-0.7-16,1.5-23,6c-6.3,4.1-10.9,9.7-13.6,16.8c-2.6,6.7-3,13.5-1.4,20.5
		c2.8,12.5,9.8,21.8,20.6,28.1c4.7,2.8,10,4.4,15.4,5.3c6.4,1,12.6,0.5,18.9-1.1c8.6-2.1,16.3-6,22.9-11.8
		C14.2,401,18.8,395,22,387.8c2.2-4.9,3.5-9.9,4.1-15.1c0.4-2.8,0.4-5.6,0.5-8.5c0.5,0,0.5,0.4,0.7,0.6c3.5,7.5,8.2,13.9,14.2,19.5
		c3.9,3.6,7.9,6.7,12.5,9.4c4.7,2.8,9.7,5.1,14.7,6.9c4.3,1.6,8.8,2.7,13.2,3.9c2.4,0.7,4.7,1.4,7,1.8c3.8,0.4,5.8,2.6,5.2,6.3
		c-0.4,2.2-2.2,3.3-4.3,2.7c1.1,1.2,3.2,0.8,4.3-0.9c1.3-2,1.1-4.7-0.5-6.8c-0.3-0.3-0.6-0.4-0.4-0.9c0.3-0.4,0.6-0.2,1-0.1
		c0.7,0.1,1.4,0.1,2,0.2c4.1,0.4,8.3-0.1,12.4,1.7c5,2.2,9.7,4.7,12.6,9.7c3.3,5.8,2.8,12.7-2.8,17.2c-5,3.9-12.4,2.5-15.1-3.1
		c-1.3-2.6-1-5.3,0.9-7.5c1.8-2.5,4.3-3.6,7.5-2.8c2.2,0.5,4,3,3.9,5.1c-0.1,2-1.8,4-3.9,4.5c-1.4,0.4-3.2-0.7-3.8-2.1
		c-0.4-1.3,0.1-2.5,1.5-3.2c0.9-0.4,1.6-0.2,2,0.5c0.4,0.5,0.5,1,0.1,1.4c-0.6,0.8-1.1-0.1-1.8-0.3c0.2,0.9,0.4,1.6,1.4,1.4
		c0.9-0.2,1.7-0.6,1.6-1.8c-0.2-1.4-1.1-2.2-2.5-2.4c-1.4-0.1-3.1,1.1-3.4,2.5c-0.8,3,2.2,6.1,5.3,5.4c4.7-1.1,6.7-6.2,3.7-10
		c-1.9-2.5-4.6-3.5-7.6-2.9c-3.5,0.6-5.8,2.8-7.1,6c-2.2,5.6,1,10.8,5.1,12.9c8.1,4.1,17.2-1.4,18.9-9.7c1.6-7.1-1.8-12.5-6.9-16.9
		c-2.5-2.2-5.6-3.1-8.7-4.1c-0.4-0.1-1,0.1-0.8-0.5c0.1-0.5,0.6-0.4,1-0.4c1.8,0,3.7-0.5,5.5-0.6c8.8-0.5,17.3-2.2,25.4-5.4
		c4.7-1.9,9.3-4.3,13.4-7.4c4.8-3.5,9.2-7.5,12.5-12.7C168.2,376.8,170.5,373.3,171.7,369.4z M18.6,384.9c-0.9,1.6-1.6,3.2-2.5,4.7
		c-3.1,4.9-6.5,9.4-10.9,13c-4.7,3.9-9.7,6.8-15.3,8.9c-5.8,2-11.7,3.2-17.8,3.1c-7-0.2-13.6-2-19.7-5.6
		c-8.8-5.3-14.8-12.6-17.7-22.6c-2.6-9-1.8-17.6,3.2-25.7c3.7-5.8,8.7-10,15.1-12.6c4.9-2,10-3.1,15.3-2.4
		c9.9,1.4,16.8,6.8,20.4,16.2c1.6,4.1,2,8.4,0.7,12.7c-1.3,4.6-4.1,7.9-7.9,10.4c-4.6,3-9.6,4.4-15.2,3.2
		c-6.8-1.6-11.7-9.1-10.9-15.9c0.4-3.4,2.6-5.6,5.4-7.4c2.2-1.3,4.6-2,7.1-1.8c4.9,0.5,7.1,5.7,6.6,9c-0.4,2.4-4.3,4.6-6.5,3.8
		c-1.3-0.4-2.5-2.7-1.8-3.9c0.2-0.5,0.9-0.2,1.1-0.8c-1-0.2-1.6,0.1-1.8,1c-0.7,2.6,1.5,5.1,4.1,4.7c2.5-0.4,4.7-1.1,5.8-3.6
		c1-2.2,0.5-4.4-0.5-6.5c-2.2-4.6-6.4-6.3-11.2-4.9c-3.2,1-6.1,2.5-8.2,5.2c-2.2,2.8-2.6,6.1-2.1,9.4c1,6,4.3,10.5,9.8,13.2
		c3.9,1.8,7.9,2,12,1c5.7-1.4,10.4-4.3,14-9c0.1-0.1,0.1-0.2,0.2-0.2c0.5-0.5,0.5-1.8,1.4-1.7c0.9,0.1,0.7,1.4,1,2.1
		c2,6,9.7,10.4,16.1,9c3.5-0.7,6.4-2.3,8.9-4.8c0.4-0.4,1-0.9,1.4-1.3C18.2,384.9,18.3,384.9,18.6,384.9z M5.6,375.5L5.6,375.5
		L5.6,375.5L5.6,375.5z"/>
	<path class="st1" d="M-14.2,291.8c1,0.2,1.4,0.9,2,1.2c3.2,2.2,6.4,1.1,9.6-0.3c1.2-0.5,2.4-1.2,3.5-1.8c2.4-1.4,4.7-1.1,6.9,0.4
		c2.4,1.6,3.2,4,2.2,6.8c-0.7,2.5-2.5,3.9-5.1,4.5c-5.2,1.1-9.4-1-13.2-4.1C-10.4,296.5-12.3,294.3-14.2,291.8z"/>
	<path class="st1" d="M-5.2,311.9c3.9,3.7,7.5,7.5,9,12.8c0.8,3.1,0.5,6.2-1,9c-1.6,2.7-5.7,4.6-9.1,2c-2.6-1.9-3.2-6.4-1.1-9.1
		c1.8-2.2,3.2-4.5,3.9-7.3c0.5-2.2,0.1-4.1-1-6C-4.6,312.8-4.9,312.3-5.2,311.9z"/>
	<path class="st1" d="M33.1,360.5c2,1.7,3.8,3.5,5.9,4.9c3.1,2.1,6.4,3.7,9.9,4.9c1.4,0.5,2.8,1.1,3.9,2.2c1.1,1,1.6,2.3,1.1,3.7
		c-0.4,1.3-1.6,1.8-2.8,1.9c-3.4,0.5-6.2-0.9-8.6-3.1c-3.5-3.2-5.8-7.4-8.1-11.4C33.9,362.7,33.2,361.8,33.1,360.5z"/>
	<path class="st1" d="M-35.6,313c2,4,4.6,7,7.7,9.7c1.9,1.6,4.3,2.5,6.2,4.1c2.1,1.7,2.5,4.9,0.7,6.2c-1.7,1.1-3.5,1-5.4,0.3
		c-2.5-1-4.2-3-5.4-5.4c-2.1-4.5-3.2-9.1-4.1-14C-35.7,313.7-35.6,313.6-35.6,313z"/>
	<path class="st1" d="M-33.9,310.2c0.9,0.5,1.5,0.9,2.1,1.3c4.2,3,9,3.9,14,4.3c1.4,0.1,2.8,0.1,4.1,0.7c1.4,0.7,2.5,1.5,2.5,3.2
		c0,1.1-1.8,2.5-3.4,2.8c-3.5,0.8-6.7-0.1-9.6-2c-3.9-2.5-6.8-6-9.5-9.6C-33.8,310.9-33.8,310.8-33.9,310.2z"/>
	<path class="st1" d="M-0.1,306.1c3.8,1.8,6.4-0.3,9-2.5c1.4-1.1,2.6-2.5,4.7-2.2c3,0.4,4.7,3.2,3.5,6c-1.3,3.1-4.9,4.7-8.7,3.9
		C5,310.7,2.4,308.6-0.1,306.1z"/>
	<path class="st1" d="M7.5,327.2c2.5,3.6,5,7.1,4.3,11.7c-0.5,3.6-2.5,6.1-5.9,6.1c-2,0-3.4-1-4-2.6c-0.5-1.8-0.4-3.5,1-4.9
		c0.5-0.5,1.1-1.1,1.8-1.8C7.1,333.4,9,330.9,7.5,327.2z"/>
	<path class="st1" d="M139.5,373.9c-0.1,0.6-0.1,1-0.2,1.1c-1,2.1-0.4,3.9,0.7,5.8c0.6,1,1.3,1.9,2,2.8c1.1,1.4,1.1,3.2,0.1,5.1
		c-0.7,1.4-2.2,2.1-3.8,1.8c-1.6-0.3-3-1.1-3.6-2.6c-1-2.6-1-5.2,0.4-7.8C136.3,378,137.6,376,139.5,373.9z"/>
	<path class="st1" d="M63.8,339.3c0.6-2,1.8-3.5,2.9-5.1c1.7-2.5,3.5-4.7,6.2-6.2c1.6-0.9,3.2-1.1,4.9-0.7c1.3,0.4,2.3,1.1,2.5,2.5
		s-0.5,2.3-1.6,3.1c-0.9,0.6-1.8,0.7-2.9,1c-4.2,0.7-8.2,2.2-11.5,5.1C64.3,339,64.1,339.1,63.8,339.3z"/>
	<path class="st1" d="M64,342c1.4-1.1,3.1-1.9,4.7-2.7c3.4-1.7,7-3,10.9-1.8c1.6,0.4,2.8,1.3,3.7,2.6c0.7,1.1,0.4,2.5-1,3
		c-1.6,0.7-3.1,0.3-4.7-0.3c-4.3-1.2-8.7-1.9-13.1-0.5C64.4,342.4,64.2,342.4,64,342z"/>
	<path class="st1" d="M122.4,409.5c1.7,0.2,3,0.5,4.3,0.5c3.6,0.2,6.8-1,9.9-2.9c1-0.7,2-1.2,3.4-1.1c2,0.1,3.1,1.6,2.1,3.5
		c-1.1,2.2-3.1,3.2-5.4,3.7c-3.7,0.5-7.1-0.5-10.4-1.8C125.1,410.8,123.7,410.6,122.4,409.5z"/>
	<path class="st1" d="M-40.8,314.1c0.1,0.5,0.3,0.8,0.3,1.1c-0.1,3.9,0.4,8-1.1,11.8c-0.8,2.4-2.2,4.1-4.7,4.7
		c-1.6,0.4-2.7-0.6-2.5-2.2c0.1-1.1,0.5-2.2,1.2-2.9C-44.4,323-42.1,319.1-40.8,314.1z"/>
	<path class="st1" d="M146.2,417.9c-0.9,1-1.6,0.8-2.3-0.1c-0.9-1.1-1-2.6-0.3-3.6c0.8-1.1,2.2-1.6,3.5-1c2.3,1,3.9,2.7,4.1,5.3
		c0.3,2.6-1.1,4.7-3.3,5.9s-4.7,1.1-6.8-0.6c-2.5-2.1-4.8-4.3-7.1-6.4c-1.4-1.4-3.1-2.5-5-3.3c0.7-0.7,1.2-0.2,1.7,0
		c2.9,1.1,5,3.5,7.4,5.4c1.4,1.1,2.6,2.5,4.3,3.3c2.3,1.4,5.6,0.4,6.9-2.1c1.1-2,0.1-4.9-2.3-6.1c-0.7-0.4-1.5-0.5-2.2,0.1
		c-0.6,0.5-0.7,1.1-0.5,2C144.6,417.6,145.2,418,146.2,417.9z"/>
	<path class="st1" d="M11.6,315.3c2.2-0.1,3.8-1.4,5.4-2.6c1-0.7,1.8-1.5,3-1.8c2.1-0.5,3.7,0.5,3.9,2.6c0.4,3.1-2.2,5.2-5.7,4.7
		C15.7,318,13.8,316.5,11.6,315.3z"/>
	<path class="st1" d="M15,340.1c2.6,3.1,3.2,7.7,1.6,10.4c-1.1,1.8-4,2.4-5.8,1c-1.4-1.1-1.3-3-0.2-4.6c0.7-1,1.6-1.8,2.5-2.7
		C14.2,343.1,15.1,342,15,340.1z"/>
	<path class="st1" d="M29.4,351.7c1.1,0.6,2.2,1.3,3.4,1.9c2.3,1.1,4.7,1.8,7.2,2.2c1.6,0.2,3.2,0.4,4.2,1.9c0.7,1.1,0.4,2.5-1,3
		c-2.1,1-4.1,0.6-6-0.6C34.1,358.1,31.8,355,29.4,351.7z"/>
	<path class="st1" d="M132.3,375.7c-2.6,1.8-3,4.4-3.2,7c-0.1,0.7-0.2,1.4-0.6,1.9c-1.2,1.6-3.2,2.2-4.6,1.3s-1.7-2.8-0.8-4.6
		c1.1-2.2,2.9-3.7,5.1-4.6C129.5,376.3,130.9,375.8,132.3,375.7z"/>
	<path class="st1" d="M146.2,370.4c-0.2,2.8,1.6,4.4,3.7,5.7c2,1.2,2.8,3.5,1.7,4.9c-1.1,1.6-4.1,1.6-5.4,0c-1.4-1.8-2.1-3.7-1.7-6
		C144.8,373.4,145.2,371.8,146.2,370.4z"/>
	<path class="st1" d="M9.9,406c-0.8,1.8-1.4,3.5-1.6,5.4c-0.2,1.9-0.3,3.8-0.1,5.6c0.1,1-0.1,1.8-0.4,2.6c-0.4,0.7-1,1.4-1.8,1.4
		c-0.9-0.1-1.6-0.5-1.9-1.4c-0.9-1.8-0.8-3.7-0.1-5.4c1.1-3.1,3.2-5.6,5.2-8.1C9.2,405.9,9.4,405.7,9.9,406z"/>
	<path class="st1" d="M125.9,416.1c4.1,1.7,8.1,3.5,11,7.1c1,1.2,1.1,3.3,0.4,3.9c-0.9,0.7-2.8,0.1-3.9-1.1
		c-0.7-0.8-1.1-1.7-1.8-2.5C130,420.7,128.3,418.1,125.9,416.1z"/>
	<path class="st1" d="M112.8,394.8c2-3.3,2.1-6.8,2-10.4c0-0.4,0.1-1,0.3-1.4c0.7-1.6,2.5-1.8,3.5-0.6c1.4,1.6,1.4,3.3,0.6,5.1
		c-1.2,3-3.7,5.1-5.8,7.5C113.5,394.8,113.3,394.8,112.8,394.8z"/>
	<path class="st1" d="M24.7,340.2c3.1,2.2,6.1,3.5,9.7,3.9c0.9,0.1,1.8,0.4,2.5,1.1c1.2,1.1,1,2.6-0.6,3.2c-2.1,0.7-4,0.1-5.6-1.1
		c-2.2-1.7-3.9-3.8-5.6-5.9C24.9,340.9,24.9,340.7,24.7,340.2z"/>
	<path class="st1" d="M112.6,386.1c-0.7-3.9-2.6-6.8-5.1-9.7c-0.4-0.5-0.5-1.1-0.6-1.6c-0.3-1.5,0.8-2.4,2.2-1.8
		c1.5,0.5,2.5,1.6,3.2,3.1C113.8,379.4,113.3,382.8,112.6,386.1z"/>
	<path class="st1" d="M153.6,352.3c-0.4-1.1,0-2,0-2.8c0-1.8-0.4-3.6-1-5.3c-0.4-0.7-0.5-1.5-0.5-2.3c0-0.9,0.4-1.6,1.1-1.8
		c0.9-0.3,1.6-0.3,2.2,0.5c1,1.1,1.4,2.5,1.1,3.9C156.1,347.3,155.1,349.7,153.6,352.3z"/>
	<path class="st1" d="M20.7,305c1.8-2,1.2-3.9,0.7-5.7c-0.4-1.1-0.3-2.2,0.7-3.1c0.7-0.5,1.6-0.7,2.5-0.4c1.1,0.5,1.8,1.5,1.8,2.8
		C26.3,301.5,24.2,303.9,20.7,305z"/>
	<path class="st1" d="M0.5,414.9c-1.8,2.9-2,6.1-2.2,9.3c-0.1,1.1-0.7,2-1.9,2c-1.1,0-1.6-1-1.7-2c-0.2-1.6,0.2-3.1,1.1-4.4
		C-3,418-1.5,416.2,0.5,414.9z"/>
	<path class="st1" d="M151.1,345.1c-1.1-1-1.2-1.9-1.8-2.6c-1.1-1.5-2.6-2.6-4.1-3.9c-0.2-0.1-0.4-0.2-0.5-0.4
		c-1.3-1-1.8-2.1-1.2-2.9c0.5-0.8,2.6-0.8,3.6,0.1c0.8,0.7,1.6,1.4,2,2.5C150.2,340,150.6,342.3,151.1,345.1z"/>
	<path class="st1" d="M72.4,364.3c1.5,2.5,2.9,4.9,2.9,7.8c0.1,1-0.2,1.9-1,2.6c-0.7,0.7-1.5,1.1-2.4,0.6c-1-0.5-1.2-1.6-1-2.5
		C72.2,370.3,72.8,367.4,72.4,364.3z"/>
	<path class="st1" d="M-43.1,310.9c-0.3,3-0.6,5.9-2.3,8.4c-0.6,0.9-1.5,1.6-2.5,1.8c-0.7,0.1-1.4,0.4-1.9-0.5
		c-0.5-0.8-0.4-1.6,0.2-2.2c0.4-0.5,1-0.9,1.4-1.3C-46.3,315.4-44.4,313.4-43.1,310.9z"/>
	<path class="st1" d="M18.1,398.9c-1.4,2.5-2,5.3-2.7,8.1c-0.3,1-0.8,2-1.8,2.6c-0.9,0.5-1.5,0.4-1.9-0.5c-0.4-0.6-0.4-1.4-0.2-2
		C12.8,403.7,15,401,18.1,398.9z"/>
	<path class="st1" d="M69.9,371.1c-0.5,2.8-0.6,5.7-2.6,7.9c-0.8,0.9-1.8,1.4-2.9,1.6c-0.5,0.1-1.1,0.1-1.6-0.5
		c-0.4-0.5-0.3-1,0.1-1.6c0.3-0.5,0.5-1,1-1.2C66.3,375.7,68.4,373.8,69.9,371.1z"/>
	<path class="st1" d="M79.9,394c-0.7,1.1-2,1.6-3.5,1.8c-0.4,0.1-0.8,0.1-1.1,0c-0.7-0.2-1.8,0.3-2.1-0.5c-0.3-0.5,0.8-0.7,1.1-1.3
		c0.5-1,1.1-1.8,1.8-2.6c0.8-1.1,2.3-1.7,3.1-1.1C80.2,391,80.6,392.6,79.9,394z"/>
	<path class="st1" d="M108.2,401.6c2.8-1,4.8-2.8,6.8-4.8c0.7-0.7,1.8-1.1,2.5-0.2c0.7,1,0.4,1.9-0.5,2.7c-1.2,1.1-2.7,1.8-4.5,2
		C111.3,401.4,109.8,401.7,108.2,401.6z"/>
	<path class="st1" d="M127.1,433.3c0.4,2.2,0.4,4.3-0.1,6.4c-0.1,0.4-0.3,0.6-0.4,1c-0.8,1.3-2.2,1.8-3.2,1.1c-1-0.7-0.8-1.8,0.4-3
		C125.3,437.3,126.2,435.4,127.1,433.3z"/>
	<path class="st1" d="M126.4,374.6c-1.8,0.6-2.8,1.7-3.9,2.9c-0.2,0.4-0.6,0.5-1,0.6c-1,0.4-1.8,0.5-2.5-0.4s-0.3-1.8,0.5-2.6
		C121.3,373.7,124.1,373.4,126.4,374.6z"/>
	<path class="st1" d="M122.6,437.7c-0.6,2.7-3.3,5.2-5.8,5.4c-0.9,0.1-1.8,0-2-1c-0.3-1.1,0.5-1.6,1.4-1.7
		C118.4,439.9,120.6,439.4,122.6,437.7z"/>
	<path class="st1" d="M151.5,358.8c1.8-1.7,3.1-3.7,4.3-5.8c0.4-0.6,1.1-1.1,1.9-0.6c0.7,0.4,0.7,1.2,0.5,1.9
		c-0.4,1.5-1.7,2.4-3,3.1C154.1,358.1,152.8,358.7,151.5,358.8z"/>
	<path class="st1" d="M70.7,357.5c1.6,0.8,3.2,1.6,4.7,2.5c0.6,0.4,1.1,1.1,1.2,1.9c0.3,0.8,0.4,1.6-0.6,2c-0.9,0.4-1.4-0.2-1.8-1
		c-1-2-2.3-3.7-3.9-5.2C70.5,357.7,70.7,357.6,70.7,357.5z"/>
	<path class="st1" d="M153.2,370.9c-0.5,1.1-2.3,1.3-3.2,0.4c-1.1-1.1-1.1-2.6-1-4.1c0.1-0.4,0.4-0.6,0.7-0.4c1,0.7,2,1.4,2.9,2.2
		C153.2,369.5,153.4,370.3,153.2,370.9z"/>
	<path class="st1" d="M127.8,428c1.3,1,2.5,2.1,3.1,3.6c0.2,0.4,0.3,1,0.3,1.4c0,0.7-0.4,1.3-1.1,1.4c-0.9,0.1-1.1-0.7-1.1-1.2
		C128.8,431.3,128.6,429.7,127.8,428z"/>
	<path class="st1" d="M147.5,363.4c1.4-0.4,2.5-1,3.7-1.7c0.5-0.4,1.1-0.4,1.6,0.2c0.4,0.7-0.1,1.2-0.7,1.5
		C150.6,364.2,149,363.9,147.5,363.4z"/>
	<path class="st1" d="M66.5,353.4c1.6-0.4,3.1-1,4.6-0.1c0.5,0.4,1,0.8,0.7,1.4c-0.4,0.7-1,0.4-1.5,0.1
		C69.1,354.2,67.9,353.8,66.5,353.4z"/>
	<path class="st1" d="M94.2,388.9c0-0.3,0-0.5,0-0.7c0.5,0.4,1,0.4,1.6,0.4c1.5-0.1,2-0.8,1.5-2.2c-0.1-0.3-0.4-0.5-0.2-0.8
		c1,0.5,1.4,2.2,1,2.9C97.2,389.4,95.3,389.6,94.2,388.9z"/>
	<path class="st1" d="M126.5,423.5c1.1,0.2,2.3,0.1,3,1.1c0.4,0.4,0.5,1,0.1,1.5c-0.6,0.5-1-0.1-1.3-0.5
		C127.6,424.8,127.1,424.1,126.5,423.5z"/>
	<path class="st1" d="M82,387c-0.8-1.1-1.2-2.5-2.5-3.4c1.5,0.1,2.6,1.7,2.7,3.3C82.2,387,82.1,387,82,387z"/>
	<path class="st1" d="M5.5,376.6c-0.4,1.9-1.4,2.3-3.2,0.9C3.6,377.7,4.7,377.5,5.5,376.6z"/>
	<path class="st1" d="M32.3,303.7c-0.2,0.1-0.4,0.1-0.4,0.2c-0.3-0.8-1.1-1.6-0.9-2.7C31.7,302.1,32.3,302.8,32.3,303.7z"/>
	<path class="st1" d="M27.4,301.8c-0.1,0.1-0.1,0.1-0.1,0.2c0,0-0.1-0.1-0.1,0C27.3,301.9,27.3,301.9,27.4,301.8L27.4,301.8z"/>
	<path class="st1" d="M96.1,386c-0.1,0.1-0.1,0.2-0.2,0.1c-0.1,0-0.1-0.1-0.2-0.2c0.1-0.1,0.1-0.2,0.2-0.1S96,386,96.1,386z"/>
	<path class="st1" d="M5.6,375.5c0.1,0.1,0.1,0.2,0.1,0.4c-0.1,0-0.1,0-0.2,0C5.6,375.7,5.6,375.6,5.6,375.5L5.6,375.5z"/>
	<path class="st1" d="M2.2,376.7C2.1,376.7,2.1,376.7,2.2,376.7C2.1,376.7,2.2,376.7,2.2,376.7C2.3,376.7,2.3,376.7,2.2,376.7
		C2.3,376.7,2.3,376.7,2.2,376.7z"/>
	<path class="st1" d="M-7.5,407.7c-1.3,1-2.8,1.1-4.3,1.4c-3.5,0.6-6.9,0.7-10.2-1.4c-2.4-1.5-3.5-3.7-3.2-6.2
		c0.4-3.1,4.1-4.9,6.8-3.5c1.1,0.5,2.1,1.3,2.6,2.6c0.4,0.8,0.8,1.4,1.1,2.2C-13,405.4-11.2,407.7-7.5,407.7z"/>
	<path class="st1" d="M-22.2,410.9c-3.8,0.5-7.6,1-10.6-2.3c-1.8-1.8-1.9-4.5-0.5-6c2-2.2,4.9-1.6,5.9,1.2c0.4,1.2,0.7,2.5,1.3,3.7
		C-24.9,409.8-24.3,410.3-22.2,410.9z"/>
	<path class="st1" d="M-47.9,384.7c-1.4-0.4-2.3-1.5-3.4-2.3c-1.9-1.3-3.7-2.8-5.2-4.7c-1.5-1.8-2.2-3.9-1.3-6.2
		c0.7-2,2.9-2.5,4.3-0.9c0.5,0.6,1,1.4,1.1,2.2c0.4,4.2,1.8,7.9,4.6,11.2C-47.9,384.3-47.8,384.5-47.9,384.7z"/>
	<path class="st1" d="M-49.6,374.1c-1.6-3.9-3.2-7.7-2.2-12c0.4-1.8,1.1-3.2,2.5-4.3c0.7-0.5,1.6-0.9,2.5-0.5s1.1,1.4,1,2.3
		c0,0.8-0.2,1.6-0.5,2.2C-48.4,365.6-49.9,369.5-49.6,374.1z"/>
	<path class="st1" d="M-34.8,411.9c-1.2,0.1-3.2-0.4-4.6-1c-2.6-1.4-3.3-3.4-1.8-5.5c1-1.4,2.6-1.4,3.7-0.1c0.5,0.7,1,1.4,1.2,2.3
		c0.4,1.3,0.7,2.6,1.8,3.6C-34,411.6-34.1,411.9-34.8,411.9z"/>
	<path class="st1" d="M-40.7,391.1c-3.7,0.6-7.4,1.8-10.9-0.4c-0.1-0.1-0.2-0.1-0.3-0.1c-1.1-0.7-1.8-2.4-1.1-3c0.9-1,2-1,3.1-0.3
		c1.9,1.1,3.7,2.5,6,3.1C-42.9,390.6-41.7,390.9-40.7,391.1z"/>
	<path class="st1" d="M0.1,395.7c-2.7,0.5-5.4,1.7-8.2,0.4c-0.6-0.4-1.1-0.8-1.3-1.5c-0.4-1.3,0.4-2.2,1.7-2c0.5,0.1,1,0.2,1.4,0.5
		c1.6,1.4,3.7,2,5.8,2.2C-0.3,395.3-0.1,395.3,0.1,395.7z"/>
	<path class="st1" d="M-5.1,391.8c-2.7-0.2-6.1-2.8-6.8-5c-0.2-0.6-0.3-1.3-0.1-1.8c0.3-0.9,1.3-1.1,2-0.5c0.4,0.4,0.6,0.6,0.7,1.1
		C-8.5,387.9-7.2,390-5.1,391.8z"/>
	<path class="st1" d="M-33.1,394.1c-1.8,1.3-3.2,3.2-5.6,3.2c-0.7,0-1.4-0.1-1.8-0.7c-0.5-0.7-0.5-1.2,0.4-1.6
		c0.2-0.1,0.4-0.2,0.5-0.2C-37.5,394.6-35.3,394.8-33.1,394.1z"/>
	<path class="st1" d="M2.1,399.5c-0.8,0.4-1.9,0.5-2.3-0.5c-0.4-1.1,0.5-1.4,1.4-1.7c1.5-0.5,3.1-0.9,4.5-1.8
		C5,397.4,3.8,398.6,2.1,399.5z"/>
	<path class="st1" d="M9.6,396.6c-0.4,0.4-0.9,0.7-1.3,0.1c-0.4-0.4-0.4-1,0.1-1.3c0.9-0.7,1.4-1.8,2-2.6
		C10.6,394.2,10.8,395.5,9.6,396.6z"/>
	<path class="st1" d="M-6.6,407.6C-6.6,407.7-6.6,407.7-6.6,407.6L-6.6,407.6C-6.7,407.7-6.6,407.6-6.6,407.6z"/>
	<path class="st1" d="M-6.8,407.6C-6.7,407.6-6.7,407.6-6.8,407.6L-6.8,407.6C-6.9,407.7-6.9,407.7-6.8,407.6z"/>
	<path class="st1" d="M-6.7,407.7L-6.7,407.7L-6.7,407.7L-6.7,407.7z"/>
</g>
</svg>
