<?xml version="1.0" encoding="utf-8"?>
<!-- Generator: Adobe Illustrator 27.3.1, SVG Export Plug-In . SVG Version: 6.00 Build 0)  -->
<svg version="1.1" id="Layer_1" xmlns="http://www.w3.org/2000/svg" xmlns:xlink="http://www.w3.org/1999/xlink" x="0px" y="0px"
	 viewBox="0 0 512 512" style="enable-background:new 0 0 512 512;" xml:space="preserve">
<style type="text/css">
	.st0{opacity:0.17;}
	.st1{fill:#DAA520;}
</style>
<g class="st0">
	<path class="st1" d="M-56.5,145.8c-0.1,0-0.1,0-0.2,0c0,0.1,0,0.2,0,0.2c0.1,0,0.1,0,0.2,0C-56.5,145.9-56.5,145.8-56.5,145.8z
		 M-1.2,68.8c-0.1,0-0.2,0-0.3,0.1c-0.1,0,0,0.2,0,0.3c0.1,0.1,0.3,0,0.3-0.1C-1.2,69-1.3,69-1.2,68.8z M16.3,176.6
		c0,0,0,0.1-0.1,0.1c0.1,0,0.2,0,0.2,0c0.1,0,0.1,0,0.1-0.1C16.6,176.6,16.5,176.6,16.3,176.6z M-57.2,145.4c0.7-1.2,1.5-2,2.8-1.8
		C-56,142.6-57,143.1-57.2,145.4z M-9.3,17c-0.8,0.2-0.5,0.9-0.4,1.3c0.1,0.9,0.3,1.8,0.4,2.7c0.6-1,1.5-1.8,1.1-3
		C-8.4,17.5-8.6,16.9-9.3,17z M6.2,108.1c-0.8-0.3-0.9,0.5-1.1,1c-0.2,1.4-0.8,2.5-1.4,3.7c1.4-0.8,2.7-1.7,3-3.4
		C6.9,108.9,6.8,108.2,6.2,108.1z M53,41.6c-1.5,0.7-2.4,2-3,3.5c1.2-0.7,2.5-1.3,3.7-1.7c0.5-0.2,1.1-0.6,0.9-1.3
		S53.6,41.3,53,41.6z M-15.3,11c-0.6,0.5-0.3,1.2,0.2,1.6c1.3,1.3,2.4,2.6,3.1,4.3c0.2-1.6,0-3.2-0.7-4.7c-0.2-0.4-0.5-0.8-0.8-1.1
		C-14,10.8-14.6,10.6-15.3,11z M48.1,35.8c-1.2-0.4-2.5,0.9-2.4,2.1c0.1,1.7,1.2,2.6,2.5,3.4c0.4,0.3,0.6,0.2,0.8-0.4
		c0.1-1.2,0.2-2.5,0.2-3.6C49.3,36.7,48.8,36.2,48.1,35.8z M2.2,98.7c-0.8,0.4-0.8,1.1-0.5,1.9c0.9,2,1.2,4.2,1.3,6.4
		c0.2,0,0.3,0,0.5,0.1c0.4-1.8,0.9-3.4,1.2-5.2c0.1-0.8-0.1-1.6-0.6-2.2C3.6,98.9,3,98.3,2.2,98.7z M59.6,43.3
		c-1.2,0.4-2.4,1-3.5,1.9c2.5-0.3,4.8,0.1,7.2,0.6c0.7,0.1,1.6-0.1,1.7-1c0.2-0.8-0.5-1.4-1.2-1.7C62.5,42.4,60.9,42.7,59.6,43.3z
		 M-30.7,15.2c-0.7,0.6-1.2,1.3-0.6,2.1c0.7,1,1.5,0.6,2.2,0.1c1.9-1.4,3.8-2.6,6.3-3.1C-25.2,13.1-28.8,13.6-30.7,15.2z M27.5,53.6
		c-1.7,0.9-3.1,1.1-4.8,0.9c-0.4,0-0.7,0.2-1.2,0.3c-0.9,0.4-1.7,1.2-1.3,2.2s1.3,1.4,2.3,1.3C24.8,58,26.9,56.1,27.5,53.6z
		 M-22.2,9.5c-1.6-0.3-2.9,0.4-3,1.7c-0.1,1.2,0.7,1.7,2.5,1.7c2.2-0.1,4.2,0.5,6.2,1.3c-1.4-1.7-3-3.2-4.9-4.2
		C-21.5,9.7-21.9,9.6-22.2,9.5z M2.8,44.2c-1.7,0.2-3.2,0.9-4.5,2.1c-1.2,1-2.3,1.9-3.2,3.3c2.6-1.4,5.4-1.7,8.3-2
		c1-0.1,2.1-0.6,1.8-1.8C4.9,44.5,4,44,2.8,44.2z M-18.1,75.8c-1.4-0.2-2.5,0.4-3.7,1.4c-0.2,0.2-0.6,0.5-0.7,0.9
		c-0.4,0.7-1.4,1.2-1.1,2c0.2,0.6,1.1-0.1,1.7,0c1.1,0.2,2.1,0.3,3.1,0.5c1.4,0.1,2.8-0.6,2.9-1.6C-15.6,77.5-16.6,76.2-18.1,75.8z
		 M-15.1,95.3c-1.1,0-2.3,0.4-3.1,1.1c-0.5,0.4-0.8,0.9-0.7,1.5c0.2,0.5,0.6,0.9,1.2,1c0.5,0.2,1,0.2,1.5,0.1c2.8-0.8,5.8-1,8.7-0.5
		C-9.9,97.1-12.2,95.3-15.1,95.3z M-73.9,115.4c-1.1,0.3-1.2,0.9-0.8,1.8c0.3,0.7,0.7,1.2,1.4,1.4c3.4,1.2,6.9,1.4,10.5,0.5
		c-2.9-0.6-5.4-2-7.9-3.3C-71.7,115.4-72.8,115.2-73.9,115.4z M-45,220.1c-1.2-0.1-2.2,0-3,0.8c-0.5,0.5-1.2,1-0.9,1.8
		c0.3,0.9,0.9,1.3,1.7,1.3c0.7,0,1.2-0.1,1.9-0.2c2.7-0.4,5.4-0.5,8.1,0.1C-39.4,222.1-41.9,220.4-45,220.1z M-7.2,92.7
		c-1,0.2-1.8,0.4-2,1.3c-0.3,1,0.4,2,1.2,2.2c2.9,1.1,5.4,2.5,7.5,4.8c-0.9-2.7-1.8-5.5-4-7.5C-5.3,93-6.1,92.5-7.2,92.7z
		 M66.2,54.6c-0.1,1.4,0.6,2.2,0.8,3.1c0.4,2,0.3,3.8,0.2,5.7c0,0.2-0.1,0.4-0.1,0.6c-0.2,1.6,0.4,2.7,1.4,2.9s2.4-1.4,2.3-2.7
		c0-1.1-0.1-2.1-0.4-3.2C69.4,58.7,68,56.8,66.2,54.6z M-97.9,117.5c-0.8,0.9-0.3,1.9,0.4,2.6c1.2,1.2,2.4,1.8,4.1,2.1
		c2.2,0.3,4.5,0.3,6.8-0.3c-3.4-0.7-6-2.6-8.5-4.5C-96.1,116.6-97.1,116.5-97.9,117.5z M9.9,179.7c2.7,0,3.7,1.6,4.7,3.1
		c0.6,1.1,1.5,1.7,2.8,1.5c0.9-0.1,1.7-0.8,1.8-1.7c0.4-1.2,0.1-2.3-1-3.1C16.2,177.7,13,177.7,9.9,179.7z M62.4,47.8
		c0.6,1.1,1.5,1.3,2.1,1.8c1.3,1.3,2.5,2.7,3.3,4.3c0.4,0.8,0.8,1.3,1.4,1.9c0.6,0.5,1.3,0.8,2.1,0.3c0.8-0.5,1.2-1,1.1-2.1
		c-0.3-1.4-0.9-2.7-2.2-3.5C67.8,49.3,65.4,48.4,62.4,47.8z M9.6,56.4c2.5,3.1,3.4,6.6,4,10.2c0.2,0.6,0.5,1.1,0.8,1.5
		c1,1.2,2.3,0.8,2.9-0.5c0.6-1.5,0.5-2.9-0.2-4.5C15.5,59.9,12.6,58,9.6,56.4z M-12.6,139.1c-2,1.1-2.7,3-2.8,5
		c-0.2,2.8,0.2,5.5,0.7,8.2c0,0.3,0.3,0.5,0.5,0.9c0.3-3.7,1.5-6.9,3.6-9.8c0.6-0.7,0.9-1.5,0.9-2.6C-9.9,139.1-11,138.3-12.6,139.1
		z M3.7,49.9c-0.1,0-0.1,0.2-0.4,0.6c3.9,0.7,6.6,3,9.2,5.4c0.4,0.3,0.8,0.6,1.2,0.7c1.5,0.6,3.1-0.6,2.8-2.2
		c-0.2-2-1.7-3.3-3.4-3.9C10,49.4,6.9,49.9,3.7,49.9z M-4.9,10.5c-1.1,0.2-1.9,2-1.7,3.7c0.2,1,0.5,2,0.8,3c0.9,3,1.8,6,1.7,9.2
		c1.5-4.2,2.7-8.5,1.9-13C-2.5,11.9-4,10.4-4.9,10.5z M-87.6,113.7c-0.6,0.7-0.6,1.5-0.2,2.4c0.8,1.9,2.3,3,3.9,3.7
		c3.1,1.1,6.4,1.3,9.5,1.5c0.3,0,0.6,0,0.7-0.6c-1.8-0.5-3.6-1.3-5.2-2.4s-3-2.3-4.4-3.7c-0.6-0.7-1.4-1.1-2.2-1.3
		C-86.2,113.1-87.1,113-87.6,113.7z M39.4,30.3c-2-0.2-4,2-3.6,4.1c0.4,2.3,1.4,4.1,3.4,5.3c1.4,0.9,2.9,1.5,4.7,1.8
		c-2.2-1.8-2.3-4-1.9-6.6C42.4,32.5,41.2,30.5,39.4,30.3z M21.3,45.3c-2-0.2-3.7,0.9-4.1,2.6c-0.3,1.6,1.1,3.1,3,3.7
		c2.3,0.6,4.7,0.2,6.9-0.8c1.4-0.6,2.7-1.3,3.6-2.5c-3.1,0.9-5.2-0.7-7.5-2.2C22.5,45.6,22,45.3,21.3,45.3z M-17.2,125.3
		c-2.1,1-3.3,2.8-3.6,4.9c-0.6,4,0.1,7.8,1.1,11.6c0.2-1.3,0.5-2.6,0.8-3.9c0.7-2.5,1.7-4.8,3.1-6.9c0.9-1.3,2-2.7,1.3-4.5
		C-14.8,125.3-16,124.7-17.2,125.3z M-27.3,152.5c-2.2-0.4-4.4,1.5-4.5,3.7c-0.1,1.8,1.4,2.9,3.3,3.2c1.2,0.1,2.5,0,3.7,0
		c1.6-0.1,3,0,4.5,1.3C-21,156.5-24.1,153.1-27.3,152.5z M-2,172.7c-1.5,2.1-1.6,4.5-2.1,7c1.6-1.6,3.6-1.9,5.5-2.3
		c1.2-0.2,2.3-0.4,3.3-1c1.8-1.2,2-3.1,0.6-4.8C3.3,169.3,0.1,169.8-2,172.7z M4.2,4.1C1.7,5,0.2,6.8,0.1,9.6c0,3.2,0,6.5,0.1,9.7
		c0.1,2-0.2,4-0.7,6.1c1-0.1,0.9-0.8,1.1-1.2c1-3,0.7-6.1,0.8-9.1c0.1-1.8-0.1-3.7,0.3-5.4C2.2,7,5.2,5.1,7.9,5.8
		c2.2,0.5,3.7,3.2,3,5.7c-0.2,0.8-0.6,1.5-1.5,1.5c-0.8,0.1-1.5-0.2-1.8-0.9C7.1,11.4,7.3,10.7,8,9.9c-1.3,0-1.7,0.7-1.5,1.8
		c0.2,1.4,1.3,2.4,2.5,2.6c1.4,0.1,2.7-0.7,3.1-2c0.7-2.4,0.5-4.7-1.3-6.6C9,3.6,6.7,3.2,4.2,4.1z M-54.9,212.6
		c-1.4,1-1.3,2.5,0,3.4c0.9,0.7,2,1,3.1,1c4.8-0.2,9.4,0.7,14,3.1c-0.4-0.5-0.5-0.7-0.7-1c-3-2.6-5.9-5.5-9.7-7.1
		C-50.6,211.1-52.9,211-54.9,212.6z M11.7,18.5c-2.4-0.6-4.6,0.1-6.4,1.7c-2.9,2.4-4.3,5.7-5.5,9.1c-0.5,1.2-1.2,2.4-1.2,4
		c0.9-1.3,1.6-2.6,2.5-3.6c2.3-2.8,5.2-4.6,8.8-5.5c1.1-0.4,2.3-0.8,3.1-1.7C14.3,20.9,13.7,19,11.7,18.5z M21.9,107.8
		c-1.6,0.8-2.3,2.3-2.9,3.7c-1.9,4-4.3,7.9-8.3,10.2c-0.2,0.2-0.3,0.3-0.2,0.6c1.8-0.4,3.5-1,5.1-1.7c3.6-1.5,6.9-3.3,8.7-7.1
		c0.8-1.5,1-3,0.5-4.5C24.4,107.7,23.2,107.2,21.9,107.8z M27.4,117.3c-1.1,0.3-1.8,0.9-2.6,1.6c-3.4,2.7-7.1,4.7-11.5,5.3
		c-0.2,0-0.4,0.2-0.7,0.2c1.9,0.8,3.8,1,5.8,1.2c3,0.4,6,0.5,8.8-0.5c1.7-0.6,3-1.6,3.8-3.3c0.6-1.2,0.7-2.5-0.3-3.6
		C29.8,117.1,28.6,117,27.4,117.3z M27.5,32.2c-1.5-0.3-3.1,0.2-3.9,1.6c-0.9,1.4-1.2,2.9-0.4,4.4c1.3,2.5,3.3,4.2,6,5
		c2.3,0.6,4.8,1,7.6,0.8c-0.6-0.3-0.8-0.6-1-0.6c-2.2-0.7-3.3-2.3-3.9-4.4c-0.4-1.1-0.6-2.3-0.8-3.5C30.9,33.8,29.4,32.5,27.5,32.2z
		 M-30.1,164.3c-1.3,1.5-1.6,3.2-0.7,4.8c1,1.6,2.3,2.5,4.4,2.5c0.8,0,1.7-0.1,2.5-0.2c3.4-0.3,6.5,0.1,8.3,3.7
		c-1.1-4.3-2-8.5-6-11.1C-24.8,161.8-28,161.7-30.1,164.3z M-3.2,184.6c-1.7,3.1-1.8,6.6-1.6,10c1.2-4,4.5-4.7,7.8-5.2
		c1.8-0.3,3.6-0.3,4.7-2.1c1.7-2.5,0.7-5.7-2.2-6.6C2.3,179.6-1.3,181.3-3.2,184.6z M-27,194.6c-2.9,2.1-4.4,5.1-4.9,8.6
		c-0.7,4.6,0,9.1,0.9,13.5c0,0.2,0.2,0.2,0.4,0.8c0.2-1.1,0.3-1.7,0.3-2.4c0.6-5.2,3.1-9.4,6.1-13.5c0.8-1.2,1.8-2.2,2.2-3.7
		c0.4-1.5,0.6-3-0.7-4.1C-23.5,193.2-25.6,193.6-27,194.6z M-38.9,192.6c-2,0.5-3.1,2-3.7,3.8c-1,2.6-0.6,5.2,0.5,7.6
		c2,4.6,4.8,8.5,7.9,12.4c0,0.1,0.2,0.1,0.8,0.5c-1.7-4.2-2.3-8.2-2.1-12.3c0-2.5,0.9-4.9,1.1-7.4C-34.6,194.3-36.8,192-38.9,192.6z
		 M-25.3,108c-2.6,2.3-3.5,5.3-3.3,8.5c0.2,4.8,1.7,9.2,3.2,13.7c0.4,1,0.6,2.2,1.5,3.1c0-2.6-0.1-5.2,0.2-7.8
		c0.5-3.8,1.6-7.3,2.9-10.8c0.6-1.5,1-2.8,0.9-4.4c-0.1-1.4-0.7-2.7-2.1-3.3C-23.2,106.6-24.4,107.2-25.3,108z M-23.6,174
		c-3.1-0.6-7.2,1.3-7.5,5.6c-0.3,3.3,2.7,6.8,6.2,6.9c2.8,0.2,5.5,0.5,8.1,1.8c2,1,3.2,2.7,3.8,4.8c0.2,0.4,0.3,1,0.5,1.4
		c-0.1-5.4-0.6-10.8-3.7-15.3C-18.1,176.6-20.6,174.8-23.6,174z M1.2,193.2c-4.3,3.1-5.4,7.7-5.6,12.7c-0.1,2.9,0.3,5.8,1,9
		c0.5-1,0.3-1.7,0.4-2.3c0.6-4,3.5-5.7,6.6-7.1c1.2-0.6,2.5-0.9,3.7-1.4c2.6-0.9,4.1-2.8,4.4-5.4c0.3-2.9-1-5.1-3.7-6.2
		C5.6,191.2,3.3,191.6,1.2,193.2z M49.3,19.9c-6.1-0.9-12-0.3-17.9,1c-5,1.1-9.9,2.9-14.5,5.2c-7.9,4-14.8,9.3-21,15.6
		C-5.4,43-7,44.1-8.3,45.5c-0.2,0.2-0.5,0.8-0.9,0.5c-0.6-0.3,0-0.7,0.1-1c1.2-2.9,2.7-5.8,2.7-9.2c0-6.9-1.8-12.9-8.2-16.5
		c-7.4-4.2-17.7-1.1-20,7.8c-1.2,4.4,0.7,10.4,6.4,12.4c3.2,1.2,6.5,0.8,9.2-1.5c2.4-1.9,3.5-4.6,2.9-7.7c-0.9-4.8-6-6.8-10-3.9
		c-2.6,1.9-2.3,6.1,0.5,7.6c1.3,0.6,3.3,0.2,4.2-0.9c0.8-1.1,0.7-2.3-0.2-3.4c-0.8-0.8-1.5-0.6-2.4-0.1c-0.8,0.5-0.5,1.2,0.1,1.9
		c0.4-0.6,0-1.6,1-1.5c0.7,0,0.9,0.4,1,1.1c0.2,0.9-0.1,1.5-1,1.8c-1.4,0.6-2.8,0.1-3.5-1c-0.7-1.3-0.3-3.3,0.9-4.3
		c1.7-1.3,4.3-1.3,5.8,0c1.7,1.4,2.2,4.3,1.2,6.4c-1.6,2.8-4,3.9-7.2,3.8c-2.9-0.2-5.1-1.6-6.3-4.4c-2.4-5.8,1.4-12.3,7.8-13.4
		c7-1.3,12.7,2.8,14.9,9.3c1.8,5.5,0.6,10.7-1.1,16c-1.4,4.2-4.5,7.1-6.9,10.5c-0.4,0.6-0.8,1.1-1.3,1.7c-0.1,0.2-0.2,0.7-0.7,0.6
		c-0.4-0.1-0.3-0.5-0.4-0.8c-0.4-2.5-2.5-4.6-4.9-4.9c-1.8-0.4-3.5,1-3.3,2.6c0.9-1.9,3-2.5,4.9-1.4c3.1,2,3.5,5,1.3,8
		c-1.4,1.9-2.3,4.2-3.5,6.5c-2,4.2-4.1,8.3-5.8,12.6c-1.4,5-3,10.3-4,15.7c-1,5.2-1.4,10.4-1.1,15.6c0.3,8.3,2,16.1,5.3,23.7
		c0.2,0.2,0.4,0.5,0,0.9c-2.2-1.8-4.4-3.7-6.8-5.3c-4.3-3-9-5.3-14.1-6.9c-7.5-2.4-15.2-3-22.9-2c-8.8,1.1-16.9,4.3-24.2,9.5
		c-5.3,3.7-9.8,8.1-13.3,13.6c-3,4.7-5.2,9.7-6.2,15.1c-2.4,12.4,0,23.9,7.5,34.2c4.3,5.8,9.7,10.1,16.5,12.5
		c7.1,2.6,14.4,2.9,21.6,0.8c8.1-2.3,14.8-6.6,19.8-13.4c8.1-11.1,6.7-27.1-3.3-36.7c-0.2-0.2-0.9-0.4-0.6-0.9
		c0.2-0.5,0.9-0.3,1.4-0.4c7.3-0.7,11.3-8.8,7.3-15c-2.3-3.5-7.2-4.7-10.5-2.4c-1.9,1.4-3,3.8-2.5,6.3c0.6,2.4,2,3.9,4.4,4.3
		c2.7,0.4,4.9-2.1,4.2-4.7c-0.1-0.4-0.3-1.1-0.9-1.1c0,0.3,0,0.6,0.1,0.7c0.6,1.8,0.1,3.4-1.3,4c-1.6,0.8-3.9,0.1-4.8-1.3
		c-1.3-2-1.5-4.5,0.2-6.6c1.6-1.7,4.6-2.3,6.6-1.4c4,1.7,5.2,5.3,4.5,9c-0.6,3.9-4.2,6.9-8.2,6.8c-7.5,0-12.5-6.2-11.7-13.6
		c0.9-8.1,7.2-12.1,14.5-12.5c4.2-0.2,7.7,1,11.1,3.2c6.2,3.8,11.9,8.3,16.4,14.2c6.6,8.5,11.3,18,14.1,28.4
		c2.8,10.7,3.7,21.6,3.1,32.6c-0.3,5.9-0.8,11.8-2.1,17.6c-0.2,0.9-0.2,1.7-0.4,2.6c0,0.2-0.1,0.5-0.4,0.6c-0.4,0.1-0.4-0.2-0.5-0.4
		c-2-4.6-6.1-6.3-10.6-7c-3.9-0.5-8.3,2.8-9.5,7c-1,3.9,1.2,7.9,5.3,9.5c1.6,0.6,3.2,1,4.8,0.6s2.9-1.9,2.9-3.5
		c0.1-1.6-1.2-3.5-2.6-4c-1.5-0.6-2.4-0.1-3.1,1.4c0.4,0.3,0.6,0,0.8-0.2c1.3-0.8,2.2-0.6,3,0.5c0.9,1.2,0.7,2.7-0.3,3.7
		c-0.5,0.5-1.2,0.7-2,0.7c-2.5,0-4.4-1.4-5.7-3.4c-1.1-1.6-1.2-3.5-0.3-5.2c2.6-4.8,7.2-6,11.9-3.3c4.2,2.4,5.7,6.1,4.7,10.5
		c-1.3,5.8-3.1,11.4-5.3,17c-0.5,1.2-0.7,2.4-1,3.7l1,0.2c0.6-2.7,1.7-5.1,2.5-7.7c0.7-2.1,1.6-4.2,2.4-6.3
		c1.7-5.1,3.2-10.4,4.2-15.7c1.9-9.2,3.1-18.5,2.9-27.9c-0.1-6.5-0.7-12.8-1.8-19.1c-0.1-0.4-0.2-0.9,0.1-1.2
		c1.5-2.4,2.8-4.9,5.1-6.8c2.9-2.5,8.5-3.2,12.2-1.7c2.9,1.3,5.2,2.9,6.3,5.8c0,0.1,0.2,0.2,0.2,0.2c0,0.1,0.2,0,0.5,0.2
		c-1-3-2.8-5.3-5.6-6.5c-8.5-3.7-14.6-0.9-19.3,6.7c-0.5-0.8-0.2-1.5,0-1.9c1.8-5.4,7.4-9.4,13.3-9.5c3.7-0.1,7,0.5,9.9,3
		c1.3,1.2,2.2,2.7,3.2,4.2c0.5,0.7,0.4,1.7,1.5,2.5c-0.2-1.1-0.3-2.1-1.1-2.7c-1.5-2.5-2.9-5.2-5.6-6.4c-7.7-3.3-16.9-1.8-21.4,6.4
		c-0.1,0.2-0.2,0.6-0.5,0.6c-0.5-0.1-0.4-0.5-0.6-0.8c-1.3-3.1-1.1-6.3-1-9.5c0.2-3.5,0.6-7.1,1.6-10.6c2.5-7.7,6.3-14.4,13.7-18.6
		c6.3-3.5,12.7-4,19.3-1.3c6.6,3,11,7.7,12.5,15c1.3,6.4-1.8,13.6-7.1,16.8c-6.2,3.7-13.9,1.7-18.1-3.8c-3.1-4.6-2.4-10.6,1-14.3
		c2.3-2.5,6.1-3.4,9.3-1.9c3.1,1.4,5.5,3.8,5.1,7.7c-0.2,1.8-1.8,4.3-3.5,4.8c-2.2,0.7-4,0-5.6-1.5c-1.4-1.4-1.2-3.4,0.1-4.7
		c1.1-1.1,2.7-0.9,3.4,0.6c0.5,0.9-0.4,1.3-0.7,2c1.5-0.6,1.8-1.5,1.1-2.5c-0.7-1-2.4-1.7-3.3-1.3c-1.2,0.5-2.5,2.6-2.5,3.7
		c0.3,2.5,2.6,4.7,5.1,4.9c2.7,0.3,5.4-1.6,6.3-4.3c1.4-4.4-0.6-8.3-4.8-10.4c-6.3-3.1-12.5,1.3-13.9,6.7
		c-2.1,7.1,2.1,13.8,8.8,16.5c7.3,3.1,14.3,0.5,18.4-5.3c4.6-6.4,4.8-13.3,1.2-20.1c-5.8-10.4-18.8-14.9-29.7-10.3
		c-7.2,3-11.9,8.6-15,15.6c-2.5,5.8-3.6,12-3.4,18.3c0,0.2-0.1,0.2-0.1,0.3c-0.6,0-0.6-0.4-0.6-0.7c-2.7-7-6.6-13.2-10.9-19.4
		c-2.5-3.4-4-7.5-5.3-11.4c-2.4-6.9-3.4-14-3.3-21.3c0-4.6,1.6-8.7,4.2-12.3c5.1-7.3,12.2-11,21.3-10.6c5.6,0.4,10,3.1,13.3,7.4
		c3.2,4.1,4.7,8.7,4.4,13.9c-0.6,9.5-8.8,15.7-17.3,14.5c-4.7-0.6-7.6-3.9-9.2-8.2c-0.7-2.2-1-4.4-0.4-6.7c0.7-3.7,4.9-7.1,9.4-6.9
		c4.1,0.2,7.5,5.5,5.9,9.3c-0.7,1.7-3.9,3.4-5.5,3.1c-0.9-0.2-2.2-2.5-2.2-3.9c0.1-1.2,0.7-1.5,2.7-1.7c-0.8-0.6-1.7-0.6-2.5,0
		c-0.8,0.5-1,1.3-0.8,2.2c0.3,1.8,1,3.5,2.9,3.9c2.1,0.4,4-0.2,5.5-1.7c2.1-1.9,2.2-5.2,0.6-8.2c-2.3-4.4-7.2-5.7-11.9-3.2
		c-5.2,2.7-6.9,7.7-5.3,14c1.5,5.9,6.7,10.3,12.5,10.4c6.1,0.2,11.1-2.3,14.6-7.3c4.4-6.3,4.3-13,1.4-19.8
		c-2.2-5.6-6.3-9.6-11.7-11.9C-5,85.4-10.3,85.4-15.6,87c-5.7,1.8-10.2,5-13.7,9.7c-0.2,0.3-0.4,0.6-0.7,0.9
		c-0.3-0.1-0.4-0.3-0.3-0.5c1-6.1,2.7-12.1,5.1-18c1.2-2.8,3.8-3.8,6.5-4.1c3.3-0.4,5.8,1.4,8,3.7c0.3,1.3,1,2.6,0.9,4.2
		c0.9-1.2,0.4-3.1-0.7-4.3c-0.7-1.9-2.3-3-4.1-3.8c-2.9-1.2-6-1-8.7,0.8c-0.2-1.7,0.4-2.5,2-3.2c5-2,10.7,0.3,13.1,5.1
		c0.2,0.2,0.3,0.5,0.6,0.4c0.2-2.5-2.9-4.9-5-5.9c-2.7-1.3-5.4-1.5-8.3-0.6c-0.2,0.2-0.8,0.4-1,0c-0.2-0.3,0-0.6,0.2-0.8
		c0-0.1,0.1,0,0.1-0.1c1.4-2.9,1.9-3.2,5.1-2.4c0.8,0.2,1.7,0.6,2.5,0.4c1.4-0.3,2.5-1.5,2.6-2.7s-1-2.8-2.3-3.3
		c-0.7-0.3-1.6-0.3-2.5,0c-0.2,0.2-0.8,0.4-1,0s0.2-0.6,0.4-0.8c0.5-0.8,0.9-1.5,1.3-2.3c2-4.3,5.8-5.7,10.1-6.4
		c8.3-1.2,16.1,5,16.6,13.4c0.4,6.4-4.7,12.4-11,12.2c-3.6-0.1-6.3-2-8-5.2c-1.5-2.8-1.5-5.6,0.4-8.4c1.7-2.4,4.3-3.3,7.1-2.6
		c2.1,0.7,3.9,3,4,5.3c0,2-1.7,4.2-3.5,4.3c-1.9,0.2-3.1-0.9-3.6-2.9c0-0.6,0.3-1,0.8-1.4c1.1-1.1,1.8-0.9,2.6,0.4
		c0.2,0.2,0.2,0.6,0.5,0.6c0.2-1.1-0.6-2.6-1.6-2.6c-1.2-0.1-2.7,1.2-2.7,2.6C-4,70.5-3.2,72-1.4,72.8c1.5,0.6,3.5,0,4.9-1.4
		c2.5-2.6,1.4-6.5-1.6-8.7c-4.2-3.1-9.2-0.2-10.8,3.4c-2.7,5.8,1.6,11.8,6.5,13.4c7.8,2.7,15.5-4.6,15.3-12.2
		C12,57.2,2.8,49.9-6.8,51.8c-1.2,0.2-2.3,0.6-3.4,0.9c-0.2,0.2-0.6,0.5-0.9,0.2c-0.3-0.5,0.1-0.7,0.4-1c2-2.7,4.2-5,6.4-7.3
		c5.7-5.8,12-10.9,19.1-14.7c9.1-5,18.7-8,29.2-7.7c10.2,0.2,19.3,3.1,27,9.8c8.6,7.5,13.3,17.1,14,28.5c0.6,9-1.7,16.9-7.4,23.8
		c-6.6,8-15.1,11.9-25.4,11.1c-7.9-0.6-14.1-4.7-18.5-11.4c-3.4-5.2-4.8-10.9-4.2-16.9c0.9-11.3,10.8-19.2,21.4-18
		c6.4,0.8,11.5,5.9,13,12.6c1,4.9,0.3,9.3-3.7,12.7c-2.5,2.2-5.6,3.4-9.2,2.8c-3.8-0.6-6.7-3.8-7.3-8c-0.5-4.4,1.3-6.9,5.5-7.6
		c2.6-0.4,3.8,0.4,4.6,2.9c1,3.3-1.1,4.3-3.7,3.6c0.9,1.2,1.9,1,2.9,0.7c1.3-0.4,2.1-1.2,1.9-2.7C54.7,65,54.6,64,54.2,63
		c-0.5-1.7-2.5-2.8-4.7-2.7c-4.3,0.3-7.9,3.2-7.4,8.5s3.5,8.9,8.1,9.9c6.2,1.3,13.3-3.1,15.2-9.2c2.4-7.9-1.5-17.5-8.7-21.4
		c-5.4-2.9-11-2.6-16.5-0.4c-7,3-11.5,8.5-13.4,15.7c-1.2,4.5-0.9,9.2,0.3,13.8c2.5,8.5,7.3,14.9,15.3,19c7,3.5,14.3,3.8,21.6,1.6
		c10.8-3.3,18.2-10.6,22.2-21.1c2.3-6.1,3-12.6,2-19.1c-0.9-6.2-2.7-12-6.1-17.4c-5-7.9-11.8-13.8-20.4-17.5
		C57.8,21.1,53.6,20.5,49.3,19.9z M-52.3,128.5c-0.6,0.1-1.3,0.1-1.9,0.2c-3.5,0.1-6.6,1.4-9.5,3.5c-5.2,3.8-7,12.6-3.9,18.1
		c0.4,0.6,1.4,1.4,0.9,2.1c-0.4,0.7-1.4-0.1-2.1-0.1c-0.1,0-0.2,0-0.3,0c-6-0.5-11.3,1.1-16.1,4.6c-3.4,2.5-6,5.6-7.3,9.7
		c-1.6,5.9-0.5,11.4,3.5,16.2c2.1,2.7,4.9,4.4,8.5,4.7c3.5,0.2,6.5-1,9.5-2.7c4.2-2.7,5.7-7.1,3.7-11.8c-0.9-2.1-2.3-3.9-4.6-4.8
		c-2.5-0.8-4.7,0.4-6.6,1.9c-2.1,1.7-1.6,5.1,0.8,6.3c0.8,0.4,1.4,0.1,1.9-0.8c-0.6-0.2-0.8,0.5-1.3,0.3c-1.2-0.4-2.3-2.7-1.7-4
		c0.9-2.2,5.1-3.6,7.2-2.4c2.9,1.8,5.3,7,2.4,11c-1.4,2.1-3.6,3.4-6,4.2c-3.2,1-6.3,1.1-9.1-0.8c-5.6-3.8-8-12.6-4.7-18.8
		c2.8-5,7.2-7.8,12.5-9.3c4.5-1.2,8.9-1.1,13.2,1c4,1.9,7,5.1,9.1,9.1c4.7,9,4.2,17.8-1.3,26.2c-2.9,4.5-7.1,7.6-11.9,9.9
		c-6.2,3.1-12.8,4.1-19.6,3c-9.4-1.6-16.4-6.7-21.5-14.7c-5.5-8.8-7.1-18.3-5.2-28.3c1.3-6.9,4.3-13.1,8.8-18.6
		c3.9-4.6,8.7-8.4,14.1-11.4c5.2-2.9,10.9-4.7,16.8-5.6c5.7-0.9,11.4-0.5,17.1,0.3c1.8,0.3,3.4,0.9,5.2,1.3
		C-52.1,128.4-52.2,128.5-52.3,128.5z M-63.3,129c-0.9-1.1-1.8-2.1-3.5-1.9c-0.4,0.1-1.1,0.3-0.9,0.9c0,0.6,0.5,0.8,1.1,0.8
		C-65.4,128.6-64.4,128.9-63.3,129z M-68.5,130.9c-1.8-0.8-3.6-0.7-5.4,0c-0.8,0.4-1.6,1.1-1.2,2.1s1.4,0.5,2.2,0
		C-71.5,132.2-70.1,131.3-68.5,130.9z M-72.4,134.8c-2.3,1.7-4.9,2.9-5.8,5.9c-0.2,0.6-0.1,1.4,0.2,2c0.7,1.2,1.9,1.2,2.7,0.1
		c0.3-0.4,0.5-0.9,0.5-1.3c0-2.2,1-4.1,2.2-5.7C-72.3,135.6-72.2,135.3-72.4,134.8z M-86,132.1c0.1,0,0.2,0,0.2,0
		C-85.9,132.1-85.9,132-86,132.1L-86,132.1L-86,132.1z M-86.1,132.1C-86,132.2-86,132.1-86.1,132.1L-86.1,132.1
		C-86.2,132.2-86.1,132.2-86.1,132.1z M-86.4,132.7c-1.6,0.3-2.8,1.3-3.9,2.3c-2.8,2.3-5.1,4.8-5.8,8.6c-0.4,2.7,0.5,5,2.5,6.5
		c2.5,1.9,6.3,0.1,7.2-2.7c0.4-1.2,0.4-2.5-0.2-3.7c-0.4-0.8-0.6-1.5-0.9-2.4C-88.5,138.3-88.9,135.4-86.4,132.7z M-53.8,143.9
		c0.1,0.1,0.2,0.1,0.3,0.1c0-0.1-0.2-0.2-0.2-0.3C-53.7,143.8-53.7,143.9-53.8,143.9z M-53.4,144.1L-53.4,144.1L-53.4,144.1
		L-53.4,144.1L-53.4,144.1z M-72.2,151.1c0.9,0.4,1.8-0.3,1.7-1.1c0-0.5-0.1-0.9-0.3-1.3c-1.3-2.2-2.1-4.6-2.1-7.4
		c-1.7,2.2-2,6.4-0.7,8.5C-73.2,150.5-72.8,150.9-72.2,151.1z M-98.6,141.5c-2.9,2.6-5.9,5.1-5.3,9.5c0.4,2.5,2,4.4,4.1,4.4
		c2.9-0.1,4.4-2.7,3-5.3c-0.7-1.2-1.5-2.2-2-3.4C-99.7,144.4-99.6,143.6-98.6,141.5z M-107.8,150.4c-0.9,1-2,2.7-2.3,4
		c-0.8,2.9,0.4,4.8,3,5.1c1.7,0.2,2.8-1.1,2.5-2.6c-0.2-0.9-0.5-1.7-0.9-2.5c-0.7-1.2-1.4-2.4-1.5-3.8
		C-107,150-107.4,149.9-107.8,150.4z M-93.3,161.1c-2.1,0.5-4.5,0.4-6.1,2.2c-0.5,0.5-0.9,1.1-0.7,1.9c0.2,0.9,0.6,1.2,1.4,0.8
		c0.2,0,0.3-0.2,0.5-0.2C-96.5,164-95.3,162.2-93.3,161.1z M-97.6,171.8c0.5-1.1,1.1-2.1,1.6-3c-3,2.3-6.2,4.4-6.9,8.5
		c0,0.1,0,0.2,0,0.2c-0.2,1.3,0.6,2.9,1.5,2.8c1.3,0,2-0.9,2.2-2.1C-98.9,176.1-98.7,173.7-97.6,171.8z M-96.7,182.5
		c-0.3,2.3-0.3,4.7,0.1,7s1.5,4.2,3.8,5.1c2,0.7,3.8-0.7,3.5-2.7c-0.1-0.8-0.4-1.6-1-2.3c-2.9-3-4.8-6.7-5.4-10.9
		c0-0.2,0-0.4-0.4-0.5C-96.6,179.7-96.5,181.1-96.7,182.5z M-81.5,196.5c1.5,0.8,3.2,1.3,4.9,0.9c0.9-0.2,1.7-0.6,2-1.5
		c0.2-1-0.3-1.7-1-2.3c-0.6-0.4-1.3-0.9-2.1-1.1c-4.3-0.9-8.2-2.6-11.4-5.7C-87.1,190.5-85.5,194.2-81.5,196.5z"/>
	<path class="st1" d="M49.3,19.9c-6.1-0.9-12-0.3-17.9,1c-5,1.1-9.9,2.9-14.5,5.2c-7.9,4-14.8,9.3-21,15.6C-5.4,43-7,44.1-8.3,45.5
		c-0.2,0.2-0.5,0.8-0.9,0.5c-0.6-0.3,0-0.7,0.1-1c1.2-2.9,2.7-5.8,2.7-9.2c0-6.9-1.8-12.9-8.2-16.5c-7.4-4.2-17.7-1.1-20,7.8
		c-1.2,4.4,0.7,10.4,6.4,12.4c3.2,1.2,6.5,0.8,9.2-1.5c2.4-1.9,3.5-4.6,2.9-7.7c-0.9-4.8-6-6.8-10-3.9c-2.6,1.9-2.3,6.1,0.5,7.6
		c1.3,0.6,3.3,0.2,4.2-0.9c0.8-1.1,0.7-2.3-0.2-3.4c-0.8-0.8-1.5-0.6-2.4-0.1c-0.8,0.5-0.5,1.2,0.1,1.9c0.4-0.6,0-1.6,1-1.5
		c0.7,0,0.9,0.4,1,1.1c0.2,0.9-0.1,1.5-1,1.8c-1.4,0.6-2.8,0.1-3.5-1c-0.7-1.3-0.3-3.3,0.9-4.3c1.7-1.3,4.3-1.3,5.8,0
		c1.7,1.4,2.2,4.3,1.2,6.4c-1.6,2.8-4,3.9-7.2,3.8c-2.9-0.2-5.1-1.6-6.3-4.4c-2.4-5.8,1.4-12.3,7.8-13.4c7-1.3,12.7,2.8,14.9,9.3
		c1.8,5.5,0.6,10.7-1.1,16c-1.4,4.2-4.5,7.1-6.9,10.5c-0.4,0.6-0.8,1.1-1.3,1.7c-0.1,0.2-0.2,0.7-0.7,0.6c-0.4-0.1-0.3-0.5-0.4-0.8
		c-0.4-2.5-2.5-4.6-4.9-4.9c-1.8-0.4-3.5,1-3.3,2.6c0.9-1.9,3-2.5,4.9-1.4c3.1,2,3.5,5,1.3,8c-1.4,1.9-2.3,4.2-3.5,6.5
		c-2,4.2-4.1,8.3-5.8,12.6c-1.4,5-3,10.3-4,15.7c-1,5.2-1.4,10.4-1.1,15.6c0.3,8.3,2,16.1,5.3,23.7c0.2,0.2,0.4,0.5,0,0.9
		c-2.2-1.8-4.4-3.7-6.8-5.3c-4.3-3-9-5.3-14.1-6.9c-7.5-2.4-15.2-3-22.9-2c-8.8,1.1-16.9,4.3-24.2,9.5c-5.3,3.7-9.8,8.1-13.3,13.6
		c-3,4.7-5.2,9.7-6.2,15.1c-2.4,12.4,0,23.9,7.5,34.2c4.3,5.8,9.7,10.1,16.5,12.5c7.1,2.6,14.4,2.9,21.6,0.8
		c8.1-2.3,14.8-6.6,19.8-13.4c8.1-11.1,6.7-27.1-3.3-36.7c-0.2-0.2-0.9-0.4-0.6-0.9c0.2-0.5,0.9-0.3,1.4-0.4
		c7.3-0.7,11.3-8.8,7.3-15c-2.3-3.5-7.2-4.7-10.5-2.4c-1.9,1.4-3,3.8-2.5,6.3c0.6,2.4,2,3.9,4.4,4.3c2.7,0.4,4.9-2.1,4.2-4.7
		c-0.1-0.4-0.3-1.1-0.9-1.1c0,0.3,0,0.6,0.1,0.7c0.6,1.8,0.1,3.4-1.3,4c-1.6,0.8-3.9,0.1-4.8-1.3c-1.3-2-1.5-4.5,0.2-6.6
		c1.6-1.7,4.6-2.3,6.6-1.4c4,1.7,5.2,5.3,4.5,9c-0.6,3.9-4.2,6.9-8.2,6.8c-7.5,0-12.5-6.2-11.7-13.6c0.9-8.1,7.2-12.1,14.5-12.5
		c4.2-0.2,7.7,1,11.1,3.2c6.2,3.8,11.9,8.3,16.4,14.2c6.6,8.5,11.3,18,14.1,28.4c2.8,10.7,3.7,21.6,3.1,32.6
		c-0.3,5.9-0.8,11.8-2.1,17.6c-0.2,0.9-0.2,1.7-0.4,2.6c0,0.2-0.1,0.5-0.4,0.6c-0.4,0.1-0.4-0.2-0.5-0.4c-2-4.6-6.1-6.3-10.6-7
		c-3.9-0.5-8.3,2.8-9.5,7c-1,3.9,1.2,7.9,5.3,9.5c1.6,0.6,3.2,1,4.8,0.6s2.9-1.9,2.9-3.5c0.1-1.6-1.2-3.5-2.6-4
		c-1.5-0.6-2.4-0.1-3.1,1.4c0.4,0.3,0.6,0,0.8-0.2c1.3-0.8,2.2-0.6,3,0.5c0.9,1.2,0.7,2.7-0.3,3.7c-0.5,0.5-1.2,0.7-2,0.7
		c-2.5,0-4.4-1.4-5.7-3.4c-1.1-1.6-1.2-3.5-0.3-5.2c2.6-4.8,7.2-6,11.9-3.3c4.2,2.4,5.7,6.1,4.7,10.5c-1.3,5.8-3.1,11.4-5.3,17
		c-0.5,1.2-0.7,2.4-1,3.7l1,0.2c0.6-2.7,1.7-5.1,2.5-7.7c0.7-2.1,1.6-4.2,2.4-6.3c1.7-5.1,3.2-10.4,4.2-15.7
		c1.9-9.2,3.1-18.5,2.9-27.9c-0.1-6.5-0.7-12.8-1.8-19.1c-0.1-0.4-0.2-0.9,0.1-1.2c1.5-2.4,2.8-4.9,5.1-6.8
		c2.9-2.5,8.5-3.2,12.2-1.7c2.9,1.3,5.2,2.9,6.3,5.8c0,0.1,0.2,0.2,0.2,0.2c0,0.1,0.2,0,0.5,0.2c-1-3-2.8-5.3-5.6-6.5
		c-8.5-3.7-14.6-0.9-19.3,6.7c-0.5-0.8-0.2-1.5,0-1.9c1.8-5.4,7.4-9.4,13.3-9.5c3.7-0.1,7,0.5,9.9,3c1.3,1.2,2.2,2.7,3.2,4.2
		c0.2-0.1,0.2-0.2,0.4-0.2c-1.5-2.5-2.9-5.2-5.6-6.4c-7.7-3.3-16.9-1.8-21.4,6.4c-0.1,0.2-0.2,0.6-0.5,0.6c-0.5-0.1-0.4-0.5-0.6-0.8
		c-1.3-3.1-1.1-6.3-1-9.5c0.2-3.5,0.6-7.1,1.6-10.6c2.5-7.7,6.3-14.4,13.7-18.7c6.3-3.5,12.7-4,19.3-1.3c6.7,2.7,11.1,7.6,12.6,14.8
		c1.3,6.4-1.8,13.6-7.1,16.8c-6.2,3.7-13.9,1.7-18.1-3.8c-3.6-4.5-2.9-10.5,0.5-14.1c2.3-2.5,6.1-3.4,9.3-1.9
		c3.1,1.4,5.5,3.8,5.1,7.7c-0.2,1.8-1.8,4.3-3.5,4.8c-2.2,0.7-4,0-5.6-1.5c-1.4-1.4-1.2-3.4,0.1-4.7c1.1-1.1,2.7-0.9,3.4,0.6
		c0.5,0.9-0.4,1.3-0.7,2c1.5-0.6,1.8-1.5,1.1-2.5c-0.7-1-2.4-1.7-3.3-1.3c-1.2,0.5-2.5,2.6-2.5,3.7c0.3,2.5,2.6,4.7,5.1,4.9
		c2.7,0.3,5.4-1.6,6.3-4.3c1.4-4.4-0.6-8.3-4.8-10.4c-6.3-3.1-12.5,1.3-13.9,6.7c-2.1,7.1,2.1,13.8,8.8,16.5
		c7.3,3.1,14.3,0.5,18.4-5.3c4.6-6.4,4.8-13.3,1.2-20.1c-6.1-10.3-19-14.7-29.9-10.1c-7.2,3-11.9,8.6-15,15.6
		c-2.5,5.8-3.6,12-3.4,18.3c0,0.2-0.1,0.2-0.1,0.3c-0.6,0-0.6-0.4-0.6-0.7c-2.7-7-6.6-13.2-10.9-19.4c-2.5-3.4-4-7.5-5.3-11.4
		c-2.4-6.8-3.4-13.9-3.3-21.3c0-4.6,1.6-8.7,4.2-12.3c5.1-7.3,12.2-11,21.2-10.5C-1,89,3.4,91.7,6.8,96c3.2,4,4.7,8.7,4.4,13.8
		c-0.6,9.5-8.8,15.7-17.3,14.5c-4.6-0.6-7.6-3.9-9.1-8.2c-0.7-2.2-1-4.4-0.4-6.7c0.7-3.7,4.9-7.1,9.4-6.9c4.1,0.3,7.4,5.5,5.8,9.5
		c-0.7,1.7-3.9,3.4-5.5,3.1c-0.9-0.2-2.2-2.5-2.2-3.9c0.1-1.2,0.7-1.5,2.7-1.7c-0.8-0.6-1.7-0.6-2.5,0c-0.8,0.5-1,1.3-0.8,2.2
		c0.2,1.7,0.9,3.5,2.9,3.9c2.1,0.4,4-0.2,5.5-1.7c2.1-1.9,2.2-5.2,0.6-8.2c-2.3-4.4-7.2-5.7-11.9-3.2c-5.2,2.7-6.9,7.7-5.3,14
		c1.5,5.7,6.6,10,12.5,10.1c6.1,0.2,11.1-2.3,14.6-7.3c4.4-6.3,4.3-13,1.4-19.8C9.3,94,5.3,90-0.2,87.6C-5.4,85.4-10.7,85.4-16,87
		c-5.6,1.9-10.1,5.1-13.6,9.8c-0.2,0.3-0.4,0.6-0.7,0.9c-0.3-0.1-0.4-0.3-0.3-0.5c1-6.2,2.7-12.2,5-18c1.2-2.8,3.8-3.8,6.5-4.1
		c3.3-0.4,5.8,1.4,8,3.7c0.1-0.1,0.1-0.2,0.2-0.2c-0.7-1.9-2.3-3-4.1-3.8c-2.9-1.2-6-1-8.7,0.8c-0.2-1.7,0.4-2.5,2-3.2
		c5-2,10.7,0.3,13.1,5.1c0.2,0.2,0.3,0.5,0.6,0.4c0.2-2.5-2.9-4.9-5-5.9c-2.7-1.3-5.4-1.5-8.3-0.6c-0.2,0.2-0.8,0.4-1,0
		c-0.2-0.3,0-0.6,0.2-0.8c0-0.1,0.1,0,0.1-0.1c1.4-2.9,1.9-3.2,5.1-2.4c0.8,0.2,1.7,0.6,2.5,0.4c1.4-0.3,2.5-1.5,2.6-2.7
		s-1-2.8-2.3-3.3c-0.8-0.4-1.7-0.3-2.6-0.1c-0.2,0.2-0.8,0.4-1,0s0.2-0.6,0.4-0.8c0.5-0.8,0.9-1.5,1.3-2.3c2-4.3,5.8-5.7,10.1-6.4
		c8.5-1.2,16.3,5.1,16.7,13.4c0.4,6.4-4.7,12.4-11,12.2c-3.6-0.1-6.3-2-8-5.2c-1.5-2.8-1.5-5.6,0.4-8.4c1.7-2.4,4.3-3.3,7.1-2.6
		c2.1,0.7,3.9,3,4,5.3c0,2-1.7,4.2-3.5,4.3C-2.1,72.1-3.3,71-3.8,69c-0.1-0.2-0.4-0.3-0.5-0.4c-0.2,1.8,0.6,3.3,2.4,4.1
		c1.5,0.6,3.5,0,4.9-1.4c2.5-2.6,1.4-6.5-1.6-8.7c-4.2-3.1-9.2-0.2-10.8,3.4c-2.7,5.8,1.6,11.8,6.5,13.4c7.8,2.7,15.5-4.6,15.3-12.2
		c-0.2-9.7-9.4-17-19-15.1c-1.2,0.2-2.3,0.6-3.4,0.9c-0.2,0.2-0.6,0.5-0.9,0.2c-0.3-0.5,0.1-0.7,0.4-1c2-2.7,4.2-5,6.4-7.3
		C1.6,39.1,7.9,34,15,30.2c9.1-5,18.7-8,29.2-7.7c10-0.1,19.1,2.8,26.8,9.5c8.6,7.5,13.3,17.1,14,28.5c0.6,9-1.7,16.9-7.4,23.8
		c-6.6,8-15.1,11.9-25.4,11.1c-7.9-0.6-14.1-4.7-18.5-11.4c-3.4-5.2-4.8-10.9-4.2-16.9c0.9-11.3,10.8-19.2,21.4-18
		c6.4,0.8,11.5,5.9,13,12.6c1,4.9,0.3,9.3-3.7,12.7c-2.5,2.2-5.6,3.4-9.2,2.8c-3.8-0.6-6.7-3.8-7.3-8c-0.5-4.4,1.3-6.9,5.5-7.6
		c2.6-0.4,3.8,0.4,4.6,2.9c1,3.3-1.1,4.3-3.7,3.6c0.9,1.2,1.9,1,2.9,0.7c1.3-0.4,2.1-1.2,1.9-2.7C54.7,65,54.6,64,54.2,63
		c-0.5-1.7-2.5-2.8-4.7-2.7c-4.3,0.3-7.9,3.2-7.4,8.5c0.6,5.4,3.5,8.9,8.1,9.9c6.2,1.3,13.3-3.1,15.2-9.2c2.4-7.9-1.5-17.5-8.7-21.4
		c-5.4-2.9-11-2.6-16.5-0.4c-7,3-11.5,8.5-13.4,15.7c-1.2,4.5-0.9,9.2,0.3,13.8c2.5,8.5,7.3,14.9,15.3,19c7,3.5,14.3,3.8,21.6,1.6
		c10.8-3.3,18.2-10.6,22.2-21.1c2.3-6.1,3-12.6,2-19.1c-0.9-6.2-2.7-12-6.1-17.4c-5-7.9-11.8-13.8-20.4-17.5
		C57.8,21.1,53.6,20.5,49.3,19.9z M-52.3,128.5c-0.6,0.1-1.3,0.1-1.9,0.2c-3.5,0.1-6.6,1.4-9.5,3.5c-5.2,3.8-7,12.6-3.9,18.1
		c0.4,0.6,1.4,1.4,0.9,2.1c-0.4,0.7-1.4-0.1-2.1-0.1c-0.1,0-0.2,0-0.3,0c-6-0.5-11.3,1.1-16.1,4.6c-3.4,2.5-6,5.6-7.3,9.7
		c-1.6,5.9-0.5,11.4,3.5,16.2c2.1,2.7,4.9,4.4,8.5,4.7c3.5,0.2,6.5-1,9.5-2.7c4.2-2.7,5.7-7.1,3.7-11.8c-0.9-2.1-2.3-3.9-4.6-4.8
		c-2.5-0.8-4.7,0.4-6.6,1.9c-2.1,1.7-1.6,5.1,0.8,6.3c0.8,0.4,1.4,0.1,1.9-0.8c-0.6-0.2-0.8,0.5-1.3,0.3c-1.2-0.4-2.3-2.7-1.7-4
		c0.9-2.2,5.1-3.6,7.2-2.4c2.9,1.8,5.3,7,2.4,11c-1.4,2.1-3.6,3.4-6,4.2c-3.2,1-6.3,1.1-9.1-0.8c-5.6-3.8-8-12.6-4.7-18.8
		c2.8-5,7.2-7.8,12.5-9.3c4.5-1.2,8.9-1.1,13.2,1c4,1.9,7,5.1,9.1,9.1c4.7,9,4.2,17.8-1.3,26.2c-2.9,4.5-7.1,7.6-11.9,9.9
		c-6.2,3.1-12.8,4.1-19.6,3c-9.4-1.6-16.4-6.7-21.5-14.7c-5.5-8.8-7.1-18.3-5.2-28.3c1.3-6.9,4.3-13.1,8.8-18.6
		c3.9-4.6,8.7-8.4,14.1-11.4c5.2-2.9,10.9-4.7,16.8-5.6c5.7-0.9,11.4-0.5,17.1,0.3c1.8,0.3,3.4,0.9,5.2,1.3
		C-52.1,128.4-52.2,128.5-52.3,128.5z M-53.4,144.1L-53.4,144.1L-53.4,144.1L-53.4,144.1z"/>
	<path class="st1" d="M-4.4,205.8c0.2-4.9,1.2-9.5,5.6-12.7c2.1-1.6,4.4-1.9,6.8-0.8c2.7,1.2,4,3.4,3.7,6.2
		c-0.4,2.5-1.8,4.5-4.4,5.4c-1.2,0.4-2.5,0.8-3.7,1.4c-3.1,1.5-6.1,3.1-6.6,7.1c-0.1,0.7,0.1,1.5-0.4,2.3
		C-4.1,211.7-4.5,208.8-4.4,205.8z"/>
	<path class="st1" d="M-13.1,193.2c-0.6-2.1-1.9-3.7-3.8-4.8c-2.5-1.3-5.2-1.6-8.1-1.8c-3.4-0.2-6.5-3.6-6.2-6.9
		c0.4-4.2,4.5-6.2,7.5-5.6c3.1,0.6,5.6,2.5,7.4,5.2c3.1,4.6,3.6,9.9,3.7,15.3C-12.8,194.1-13,193.6-13.1,193.2z"/>
	<path class="st1" d="M-25.3,130.2c-1.6-4.5-3.2-8.9-3.2-13.7c-0.1-3.3,0.8-6.3,3.3-8.5c1-0.9,2.1-1.5,3.4-0.8
		c1.4,0.6,2,1.9,2.1,3.3c0.1,1.6-0.4,3-0.9,4.4c-1.4,3.5-2.5,7-2.9,10.8c-0.3,2.5-0.1,5.1-0.2,7.7C-24.7,132.4-25,131.3-25.3,130.2z
		"/>
	<path class="st1" d="M-34.3,216.4c-3.1-3.9-5.9-7.8-7.9-12.4c-1-2.4-1.4-5-0.5-7.6c0.7-1.9,1.7-3.3,3.7-3.8
		c2.2-0.6,4.3,1.9,4.2,4.6c0,2.5-0.9,4.9-1.1,7.4c-0.2,4.1,0.4,8.1,2.1,12.3C-34.1,216.4-34.3,216.5-34.3,216.4z"/>
	<path class="st1" d="M-31,216.7c-0.9-4.5-1.6-9-0.9-13.5c0.6-3.4,2-6.4,4.9-8.6c1.4-1,3.6-1.5,4.3-0.7c1.3,1.2,1.2,2.6,0.7,4.1
		c-0.4,1.4-1.4,2.5-2.2,3.7c-3,4-5.6,8.3-6.1,13.5c-0.1,0.7-0.3,1.4-0.3,2.4C-30.7,216.9-30.9,216.8-31,216.7z"/>
	<path class="st1" d="M-3.2,184.6c1.8-3.4,5.5-5,8.7-4c3,1,3.9,4.1,2.2,6.6c-1.2,1.7-2.9,1.8-4.7,2.1c-3.3,0.6-6.7,1.2-7.8,5.2
		C-5.1,191.1-4.9,187.6-3.2,184.6z"/>
	<path class="st1" d="M-24.1,171.3c-0.8,0-1.7,0.1-2.5,0.2c-2,0-3.4-0.8-4.3-2.5c-0.9-1.6-0.6-3.3,0.7-4.8c2.2-2.5,5.4-2.4,8.6-0.3
		c3.9,2.6,5,6.8,6,11.1C-17.5,171.3-20.7,171-24.1,171.3z"/>
	<path class="st1" d="M29.2,43.2c-2.8-0.7-4.7-2.4-6-5c-0.8-1.5-0.6-3.1,0.4-4.4c0.9-1.4,2.4-2,3.9-1.6c2.2,0.4,3.4,1.7,3.7,3.5
		c0.2,1.2,0.5,2.3,0.8,3.5c0.6,2.1,1.7,3.7,3.9,4.4c0.2,0.1,0.6,0.3,1,0.6C33.9,44.1,31.6,43.8,29.2,43.2z"/>
	<path class="st1" d="M13.3,124.2c4.4-0.6,8.1-2.6,11.5-5.3c0.8-0.7,1.6-1.3,2.6-1.6c1.2-0.3,2.5-0.2,3.3,0.8
		c0.9,1.1,0.9,2.4,0.3,3.6c-0.8,1.6-2.1,2.7-3.8,3.3c-2.9,1-5.9,0.9-8.8,0.5c-1.9-0.2-3.9-0.2-5.8-1.2
		C12.9,124.2,13,124.1,13.3,124.2z"/>
	<path class="st1" d="M10.8,121.8c4-2.4,6.4-6.1,8.3-10.2c0.7-1.5,1.3-3,2.9-3.7c1.3-0.6,2.5-0.1,2.9,1.2c0.5,1.5,0.3,3.1-0.5,4.5
		c-1.8,3.7-5.1,5.5-8.7,7.1c-1.8,0.7-3.4,1.5-5.3,1.8C10.4,122,10.6,121.8,10.8,121.8z"/>
	<path class="st1" d="M-0.3,29.3c1.2-3.4,2.7-6.7,5.5-9.1c1.9-1.5,4-2.2,6.4-1.7c2.1,0.5,2.5,2.3,1.3,3.9c-0.9,1-2,1.4-3.1,1.7
		c-3.5,1-6.6,2.8-8.8,5.5c-0.9,1.1-1.5,2.3-2.5,3.6C-1.4,31.7-0.7,30.5-0.3,29.3z"/>
	<path class="st1" d="M-52,216.9c-1,0-2.1-0.2-3.1-1c-1.3-1-1.3-2.5,0-3.4c2.1-1.5,4.3-1.5,6.6-0.5c3.8,1.6,6.6,4.4,9.7,7.1
		c0.2,0.1,0.4,0.4,0.7,0.9C-42.6,217.7-47.1,216.8-52,216.9z"/>
	<path class="st1" d="M7.7,12.1c0.5,0.7,1.1,1,1.8,0.9c0.9-0.1,1.3-0.8,1.5-1.5c0.7-2.5-0.8-5.2-3-5.7C5.3,5.1,2.3,6.9,1.8,9.5
		c-0.4,1.8-0.2,3.6-0.3,5.4C1.3,18,1.6,21.1,0.7,24c-0.2,0.5-0.1,1.2-1.1,1.2c0.5-2,0.9-4,0.8-6C0.2,16,0.2,12.8,0.3,9.6
		C0.4,6.8,1.9,5,4.4,4.1c2.4-1,4.7-0.6,6.7,1.4c1.7,1.9,2,4.2,1.3,6.6c-0.4,1.3-1.8,2-3.1,2C8.1,14,7,12.8,6.8,11.5
		C6.7,10.4,7,9.8,8.3,9.7C7.3,10.6,7.1,11.2,7.7,12.1z"/>
	<path class="st1" d="M-2,172.7c2-2.9,5.2-3.4,7.3-1.1c1.5,1.6,1.3,3.5-0.6,4.8c-1,0.7-2.1,0.8-3.3,1c-2,0.4-4,0.7-5.5,2.3
		C-3.5,177.2-3.3,174.7-2,172.7z"/>
	<path class="st1" d="M-25,159.3c-1.2,0.1-2.4,0.1-3.7,0c-1.9-0.2-3.4-1.3-3.3-3.2c0.1-2.1,2.5-4.1,4.5-3.7c3.3,0.7,6.2,4.1,6.8,8.2
		C-21.9,159.2-23.4,159.2-25,159.3z"/>
	<path class="st1" d="M-20.8,130.3c0.4-2.3,1.5-3.9,3.6-4.9c1.4-0.6,2.4,0,2.9,1.4c0.5,1.7-0.5,3.1-1.3,4.5
		c-1.4,2.1-2.6,4.4-3.1,6.9c-0.3,1.3-0.6,2.6-0.8,3.9C-20.6,138-21.4,134.3-20.8,130.3z"/>
	<path class="st1" d="M27.1,50.8c-2.2,1-4.5,1.4-6.9,0.8c-1.9-0.6-3.2-2-3-3.7s2-2.8,4.1-2.6c0.7,0,1.2,0.4,1.8,0.9
		c2.3,1.5,4.4,3,7.5,2.2C29.7,49.4,28.3,50.1,27.1,50.8z"/>
	<path class="st1" d="M39.2,39.7c-2-1.2-3.1-3-3.4-5.3c-0.3-2.1,1.7-4.2,3.6-4.1c1.8,0.2,3,2.2,2.6,4.5c-0.4,2.5-0.4,4.8,1.9,6.6
		C42.1,41.2,40.6,40.5,39.2,39.7z"/>
	<path class="st1" d="M-74.3,121.3c-3.2-0.1-6.4-0.4-9.5-1.5c-1.9-0.7-3.2-1.8-3.9-3.7c-0.3-0.9-0.3-1.7,0.2-2.4
		c0.6-0.7,1.4-0.6,2.1-0.4c0.8,0.3,1.5,0.8,2.2,1.3c1.4,1.4,2.8,2.5,4.4,3.7c1.6,1.1,3.4,1.9,5.2,2.4
		C-73.8,121.2-74,121.3-74.3,121.3z"/>
	<path class="st1" d="M-5.9,17.2c-0.4-1-0.6-2-0.8-3C-7,12.6-6.1,10.8-5,10.5c0.9-0.1,2.4,1.4,2.7,2.9c0.9,4.6-0.4,8.8-1.9,13
		C-4,23.3-5,20.2-5.9,17.2z"/>
	<path class="st1" d="M3.7,49.9c3.2,0,6.4-0.5,9.4,0.6c1.9,0.7,3.2,1.8,3.4,3.9c0.2,1.6-1.2,2.8-2.8,2.2c-0.5-0.2-1-0.4-1.2-0.7
		c-2.6-2.5-5.3-4.7-9.2-5.4C3.5,50.1,3.7,49.9,3.7,49.9z"/>
	<path class="st1" d="M-14.7,152.3c-0.5-2.7-0.9-5.4-0.7-8.2c0.1-2,0.9-4,2.8-5c1.5-0.8,2.7,0,2.9,1.6c0,0.9-0.3,1.9-0.9,2.6
		c-2.1,3-3.2,6.2-3.5,9.9C-14.5,152.7-14.6,152.6-14.7,152.3z"/>
	<path class="st1" d="M17,63.2c0.6,1.4,0.7,2.9,0.2,4.5c-0.6,1.5-1.8,1.8-2.8,0.5c-0.4-0.5-0.7-1-0.8-1.5c-0.5-3.6-1.5-7.2-4-10.2
		C12.6,58,15.5,59.9,17,63.2z"/>
	<path class="st1" d="M70.2,50.8c1.2,0.8,1.9,2,2.2,3.5c0.2,1-0.3,1.5-1.1,2.1c-0.7,0.5-1.4,0.3-2.1-0.3c-0.6-0.5-1-1.2-1.4-1.9
		c-0.9-1.7-2-3.1-3.3-4.3c-0.6-0.5-1.5-0.8-2.1-1.8C65.4,48.4,67.8,49.3,70.2,50.8z"/>
	<path class="st1" d="M18.3,179.6c1,0.9,1.3,1.9,1,3.1c-0.2,0.9-0.9,1.5-1.8,1.7c-1.3,0.2-2.2-0.4-2.8-1.5c-1-1.6-2.1-3.2-4.7-3.1
		C13,177.7,16.2,177.7,18.3,179.6z"/>
	<path class="st1" d="M-93.5,122.1c-1.6-0.2-3-0.8-4.1-2.1c-0.7-0.8-1.2-1.8-0.4-2.6c0.8-0.9,1.9-0.9,2.8-0.1c2.6,2,5.2,3.9,8.5,4.5
		C-88.9,122.4-91.2,122.4-93.5,122.1z"/>
	<path class="st1" d="M70.3,61c0.4,1,0.4,2.1,0.4,3.2c0,1.4-1.4,2.9-2.3,2.7S66.9,65.7,67,64c0-0.2,0.1-0.4,0.1-0.6
		c0.2-1.9,0.2-3.8-0.2-5.7c-0.1-0.9-0.7-1.7-0.8-3.1C68,56.8,69.4,58.7,70.3,61z"/>
	<path class="st1" d="M-8.1,96.4c-0.8-0.4-1.5-1.2-1.2-2.2c0.3-0.9,1.1-1.3,2-1.3c1.1-0.1,2,0.4,2.6,1c2.2,2,3.1,4.7,4,7.5
		C-2.7,98.9-5.2,97.4-8.1,96.4z"/>
	<path class="st1" d="M-45.2,223.6c-0.6,0.1-1.2,0.2-1.9,0.2c-0.8,0-1.5-0.4-1.7-1.3c-0.3-0.9,0.2-1.4,0.9-1.8c0.9-0.7,2-0.9,3-0.8
		c3,0.4,5.5,2.1,7.8,3.9C-39.8,223.2-42.6,223.3-45.2,223.6z"/>
	<path class="st1" d="M-73.4,118.7c-0.6-0.2-1.1-0.9-1.4-1.4c-0.4-0.9-0.2-1.5,0.8-1.8c1.2-0.3,2.1-0.1,3.1,0.4
		c2.5,1.4,5,2.6,7.9,3.3C-66.4,120.1-69.9,119.9-73.4,118.7z"/>
	<path class="st1" d="M-16.2,99.1c-0.6,0.2-1.1,0-1.6-0.2c-0.6-0.1-1-0.4-1.2-1c-0.2-0.7,0.2-1.1,0.7-1.5c0.8-0.8,2-1.1,3.1-1.1
		c3.1-0.1,5.3,1.7,7.8,3.2C-10.4,98-13.3,98.2-16.2,99.1z"/>
	<path class="st1" d="M-15.7,78.9c-0.1,1-1.5,1.8-2.9,1.6c-1.1-0.1-2.1-0.2-3.1-0.4c-0.6-0.1-1.5,0.6-1.7,0c-0.4-0.8,0.6-1.3,1-1.9
		c0.1-0.3,0.4-0.6,0.7-0.9c1.1-0.9,2.3-1.6,3.7-1.4C-16.6,76.2-15.6,77.5-15.7,78.9z"/>
	<path class="st1" d="M-1.7,46.2c1.3-1.2,2.7-1.8,4.5-2.1C4,44,4.9,44.5,5.2,45.5c0.2,1.2-0.8,1.7-1.8,1.8c-2.8,0.2-5.6,0.5-8.3,2
		C-3.9,48.1-2.8,47.1-1.7,46.2z"/>
	<path class="st1" d="M-22.7,12.9c-1.8,0.1-2.6-0.6-2.5-1.7c0.1-1.2,1.4-1.9,3-1.7c0.4,0,0.7,0.1,1,0.3c1.9,1.1,3.5,2.4,4.9,4.2
		C-18.5,13.3-20.5,12.7-22.7,12.9z"/>
	<path class="st1" d="M22.7,58.3c-1.1,0.1-2-0.2-2.3-1.3s0.4-1.8,1.3-2.2c0.3-0.2,0.8-0.3,1.2-0.3c1.5,0.1,3.1,0,4.8-0.9
		C26.9,56.1,24.8,58,22.7,58.3z"/>
	<path class="st1" d="M-29,17.5c-0.7,0.6-1.6,0.9-2.3,0c-0.6-0.9,0-1.6,0.6-2.1c1.8-1.8,5.6-2.2,8-0.9C-25.3,14.9-27.1,16.1-29,17.5
		z"/>
	<path class="st1" d="M59.6,43.2c1.4-0.5,2.8-0.9,4.3-0.2c0.6,0.3,1.3,0.8,1.2,1.7c-0.2,0.9-1,1.2-1.7,1c-2.5-0.4-4.9-0.8-7.3-0.5
		C57.2,44.2,58.4,43.7,59.6,43.2z"/>
	<path class="st1" d="M2.9,107c0-2.3-0.4-4.4-1.3-6.4c-0.3-0.8-0.4-1.5,0.5-1.9C3,98.3,3.6,99,4,99.6c0.5,0.7,0.7,1.4,0.6,2.2
		c-0.3,1.8-0.8,3.5-1.2,5.2C3.2,107,3.1,107,2.9,107z"/>
	<path class="st1" d="M49.2,37.4C49.1,38.6,49,39.9,49,41c0,0.5-0.3,0.6-0.8,0.4c-1.2-0.8-2.3-1.8-2.5-3.4c-0.1-1.2,1.3-2.5,2.4-2.1
		C48.8,36.2,49.3,36.7,49.2,37.4z"/>
	<path class="st1" d="M-15,12.8c-0.4-0.5-0.8-1.1-0.2-1.6c0.5-0.6,1.2-0.3,1.7,0c0.4,0.3,0.6,0.7,0.8,1.1c0.7,1.4,0.9,3.1,0.7,4.7
		C-12.6,15.3-13.8,14-15,12.8z"/>
	<path class="st1" d="M53,41.6c0.6-0.2,1.3-0.4,1.6,0.4c0.2,0.7-0.3,1.1-0.9,1.3c-1.3,0.4-2.6,1-3.7,1.7
		C50.7,43.5,51.5,42.2,53,41.6z"/>
	<path class="st1" d="M5.1,109.1c0.1-0.6,0.2-1.3,1.1-1c0.6,0.2,0.8,0.8,0.6,1.5c-0.3,1.7-1.6,2.5-3,3.4
		C4.3,111.6,4.9,110.4,5.1,109.1z"/>
	<path class="st1" d="M-1.9,65.8c1,0.1,1.8,1.5,1.6,2.6c-0.4,0-0.4-0.4-0.5-0.6c-0.8-1.3-1.6-1.5-2.6-0.4c-0.5,0.4-0.6,0.9-0.8,1.4
		c-0.1-0.2-0.4-0.3-0.5-0.4C-4.5,67.1-3,65.7-1.9,65.8z"/>
	<path class="st1" d="M-9.7,18.4c0-0.6-0.4-1.1,0.4-1.3c0.6-0.1,0.9,0.4,1,1.1c0.4,1.1-0.4,2-1.1,3C-9.4,20.1-9.5,19.3-9.7,18.4z"/>
	<path class="st1" d="M-11.2,78.7c1.2,1.2,1.6,3.1,0.7,4.3c0.2-1.6-0.6-2.9-0.9-4.2C-11.4,78.7-11.3,78.7-11.2,78.7z"/>
	<path class="st1" d="M-57.2,145.4c0.2-2.3,1.2-2.8,2.8-1.8C-55.7,143.5-56.5,144.2-57.2,145.4z"/>
	<path class="st1" d="M19.5,174.4c-1-0.7-1-1.7-1.5-2.5c0.2-0.1,0.2-0.2,0.4-0.2C19.1,172.4,19.2,173.2,19.5,174.4z"/>
	<path class="st1" d="M16.6,176.8c-0.1,0-0.2,0-0.2,0c0.1,0,0.1-0.1,0.1-0.1c0.1,0,0.2,0,0.2,0L16.6,176.8z"/>
	<path class="st1" d="M-1.3,69c-0.1,0-0.2,0-0.3,0.1c0-0.1,0-0.2,0-0.3c0.1,0,0.2,0,0.3-0.1C-1.3,69-1.2,69-1.3,69z"/>
	<path class="st1" d="M-53.4,144.1c-0.1-0.1-0.2-0.1-0.3-0.1c0-0.1,0.1-0.1,0.1-0.2C-53.5,143.9-53.5,144-53.4,144.1L-53.4,144.1z"
		/>
	<path class="st1" d="M-56.5,145.8c0,0,0,0.1,0,0.2c-0.1,0-0.1,0-0.2,0c0,0,0-0.1,0-0.2C-56.6,145.8-56.6,145.8-56.5,145.8z"/>
	<path class="st1" d="M-87.5,141.2c0.3,0.8,0.4,1.7,0.9,2.4c0.7,1.2,0.6,2.4,0.2,3.7c-0.8,2.9-4.6,4.6-7.2,2.7
		c-2.1-1.5-2.9-3.8-2.5-6.5c0.6-3.8,2.9-6.4,5.8-8.6c1.2-1,2.3-1.9,3.9-2.3C-88.9,135.4-88.5,138.3-87.5,141.2z"/>
	<path class="st1" d="M-98.8,146.8c0.5,1.3,1.3,2.3,2,3.4c1.5,2.5,0,5.2-3,5.3c-2.1,0-3.9-1.9-4.1-4.4c-0.5-4.5,2.4-7.1,5.3-9.5
		C-99.6,143.6-99.7,144.4-98.8,146.8z"/>
	<path class="st1" d="M-95.6,178.9c0.7,4.2,2.5,7.8,5.4,10.9c0.5,0.6,0.8,1.5,1,2.3c0.3,2.1-1.5,3.5-3.5,2.7
		c-2.4-0.9-3.4-2.8-3.8-5.1s-0.3-4.7-0.1-7c0.1-1.4,0-2.8,0.6-4.1C-95.6,178.4-95.6,178.7-95.6,178.9z"/>
	<path class="st1" d="M-77.7,192.6c0.7,0.2,1.5,0.6,2.1,1.1c0.8,0.6,1.3,1.3,1,2.3c-0.2,0.9-1.1,1.3-2,1.5c-1.8,0.3-3.4-0.1-4.9-0.9
		c-3.9-2.1-5.7-5.9-7.6-9.6C-86,190-81.9,191.5-77.7,192.6z"/>
	<path class="st1" d="M-107,150.7c0.1,1.4,0.8,2.6,1.5,3.8c0.5,0.7,0.8,1.6,0.9,2.5c0.3,1.7-0.9,2.9-2.5,2.6c-2.5-0.3-3.7-2.2-3-5.1
		c0.3-1.4,1.4-3.2,2.3-4C-107.4,149.9-107,150-107,150.7z"/>
	<path class="st1" d="M-97.7,171.7c-1.1,2.1-1.3,4.3-1.7,6.5c-0.3,1.2-0.9,2.1-2.2,2.1c-0.8,0-1.6-1.6-1.5-2.8c0-0.1,0-0.2,0-0.2
		c0.7-4.1,4-6.2,6.9-8.5C-96.6,169.7-97.2,170.7-97.7,171.7z"/>
	<path class="st1" d="M-72.5,135.7c-1.3,1.7-2.2,3.6-2.2,5.7c0,0.5-0.2,0.9-0.5,1.3c-0.8,1.1-2,1.1-2.7-0.1c-0.3-0.6-0.4-1.2-0.2-2
		c0.8-3,3.5-4.2,5.8-5.9C-72.2,135.3-72.3,135.6-72.5,135.7z"/>
	<path class="st1" d="M-70.9,148.6c0.2,0.4,0.3,0.9,0.3,1.3c0,0.9-0.8,1.5-1.7,1.1c-0.5-0.2-1-0.7-1.3-1.3c-1.3-2-0.9-6.3,0.7-8.5
		C-72.9,144.2-72.2,146.5-70.9,148.6z"/>
	<path class="st1" d="M-98.1,165.5c-0.2,0.1-0.3,0.2-0.5,0.2c-0.8,0.5-1.3,0.1-1.4-0.8c-0.2-0.7,0.2-1.3,0.7-1.9
		c1.6-1.8,4-1.7,6.1-2.2C-95.3,162.2-96.5,164-98.1,165.5z"/>
	<path class="st1" d="M-68.5,130.9c-1.7,0.4-3,1.3-4.4,2.1c-0.7,0.5-1.6,1-2.2,0c-0.5-0.9,0.3-1.8,1.2-2.1
		C-72.1,130.1-70.3,130.1-68.5,130.9z"/>
	<path class="st1" d="M-63.2,129.1c-1.2-0.1-2.2-0.4-3.3-0.2c-0.6,0-1-0.3-1.1-0.8c-0.1-0.6,0.5-0.8,0.9-0.9
		C-65.2,126.9-64.2,127.9-63.2,129.1z"/>
	<path class="st1" d="M-85.9,132L-85.9,132c0.1,0,0.1,0,0.2,0C-85.8,132.1-85.9,132.1-85.9,132z"/>
	<path class="st1" d="M-86.2,132.2c0.1,0,0.1,0,0.2-0.1C-86,132.2-86.1,132.1-86.2,132.2C-86.1,132.2-86.2,132.2-86.2,132.2z"/>
	<path class="st1" d="M-85.9,132C-86,132.1-86,132.1-85.9,132C-86,132.1-86,132.1-85.9,132L-85.9,132z"/>
</g>
<g class="st0">
	<path class="st1" d="M568.8,145.7c0.1,0,0.1,0,0.2,0c0,0,0-0.1,0-0.2c-0.1,0-0.1,0-0.2,0C568.9,145.5,568.8,145.6,568.8,145.7z
		 M513.6,68.8c0,0.1,0.2,0.1,0.3,0.1c-0.1-0.1,0.1-0.3,0-0.3s-0.2,0-0.3-0.1C513.6,68.6,513.5,68.7,513.6,68.8z M495.8,176.3
		c0,0.1,0,0.1,0.1,0.1c0,0,0.1-0.1,0.2,0c-0.1,0-0.1-0.1-0.1-0.1C495.8,176.3,495.7,176.3,495.8,176.3z M566.7,143.2
		c1.4-0.1,2.1,0.6,2.8,1.8C569.3,142.8,568.3,142.2,566.7,143.2z M520.5,17.6c-0.4,1.2,0.5,2,1.1,3c0.1-0.9,0.3-1.8,0.4-2.7
		c0.1-0.4,0.4-1.1-0.4-1.3C520.9,16.5,520.7,17.1,520.5,17.6z M505.6,109.1c0.3,1.7,1.6,2.6,3,3.4c-0.6-1.2-1.2-2.4-1.4-3.7
		c-0.2-0.5-0.2-1.3-1.1-1C505.5,107.9,505.5,108.5,505.6,109.1z M457.7,41.7c-0.2,0.8,0.4,1.1,0.9,1.3c1.2,0.4,2.5,1,3.7,1.7
		c-0.6-1.5-1.5-2.8-3-3.5C458.7,41,457.9,40.9,457.7,41.7z M525.8,10.8c-0.4,0.3-0.6,0.7-0.8,1.1c-0.8,1.5-0.9,3.1-0.7,4.7
		c0.7-1.7,1.9-3,3.1-4.3c0.5-0.4,0.8-1.1,0.2-1.6C526.9,10.2,526.3,10.4,525.8,10.8z M463.2,36.9c0,1.1,0.1,2.5,0.2,3.6
		c0.1,0.6,0.4,0.7,0.8,0.4c1.2-0.8,2.3-1.8,2.5-3.4c0.1-1.2-1.2-2.5-2.4-2.1C463.6,35.8,463.1,36.3,463.2,36.9z M508.2,99.2
		c-0.5,0.6-0.7,1.4-0.6,2.2c0.3,1.8,0.8,3.4,1.2,5.2c0.2,0,0.3-0.1,0.5-0.1c0.1-2.1,0.4-4.3,1.3-6.4c0.3-0.8,0.4-1.5-0.5-1.9
		C509.3,97.9,508.7,98.5,508.2,99.2z M448.5,42.7c-0.6,0.3-1.3,0.9-1.2,1.7c0.2,0.9,1,1.1,1.7,1c2.4-0.4,4.7-0.9,7.2-0.6
		c-1.1-0.9-2.3-1.5-3.5-1.9C451.4,42.4,449.9,42.1,448.5,42.7z M535.1,14c2.5,0.4,4.4,1.7,6.3,3.1c0.6,0.4,1.5,0.8,2.2-0.1
		c0.6-0.8,0.1-1.5-0.6-2.1C541.1,13.3,537.5,12.8,535.1,14z M489.7,57.9c1,0.1,1.9-0.3,2.3-1.3s-0.4-1.8-1.3-2.2
		c-0.4-0.1-0.8-0.3-1.2-0.3c-1.6,0.2-3.1,0-4.8-0.9C485.4,55.7,487.6,57.7,489.7,57.9z M533.7,9.6c-1.9,1-3.5,2.5-4.9,4.2
		c2.1-0.8,4-1.4,6.2-1.3c1.8,0,2.6-0.6,2.5-1.7c-0.1-1.2-1.4-1.9-3-1.7C534.2,9.2,533.8,9.3,533.7,9.6z M507.2,45.5
		c-0.3,1.2,0.8,1.7,1.8,1.8c2.9,0.2,5.7,0.6,8.3,2c-0.9-1.3-2.1-2.2-3.2-3.3c-1.3-1.2-2.7-1.9-4.5-2.1
		C508.3,43.7,507.4,44.1,507.2,45.5z M528.2,78.7c0.1,1,1.6,1.7,2.9,1.6c1-0.2,2.1-0.3,3.1-0.5c0.6-0.1,1.5,0.6,1.7,0
		c0.3-0.8-0.7-1.3-1.1-2c-0.1-0.4-0.5-0.7-0.7-0.9c-1.2-1-2.3-1.6-3.7-1.4C528.9,75.8,527.9,77.2,528.2,78.7z M519.8,98.2
		c2.9-0.5,5.9-0.3,8.7,0.5c0.5,0.1,1,0.1,1.5-0.1c0.6-0.1,1-0.5,1.2-1c0.2-0.6-0.2-1.1-0.7-1.5c-0.8-0.8-2-1.1-3.1-1.1
		C524.5,94.9,522.2,96.7,519.8,98.2z M583,115.5c-2.5,1.4-5,2.7-7.9,3.3c3.5,0.9,7.1,0.7,10.5-0.5c0.7-0.2,1.1-0.8,1.4-1.4
		c0.4-0.9,0.3-1.5-0.8-1.8C585.1,114.8,584.1,115,583,115.5z M549.4,223.5c2.7-0.6,5.4-0.5,8.1-0.1c0.7,0.1,1.3,0.2,1.9,0.2
		c0.8,0,1.4-0.4,1.7-1.3c0.3-0.9-0.3-1.3-0.9-1.8c-0.8-0.8-1.9-0.8-3-0.8C554.2,220.1,551.7,221.7,549.4,223.5z M516.9,93.3
		c-2.2,2-3.2,4.8-4,7.5c2.1-2.3,4.6-3.7,7.5-4.8c0.8-0.3,1.5-1.2,1.2-2.2c-0.2-0.9-1-1.2-2-1.3C518.5,92.2,517.6,92.6,516.9,93.3z
		 M442,60.5c-0.4,1-0.4,2.1-0.4,3.2c0,1.3,1.4,2.9,2.3,2.7c1-0.1,1.5-1.2,1.4-2.9c0-0.2-0.2-0.4-0.1-0.6c-0.1-1.9-0.2-3.7,0.2-5.7
		c0.2-0.9,0.9-1.7,0.8-3.1C444.3,56.4,442.9,58.3,442,60.5z M607.5,117.1c-2.5,1.9-5.2,3.8-8.5,4.5c2.3,0.6,4.6,0.6,6.8,0.3
		c1.7-0.2,2.9-0.9,4.1-2.1c0.7-0.8,1.2-1.8,0.4-2.6C609.4,116.2,608.4,116.3,607.5,117.1z M494.1,179.1c-1.1,0.9-1.3,1.9-1,3.1
		c0.2,0.9,0.9,1.5,1.8,1.7c1.3,0.2,2.2-0.4,2.8-1.5c1-1.5,2-3.2,4.7-3.1C499.3,177.3,496.1,177.4,494.1,179.1z M442.1,50.2
		c-1.2,0.8-1.9,2.1-2.2,3.5c-0.1,1.1,0.3,1.6,1.1,2.1c0.8,0.5,1.5,0.2,2.1-0.3c0.6-0.6,1-1.2,1.4-1.9c0.9-1.6,2-3,3.3-4.3
		c0.6-0.5,1.5-0.8,2.1-1.8C447,48,444.5,48.9,442.1,50.2z M495.3,62.7c-0.7,1.5-0.7,2.9-0.2,4.5c0.6,1.4,1.9,1.7,2.9,0.5
		c0.3-0.4,0.6-0.9,0.8-1.5c0.5-3.6,1.5-7.2,4-10.2C499.7,57.7,496.8,59.5,495.3,62.7z M522,140.5c-0.1,1,0.3,1.9,0.9,2.6
		c2.1,2.9,3.3,6.1,3.6,9.8c0.2-0.4,0.5-0.6,0.5-0.9c0.5-2.7,0.9-5.4,0.7-8.2c-0.1-2-0.8-4-2.8-5C523.3,138,522.2,138.7,522,140.5z
		 M499.2,50.2c-1.7,0.6-3.2,1.8-3.4,3.9c-0.2,1.6,1.3,2.8,2.8,2.2c0.4-0.2,0.9-0.4,1.2-0.7c2.7-2.4,5.4-4.7,9.2-5.4
		c-0.3-0.4-0.3-0.6-0.4-0.6C505.5,49.5,502.3,49,499.2,50.2z M514.5,13c-0.7,4.5,0.4,8.8,1.9,13c0-3.2,0.8-6.2,1.7-9.2
		c0.3-1,0.7-2,0.8-3c0.2-1.7-0.6-3.5-1.7-3.7C516.4,10,514.9,11.5,514.5,13z M597.8,113c-0.8,0.3-1.6,0.6-2.2,1.3
		c-1.4,1.4-2.8,2.6-4.4,3.7c-1.6,1.1-3.4,1.9-5.2,2.4c0.1,0.6,0.4,0.6,0.7,0.6c3.1-0.2,6.4-0.4,9.5-1.5c1.7-0.7,3.2-1.8,3.9-3.7
		c0.3-0.9,0.3-1.7-0.2-2.4C599.4,112.6,598.6,112.7,597.8,113z M470.4,34.6c0.4,2.5,0.3,4.8-1.9,6.6c1.8-0.3,3.3-1,4.7-1.8
		c2-1.2,3-3,3.4-5.3C477,32,475,29.9,473,30C471.1,30.2,469.9,32.1,470.4,34.6z M489.1,45.8c-2.3,1.5-4.4,3-7.5,2.2
		c0.9,1.2,2.3,1.9,3.6,2.5c2.2,1,4.5,1.4,6.9,0.8c1.9-0.6,3.3-2.1,3-3.7c-0.3-1.7-2-2.8-4.1-2.6C490.4,44.9,489.8,45.3,489.1,45.8z
		 M526.8,126.2c-0.6,1.8,0.4,3.1,1.3,4.5c1.4,2.1,2.4,4.4,3.1,6.9c0.3,1.3,0.6,2.6,0.8,3.9c0.9-3.8,1.7-7.6,1.1-11.6
		c-0.3-2.1-1.5-3.9-3.6-4.9C528.3,124.4,527.1,124.9,526.8,126.2z M532.7,160.4c1.5-1.3,2.9-1.4,4.5-1.3c1.2,0,2.5,0.1,3.7,0
		c1.9-0.3,3.5-1.4,3.3-3.2c-0.1-2.2-2.4-4.1-4.5-3.7C536.4,152.7,533.4,156.2,532.7,160.4z M506.9,171.2c-1.4,1.6-1.2,3.6,0.6,4.8
		c1,0.6,2.1,0.8,3.3,1c2,0.4,4,0.7,5.5,2.3c-0.5-2.5-0.6-5-2.1-7C512.2,169.4,509,168.9,506.9,171.2z M501.5,5.4
		c-1.8,1.8-2,4.1-1.3,6.6c0.4,1.3,1.7,2.1,3.1,2c1.2-0.2,2.3-1.2,2.5-2.6c0.2-1.1-0.2-1.7-1.5-1.8c0.7,0.7,0.9,1.4,0.4,2.3
		c-0.4,0.7-1,1-1.8,0.9c-0.9,0-1.3-0.7-1.5-1.5c-0.7-2.5,0.8-5.2,3-5.7c2.7-0.7,5.7,1.1,6.2,3.8c0.4,1.8,0.2,3.6,0.3,5.4
		c0.1,3-0.2,6.2,0.8,9.1c0.2,0.4,0.1,1.2,1.1,1.2c-0.5-2.1-0.9-4.1-0.7-6.1c0-3.2,0.1-6.5,0.1-9.7c0-2.8-1.6-4.6-4.1-5.5
		C505.6,2.8,503.3,3.2,501.5,5.4z M560.5,211.7c-3.8,1.6-6.7,4.5-9.7,7.1c-0.2,0.2-0.3,0.5-0.7,1c4.6-2.4,9.3-3.2,14-3.1
		c1,0,2.1-0.3,3.1-1c1.3-0.9,1.3-2.4,0-3.4C565.2,210.7,562.9,210.8,560.5,211.7z M499.3,22.1c0.8,1,2,1.3,3.1,1.7
		c3.5,0.9,6.5,2.7,8.8,5.5c0.9,1.1,1.6,2.3,2.5,3.6c0-1.7-0.7-2.9-1.2-4c-1.2-3.4-2.7-6.7-5.5-9.1c-1.9-1.6-4-2.3-6.4-1.7
		C498.6,18.7,498,20.5,499.3,22.1z M487.5,108.7c-0.5,1.6-0.3,3,0.5,4.5c1.8,3.7,5.1,5.6,8.7,7.1c1.6,0.8,3.3,1.4,5.1,1.7
		c0.1-0.4,0-0.5-0.2-0.6c-3.9-2.4-6.4-6.2-8.3-10.2c-0.7-1.5-1.3-3-2.9-3.7C489.1,106.9,487.9,107.3,487.5,108.7z M481.7,117.8
		c-1,1.1-0.9,2.4-0.3,3.6c0.8,1.7,2.1,2.7,3.8,3.3c2.9,1,5.8,0.9,8.8,0.5c1.9-0.2,3.9-0.4,5.8-1.2c-0.3,0-0.5-0.1-0.7-0.2
		c-4.4-0.6-8.1-2.6-11.5-5.3c-0.8-0.7-1.6-1.3-2.6-1.6C483.7,116.6,482.5,116.7,481.7,117.8z M481.2,35.2c-0.2,1.2-0.4,2.3-0.8,3.5
		c-0.6,2.1-1.7,3.7-3.9,4.4c-0.2,0-0.4,0.3-1,0.6c2.9,0.2,5.3-0.2,7.6-0.8c2.7-0.8,4.8-2.5,6-5c0.8-1.5,0.5-3-0.4-4.4
		s-2.4-1.9-3.9-1.6C482.9,32.2,481.5,33.4,481.2,35.2z M534,163.6c-3.9,2.6-4.9,6.9-6,11.1c1.7-3.6,4.8-4,8.3-3.7
		c0.8,0,1.7,0.1,2.5,0.2c2.1,0,3.4-0.8,4.4-2.5c1-1.6,0.6-3.3-0.7-4.8C540.4,161.3,537.1,161.5,534,163.6z M506.8,180.3
		c-2.9,0.9-3.9,4.1-2.2,6.6c1.2,1.8,2.9,1.9,4.7,2.1c3.3,0.6,6.6,1.3,7.8,5.2c0.2-3.4,0-6.9-1.6-10
		C513.7,180.9,510,179.3,506.8,180.3z M535.1,193.5c-1.3,1.1-1.1,2.5-0.7,4.1c0.4,1.4,1.4,2.5,2.2,3.7c2.9,4,5.5,8.2,6.1,13.5
		c0,0.8,0.1,1.4,0.3,2.4c0.2-0.5,0.3-0.6,0.4-0.8c0.9-4.4,1.7-8.9,0.9-13.5c-0.6-3.4-2-6.4-4.9-8.6
		C537.9,193.3,535.8,192.8,535.1,193.5z M546.9,196.9c0.1,2.5,1,5,1.1,7.4c0.2,4.1-0.4,8.1-2.1,12.3c0.6-0.3,0.8-0.4,0.8-0.5
		c3.1-3.9,5.9-7.8,7.9-12.4c1.1-2.4,1.5-5,0.5-7.6c-0.7-1.9-1.7-3.3-3.7-3.8C549.1,191.6,546.9,194,546.9,196.9z M534.3,106.8
		c-1.4,0.7-2,1.9-2.1,3.3c-0.1,1.6,0.3,2.9,0.9,4.4c1.3,3.5,2.4,7,2.9,10.8c0.3,2.5,0.2,5.1,0.2,7.8c0.9-0.9,1.2-2.1,1.5-3.1
		c1.5-4.5,3.1-8.9,3.2-13.7c0.2-3.3-0.7-6.3-3.3-8.5C536.7,106.8,535.6,106.2,534.3,106.8z M528.5,178.9c-3.1,4.6-3.6,9.9-3.7,15.3
		c0.2-0.4,0.3-1,0.5-1.4c0.6-2.1,1.8-3.8,3.8-4.8c2.6-1.3,5.3-1.7,8.1-1.8c3.5-0.2,6.5-3.6,6.2-6.9c-0.3-4.3-4.5-6.3-7.5-5.6
		C533,174.4,530.4,176.2,528.5,178.9z M504.4,192.1c-2.7,1.1-4,3.3-3.7,6.2c0.3,2.6,1.8,4.5,4.4,5.4c1.2,0.5,2.5,0.8,3.7,1.4
		c3.1,1.4,6,3.1,6.6,7.1c0,0.6-0.1,1.3,0.4,2.3c0.7-3.1,1.1-6,1-9c-0.2-4.9-1.3-9.5-5.6-12.7C509,191.2,506.8,190.9,504.4,192.1z
		 M450.6,22.4c-8.6,3.7-15.5,9.6-20.4,17.5c-3.4,5.4-5.2,11.2-6.1,17.4c-1,6.5-0.3,13,2,19.1c4,10.5,11.4,17.8,22.2,21.1
		c7.4,2.2,14.7,2,21.6-1.6c8-4,12.8-10.5,15.3-19c1.3-4.7,1.6-9.3,0.3-13.8c-1.9-7.1-6.5-12.6-13.4-15.7c-5.5-2.2-11-2.5-16.5,0.4
		c-7.2,3.9-11.1,13.5-8.7,21.4c1.9,6.1,9,10.5,15.2,9.2c4.6-1,7.5-4.6,8.1-9.9s-3.1-8.2-7.4-8.5c-2.2-0.1-4.2,0.9-4.7,2.7
		c-0.4,1-0.5,2-0.7,3.1c-0.2,1.5,0.6,2.3,1.9,2.7c1,0.4,2,0.5,2.9-0.7c-2.6,0.7-4.7-0.3-3.7-3.6c0.8-2.5,1.9-3.3,4.6-2.9
		c4.2,0.7,6,3.2,5.5,7.6c-0.6,4.2-3.4,7.4-7.3,8c-3.5,0.5-6.6-0.6-9.2-2.8c-4.1-3.4-4.7-7.8-3.7-12.7c1.5-6.8,6.6-11.9,13-12.6
		c10.5-1.1,20.4,6.7,21.4,18c0.6,6-0.9,11.7-4.2,16.9c-4.4,6.7-10.7,10.8-18.5,11.4c-10.2,0.7-18.8-3.1-25.4-11.1
		c-5.7-6.9-8.1-14.8-7.4-23.8c0.7-11.4,5.3-21,14-28.5c7.7-6.7,16.8-9.6,26.9-9.8c10.5-0.2,20.1,2.8,29.2,7.7
		c7.1,3.8,13.4,8.9,19.1,14.7c2.2,2.3,4.5,4.7,6.4,7.3c0.3,0.3,0.7,0.5,0.4,1c-0.3,0.3-0.6-0.1-0.9-0.2c-1.1-0.4-2.3-0.8-3.4-0.9
		c-9.6-1.9-18.8,5.4-19.1,15.2c-0.2,7.6,7.5,14.8,15.3,12.2c4.8-1.6,9.2-7.7,6.5-13.4C520,62,515,59,510.9,62.1
		c-3,2.3-4.1,6.1-1.6,8.7c1.4,1.4,3.5,2,4.9,1.4c1.8-0.8,2.6-2.3,2.4-4.1c0-1.3-1.5-2.6-2.7-2.6c-1,0-1.8,1.5-1.6,2.6
		c0.4,0,0.4-0.4,0.5-0.6c0.8-1.3,1.5-1.5,2.6-0.4c0.5,0.4,0.7,0.8,0.8,1.4c-0.5,2-1.7,3.1-3.7,2.9c-1.9-0.1-3.6-2.3-3.5-4.3
		c0.1-2.3,1.9-4.6,4-5.3c2.7-0.7,5.4,0.2,7.1,2.6c1.9,2.7,1.9,5.6,0.4,8.4c-1.6,3.2-4.4,5-8,5.2c-6.2,0.1-11.3-5.8-11-12.2
		c0.5-8.3,8.2-14.6,16.6-13.4c4.3,0.7,8,2.1,10.1,6.4c0.4,0.8,0.8,1.5,1.3,2.3c0.1,0.2,0.6,0.4,0.4,0.8c-0.2,0.4-0.7,0.2-1,0
		c-0.9-0.2-1.7-0.2-2.5,0c-1.3,0.5-2.4,2-2.3,3.3s1.2,2.5,2.6,2.7c0.8,0.2,1.7-0.2,2.5-0.4c3.2-0.8,3.8-0.5,5.1,2.4
		c0,0.1,0.1,0,0.1,0.1c0.1,0.2,0.4,0.5,0.2,0.8c-0.2,0.4-0.7,0.2-1,0c-2.9-0.8-5.7-0.7-8.3,0.6c-2,1-5.2,3.4-5,5.9
		c0.3,0.1,0.4-0.2,0.6-0.4c2.4-4.8,8.1-7.1,13.1-5.1c1.6,0.7,2.2,1.5,2,3.2c-2.8-1.7-5.8-2-8.7-0.8c-1.9,0.8-3.5,1.9-4.1,3.8
		c-1.1,1.1-1.6,3.1-0.7,4.3c-0.2-1.6,0.5-2.9,0.9-4.2c2.2-2.3,4.7-4,8-3.7c2.7,0.3,5.3,1.2,6.5,4.1c2.4,5.9,4.1,11.9,5.1,18
		c0,0.2,0,0.4-0.3,0.5c-0.3-0.4-0.5-0.6-0.7-0.9c-3.4-4.7-8-7.9-13.7-9.7c-5.3-1.6-10.7-1.6-15.8,0.6c-5.4,2.3-9.5,6.4-11.7,11.9
		c-2.9,6.8-3,13.5,1.4,19.8c3.5,5,8.6,7.5,14.6,7.3c5.8-0.2,11-4.5,12.5-10.4c1.7-6.4-0.1-11.3-5.3-14c-4.7-2.6-9.6-1.3-11.9,3.2
		c-1.6,3.1-1.5,6.3,0.6,8.2c1.5,1.6,3.4,2.2,5.5,1.7c1.9-0.4,2.6-2.1,2.9-3.9c0.2-0.9,0-1.7-0.8-2.2c-0.8-0.6-1.7-0.5-2.5,0
		c2,0.2,2.6,0.6,2.7,1.7c0,1.3-1.3,3.6-2.2,3.9c-1.7,0.3-4.8-1.4-5.5-3.1c-1.6-3.9,1.8-9.1,5.9-9.3c4.5-0.2,8.7,3.3,9.4,6.9
		c0.6,2.3,0.3,4.5-0.4,6.7c-1.6,4.3-4.5,7.6-9.2,8.2c-8.5,1.3-16.6-5-17.3-14.5c-0.3-5.2,1.2-9.8,4.4-13.9c3.3-4.3,7.8-7,13.3-7.4
		c9.1-0.5,16.1,3.3,21.3,10.6c2.6,3.7,4.2,7.7,4.2,12.3c0.1,7.3-0.9,14.3-3.3,21.3c-1.3,3.9-2.8,7.9-5.3,11.4
		c-4.4,6.2-8.3,12.4-10.9,19.4c-0.1,0.3-0.1,0.7-0.6,0.7c0-0.1-0.2-0.1-0.1-0.3c0.2-6.4-0.9-12.5-3.4-18.3c-3.1-7-7.9-12.6-15-15.6
		c-10.9-4.6-23.9-0.1-29.7,10.3c-3.6,6.8-3.4,13.7,1.2,20.1c4.1,5.7,11.1,8.3,18.4,5.3c6.7-2.7,10.9-9.4,8.8-16.5
		c-1.5-5.4-7.6-9.8-13.9-6.7c-4.3,2-6.2,6-4.8,10.4c0.8,2.7,3.6,4.6,6.3,4.3c2.5-0.2,4.8-2.5,5.1-4.9c0.1-1.1-1.3-3.2-2.5-3.7
		c-1-0.3-2.6,0.3-3.3,1.3c-0.7,1-0.4,2,1.1,2.5c-0.3-0.6-1.2-1.1-0.7-2c0.7-1.4,2.3-1.7,3.4-0.6c1.4,1.4,1.5,3.4,0.1,4.7
		c-1.6,1.5-3.4,2.3-5.6,1.5c-1.7-0.5-3.3-3-3.5-4.8c-0.4-3.9,2-6.3,5.1-7.7c3.2-1.6,7-0.7,9.3,1.9c3.4,3.7,4.1,9.7,0.5,14.1
		c-4.3,5.4-11.9,7.5-18.1,3.8c-5.3-3.2-8.4-10.4-7.1-16.8c1.4-7.3,5.9-12,12.5-15c6.6-2.7,13.1-2.2,19.3,1.3
		c7.4,4.3,11.2,11,13.7,18.6c1,3.5,1.4,7,1.6,10.6c0.1,3.2,0.4,6.5-1,9.5c-0.2,0.3-0.1,0.7-0.6,0.8c-0.3,0-0.4-0.4-0.5-0.6
		c-4.5-8.2-13.7-9.6-21.4-6.4c-2.7,1.2-4.2,3.9-5.6,6.4c-0.7,0.7-0.9,1.7-1.1,2.7c1-0.8,1-1.7,1.5-2.5c1-1.4,1.9-3,3.2-4.2
		c2.9-2.5,6.2-3.1,9.9-3c5.9,0.2,11.5,4.1,13.3,9.5c0.2,0.4,0.5,1.1,0,1.9c-4.7-7.6-10.9-10.4-19.3-6.7c-2.7,1.2-4.5,3.5-5.6,6.5
		c0.3-0.1,0.5-0.1,0.5-0.2c0,0,0.1-0.2,0.2-0.2c1.2-2.9,3.5-4.6,6.3-5.8c3.7-1.5,9.2-0.8,12.2,1.7c2.3,1.9,3.6,4.4,5.1,6.8
		c0.3,0.4,0.2,0.8,0.1,1.2c-1.1,6.3-1.7,12.7-1.8,19.1c-0.2,9.4,1,18.7,2.9,27.9c1,5.3,2.4,10.6,4.2,15.7c0.8,2.2,1.7,4.2,2.4,6.3
		c0.8,2.5,2,5,2.5,7.7l1-0.2c-0.3-1.3-0.6-2.6-1-3.7c-2.2-5.6-4-11.2-5.3-17c-1-4.4,0.5-8.1,4.7-10.5c4.7-2.7,9.3-1.4,11.9,3.3
		c1,1.7,0.8,3.6-0.3,5.2c-1.3,2-3.3,3.3-5.7,3.4c-0.8,0-1.5-0.2-2-0.7c-1-0.9-1.2-2.5-0.3-3.7c0.8-1.1,1.7-1.3,3-0.5
		c0.2,0.2,0.4,0.5,0.8,0.2c-0.8-1.5-1.7-2-3.1-1.4c-1.3,0.5-2.7,2.3-2.6,4c0,1.5,1.2,3,2.9,3.5c1.7,0.4,3.3,0.1,4.8-0.6
		c4.1-1.6,6.3-5.6,5.3-9.5c-1.1-4.1-5.6-7.5-9.5-7c-4.5,0.7-8.6,2.4-10.6,7c-0.1,0.3-0.1,0.5-0.5,0.4s-0.4-0.4-0.4-0.6
		c-0.2-0.9-0.2-1.7-0.4-2.6c-1.3-5.9-1.8-11.7-2.1-17.6c-0.5-11,0.3-21.9,3.1-32.6c2.8-10.4,7.5-19.9,14.1-28.4
		c4.5-5.8,10.2-10.3,16.4-14.2c3.5-2.1,6.9-3.3,11.1-3.2c7.2,0.4,13.6,4.4,14.5,12.5c0.8,7.3-4.1,13.5-11.7,13.6
		c-4,0-7.6-2.9-8.2-6.8c-0.7-3.7,0.5-7.3,4.5-9c2-0.9,5.1-0.3,6.6,1.4c1.8,2,1.6,4.5,0.2,6.6c-0.9,1.5-3.3,2.1-4.8,1.3
		c-1.4-0.6-1.8-2.1-1.3-4c0-0.2,0.1-0.4,0.1-0.7c-0.7,0-0.8,0.6-0.9,1.1c-0.8,2.6,1.5,5.1,4.2,4.7c2.4-0.3,3.8-1.9,4.4-4.3
		c0.5-2.5-0.6-4.8-2.5-6.3c-3.3-2.3-8.2-1.1-10.5,2.4c-4.1,6.1-0.1,14.3,7.3,15c0.6,0,1.2-0.2,1.4,0.4c0.3,0.4-0.4,0.7-0.6,0.9
		c-10,9.6-11.4,25.6-3.3,36.7c5,6.8,11.7,11.1,19.8,13.4c7.3,2.1,14.5,1.7,21.6-0.8c6.8-2.4,12.2-6.7,16.5-12.5
		c7.5-10.4,9.9-21.8,7.5-34.2c-1-5.4-3.2-10.4-6.2-15.1c-3.4-5.5-8-9.9-13.3-13.6c-7.3-5.2-15.4-8.4-24.2-9.5
		c-7.7-1-15.4-0.4-22.9,2c-5.1,1.6-9.8,3.9-14.1,6.9c-2.4,1.6-4.5,3.5-6.8,5.3c-0.4-0.5-0.1-0.7,0-0.9c3.3-7.6,5.1-15.4,5.3-23.7
		c0.3-5.2-0.1-10.4-1.1-15.6c-1-5.3-2.6-10.6-4.5-15.7c-1.6-4.4-3.8-8.5-5.8-12.6c-1.1-2.3-2.1-4.6-3.5-6.5c-2.2-3-1.8-6,1.3-8
		c1.9-1.1,4-0.5,4.9,1.4c0.2-1.6-1.5-3-3.3-2.6c-2.4,0.3-4.4,2.4-4.9,4.9c-0.1,0.4,0,0.8-0.4,0.8c-0.5,0.2-0.6-0.3-0.7-0.6
		c-0.5-0.6-0.8-1.2-1.3-1.7c-2.3-3.4-5.5-6.3-6.9-10.5c-1.7-5.3-2.9-10.5-1.1-16c2.2-6.4,7.9-10.5,14.9-9.3
		c6.3,1.1,10.1,7.6,7.8,13.4c-1.1,2.7-3.4,4.1-6.3,4.4c-3.1,0.2-5.6-0.9-7.2-3.8c-1-2-0.4-5,1.2-6.4c1.5-1.3,4.1-1.3,5.8,0
		c1.2,1,1.6,2.9,0.9,4.3c-0.7,1.2-2,1.7-3.5,1c-0.9-0.3-1.2-1-1-1.8c0.2-0.6,0.4-1,1-1.1c1.1-0.1,0.6,0.9,1,1.5
		c0.6-0.7,0.9-1.4,0.1-1.9c-0.8-0.5-1.6-0.8-2.4,0.1c-0.9,1.1-1,2.3-0.2,3.4c0.8,1.2,2.9,1.6,4.2,0.9c2.8-1.5,3.1-5.7,0.5-7.6
		c-4-2.9-9.1-0.9-10,3.9c-0.6,3.1,0.4,5.8,2.9,7.7c2.7,2.3,6,2.6,9.2,1.5c5.7-2,7.5-8,6.4-12.4c-2.3-8.9-12.5-12-20-7.8
		c-6.3,3.6-8.1,9.6-8.2,16.5c0,3.4,1.4,6.3,2.7,9.2c0.1,0.3,0.7,0.6,0.1,1c-0.4,0.3-0.7-0.3-0.9-0.5c-1.3-1.3-2.9-2.5-4.1-3.8
		c-6.2-6.3-13.1-11.6-21-15.6c-4.6-2.3-9.5-4.2-14.5-5.2c-5.9-1.3-11.8-1.9-17.9-1C458.7,20.1,454.5,20.8,450.6,22.4z M563.7,127.7
		c1.8-0.4,3.5-1,5.2-1.3c5.7-0.8,11.4-1.2,17.1-0.3c6,0.9,11.6,2.7,16.8,5.6c5.4,3,10.2,6.8,14.1,11.4c4.5,5.4,7.5,11.7,8.8,18.6
		c1.9,10.1,0.3,19.5-5.2,28.3c-5.1,8-12.1,13.1-21.5,14.7c-6.8,1.1-13.4,0.1-19.6-3c-4.8-2.3-9-5.4-11.9-9.9
		c-5.5-8.4-6-17.2-1.3-26.2c2.1-4,5.1-7.2,9.1-9.1c4.3-2.1,8.7-2.2,13.2-1c5.4,1.5,9.7,4.3,12.5,9.3c3.3,6.2,1,15-4.7,18.8
		c-2.8,1.9-5.9,1.8-9.1,0.8c-2.4-0.8-4.6-2.1-6-4.2c-2.9-4-0.4-9.1,2.4-11c2.1-1.3,6.4,0.2,7.2,2.4c0.5,1.3-0.5,3.6-1.7,4
		c-0.5,0.2-0.7-0.6-1.3-0.3c0.5,0.9,1.1,1.1,1.9,0.8c2.5-1.2,2.9-4.5,0.8-6.3c-1.9-1.5-4-2.7-6.6-1.9c-2.3,0.8-3.7,2.7-4.6,4.8
		c-1.9,4.7-0.5,9.1,3.7,11.8c2.9,1.8,5.9,3,9.5,2.7c3.6-0.2,6.4-2,8.5-4.7c3.9-4.8,5.1-10.3,3.5-16.2c-1.2-4.2-3.8-7.3-7.3-9.7
		c-4.8-3.4-10.1-5.1-16.1-4.6c-0.1,0.1-0.2,0-0.3,0c-0.7,0-1.7,0.8-2.1,0.1c-0.5-0.7,0.5-1.5,0.9-2.1c3.2-5.5,1.3-14.3-3.9-18.1
		c-2.9-2.1-5.9-3.4-9.5-3.5c-0.6-0.1-1.3-0.1-1.9-0.2C564.5,128.1,564.5,128,563.7,127.7z M578.8,128.4c0.6,0.1,1.1-0.2,1.1-0.8
		c0.2-0.6-0.5-0.8-0.9-0.9c-1.6-0.2-2.5,0.8-3.5,1.9C576.7,128.5,577.8,128.2,578.8,128.4z M585.2,132.6c0.7,0.5,1.7,1,2.2,0
		c0.4-0.9-0.3-1.7-1.2-2.1c-1.8-0.7-3.6-0.8-5.4,0C582.5,130.9,583.8,131.9,585.2,132.6z M584.9,135.5c1.3,1.6,2.2,3.6,2.2,5.7
		c0,0.5,0.2,0.9,0.5,1.3c0.8,1.1,2,1.1,2.7-0.1c0.4-0.7,0.4-1.4,0.2-2c-0.8-3-3.5-4.2-5.8-5.9C584.5,135,584.7,135.2,584.9,135.5z
		 M598.3,131.8L598.3,131.8c-0.1-0.1-0.1,0-0.2,0C598.1,131.7,598.2,131.7,598.3,131.8L598.3,131.8z M598.4,131.8L598.4,131.8
		C598.3,131.8,598.3,131.8,598.4,131.8C598.4,131.9,598.5,131.9,598.4,131.8z M599.8,140.9c-0.3,0.9-0.5,1.7-0.9,2.4
		c-0.6,1.2-0.5,2.5-0.2,3.7c0.9,2.9,4.7,4.6,7.2,2.7c2-1.5,2.8-3.8,2.5-6.5c-0.6-3.8-2.9-6.3-5.8-8.6c-1.2-1-2.3-2-3.9-2.3
		C601.3,135,600.8,137.9,599.8,140.9z M566,143.4c0,0.1-0.2,0.2-0.2,0.3c0.1,0,0.2,0,0.3-0.1C566,143.6,566.1,143.5,566,143.4z
		 M565.7,143.8L565.7,143.8L565.7,143.8L565.7,143.8L565.7,143.8z M586,149.5c1.3-2,1-6.2-0.7-8.5c0,2.7-0.8,5.2-2.1,7.4
		c-0.2,0.4-0.3,0.9-0.3,1.3c-0.1,0.8,0.8,1.5,1.7,1.1C585.2,150.6,585.6,150.1,586,149.5z M611.1,146.4c-0.5,1.2-1.3,2.2-2,3.4
		c-1.4,2.6,0.1,5.2,3,5.3c2.1,0,3.8-1.9,4.1-4.4c0.5-4.4-2.4-6.9-5.3-9.5C611.9,143.2,612,144.1,611.1,146.4z M619.3,150.3
		c-0.1,1.4-0.8,2.6-1.5,3.8c-0.4,0.8-0.7,1.6-0.9,2.5c-0.3,1.5,0.9,2.9,2.5,2.6c2.6-0.3,3.7-2.2,3-5.1c-0.3-1.4-1.4-3.1-2.3-4
		C619.7,149.6,619.3,149.7,619.3,150.3z M610.5,165.3c0.2,0,0.3,0.2,0.5,0.2c0.8,0.4,1.2,0.1,1.4-0.8c0.2-0.8-0.1-1.4-0.7-1.9
		c-1.6-1.8-4-1.7-6.1-2.2C607.6,161.8,608.8,163.6,610.5,165.3z M611.7,177.9c0.2,1.2,0.9,2.1,2.2,2.1c0.8,0,1.6-1.6,1.5-2.8
		c0,0-0.1-0.1,0-0.2c-0.7-4.1-3.9-6.2-6.9-8.5c0.5,1,1.1,2,1.6,3C611,173.4,611.3,175.7,611.7,177.9z M608.4,178
		c-0.4,0.1-0.4,0.3-0.4,0.5c-0.7,4.2-2.5,7.8-5.4,10.9c-0.6,0.7-0.8,1.5-1,2.3c-0.3,2,1.5,3.4,3.5,2.7c2.3-0.8,3.4-2.7,3.8-5.1
		c0.4-2.3,0.3-4.7,0.1-7C608.8,180.7,608.9,179.4,608.4,178z M601.4,186.4c-3.2,3.1-7.1,4.8-11.4,5.7c-0.7,0.2-1.5,0.7-2.1,1.1
		c-0.7,0.6-1.3,1.3-1,2.3c0.2,0.9,1.1,1.3,2,1.5c1.7,0.3,3.4-0.1,4.9-0.9C597.8,193.9,599.5,190.2,601.4,186.4z"/>
	<path class="st1" d="M450.6,22.4c-8.6,3.7-15.5,9.6-20.4,17.5c-3.4,5.4-5.2,11.2-6.1,17.4c-1,6.5-0.3,13,2,19.1
		c4,10.5,11.4,17.8,22.2,21.1c7.4,2.2,14.7,2,21.6-1.6c8-4,12.8-10.5,15.3-19c1.3-4.7,1.6-9.3,0.3-13.8c-1.9-7.1-6.5-12.6-13.4-15.7
		c-5.5-2.2-11-2.5-16.5,0.4c-7.2,3.9-11.1,13.5-8.7,21.4c1.9,6.1,9,10.5,15.2,9.2c4.6-1,7.5-4.5,8.1-9.9c0.6-5.3-3.1-8.2-7.4-8.5
		c-2.2-0.1-4.2,0.9-4.7,2.7c-0.4,1-0.5,2-0.7,3.1c-0.2,1.5,0.6,2.3,1.9,2.7c1,0.4,2,0.5,2.9-0.7c-2.6,0.7-4.7-0.3-3.7-3.6
		c0.8-2.5,1.9-3.3,4.6-2.9c4.2,0.7,6,3.2,5.5,7.6c-0.6,4.2-3.4,7.4-7.3,8c-3.5,0.5-6.6-0.6-9.2-2.8c-4.1-3.4-4.7-7.8-3.7-12.7
		c1.5-6.8,6.6-11.9,13-12.6c10.5-1.1,20.4,6.7,21.4,18c0.6,6-0.9,11.7-4.2,16.9c-4.4,6.7-10.7,10.8-18.5,11.4
		c-10.2,0.7-18.8-3.1-25.4-11.1c-5.7-6.9-8.1-14.8-7.4-23.8c0.7-11.4,5.3-21,14-28.5c7.7-6.7,16.8-9.6,26.9-9.8
		c10.5-0.2,20.1,2.8,29.2,7.7c7.1,3.8,13.4,8.9,19.1,14.7c2.2,2.3,4.5,4.7,6.4,7.3c0.3,0.3,0.7,0.5,0.4,1c-0.3,0.3-0.6-0.1-0.9-0.2
		c-1.1-0.4-2.3-0.8-3.4-0.9c-9.6-1.9-18.8,5.4-19,15.1c-0.2,7.6,7.5,14.8,15.3,12.2c4.8-1.6,9.2-7.7,6.5-13.4
		c-1.7-3.5-6.7-6.5-10.8-3.4c-3,2.3-4.1,6.1-1.6,8.7c1.4,1.4,3.5,2,4.9,1.4c1.8-0.8,2.6-2.3,2.4-4.1c-0.1,0.2-0.4,0.3-0.5,0.4
		c-0.5,2-1.7,3.1-3.6,2.9c-1.9-0.1-3.6-2.3-3.5-4.3c0.1-2.3,1.9-4.6,4-5.3c2.7-0.7,5.4,0.2,7.1,2.6c1.9,2.7,1.9,5.6,0.4,8.4
		c-1.6,3.2-4.4,5-8,5.2c-6.2,0.1-11.3-5.8-11-12.2c0.4-8.4,8.2-14.6,16.7-13.4c4.3,0.7,8,2.1,10.1,6.4c0.4,0.8,0.8,1.5,1.3,2.3
		c0.1,0.2,0.6,0.4,0.4,0.8c-0.2,0.4-0.7,0.2-1,0c-0.9-0.2-1.7-0.2-2.6,0.1c-1.3,0.5-2.4,2-2.3,3.3c0.1,1.2,1.2,2.5,2.6,2.7
		c0.8,0.2,1.7-0.2,2.5-0.4c3.2-0.8,3.8-0.5,5.1,2.4c0,0.1,0.1,0,0.1,0.1c0.1,0.2,0.4,0.5,0.2,0.8c-0.2,0.4-0.7,0.2-1,0
		c-2.9-0.8-5.7-0.7-8.3,0.6c-2,1-5.2,3.4-5,5.9c0.3,0.1,0.4-0.2,0.6-0.4c2.4-4.8,8.1-7.1,13.1-5.1c1.6,0.7,2.2,1.5,2,3.2
		c-2.8-1.7-5.8-2-8.7-0.8c-1.9,0.8-3.5,1.9-4.1,3.8c0.1-0.1,0.2,0,0.2,0.2c2.2-2.3,4.7-4,8-3.7c2.7,0.3,5.3,1.2,6.5,4.1
		c2.3,5.8,4,11.8,5,18c0,0.2,0,0.4-0.3,0.5c-0.3-0.4-0.5-0.6-0.7-0.9c-3.4-4.7-8-7.9-13.6-9.8c-5.3-1.6-10.7-1.6-15.8,0.6
		c-5.5,2.4-9.5,6.4-11.8,11.9c-2.9,6.8-3,13.5,1.4,19.8c3.5,5,8.6,7.5,14.6,7.3c5.9-0.1,11-4.4,12.5-10.1c1.7-6.4-0.1-11.3-5.3-14
		c-4.7-2.6-9.6-1.3-11.9,3.2c-1.6,3.1-1.5,6.3,0.6,8.2c1.5,1.6,3.4,2.2,5.5,1.7c2-0.4,2.6-2.2,2.9-3.9c0.2-0.9,0-1.7-0.8-2.2
		c-0.8-0.6-1.7-0.5-2.5,0c2,0.2,2.6,0.6,2.7,1.7c0,1.3-1.3,3.6-2.2,3.9c-1.7,0.3-4.8-1.4-5.5-3.1c-1.6-4,1.7-9.2,5.8-9.5
		c4.5-0.2,8.7,3.3,9.4,6.9c0.6,2.3,0.3,4.5-0.4,6.7c-1.5,4.2-4.5,7.5-9.1,8.2c-8.5,1.3-16.6-5-17.3-14.5c-0.3-5.1,1.2-9.8,4.4-13.8
		c3.3-4.3,7.8-7,13.3-7.4c9-0.6,16.1,3.2,21.2,10.5c2.6,3.7,4.2,7.7,4.2,12.3c0,7.3-1,14.4-3.3,21.3c-1.3,3.9-2.8,7.9-5.3,11.4
		c-4.4,6.2-8.3,12.4-10.9,19.4c-0.1,0.3-0.1,0.7-0.6,0.7c0-0.1-0.2-0.1-0.1-0.3c0.2-6.4-0.9-12.5-3.4-18.3c-3.1-7-7.9-12.6-15-15.6
		c-10.9-4.6-23.8-0.2-29.9,10.1c-3.6,6.8-3.4,13.7,1.2,20.1c4.1,5.7,11.1,8.3,18.4,5.3c6.7-2.7,10.9-9.4,8.8-16.5
		c-1.5-5.4-7.6-9.8-13.9-6.7c-4.3,2-6.2,6-4.8,10.4c0.8,2.7,3.6,4.6,6.3,4.3c2.5-0.2,4.8-2.5,5.1-4.9c0.1-1.1-1.3-3.2-2.5-3.7
		c-1-0.3-2.6,0.3-3.3,1.3c-0.7,1-0.4,2,1.1,2.5c-0.3-0.6-1.2-1.1-0.7-2c0.7-1.4,2.3-1.7,3.4-0.6c1.4,1.4,1.5,3.4,0.1,4.7
		c-1.6,1.5-3.4,2.3-5.6,1.5c-1.7-0.5-3.3-3-3.5-4.8c-0.4-3.9,2-6.3,5.1-7.7c3.2-1.6,7-0.7,9.3,1.9c3.4,3.7,4.1,9.7,0.5,14.1
		c-4.3,5.4-11.9,7.5-18.1,3.8c-5.3-3.2-8.4-10.4-7.1-16.8c1.5-7.2,5.9-12.1,12.6-14.8c6.6-2.7,13.1-2.2,19.3,1.3
		c7.4,4.4,11.2,11.1,13.7,18.7c1,3.5,1.4,7,1.6,10.6c0.1,3.2,0.4,6.5-1,9.5c-0.2,0.3-0.1,0.7-0.6,0.8c-0.3,0-0.4-0.4-0.5-0.6
		c-4.5-8.2-13.7-9.6-21.4-6.4c-2.7,1.2-4.2,3.9-5.6,6.4c0.2,0,0.3,0.1,0.4,0.2c1-1.4,1.9-3,3.2-4.2c2.9-2.5,6.2-3.1,9.9-3
		c5.9,0.2,11.5,4.1,13.3,9.5c0.2,0.4,0.5,1.1,0,1.9c-4.7-7.6-10.9-10.4-19.3-6.7c-2.7,1.2-4.5,3.5-5.6,6.5c0.3-0.1,0.5-0.1,0.5-0.2
		c0,0,0.1-0.2,0.2-0.2c1.2-2.9,3.5-4.6,6.3-5.8c3.7-1.5,9.2-0.8,12.2,1.7c2.3,1.9,3.6,4.4,5.1,6.8c0.3,0.4,0.2,0.8,0.1,1.2
		c-1.1,6.3-1.7,12.7-1.8,19.1c-0.2,9.4,1,18.7,2.9,27.9c1,5.3,2.4,10.6,4.2,15.7c0.8,2.2,1.7,4.2,2.4,6.3c0.8,2.5,2,5,2.5,7.7l1-0.2
		c-0.3-1.3-0.6-2.6-1-3.7c-2.2-5.6-4-11.2-5.3-17c-1-4.4,0.5-8.1,4.7-10.5c4.7-2.7,9.3-1.4,11.9,3.3c1,1.7,0.8,3.6-0.3,5.2
		c-1.3,2-3.3,3.3-5.7,3.4c-0.8,0-1.5-0.2-2-0.7c-1-0.9-1.2-2.5-0.3-3.7c0.8-1.1,1.7-1.3,3-0.5c0.2,0.2,0.4,0.5,0.8,0.2
		c-0.8-1.5-1.7-2-3.1-1.4c-1.3,0.5-2.7,2.3-2.6,4c0,1.5,1.2,3,2.9,3.5c1.7,0.4,3.3,0.1,4.8-0.6c4.1-1.6,6.3-5.6,5.3-9.5
		c-1.1-4.1-5.6-7.5-9.5-7c-4.5,0.7-8.6,2.4-10.6,7c-0.1,0.3-0.1,0.5-0.5,0.4s-0.4-0.4-0.4-0.6c-0.2-0.9-0.2-1.7-0.4-2.6
		c-1.3-5.9-1.8-11.7-2.1-17.6c-0.5-11,0.3-21.9,3.1-32.6c2.8-10.4,7.5-19.9,14.1-28.4c4.5-5.8,10.2-10.3,16.4-14.2
		c3.5-2.1,6.9-3.3,11.1-3.2c7.2,0.4,13.6,4.4,14.5,12.5c0.8,7.3-4.1,13.5-11.7,13.6c-4,0-7.6-2.9-8.2-6.8c-0.7-3.7,0.5-7.3,4.5-9
		c2-0.9,5.1-0.3,6.6,1.4c1.8,2,1.6,4.5,0.2,6.6c-0.9,1.5-3.3,2.1-4.8,1.3c-1.4-0.6-1.8-2.1-1.3-4c0-0.2,0.1-0.4,0.1-0.7
		c-0.7,0-0.8,0.6-0.9,1.1c-0.8,2.6,1.5,5.1,4.2,4.7c2.4-0.3,3.8-1.9,4.4-4.3c0.5-2.5-0.6-4.8-2.5-6.3c-3.3-2.3-8.2-1.1-10.5,2.4
		c-4.1,6.1-0.1,14.3,7.3,15c0.6,0,1.2-0.2,1.4,0.4c0.3,0.4-0.4,0.7-0.6,0.9c-10,9.6-11.4,25.6-3.3,36.7c5,6.8,11.7,11.1,19.8,13.4
		c7.3,2.1,14.5,1.7,21.6-0.8c6.8-2.4,12.2-6.7,16.5-12.5c7.5-10.4,9.9-21.8,7.5-34.2c-1-5.4-3.2-10.4-6.2-15.1
		c-3.4-5.5-8-9.9-13.3-13.6c-7.3-5.2-15.4-8.4-24.2-9.5c-7.7-1-15.4-0.4-22.9,2c-5.1,1.6-9.8,3.9-14.1,6.9c-2.4,1.6-4.5,3.5-6.8,5.3
		c-0.4-0.5-0.1-0.7,0-0.9c3.3-7.6,5.1-15.4,5.3-23.7c0.3-5.2-0.1-10.4-1.1-15.6c-1-5.3-2.6-10.6-4.5-15.7c-1.6-4.4-3.8-8.5-5.8-12.6
		c-1.1-2.3-2.1-4.6-3.5-6.5c-2.2-3-1.8-6,1.3-8c1.9-1.1,4-0.5,4.9,1.4c0.2-1.6-1.5-3-3.3-2.6c-2.4,0.3-4.4,2.4-4.9,4.9
		c-0.1,0.4,0,0.8-0.4,0.8c-0.5,0.2-0.6-0.3-0.7-0.6c-0.5-0.6-0.8-1.2-1.3-1.7c-2.3-3.4-5.5-6.3-6.9-10.5c-1.7-5.3-2.9-10.5-1.1-16
		c2.2-6.4,7.9-10.5,14.9-9.3c6.3,1.1,10.1,7.6,7.8,13.4c-1.1,2.7-3.4,4.1-6.3,4.4c-3.1,0.2-5.6-0.9-7.2-3.8c-1-2-0.4-5,1.2-6.4
		c1.5-1.3,4.1-1.3,5.8,0c1.2,1,1.6,2.9,0.9,4.3c-0.7,1.2-2,1.7-3.5,1c-0.9-0.3-1.2-1-1-1.8c0.2-0.6,0.4-1,1-1.1
		c1.1-0.1,0.6,0.9,1,1.5c0.6-0.7,0.9-1.4,0.1-1.9c-0.8-0.5-1.6-0.8-2.4,0.1c-0.9,1.1-1,2.3-0.2,3.4c0.8,1.2,2.9,1.6,4.2,0.9
		c2.8-1.5,3.1-5.7,0.5-7.6c-4-2.9-9.1-0.9-10,3.9c-0.6,3.1,0.4,5.8,2.9,7.7c2.7,2.3,6,2.6,9.2,1.5c5.7-2,7.5-8,6.4-12.4
		c-2.3-8.9-12.5-12-20-7.8c-6.3,3.6-8.1,9.6-8.2,16.5c0,3.4,1.4,6.3,2.7,9.2c0.1,0.3,0.7,0.6,0.1,1c-0.4,0.3-0.7-0.3-0.9-0.5
		c-1.3-1.3-2.9-2.5-4.1-3.8c-6.2-6.3-13.1-11.6-21-15.6c-4.6-2.3-9.5-4.2-14.5-5.2c-5.9-1.3-11.8-1.9-17.9-1
		C458.7,20.1,454.5,20.8,450.6,22.4z M563.7,127.7c1.8-0.4,3.5-1,5.2-1.3c5.7-0.8,11.4-1.2,17.1-0.3c6,0.9,11.6,2.7,16.8,5.6
		c5.4,3,10.2,6.8,14.1,11.4c4.5,5.4,7.5,11.7,8.8,18.6c1.9,10.1,0.3,19.5-5.2,28.3c-5.1,8-12.1,13.1-21.5,14.7
		c-6.8,1.1-13.4,0.1-19.6-3c-4.8-2.3-9-5.4-11.9-9.9c-5.5-8.4-6-17.2-1.3-26.2c2.1-4,5.1-7.2,9.1-9.1c4.3-2.1,8.7-2.2,13.2-1
		c5.4,1.5,9.7,4.3,12.5,9.3c3.3,6.2,1,15-4.7,18.8c-2.8,1.9-5.9,1.8-9.1,0.8c-2.4-0.8-4.6-2.1-6-4.2c-2.9-4-0.4-9.1,2.4-11
		c2.1-1.3,6.4,0.2,7.2,2.4c0.5,1.3-0.5,3.6-1.7,4c-0.5,0.2-0.7-0.6-1.3-0.3c0.5,0.9,1.1,1.1,1.9,0.8c2.5-1.2,2.9-4.5,0.8-6.3
		c-1.9-1.5-4-2.7-6.6-1.9c-2.3,0.8-3.7,2.7-4.6,4.8c-1.9,4.7-0.5,9.1,3.7,11.8c2.9,1.8,5.9,3,9.5,2.7c3.6-0.2,6.4-2,8.5-4.7
		c3.9-4.8,5.1-10.3,3.5-16.2c-1.2-4.2-3.8-7.3-7.3-9.7c-4.8-3.4-10.1-5.1-16.1-4.6c-0.1,0.1-0.2,0-0.3,0c-0.7,0-1.7,0.8-2.1,0.1
		c-0.5-0.7,0.5-1.5,0.9-2.1c3.2-5.5,1.3-14.3-3.9-18.1c-2.9-2.1-5.9-3.4-9.5-3.5c-0.6-0.1-1.3-0.1-1.9-0.2
		C564.5,128.1,564.5,128,563.7,127.7z M565.7,143.8L565.7,143.8L565.7,143.8L565.7,143.8z"/>
	<path class="st1" d="M515.8,214.4c-0.5-0.8-0.3-1.6-0.4-2.3c-0.5-4-3.5-5.6-6.6-7.1c-1.2-0.6-2.5-1-3.7-1.4c-2.6-0.9-4-2.9-4.4-5.4
		c-0.3-2.8,1-5,3.7-6.2c2.3-1,4.6-0.7,6.8,0.8c4.4,3.2,5.4,7.7,5.6,12.7C516.9,208.4,516.4,211.3,515.8,214.4z"/>
	<path class="st1" d="M524.9,194.2c0.1-5.4,0.6-10.8,3.7-15.3c1.8-2.7,4.3-4.6,7.4-5.2c3.1-0.6,7.2,1.4,7.5,5.6
		c0.3,3.3-2.8,6.7-6.2,6.9c-2.9,0.2-5.6,0.6-8.1,1.8c-2,1.1-3.2,2.7-3.8,4.8C525.4,193.2,525.1,193.7,524.9,194.2z"/>
	<path class="st1" d="M536,133c0-2.5,0.2-5.1-0.2-7.7c-0.4-3.8-1.5-7.3-2.9-10.8c-0.5-1.3-1-2.8-0.9-4.4c0.1-1.5,0.7-2.7,2.1-3.3
		c1.3-0.6,2.4-0.1,3.4,0.8c2.5,2.2,3.4,5.3,3.3,8.5c-0.1,4.8-1.6,9.2-3.2,13.7C537.3,130.9,537,132.1,536,133z"/>
	<path class="st1" d="M546,216.4c1.7-4.2,2.3-8.2,2.1-12.3c-0.1-2.5-1-5-1.1-7.4c-0.1-2.7,2-5.1,4.2-4.6c2,0.5,3.1,2,3.7,3.8
		c1,2.6,0.5,5.2-0.5,7.6c-2,4.6-4.8,8.5-7.9,12.4C546.6,216.1,546.5,216.1,546,216.4z"/>
	<path class="st1" d="M542.8,217.1c0-1-0.2-1.7-0.3-2.4c-0.5-5.2-3-9.4-6.1-13.5c-0.8-1.2-1.8-2.2-2.2-3.7c-0.5-1.4-0.6-2.9,0.7-4.1
		c0.8-0.8,2.9-0.3,4.3,0.7c2.9,2.1,4.4,5.1,4.9,8.6c0.7,4.5,0,9-0.9,13.5C543.3,216.4,543.1,216.5,542.8,217.1z"/>
	<path class="st1" d="M517.2,194.3c-1.2-4-4.5-4.7-7.8-5.2c-1.8-0.4-3.6-0.4-4.7-2.1c-1.7-2.5-0.8-5.6,2.2-6.6
		c3.2-1.1,6.9,0.6,8.7,4C517.2,187.3,517.4,190.8,517.2,194.3z"/>
	<path class="st1" d="M528,174.6c1-4.4,2-8.5,6-11.1c3.1-2,6.4-2.2,8.6,0.3c1.3,1.5,1.6,3.2,0.7,4.8c-0.9,1.7-2.3,2.5-4.3,2.5
		c-0.8,0-1.7-0.1-2.5-0.2C533,170.7,529.9,170.9,528,174.6z"/>
	<path class="st1" d="M475.5,43.8c0.4-0.3,0.8-0.5,1-0.6c2.2-0.7,3.3-2.3,3.9-4.4c0.3-1.2,0.6-2.3,0.8-3.5c0.3-1.8,1.5-3.1,3.7-3.5
		c1.5-0.4,3.1,0.2,3.9,1.6c1,1.4,1.2,2.9,0.4,4.4c-1.3,2.6-3.2,4.3-6,5C480.7,43.5,478.4,43.7,475.5,43.8z"/>
	<path class="st1" d="M499.6,123.9c-1.8,1-3.8,1-5.8,1.2c-2.9,0.4-6,0.5-8.8-0.5c-1.6-0.6-3-1.7-3.8-3.3c-0.6-1.2-0.6-2.5,0.3-3.6
		c0.8-1,2.1-1.1,3.3-0.8c1,0.2,1.8,0.9,2.6,1.6c3.4,2.7,7.1,4.7,11.5,5.3C499.3,123.7,499.5,123.9,499.6,123.9z"/>
	<path class="st1" d="M501.9,122.1c-1.9-0.3-3.5-1.1-5.3-1.8c-3.6-1.5-6.9-3.4-8.7-7.1c-0.8-1.4-0.9-3.1-0.5-4.5
		c0.4-1.3,1.7-1.8,2.9-1.2c1.6,0.8,2.3,2.3,2.9,3.7c1.9,4.1,4.3,7.8,8.3,10.2C501.8,121.4,501.9,121.6,501.9,122.1z"/>
	<path class="st1" d="M513.8,32.9c-1-1.4-1.6-2.6-2.5-3.6c-2.2-2.7-5.3-4.5-8.8-5.5c-1.2-0.3-2.3-0.8-3.1-1.7
		c-1.3-1.6-0.8-3.4,1.3-3.9c2.5-0.5,4.6,0.2,6.4,1.7c2.8,2.4,4.3,5.7,5.5,9.1C513,30.2,513.8,31.4,513.8,32.9z"/>
	<path class="st1" d="M550.4,219.6c0.3-0.5,0.5-0.7,0.7-0.9c3-2.7,5.9-5.5,9.7-7.1c2.3-0.9,4.6-1,6.6,0.5c1.3,0.9,1.3,2.4,0,3.4
		c-1,0.8-2,1-3.1,1C559.5,216.4,554.9,217.3,550.4,219.6z"/>
	<path class="st1" d="M504.1,9.3c1.3,0,1.6,0.7,1.5,1.8c-0.2,1.3-1.4,2.5-2.5,2.6c-1.3,0-2.7-0.7-3.1-2c-0.7-2.3-0.4-4.6,1.3-6.6
		c1.9-2.1,4.3-2.4,6.7-1.4c2.5,0.9,4,2.8,4.1,5.5c0.1,3.2,0.1,6.4-0.1,9.7c0,2.1,0.3,4,0.8,6c-1-0.1-1-0.7-1.1-1.2
		c-1-3-0.6-6.1-0.8-9.1c-0.1-1.8,0.1-3.7-0.3-5.4c-0.5-2.6-3.5-4.4-6.2-3.8c-2.2,0.5-3.7,3.2-3,5.7c0.2,0.7,0.6,1.4,1.5,1.5
		c0.7,0.1,1.4-0.1,1.8-0.9C505.2,10.8,505,10.2,504.1,9.3z"/>
	<path class="st1" d="M516.4,179.3c-1.6-1.6-3.6-1.9-5.5-2.3c-1.2-0.2-2.3-0.3-3.3-1c-1.9-1.2-2.1-3.2-0.6-4.8
		c2.2-2.3,5.3-1.8,7.3,1.1C515.7,174.4,515.8,176.8,516.4,179.3z"/>
	<path class="st1" d="M532.9,160.2c0.6-4.1,3.6-7.5,6.8-8.2c2.1-0.4,4.4,1.6,4.5,3.7c0.1,1.9-1.4,3-3.3,3.2c-1.3,0.2-2.5,0.1-3.7,0
		C535.7,158.8,534.2,158.8,532.9,160.2z"/>
	<path class="st1" d="M531.9,141.6c-0.2-1.3-0.5-2.6-0.8-3.9c-0.5-2.5-1.6-4.7-3.1-6.9c-0.8-1.3-1.9-2.7-1.3-4.5
		c0.4-1.4,1.5-2,2.9-1.4c2.1,1,3.2,2.7,3.6,4.9C533.7,133.9,532.9,137.6,531.9,141.6z"/>
	<path class="st1" d="M481.7,47.9c3.1,0.9,5.2-0.7,7.5-2.2c0.6-0.4,1.2-0.8,1.8-0.9c2-0.2,3.8,0.9,4.1,2.6c0.2,1.7-1.1,3.1-3,3.7
		c-2.3,0.6-4.7,0.2-6.9-0.8C484,49.7,482.7,49,481.7,47.9z"/>
	<path class="st1" d="M468.4,41.1c2.3-1.8,2.3-4.1,1.9-6.6c-0.4-2.3,0.8-4.3,2.6-4.5c1.9-0.1,3.9,2,3.6,4.1
		c-0.3,2.3-1.4,4.1-3.4,5.3C471.7,40.1,470.2,40.9,468.4,41.1z"/>
	<path class="st1" d="M585.9,120.3c1.8-0.5,3.6-1.3,5.2-2.4c1.6-1.2,3-2.3,4.4-3.7c0.7-0.6,1.4-1.1,2.2-1.3c0.7-0.2,1.6-0.3,2.1,0.4
		s0.6,1.5,0.2,2.4c-0.8,1.9-2.1,3.1-3.9,3.7c-3.1,1.1-6.3,1.4-9.5,1.5C586.3,121,586.1,120.9,585.9,120.3z"/>
	<path class="st1" d="M516.6,26.1c-1.5-4.2-2.8-8.4-1.9-13c0.3-1.5,1.8-3,2.7-2.9c1.1,0.3,1.9,2.1,1.7,3.7c-0.2,1-0.5,1.9-0.8,3
		C517.3,19.9,516.3,22.9,516.6,26.1z"/>
	<path class="st1" d="M509.2,50.1c-3.9,0.7-6.7,2.9-9.2,5.4c-0.3,0.3-0.7,0.6-1.2,0.7c-1.7,0.6-3.1-0.6-2.8-2.2
		c0.2-2,1.5-3.2,3.4-3.9c3-1,6.2-0.5,9.4-0.6C508.7,49.6,508.8,49.7,509.2,50.1z"/>
	<path class="st1" d="M526.5,152.9c-0.4-3.8-1.5-6.9-3.5-9.9c-0.6-0.7-0.9-1.6-0.9-2.6c0.1-1.7,1.4-2.5,2.9-1.6c1.9,1,2.7,3,2.8,5
		c0.2,2.8-0.2,5.5-0.7,8.2C526.9,152.2,526.8,152.4,526.5,152.9z"/>
	<path class="st1" d="M502.6,56.1c-2.4,3-3.4,6.6-4,10.2c0,0.6-0.4,1-0.8,1.5c-1,1.3-2.2,1-2.8-0.5c-0.6-1.5-0.5-3,0.2-4.5
		C496.8,59.5,499.7,57.7,502.6,56.1z"/>
	<path class="st1" d="M450,47.7c-0.6,1.1-1.5,1.3-2.1,1.8c-1.3,1.2-2.4,2.6-3.3,4.3c-0.5,0.7-0.8,1.4-1.4,1.9
		c-0.7,0.6-1.4,0.8-2.1,0.3c-0.8-0.6-1.2-1.1-1.1-2.1c0.3-1.5,0.9-2.7,2.2-3.5C444.5,48.9,447,48,450,47.7z"/>
	<path class="st1" d="M502.5,179.4c-2.6-0.1-3.8,1.5-4.7,3.1c-0.6,1.1-1.5,1.7-2.8,1.5c-0.9-0.1-1.6-0.8-1.8-1.7
		c-0.4-1.2,0-2.3,1-3.1C496.1,177.4,499.3,177.3,502.5,179.4z"/>
	<path class="st1" d="M598.9,121.4c3.3-0.6,6-2.5,8.5-4.5c0.8-0.7,2-0.7,2.8,0.1c0.8,0.9,0.3,1.9-0.4,2.6c-1.1,1.3-2.5,1.9-4.1,2.1
		C603.6,122.1,601.2,122,598.9,121.4z"/>
	<path class="st1" d="M446.2,54.3c-0.1,1.4-0.6,2.2-0.8,3.1c-0.4,1.9-0.4,3.8-0.2,5.7c0,0.2,0.2,0.4,0.1,0.6
		c0.2,1.6-0.4,2.7-1.4,2.9c-1,0.1-2.3-1.3-2.3-2.7c0-1.1,0.1-2.1,0.4-3.2C442.9,58.3,444.3,56.4,446.2,54.3z"/>
	<path class="st1" d="M513,101c1-2.8,1.8-5.5,4-7.5c0.6-0.7,1.5-1.1,2.6-1c0.9,0,1.7,0.4,2,1.3c0.3,1-0.4,1.9-1.2,2.2
		C517.5,97,515,98.6,513,101z"/>
	<path class="st1" d="M549.5,223.5c2.3-1.8,4.8-3.5,7.8-3.9c1-0.1,2.1,0.1,3,0.8c0.6,0.4,1.2,1,0.9,1.8c-0.2,0.9-0.9,1.3-1.7,1.3
		s-1.3-0.1-1.9-0.2C554.9,223,552.1,222.8,549.5,223.5z"/>
	<path class="st1" d="M575.4,118.9c2.9-0.7,5.4-2,7.9-3.3c1-0.5,2-0.7,3.1-0.4c1,0.3,1.2,0.9,0.8,1.8c-0.3,0.6-0.8,1.2-1.4,1.4
		C582.3,119.6,578.8,119.7,575.4,118.9z"/>
	<path class="st1" d="M519.8,98.2c2.5-1.6,4.7-3.3,7.8-3.2c1.1,0,2.3,0.4,3.1,1.1c0.5,0.4,0.8,0.8,0.7,1.5c-0.2,0.6-0.6,0.9-1.2,1
		c-0.5,0.2-1,0.3-1.6,0.2C525.6,97.8,522.7,97.7,519.8,98.2z"/>
	<path class="st1" d="M530.4,75.3c1.4-0.2,2.6,0.5,3.7,1.4c0.3,0.4,0.6,0.6,0.7,0.9c0.4,0.7,1.4,1.2,1,1.9c-0.2,0.6-1.1-0.1-1.7,0
		c-1,0.2-2.1,0.3-3.1,0.4c-1.4,0.2-2.8-0.6-2.9-1.6C527.9,77.2,528.9,75.8,530.4,75.3z"/>
	<path class="st1" d="M517.2,48.9c-2.6-1.5-5.5-1.7-8.3-2c-1-0.1-2-0.6-1.8-1.8c0.3-1.1,1.2-1.5,2.4-1.4c1.7,0.2,3.2,0.9,4.5,2.1
		C515.1,46.8,516.3,47.7,517.2,48.9z"/>
	<path class="st1" d="M528.6,13.6c1.4-1.8,3-3.1,4.9-4.2c0.3-0.2,0.6-0.3,1-0.3c1.5-0.2,2.9,0.5,3,1.7s-0.7,1.8-2.5,1.7
		C532.8,12.3,530.9,13,528.6,13.6z"/>
	<path class="st1" d="M484.7,53.2c1.7,0.9,3.2,1,4.8,0.9c0.4,0,0.8,0.1,1.2,0.3c0.9,0.4,1.6,1.1,1.3,2.2s-1.2,1.4-2.3,1.3
		C487.6,57.7,485.4,55.7,484.7,53.2z"/>
	<path class="st1" d="M535,14.2c2.4-1.4,6.2-0.9,8,0.9c0.6,0.5,1.2,1.2,0.6,2.1c-0.7,0.9-1.5,0.6-2.3,0
		C539.5,15.8,537.6,14.6,535,14.2z"/>
	<path class="st1" d="M456.2,44.8c-2.4-0.3-4.8,0.1-7.3,0.5c-0.7,0.2-1.6-0.1-1.7-1c-0.2-0.9,0.5-1.4,1.2-1.7
		c1.5-0.7,2.9-0.3,4.3,0.2C454,43.4,455.2,43.9,456.2,44.8z"/>
	<path class="st1" d="M508.9,106.7c-0.4-1.7-0.9-3.4-1.2-5.2c-0.1-0.8,0.2-1.5,0.6-2.2c0.4-0.6,1-1.3,1.9-0.8
		c0.8,0.4,0.8,1.1,0.5,1.9c-1,1.9-1.3,4.1-1.3,6.4C509.2,106.6,509.1,106.6,508.9,106.7z"/>
	<path class="st1" d="M464.2,35.5c1.1-0.4,2.5,0.9,2.4,2.1c-0.1,1.7-1.3,2.6-2.5,3.4c-0.4,0.2-0.8,0.1-0.8-0.4
		c0-1.1-0.2-2.4-0.2-3.6C463.1,36.3,463.6,35.8,464.2,35.5z"/>
	<path class="st1" d="M524.3,16.7c-0.2-1.6,0-3.3,0.7-4.7c0.2-0.4,0.5-0.8,0.8-1.1c0.5-0.4,1.2-0.6,1.7,0c0.6,0.5,0.2,1.2-0.2,1.6
		C526.1,13.7,524.9,15,524.3,16.7z"/>
	<path class="st1" d="M462.3,44.7c-1.2-0.7-2.4-1.3-3.7-1.7c-0.6-0.2-1.1-0.6-0.9-1.3c0.3-0.9,1-0.7,1.6-0.4
		C460.8,41.8,461.6,43.1,462.3,44.7z"/>
	<path class="st1" d="M508.6,112.6c-1.4-0.9-2.7-1.7-3-3.4c-0.2-0.6-0.1-1.2,0.6-1.5c0.8-0.3,0.9,0.4,1.1,1
		C507.4,110,508,111.2,508.6,112.6z"/>
	<path class="st1" d="M517,68c-0.1,0.2-0.4,0.3-0.5,0.4c-0.2-0.5-0.3-1-0.8-1.4c-1-1.1-1.8-0.9-2.6,0.4c-0.2,0.2-0.2,0.6-0.5,0.6
		c-0.2-1.1,0.6-2.5,1.6-2.6C515.4,65.4,516.8,66.8,517,68z"/>
	<path class="st1" d="M521.7,20.8c-0.7-1-1.5-1.9-1.1-3c0.2-0.6,0.4-1.1,1-1.1c0.8,0.2,0.5,0.8,0.4,1.3
		C521.9,18.9,521.7,19.7,521.7,20.8z"/>
	<path class="st1" d="M523.7,78.4c-0.2,1.4-1,2.6-0.9,4.2c-0.9-1.2-0.5-3,0.7-4.3C523.6,78.3,523.7,78.4,523.7,78.4z"/>
	<path class="st1" d="M566.7,143.2c1.7-1,2.7-0.5,2.8,1.8C568.8,143.9,568,143.2,566.7,143.2z"/>
	<path class="st1" d="M493.8,171.4c0.2,0,0.3,0.1,0.4,0.2c-0.5,0.7-0.4,1.8-1.5,2.5C493.1,172.9,493.2,172,493.8,171.4z"/>
	<path class="st1" d="M495.7,176.3c0,0,0.1-0.1,0.2,0c0,0,0,0.1,0.1,0.1c0,0-0.1,0.1-0.2,0S495.7,176.3,495.7,176.3z"/>
	<path class="st1" d="M513.6,68.4c0.1,0,0.2,0,0.3,0.1s0,0.2,0,0.3c-0.1,0-0.2,0-0.3-0.1C513.5,68.7,513.6,68.6,513.6,68.4z"/>
	<path class="st1" d="M565.7,143.8c0.1-0.1,0.1-0.2,0.2-0.3c0.1,0.1,0.2,0.1,0.1,0.2C565.9,143.6,565.8,143.7,565.7,143.8
		L565.7,143.8z"/>
	<path class="st1" d="M569,145.5c0,0.1,0,0.2,0,0.2c-0.1,0-0.1,0-0.2,0c0-0.1,0-0.2,0-0.2C568.9,145.5,568.9,145.5,569,145.5z"/>
	<path class="st1" d="M598.7,132.3c1.6,0.4,2.8,1.3,3.9,2.3c2.8,2.2,5.1,4.8,5.8,8.6c0.4,2.7-0.4,5.1-2.5,6.5
		c-2.6,1.9-6.4,0.2-7.2-2.7c-0.4-1.3-0.5-2.5,0.2-3.7c0.5-0.7,0.6-1.6,0.9-2.4C600.8,137.9,601.3,135,598.7,132.3z"/>
	<path class="st1" d="M611,141.1c3,2.4,5.9,5,5.3,9.5c-0.3,2.6-2.1,4.5-4.1,4.4c-3-0.1-4.5-2.7-3-5.3c0.6-1.1,1.5-2.1,2-3.4
		C612,144.1,611.9,143.2,611,141.1z"/>
	<path class="st1" d="M608.3,178.2c0.6,1.3,0.4,2.7,0.6,4.1c0.3,2.3,0.3,4.7-0.1,7c-0.4,2.3-1.4,4.2-3.8,5.1c-2,0.8-3.8-0.6-3.5-2.7
		c0.1-0.8,0.4-1.7,1-2.3c2.9-3,4.8-6.7,5.4-10.9C608,178.4,607.9,178.1,608.3,178.2z"/>
	<path class="st1" d="M601.4,186.6c-1.9,3.7-3.6,7.5-7.6,9.6c-1.5,0.8-3.1,1.2-4.9,0.9c-0.9-0.2-1.7-0.6-2-1.5c-0.3-1,0.2-1.7,1-2.3
		c0.6-0.5,1.3-0.9,2.1-1.1C594.3,191.1,598.3,189.7,601.4,186.6z"/>
	<path class="st1" d="M620.2,150.1c0.9,0.9,2,2.7,2.3,4c0.7,2.9-0.4,4.8-3,5.1c-1.7,0.2-2.9-0.9-2.5-2.6c0.1-0.9,0.4-1.8,0.9-2.5
		c0.7-1.2,1.4-2.4,1.5-3.8C619.3,149.7,619.7,149.6,620.2,150.1z"/>
	<path class="st1" d="M608.4,168.4c2.9,2.3,6.2,4.4,6.9,8.5c0,0,0.1,0.1,0,0.2c0.2,1.3-0.6,2.9-1.5,2.8c-1.3,0-1.9-0.9-2.2-2.1
		c-0.4-2.3-0.6-4.5-1.7-6.5C609.5,170.4,608.9,169.4,608.4,168.4z"/>
	<path class="st1" d="M584.7,134.4c2.3,1.7,4.9,2.9,5.8,5.9c0.2,0.8,0.1,1.4-0.2,2c-0.7,1.2-1.9,1.2-2.7,0.1
		c-0.3-0.4-0.5-0.9-0.5-1.3c0-2.2-1-4-2.2-5.7C584.7,135.2,584.5,135,584.7,134.4z"/>
	<path class="st1" d="M585.2,141c1.6,2.2,2,6.4,0.7,8.5c-0.3,0.6-0.8,1-1.3,1.3c-0.9,0.4-1.7-0.2-1.7-1.1c0-0.5,0.1-0.9,0.3-1.3
		C584.5,146.2,585.3,143.8,585.2,141z"/>
	<path class="st1" d="M605.5,160.5c2.1,0.5,4.5,0.4,6.1,2.2c0.5,0.6,0.8,1.2,0.7,1.9c-0.1,0.9-0.6,1.3-1.4,0.8
		c-0.2,0-0.4-0.1-0.5-0.2C608.8,163.6,607.6,161.8,605.5,160.5z"/>
	<path class="st1" d="M586.2,130.5c0.9,0.3,1.7,1.2,1.2,2.1c-0.5,1-1.4,0.5-2.2,0c-1.4-0.8-2.7-1.7-4.4-2.1
		C582.7,129.7,584.4,129.8,586.2,130.5z"/>
	<path class="st1" d="M579.1,126.9c0.4,0.1,1,0.2,0.9,0.9c-0.1,0.4-0.6,0.8-1.1,0.8c-1.2-0.2-2.2,0.1-3.3,0.2
		C576.5,127.5,577.5,126.6,579.1,126.9z"/>
	<path class="st1" d="M598.1,131.6c0.1,0,0.1,0,0.2,0l0,0C598.2,131.7,598.1,131.7,598.1,131.6z"/>
	<path class="st1" d="M598.5,131.9c-0.1-0.1-0.2,0-0.2-0.1C598.4,131.9,598.4,131.9,598.5,131.9
		C598.5,131.9,598.4,131.9,598.5,131.9z"/>
	<path class="st1" d="M598.3,131.6C598.3,131.8,598.3,131.8,598.3,131.6C598.3,131.8,598.3,131.8,598.3,131.6L598.3,131.6z"/>
</g>
</svg>
