<?xml version="1.0" encoding="utf-8"?>
<!-- Generator: Adobe Illustrator 27.3.1, SVG Export Plug-In . SVG Version: 6.00 Build 0)  -->
<svg version="1.1" id="Layer_1" xmlns="http://www.w3.org/2000/svg" xmlns:xlink="http://www.w3.org/1999/xlink" x="0px" y="0px"
	 viewBox="0 0 512 512" style="enable-background:new 0 0 512 512;" xml:space="preserve">
<style type="text/css">
	.st0{opacity:0.17;}
	.st1{fill:#DAA520;}
</style>
<g class="st0">
	<path class="st1" d="M31,467.7L31,467.7L31,467.7L31,467.7C31.1,467.8,31,467.7,31,467.7z M9,374c0,0.1-0.1,0.1-0.1,0.2
		s0.1,0.1,0.2,0.1c0-0.1,0.1-0.1,0.1-0.2C9.2,374.1,9,374.1,9,374z M103.2,432.5C103.2,432.5,103.2,432.6,103.2,432.5
		c0.2,0,0.2,0,0.3-0.1c0.1,0,0-0.1,0-0.1C103.4,432.3,103.3,432.4,103.2,432.5z M30.2,467.9c-0.5-1.3-0.5-2.4,0.5-3.3
		C28.8,465.2,28.5,466.4,30.2,467.9z M-36.1,345.5c-0.4,0.8,0.3,0.9,0.7,1.2c0.8,0.6,1.6,1.1,2.3,1.6c-0.4-1.1-0.4-2.4-1.5-2.9
		C-35,345.2-35.6,344.9-36.1,345.5z M44,394.6c-0.7,0.4-0.3,1.1,0.1,1.5c0.8,1,1.4,2.2,2,3.6c0.2-1.7,0.5-3.2-0.6-4.6
		C45,394.6,44.5,394.2,44,394.6z M24.4,314.3c-0.5,1.7-0.1,3.2,0.7,4.7c0.3-1.4,0.7-2.7,1.2-4c0.3-0.6,0.3-1.3-0.4-1.6
		C25,313,24.6,313.7,24.4,314.3z M-44.5,346.2c0.1,0.9,0.8,1,1.4,0.9c1.9-0.2,3.6-0.1,5.3,0.4c-1.1-1.1-2.4-2.2-4-2.6
		c-0.5-0.2-0.9-0.1-1.4-0.1C-44,345.1-44.5,345.5-44.5,346.2z M16.7,314.2c-1.1,0.7-1,2.5,0,3.3c1.4,1,2.8,0.8,4.2,0.4
		c0.4,0,0.6-0.4,0.2-0.7c-0.8-0.9-1.7-1.8-2.6-2.7C18,314,17.3,313.9,16.7,314.2z M34,391.3c-0.2,0.9,0.5,1.4,1.1,1.6
		c2.2,0.7,4,2,5.8,3.4c0.1-0.1,0.3-0.2,0.4-0.4c-1-1.4-2-3-3.2-4.4c-0.4-0.6-1.2-0.9-2.1-0.9C35.2,390.3,34.4,390.4,34,391.3z
		 M30,310.5c-0.4,1.2-0.9,2.4-0.9,4c1.4-2,3.2-3.6,5.2-5.1c0.6-0.5,0.9-1.2,0.4-2.1c-0.5-0.7-1.4-0.6-2-0.3
		C31.3,307.7,30.6,309,30,310.5z M-51.6,360.9c0.1,0.9,0.2,1.8,1.3,2c1.1,0.1,1.5-0.8,1.6-1.7c0.2-2.4,0.6-4.8,2-6.9
		C-49.7,355.2-51.7,358.2-51.6,360.9z M16.4,341.7c-0.4,2-1.2,3.2-2.4,4.2c-0.2,0.4-0.4,0.7-0.5,1.1c-0.3,1-0.3,2,0.7,2.4
		c1,0.6,2,0,2.6-0.9C18.2,346.9,18.1,344,16.4,341.7z M-50.4,350.4c-1.1,0.9-1.5,2.4-0.7,3.4c0.7,0.8,1.8,0.7,3-0.8
		c1.4-1.8,3.2-2.9,5.1-3.9c-2.2-0.1-4.3,0.1-6.5,0.9C-49.8,350-50.2,350.2-50.4,350.4z M-7.2,354.5c-1,1.4-1.4,3-1.5,4.7
		c0,1.6,0,3,0.3,4.5c0.7-3,2.2-5.2,4-7.6c0.7-0.8,0.9-2-0.1-2.6C-5.6,353-6.5,353.5-7.2,354.5z M3,391.6c-1,0.9-1.3,2.2-1.3,3.7
		c0,0.4,0,0.8,0.1,1.1c0.3,0.7,0,1.8,0.8,2.1c0.7,0.3,0.7-0.9,1.1-1.3c0.7-0.7,1.7-1.4,2.4-2.2c1-0.9,1.4-2.5,0.7-3.3
		C6.2,390.7,4.3,390.6,3,391.6z M19.9,402.3c-0.8,0.9-1.3,2-1.3,3.2c-0.1,0.7,0.1,1.1,0.7,1.5c0.7,0.3,1.1,0.1,1.6-0.3
		c0.4-0.3,0.9-0.7,1.1-1.1c1.3-2.7,3.1-5.1,5.5-7C24.7,399.4,21.9,400.1,19.9,402.3z M-3.9,460.8c-0.4,1-0.1,1.6,0.8,1.9
		c0.7,0.1,1.4,0.3,2.1-0.1c3.2-1.9,5.6-4.4,7.3-7.8c-2.4,1.7-5.1,2.8-7.8,3.8C-2.4,459-3.4,459.7-3.9,460.8z M95.4,508.4
		c-0.8,0.7-1.4,1.7-1.4,2.8c0,0.7,0,1.4,0.8,1.9c0.8,0.4,1.6,0.1,2.2-0.5c0.5-0.4,0.7-0.9,1.1-1.5c1.4-2.4,3.2-4.6,5.5-6.2
		C100.7,505.7,97.8,506.3,95.4,508.4z M23.1,394.7c-0.5,0.8-0.9,1.6-0.3,2.4c0.7,0.9,1.7,1,2.6,0.6c2.6-1.5,5.5-2.4,8.6-2.5
		c-2.6-1.1-5.2-2.2-8.3-2C24.8,393.2,23.8,393.5,23.1,394.7z M43.2,312.8c1,1,2.1,1.1,2.9,1.6c1.7,0.9,3.1,2.2,4.4,3.7
		c0.1,0.1,0.2,0.3,0.4,0.5c1.1,1.1,2.4,1.6,3.1,0.9c0.7-0.7,0.6-2.7-0.6-3.6c-0.8-0.7-1.7-1.4-2.7-1.7C48.4,313.2,46,313,43.2,312.8
		z M-18.3,480.5c0.1,1.1,1.1,1.4,2.2,1.4c1.7-0.1,3-0.7,4.2-1.8c1.7-1.5,3.3-3.3,4.3-5.4c-2.7,2.2-5.9,2.8-9.2,3.5
		C-17.8,478.5-18.5,479.2-18.3,480.5z M101.1,439.5c1.9-2.2,3.7-1.9,5.7-1.5c1.3,0.3,2.3,0,3-1.1c0.5-0.8,0.5-1.8-0.1-2.5
		c-0.7-1-1.8-1.6-3.1-1.4C103.9,433.4,101.8,435.8,101.1,439.5z M35.5,311.3c1.1,0.3,2-0.3,2.8-0.4c1.9-0.2,3.6-0.1,5.4,0.3
		c0.8,0.2,1.6,0.4,2.4,0.2c0.9-0.1,1.5-0.6,1.7-1.4c0.2-0.9,0-1.6-0.9-2.2c-1.2-0.7-2.6-1-4.1-0.6C40.1,308.1,37.8,309.4,35.5,311.3
		z M6.6,357.5c4,0.1,7.3,1.8,10.5,3.8c0.5,0.3,1.1,0.4,1.7,0.4c1.6-0.1,2.2-1.2,1.5-2.5c-0.8-1.5-1.9-2.4-3.5-2.9
		C13.4,355.2,10,356.2,6.6,357.5z M55.2,429.5c-0.5,2.2,0.5,4.1,2,5.5c2,2,4.3,3.5,6.7,5c0.2,0.1,0.6,0.1,1,0.2
		c-2.7-2.8-4.3-5.7-5.2-9.3c-0.1-0.8-0.6-1.8-1.4-2.3C57,427.5,55.6,428,55.2,429.5z M-2.2,357.5c0,0.1,0.1,0.1,0.1,0.7
		c3.2-2.4,6.7-3,10.3-3.5c0.6-0.1,0.9-0.2,1.4-0.5c1.5-0.8,1.6-2.7,0.1-3.6c-1.7-1.1-3.6-0.9-5.2,0.1C1.6,352.4-0.2,355.2-2.2,357.5
		z M-38.1,337.9c-0.6,1,0.2,2.9,1.7,3.8c0.9,0.6,1.9,0.9,2.8,1.4c3,1.2,5.8,2.7,8.2,4.9c-2.2-4-4.7-7.9-8.6-10.2
		C-35.4,336.9-37.6,337.1-38.1,337.9z M-14.4,470c0.1,0.9,0.8,1.5,1.7,1.8c2,0.7,3.8,0.4,5.5-0.6c2.9-1.6,5.2-3.9,7.5-6.3
		c0.3-0.2,0.4-0.4,0.1-0.9c-1.6,1-3.5,1.9-5.3,2.3s-3.7,0.7-5.7,0.9c-0.9,0.1-1.8,0.4-2.6,0.7C-13.9,468.5-14.6,469.2-14.4,470z
		 M6.5,317.1c-1.4,1.4-1,4.4,0.7,5.5c2,1.3,4,1.7,6.3,0.9c1.7-0.6,3.2-1.1,4.5-2.4c-2.9,0.6-4.7-1-6.3-3C10.3,316.4,8,316,6.5,317.1
		z M5.9,341.1c-1.5,1.4-1.8,3.5-0.7,4.8c1,1.2,3.2,1.4,4.8,0.2c2.1-1.4,3.4-3.5,4-5.8c0.4-1.4,0.7-2.9,0.5-4.4c-1.4,3-4,3.6-6.7,4.2
		C7.1,340.3,6.5,340.5,5.9,341.1z M41.4,423.9c-0.7,2.3-0.1,4.3,1.4,6.1c2.7,3,6.1,5,9.6,6.8c-0.7-1.1-1.6-2.2-2.4-3.2
		c-1.4-2.2-2.4-4.5-3.2-6.9c-0.4-1.6-0.7-3.2-2.5-4C43.1,422.1,41.9,422.6,41.4,423.9z M55.4,449.9c-1.7,1.4-1.9,4.5-0.2,6
		c1.4,1.3,3.2,0.9,4.7-0.5c0.9-0.9,1.7-1.9,2.4-2.8c1-1.2,2.1-2.3,4-2.5C62.8,447.7,58.2,447.8,55.4,449.9z M87.9,443.9
		c0.6,2.4,2.4,4.2,4,6.3c-0.2-2.2,0.9-4,2-5.8c0.7-1,1.3-2.1,1.4-3.2c0.4-2.2-1-3.7-3.2-3.6C88.9,437.6,87.2,440.4,87.9,443.9z
		 M-37,326.7c-0.9,2.4-0.6,5,1.6,6.8c2.4,2.2,5,4.4,7.5,6.4c1.6,1.2,3,2.8,4.1,4.6c0.7-0.7,0.1-1.1-0.2-1.7
		c-1.6-2.7-4.2-4.6-6.5-6.8c-1.3-1.2-2.7-2.4-3.9-3.8c-1.7-2.2-1.1-5.7,1.1-7.3c1.8-1.3,5-0.7,6.5,1.5c0.5,0.7,0.7,1.4,0.1,2.2
		c-0.5,0.7-1.1,0.9-2,0.8s-1.4-0.7-1.4-1.8c-0.8,1-0.7,1.7,0.4,2.3c1.1,0.7,2.7,0.7,3.7-0.2c1-0.9,1.4-2.4,0.6-3.7
		c-1.4-2.2-3.2-3.5-5.8-3.5C-34.1,322.5-36,324.1-37,326.7z M83.1,511c-0.1,1.7,1,2.6,2.6,2.2c1.1-0.2,2.2-0.9,2.7-1.7
		c3.1-3.7,6.8-6.7,11.7-8.6c-0.7,0-0.9-0.1-1.1-0.1c-4,0.7-8.1,0.9-11.9,2.7C84.8,506.8,83.3,508.5,83.1,511z M-20.9,330.6
		c-2.2,1.4-3,3.6-3.1,6.1c-0.1,3.7,1.5,7.1,3.3,10.4c0.7,1.1,1,2.4,2.2,3.6c-0.5-1.7-0.9-3-1.1-4.3c-0.7-3.6,0-7.1,1.7-10.4
		c0.6-1.1,0.9-2.2,0.7-3.6C-17.5,330.1-19.1,329.2-20.9,330.6z M54.4,382.1c-0.4,1.8,0.3,3.2,0.9,4.8c2,4.2,3.1,8.5,2.2,13.2
		c-0.1,0.3,0,0.4,0.4,0.7c0.9-1.5,1.5-3.4,2.2-5.1c1.2-3.6,2-7.4,0.4-11.2c-0.7-1.6-1.7-2.7-3.2-3.5
		C55.9,380.3,54.7,380.9,54.4,382.1z M65,384.5c-0.5,0.9-0.5,2.1-0.6,3.1c-0.1,4.4-1.1,8.6-3.6,12.3c-0.1,0.2-0.2,0.5-0.3,0.7
		c2-0.9,3.3-2.2,4.8-3.6c2.2-2.1,4.4-4.2,5.5-7.1c0.7-1.7,0.7-3.4,0.1-5.1c-0.7-1.2-1.4-2.2-3-2.2C66.6,382.5,65.8,383.3,65,384.5z
		 M0,327.6c-1.2,1-1.9,2.5-1.4,4.1s1.5,2.9,3.2,3.2c2.8,0.7,5.3,0.3,7.9-1.4c2.1-1.4,3.9-3,5.8-5.2c-0.7,0.2-0.9,0.1-1.1,0.4
		c-2,1.2-4,0.9-6,0.1c-1.1-0.5-2.2-1.1-3.2-1.7C3.6,326.1,1.8,326.3,0,327.6z M62.7,459.8c0.3,2,1.4,3.4,3.2,3.7
		c1.9,0.4,3.6-0.1,4.8-1.7c0.6-0.6,1-1.4,1.5-2c2-2.8,4.4-5.1,8.3-4c-3.9-2.1-7.9-4-12.4-2.8C64.4,454,62.1,456.5,62.7,459.8z
		 M96.1,452.8c1.3,3.5,3.8,5.7,6.5,8c-2.2-3.6-0.7-6.5,1.2-9.4c0.9-1.5,2.2-3,1.6-5.1c-0.7-3-3.8-4.3-6.5-2.7
		C96,445.3,94.9,449.3,96.1,452.8z M87.9,477.7c-0.4,3.7,1,6.8,3.3,9.4c3,3.6,7,6.1,10.9,8.3c0.1,0.1,0.4,0.1,0.9,0.2
		c-0.7-0.7-1.1-1.4-1.6-2c-3.5-3.8-5.1-8.6-6.2-13.7c-0.3-1.4-0.5-2.9-1.3-4.1c-0.9-1.3-1.9-2.4-3.6-2.2
		C89.2,474.1,88.1,475.9,87.9,477.7z M78.5,485.5c-0.9,1.9-0.5,3.6,0.5,5.4c1.3,2.5,3.6,3.9,6.2,4.8c4.8,1.5,9.7,2,14.8,2.2
		c0.1,0,0.3-0.1,0.7-0.3c-4.3-1.4-7.9-3.7-10.9-6.5c-2-1.7-3.2-4-5.1-5.8C82.8,483.3,79.5,483.4,78.5,485.5z M22.9,418.6
		c-0.1,3.6,1.7,6.2,4.2,8.3c3.7,3.1,8.1,4.9,12.6,6.6c1.1,0.4,2.1,0.9,3.4,0.9c-2-1.8-4-3.5-5.8-5.4c-2.4-2.8-4.5-6.1-6.3-9.4
		c-0.7-1.4-1.6-2.7-2.8-3.7c-1.1-0.9-2.5-1.2-3.9-0.7C23.1,416.1,22.8,417.3,22.9,418.6z M74.6,461.4c-2.4,2-3.7,6.4-0.8,9.5
		c2.3,2.4,7,2.4,9.4-0.1c2-2.1,4.2-3.9,6.8-5.1c2.2-0.9,4.2-0.7,6.3,0.2c0.4,0.2,0.9,0.4,1.4,0.6c-4.2-3.5-8.6-6.6-14.2-7.3
		C80.3,458.9,77.1,459.6,74.6,461.4z M105.9,455.3c-0.6,5.4,2.3,9.4,5.9,12.7c2.2,2.2,4.6,3.6,7.5,5.2c-0.4-1-1-1.3-1.5-1.9
		c-2.7-3.2-2-6.5-1.1-9.8c0.4-1.2,0.9-2.5,1.4-3.7c0.9-2.7,0.7-5.1-1.2-7c-2-2.1-4.6-2.6-7.3-1.4C107.2,450.6,106,452.5,105.9,455.3
		z M4.7,302.8c-4.8,4-8.3,9.1-11.2,14.4c-2.5,4.6-4.4,9.4-5.7,14.6c-2.2,8.7-2.8,17.5-2.2,26.5c0.1,1.9-0.1,3.7,0.1,5.6
		c0.1,0.4,0.3,0.9-0.2,1c-0.7,0.2-0.6-0.4-0.7-0.7c-1.4-3-2.7-6.1-5.2-8.2c-5.2-4.5-11-7.3-18.1-4.8c-8.1,2.9-12.5,12.8-7.3,20.5
		c2.6,3.8,8.3,6.5,13.7,3.5c3.1-1.8,5-4.4,5.1-8c0.1-3.2-1.2-5.7-4-7.3c-4.2-2.4-9.3,0.1-9.6,5.1c-0.4,3.2,3.2,5.8,6.1,4.6
		c1.3-0.6,2.3-2.4,2.1-3.7c-0.3-1.4-1.3-2.2-2.7-2.2c-1.1,0.1-1.5,0.9-1.6,1.9c-0.1,0.9,0.7,1.1,1.6,1.1c-0.2-0.7-1.2-1.1-0.5-2
		c0.5-0.5,0.9-0.4,1.4-0.1c0.7,0.5,1.1,1.1,0.7,2.1c-0.7,1.4-1.8,2.2-3.2,2c-1.5-0.3-2.8-2.1-2.6-3.6c0.1-2.2,2-4.2,4-4.5
		c2.1-0.4,4.8,1.1,5.6,3.4c1.1,3,0.4,5.7-1.9,7.9c-2.1,2.1-4.7,2.8-7.6,1.9c-6.1-2-8.5-9.3-5.1-14.9c3.7-6.3,10.8-7.9,17.1-5.2
		c5.4,2.2,8.6,6.7,11.4,11.5c2.3,3.8,2.3,8.1,3.4,12.3c0.2,0.7,0.4,1.3,0.5,2.1c0.1,0.4,0.4,0.7,0,0.9c-0.4,0.3-0.7-0.1-0.9-0.3
		c-2.2-1.4-5.1-1.1-7,0.4c-1.5,1.4-1.7,3.6-0.3,4.5c-0.9-2,0-4,2.2-4.8c3.6-1.1,6.2,0.7,7.1,4.4c0.7,2.4,1.7,4.7,2.7,6.9
		c1.9,4.4,3.6,8.7,5.8,12.9c2.5,4.9,5.5,9.6,9,14c3.4,4.3,7.1,8,11.2,11.4c6.5,5.2,13.7,9.2,21.7,11.7c0.3,0.1,0.7,0.1,0.7,0.7
		c-2.8,0.5-5.7,0.9-8.5,1.7c-5.1,1.3-10.1,3.4-14.8,6.2c-6.8,4.1-12.4,9.6-16.8,16.2c-5.1,7.5-7.9,15.8-8.9,24.8
		c-0.7,6.5-0.4,12.9,1.4,19.2c1.6,5.3,3.9,10.4,7.4,14.9c7.9,10.1,18.3,15.9,31.2,17.1c7.3,0.7,14.2-0.7,20.6-4.2
		c6.7-3.6,11.8-9.1,15.1-16.1c3.6-7.7,4.9-15.7,3-24c-3.1-13.7-16.4-23.2-30.2-22c-0.4,0.1-0.9,0.4-1.1-0.1
		c-0.3-0.6,0.4-0.9,0.7-1.3c4.4-6.1,0.8-14.5-6.5-15.5c-4.2-0.7-8.3,2.4-8.8,6.4c-0.3,2.4,0.9,4.8,3.2,6.1c2.2,1.2,4.3,0.9,6.2-0.7
		c2.2-1.9,1.8-5.2-0.7-6.4c-0.5-0.2-0.9-0.5-1.5,0c0.2,0.1,0.4,0.3,0.7,0.4c1.7,0.9,2.6,2.2,2.2,3.6c-0.7,1.7-2.5,3.1-4.3,2.8
		c-2.4-0.4-4.5-2-4.8-4.6c-0.2-2.2,1.3-5.1,3.5-6c4-1.9,7.5-0.4,10,2.6c2.7,3.2,2.4,7.9-0.2,10.9c-5,5.6-13.1,5.4-18.1-0.2
		c-5.7-6.1-4.6-13.7,0-19.5c2.6-3.3,6-5.1,9.8-6.4c7.1-2.2,14.3-3.6,21.7-3.2c10.9,0.7,21.3,3.4,31.1,8.1c10.2,5,19,11.6,27.1,19.4
		c4.2,4.2,8.4,8.6,12.1,13.4c0.6,0.7,1.1,1.3,1.8,2c0.1,0.3,0.4,0.5,0.1,0.7c-0.2,0.3-0.4,0.1-0.7,0.1c-5-1.7-8.8,0.4-12.3,3.4
		c-3.1,2.6-3.4,8.3-0.9,11.9c2.3,3.5,6.8,4.3,10.8,2.3c1.6-0.8,2.9-1.8,3.7-3.4c0.8-1.6,0.4-3.6-0.7-4.6c-1.1-1.1-3.5-1.4-4.8-0.7
		c-1.4,0.8-1.7,1.8-1.1,3.5c0.4-0.1,0.4-0.5,0.4-0.7c0.3-1.5,1-2.2,2.4-2c1.5,0.1,2.5,1.3,2.5,2.7c0.1,0.7-0.4,1.4-0.8,2
		c-1.8,1.9-4,2.4-6.4,2.2c-2-0.2-3.5-1.4-4.1-3.3c-2-5.1,0.1-9.4,5.3-11.2c4.6-1.6,8.4-0.2,11.1,3.5c3.6,4.9,6.6,9.9,9.4,15.3
		c0.7,1.1,1.4,2.2,2.2,3.3l0.7-0.6c-1.7-2.2-2.7-4.8-4.1-7.1c-1.1-2-2.1-4-3.3-6c-2.7-4.8-5.9-9.4-9.2-13.7
		c-5.8-7.6-12.1-14.8-19.5-21c-5-4.2-10.2-8-15.8-11.4c-0.4-0.1-0.8-0.4-0.9-0.9c-0.8-2.7-1.9-5.5-1.9-8.3c0.1-4,3.2-8.7,6.8-10.5
		c2.9-1.4,5.7-2,8.8-1c0.1,0.1,0.3,0.1,0.4,0.1s0.1-0.1,0.5-0.4c-3.1-1.2-6-1.3-8.7-0.1c-8.4,3.9-10.4,10.7-7.7,19.3
		c-0.9-0.1-1.1-0.7-1.4-1.2c-2.9-5.1-2.2-12,1.7-16.5c2.4-2.8,5.1-5.1,8.9-5.5c1.9-0.4,3.6,0.2,5.3,0.3c0.8,0.1,1.7,0.7,2.9,0.5
		c-0.9-0.7-1.7-1.1-2.7-1c-2.9-0.7-5.8-1.3-8.6,0.1c-7.6,3.7-12.7,11.7-9.4,20.7c0.1,0.2,0.4,0.6,0.1,0.8c-0.4,0.3-0.7,0-0.9-0.1
		c-3.2-1-5.6-3.4-8-5.6c-2.6-2.5-5.1-5.1-7-8.3c-4.2-7-6.8-14.4-5.1-22.8c1.4-7.2,5.3-12.4,11.9-15.7c6.5-3.2,13.3-3.5,19.7,0.3
		c5.8,3.3,9.3,10.4,8.1,16.6c-1.4,7.3-8,11.7-15.1,11.3c-5.8-0.3-10-4.8-10.5-9.9c-0.3-3.5,1.6-6.9,4.9-8.3c3.1-1.4,6.5-1.6,9.2,1.2
		c1.2,1.3,2.1,4.3,1.4,5.9c-0.9,2.2-2.7,3.1-4.8,3.2c-2,0.1-3.4-1.3-3.6-3.2c-0.1-1.7,1.1-2.7,2.7-2.3c1,0.3,0.7,1.1,0.9,2
		c0.6-1.5,0.1-2.4-1.1-2.4c-1.3-0.2-3,0.7-3.2,1.7c-0.4,1.2,0.3,3.7,1.2,4.3c2.2,1.4,5.4,1.1,7.2-0.6c2-2,2.4-5.2,0.9-7.8
		c-2.4-4-6.8-5.1-11.2-3.2c-6.5,2.8-7.3,10.4-4.2,15.2c4,6.5,12,7.6,18.5,4.3c7.3-3.6,10-10.7,8.3-17.7c-1.8-7.8-7-12.5-14.6-14.3
		c-11.7-2.7-23.8,4.2-27.6,15.6c-2.5,7.6-1.4,14.9,1.9,22c2.7,5.9,6.7,10.8,11.7,14.9c0.1,0,0.1,0.2,0.2,0.4
		c-0.4,0.5-0.7,0.2-0.9,0.1c-7.2-2.6-14.5-3.8-22.1-4.5c-4.3-0.5-8.3-2-12.3-3.6c-6.8-2.8-13-6.8-18.6-12.1
		c-3.5-3.1-5.5-7.1-6.5-11.4c-2.2-8.7-0.4-16.6,6.1-23.2c4-4.1,9.1-5.5,14.6-5.3c5.2,0.2,9.7,2.2,13.5,5.8
		c6.8,6.8,6.2,17.3-0.4,22.8c-3.6,3.1-8.1,3.2-12.4,1.5c-2.2-0.8-3.9-2.2-5.4-4c-2.4-3-2.2-8.5,0.9-11.8c3-3,9.2-2.1,11.2,1.7
		c0.9,1.7,0,5.2-1.3,6.3c-0.8,0.6-3.6,0.1-4.5-0.9c-0.7-0.8-0.7-1.6,0.5-3.2c-0.9,0.3-1.6,0.9-1.7,2c-0.2,0.9,0.4,1.6,1.1,2.1
		c1.7,0.9,3.4,1.7,5,0.4c1.8-1.3,2.4-3.2,2.3-5.3c-0.3-2.8-2.6-5.1-5.9-5.9c-5-1.1-9.2,1.7-10.4,7c-1.2,5.8,1.2,10.5,7.3,13.4
		c5.5,2.5,12.3,1.6,16.2-2.8c4.2-4.5,5.8-10.1,4.2-16.1c-1.9-7.6-7.1-12-14.3-14.3c-5.8-1.9-11.6-1.5-17,1.1
		c-5.1,2.4-8.7,6.5-10.9,11.8c-2.4,5.5-3,11.1-1.7,16.9c0.1,0.4,0.2,0.7,0.3,1.1c-0.4,0.2-0.5,0.1-0.7-0.1
		c-4-4.9-7.6-10.2-10.4-15.9c-1.4-2.7-0.5-5.4,1.2-7.6c2-2.7,5.1-3.6,8.1-3.6c1.2,0.7,2.6,0.9,3.7,2.1c-0.4-1.4-2.1-2.4-3.7-2.3
		c-2-0.7-3.7-0.3-5.6,0.7c-3,1.5-4.8,4-5.2,7.2c-1.4-0.9-1.7-2-1.1-3.7c1.9-5.1,7.3-8,12.7-6.5c0.3,0,0.6,0.1,0.7-0.1
		c-1.8-1.8-5.7-1.1-7.9-0.2c-2.8,1.1-4.8,3.2-6.1,6c-0.1,0.4-0.1,0.8-0.7,0.7c-0.4,0-0.4-0.4-0.5-0.7c0-0.1,0-0.1,0-0.1
		c-1.3-3-1.1-3.6,1.6-5.6c0.7-0.5,1.6-0.8,2.1-1.7c0.7-1.2,0.7-3-0.4-3.9c-0.9-0.9-2.8-1-4-0.4c-0.7,0.4-1.4,1-1.8,1.9
		c-0.1,0.4-0.1,0.8-0.7,0.7c-0.4-0.1-0.4-0.6-0.4-0.8c-0.4-0.9-0.5-1.7-0.8-2.5c-1.9-4.3-0.5-8.2,2-12c4.6-7.3,14.6-8.9,21.2-3.7
		c5.2,4,6.3,11.9,2.1,16.6c-2.5,2.7-5.8,3.5-9.3,2.7c-3.1-0.7-5.2-2.5-6.1-5.8c-0.7-2.7,0.3-5.5,2.7-7.1c2-1.1,5-1,6.7,0.5
		c1.5,1.3,2,4.1,0.9,5.5c-1.1,1.7-2.9,2-4.8,0.8c-0.4-0.5-0.6-0.9-0.7-1.5c-0.1-1.6,0.6-2.1,2.1-1.8c0.3,0.1,0.6,0.4,0.8,0.1
		c-0.7-0.9-2.3-1.2-3.1-0.6c-0.9,0.8-0.8,2.8,0.1,3.8c1.2,1.4,2.9,1.7,4.7,0.9c1.5-0.7,2.4-2.7,2.2-4.8c-0.4-3.6-4-5.4-7.7-4.6
		c-5.1,1-6.3,6.8-4.6,10.5c2.7,6,10.2,6.6,14.6,4c7.2-4.2,6.8-14.8,0.9-19.8c-7.4-7-19.1-4.8-24.1,3.9c-0.7,1-1.2,2.2-1.6,3.2
		c-0.1,0.3-0.1,0.7-0.5,0.7c-0.7-0.1-0.4-0.6-0.5-0.9c-0.6-3.3-0.9-6.5-1.2-9.9c-0.7-8.2-0.4-16.5,1.5-24.6
		c2.3-10.4,6.5-19.6,13.7-27.5c6.8-7.6,15.2-12.5,25.4-13.9c11.5-1.5,21.8,1.2,31.1,8.3c7.2,5.5,11.7,12.7,13.2,21.6
		c1.7,10.4-1,19.5-8.3,26.8c-5.7,5.6-13,7.7-21,6.5c-6.2-0.8-11.5-3.6-15.8-8c-8-8.3-7.4-21.1,0.6-28.4c4.8-4.5,12.2-4.9,18.4-1.4
		c4.5,2.4,7.4,6,7.3,11.3c-0.1,3.5-1.2,6.5-3.9,8.9c-3,2.5-7.3,2.5-10.9,0.1c-3.7-2.5-4.5-5.6-2.2-9.4c1.4-2.2,2.8-2.5,5.2-1.5
		c3.2,1.4,2.5,3.6,0.4,5.2c1.5,0.1,2.1-0.7,2.4-1.7c0.6-1.3,0.5-2.4-0.7-3.3c-0.8-0.7-1.8-1.1-2.8-1.6c-1.7-0.7-3.7,0-5.1,1.8
		c-2.6,3.5-3,8.1,1.7,11.3c4.5,3.2,9.2,3.2,13,0.4c5.2-3.9,6.5-12.3,3.1-17.8c-4.5-7-14.4-10.4-22.3-7.6c-5.8,2.2-9.4,6.5-11.4,12.3
		c-2.5,7.3-1.4,14.3,2.8,20.7c2.7,4,6.4,6.9,10.8,9c8.1,3.8,16.4,4.5,24.6,1c7.3-3,12.4-8.3,15.6-15.5c4.8-10.5,4.1-21-1.2-31.1
		c-3.2-5.8-7.7-10.6-13.3-14.3c-5.2-3.4-11-5.9-17.3-6.8c-9.4-1.5-18.4-0.1-27,4C11.9,297.1,8.6,299.7,4.7,302.8z M20.6,452.8
		c-0.4,0.5-0.7,1-1.1,1.5c-2.2,2.9-3.5,6-3.7,9.6c-0.5,6.5,5,13.8,11.3,15.1c0.7,0.2,2-0.1,2.2,0.7c0.2,0.7-1,1-1.5,1.6
		c0,0.1-0.1,0.1-0.1,0.2c-4.4,4.2-6.7,9.4-7.3,15.3c-0.5,4.2,0.1,8.3,2.5,12c3.4,5.2,8.3,8,14.6,8.1c3.5,0.1,6.6-0.8,9.2-3.4
		c2.4-2.5,3.6-5.5,4.1-9c0.8-5.1-1.6-9.1-6.5-10.7c-2.2-0.7-4.5-0.9-6.6,0.4c-2.2,1.4-2.7,3.8-2.8,6.3c-0.1,2.7,2.7,4.8,5.2,3.6
		c0.8-0.4,1-0.9,0.7-2c-0.6,0.3-0.1,0.9-0.7,1.1c-1.1,0.7-3.6-0.1-4.2-1.4c-1-2.2,0.7-6.3,3-7.1c3.3-1,8.9,0.7,10.1,5.5
		c0.7,2.5,0.2,5.1-0.8,7.4c-1.4,3.2-3.4,5.6-6.7,6.5c-6.7,1.8-15.1-2.2-17.5-8.9c-2-5.5-1.2-10.8,1.1-15.8c2.1-4.2,5.1-7.5,9.6-9.4
		c4.2-1.9,8.6-2,13-0.9c10,2.4,16.4,8.6,19.2,18.4c1.4,5.2,1,10.6-0.4,15.7c-1.8,6.8-5.4,12.4-10.8,16.9c-7.5,6.2-16.1,8.1-25.6,6.7
		c-10.4-1.4-18.6-6.5-25.2-14.7c-4.5-5.6-7.1-12.1-8.3-19.2c-1-6.2-0.7-12.3,0.7-18.4c1.4-6,3.6-11.4,6.9-16.6
		c3.2-5,7.2-9.1,11.7-12.7c1.4-1.1,3-2.1,4.5-3.2C20.6,452.7,20.6,452.7,20.6,452.8z M13.6,461.6c-1.4,0-2.8,0.1-3.7,1.4
		c-0.2,0.4-0.5,1,0.1,1.3c0.4,0.3,0.9,0.2,1.2-0.3C11.8,463,12.7,462.5,13.6,461.6z M11.4,466.9c-1.8,0.8-2.9,2.2-3.5,4
		c-0.4,0.9-0.3,2,0.8,2.2c1.1,0.4,1.4-0.7,1.5-1.6C10.6,470,10.8,468.5,11.4,466.9z M12.1,472.6c-0.2,2.8-1,5.7,0.7,8.3
		c0.4,0.7,0.9,1,1.7,1.1c1.4,0.4,2.2-0.7,1.9-2c-0.1-0.5-0.3-0.9-0.7-1.3c-1.7-1.4-2.4-3.5-3-5.5C12.5,472.9,12.4,472.7,12.1,472.6z
		 M0.8,481.1C0.8,481,0.9,481,0.8,481.1C0.9,481,0.8,481,0.8,481.1C0.8,481,0.8,481.1,0.8,481.1C0.8,481,0.8,481,0.8,481.1z
		 M0.8,481.1C0.9,481.1,0.8,481.1,0.8,481.1C0.8,481,0.7,481.2,0.8,481.1C0.8,481.3,0.8,481.3,0.8,481.1z M0.9,481.9
		c-0.8,1.4-0.8,3-0.8,4.5c-0.1,3.6,0.3,7.1,2.7,10.1c1.9,2.2,4.1,3,6.7,2.4c3.1-0.7,4.4-4.8,2.7-7.3c-0.7-1.1-1.7-2-3-2.3
		c-0.8-0.1-1.5-0.6-2.3-0.9C3.8,487.2,1.3,485.6,0.9,481.9z M31.3,464.5c0.1-0.1,0.2-0.2,0.4-0.2c-0.1-0.1-0.1-0.1-0.4-0.1
		C31.3,464.2,31.3,464.3,31.3,464.5z M31.6,464.2L31.6,464.2C31.7,464.2,31.7,464.2,31.6,464.2C31.7,464.2,31.6,464.2,31.6,464.2
		L31.6,464.2z M24.5,483.3c0.8-0.4,1-1.4,0.3-2.1c-0.4-0.3-0.7-0.6-1.1-0.7c-2.5-0.5-4.9-1.4-7-3.3c0.4,2.7,3.6,5.8,6,6.3
		C23.4,483.7,24,483.6,24.5,483.3z M-0.6,497.1c-0.1,3.9,0,7.9,3.7,10.4c2.2,1.6,4.8,1.4,6.2-0.2c1.9-2.2,0.9-5.2-2-5.8
		c-1.3-0.3-2.7-0.4-3.9-0.8C1.1,499.8,0.5,499.1-0.6,497.1z M0.3,510c0.1,1.3,0.7,3.2,1.6,4.5c1.7,2.5,3.9,3,5.8,1.1
		c1.2-1.1,1.1-2.9-0.4-3.7c-0.7-0.5-1.6-0.7-2.4-0.9c-1.4-0.3-2.7-0.4-3.9-1.3C0.5,509.2,0.2,509.3,0.3,510z M18.2,506
		c-1.1,2-2.7,3.6-2.4,6.1c0.1,0.7,0.3,1.4,0.9,1.7c0.7,0.4,1.3,0.2,1.5-0.7c0.1-0.1,0.1-0.4,0.1-0.6C18.2,510.5,17.6,508.3,18.2,506
		z M23.4,516.5c-0.5-1-0.9-2.2-1.3-3.3c-0.2,3.8-0.9,7.7,1.8,10.9c0.1,0,0.1,0.1,0.2,0.2c0.8,0.9,2.7,1.4,3.2,0.7
		c0.9-1,0.7-2.2-0.1-3.2C25.7,520.4,24.1,518.7,23.4,516.5z M32.2,522.8c1.6,1.8,3.4,3.4,5.4,4.7c2.1,1.2,4.2,1.7,6.5,0.5
		c2-0.9,2.2-3.3,0.4-4.5c-0.7-0.4-1.5-0.8-2.4-0.7c-4.3,0.2-8.3-0.8-12-3.1c-0.1,0-0.3-0.2-0.7,0.1C30.1,521,31.3,521.8,32.2,522.8z
		 M53,520.7c1.7-0.7,3.2-1.7,4-3.2c0.5-0.7,0.7-1.7,0.2-2.5c-0.6-0.9-1.5-0.9-2.4-0.7c-0.7,0.2-1.6,0.4-2.2,0.9
		c-3.6,2.6-7.4,4.5-12,4.8C44.7,521,48.7,522.1,53,520.7z"/>
	<path class="st1" d="M4.7,302.8c-4.8,4-8.3,9.1-11.2,14.4c-2.5,4.6-4.4,9.4-5.7,14.6c-2.2,8.7-2.8,17.5-2.2,26.5
		c0.1,1.9-0.1,3.7,0.1,5.6c0.1,0.4,0.3,0.9-0.2,1c-0.7,0.2-0.6-0.4-0.7-0.7c-1.4-3-2.7-6.1-5.2-8.2c-5.2-4.5-11-7.3-18.1-4.8
		c-8.1,2.9-12.5,12.8-7.3,20.5c2.6,3.8,8.3,6.5,13.7,3.5c3.1-1.8,5-4.4,5.1-8c0.1-3.2-1.2-5.7-4-7.3c-4.2-2.4-9.3,0.1-9.6,5.1
		c-0.4,3.2,3.2,5.8,6.1,4.6c1.3-0.6,2.3-2.4,2.1-3.7c-0.3-1.4-1.3-2.2-2.7-2.2c-1.1,0.1-1.5,0.9-1.6,1.9c-0.1,0.9,0.7,1.1,1.6,1.1
		c-0.2-0.7-1.2-1.1-0.5-2c0.5-0.5,0.9-0.4,1.4-0.1c0.7,0.5,1.1,1.1,0.7,2.1c-0.7,1.4-1.8,2.2-3.2,2c-1.5-0.3-2.8-2.1-2.6-3.6
		c0.1-2.2,2-4.2,4-4.5c2.1-0.4,4.8,1.1,5.6,3.4c1.1,3,0.4,5.7-1.9,7.9c-2.1,2.1-4.7,2.8-7.6,1.9c-6.1-2-8.5-9.3-5.1-14.9
		c3.7-6.3,10.8-7.9,17.1-5.2c5.4,2.2,8.6,6.7,11.4,11.5c2.3,3.8,2.3,8.1,3.4,12.3c0.2,0.7,0.4,1.3,0.5,2.1c0.1,0.4,0.4,0.7,0,0.9
		c-0.4,0.3-0.7-0.1-0.9-0.3c-2.2-1.4-5.1-1.1-7,0.4c-1.5,1.4-1.7,3.6-0.3,4.5c-0.9-2,0-4,2.2-4.8c3.6-1.1,6.2,0.7,7.1,4.4
		c0.7,2.4,1.7,4.7,2.7,6.9c1.9,4.4,3.6,8.7,5.8,12.9c2.5,4.9,5.5,9.6,9,14c3.4,4.3,7.1,8,11.2,11.4c6.5,5.2,13.7,9.2,21.7,11.7
		c0.3,0.1,0.7,0.1,0.7,0.7c-2.8,0.5-5.7,0.9-8.5,1.7c-5.1,1.3-10.1,3.4-14.8,6.2c-6.8,4.1-12.4,9.6-16.8,16.2
		c-5.1,7.5-7.9,15.8-8.9,24.8c-0.7,6.5-0.4,12.9,1.4,19.2c1.6,5.3,3.9,10.4,7.4,14.9c7.9,10.1,18.3,15.9,31.2,17.1
		c7.3,0.7,14.2-0.7,20.6-4.2c6.7-3.6,11.8-9.1,15.1-16.1c3.6-7.7,4.9-15.7,3-24c-3.1-13.7-16.4-23.2-30.2-22
		c-0.4,0.1-0.9,0.4-1.1-0.1c-0.3-0.6,0.4-0.9,0.7-1.3c4.4-6.1,0.8-14.5-6.5-15.5c-4.2-0.7-8.3,2.4-8.8,6.4c-0.3,2.4,0.9,4.8,3.2,6.1
		c2.2,1.2,4.3,0.9,6.2-0.7c2.2-1.9,1.8-5.2-0.7-6.4c-0.5-0.2-0.9-0.5-1.5,0c0.2,0.1,0.4,0.3,0.7,0.4c1.7,0.9,2.6,2.2,2.2,3.6
		c-0.7,1.7-2.5,3.1-4.3,2.8c-2.4-0.4-4.5-2-4.8-4.6c-0.2-2.2,1.3-5.1,3.5-6c4-1.9,7.5-0.4,10,2.6c2.7,3.2,2.4,7.9-0.2,10.9
		c-5,5.6-13.1,5.4-18.1-0.2c-5.7-6.1-4.6-13.7,0-19.5c2.6-3.3,6-5.1,9.8-6.4c7.1-2.2,14.3-3.6,21.7-3.2c10.9,0.7,21.3,3.4,31.1,8.1
		c10.2,5,19,11.6,27.1,19.4c4.2,4.2,8.4,8.6,12.1,13.4c0.6,0.7,1.1,1.3,1.8,2c0.1,0.3,0.4,0.5,0.1,0.7c-0.2,0.3-0.4,0.1-0.7,0.1
		c-5-1.7-8.8,0.4-12.3,3.4c-3.1,2.6-3.4,8.3-0.9,11.9c2.3,3.5,6.8,4.3,10.8,2.3c1.6-0.8,2.9-1.8,3.7-3.4c0.8-1.6,0.4-3.6-0.7-4.6
		c-1.1-1.1-3.5-1.4-4.8-0.7c-1.4,0.8-1.7,1.8-1.1,3.5c0.4-0.1,0.4-0.5,0.4-0.7c0.3-1.5,1-2.2,2.4-2c1.5,0.1,2.5,1.3,2.5,2.7
		c0.1,0.7-0.4,1.4-0.8,2c-1.8,1.9-4,2.4-6.4,2.2c-2-0.2-3.5-1.4-4.1-3.3c-2-5.1,0.1-9.4,5.3-11.2c4.6-1.6,8.4-0.2,11.1,3.5
		c3.6,4.9,6.6,9.9,9.4,15.3c0.7,1.1,1.4,2.2,2.2,3.3l0.7-0.6c-1.7-2.2-2.7-4.8-4.1-7.1c-1.1-2-2.1-4-3.3-6
		c-2.7-4.8-5.9-9.4-9.2-13.7c-5.8-7.6-12.1-14.8-19.5-21c-5-4.2-10.2-8-15.8-11.4c-0.4-0.1-0.8-0.4-0.9-0.9
		c-0.8-2.7-1.9-5.5-1.9-8.3c0.1-4,3.2-8.7,6.8-10.5c2.9-1.4,5.7-2,8.8-1c0.1,0.1,0.3,0.1,0.4,0.1s0.1-0.1,0.5-0.4
		c-3.1-1.2-6-1.3-8.7-0.1c-8.4,3.9-10.4,10.7-7.7,19.3c-0.9-0.1-1.1-0.7-1.4-1.2c-2.9-5.1-2.2-12,1.7-16.5c2.4-2.8,5.1-5.1,8.9-5.5
		c1.9-0.4,3.6,0.2,5.3,0.3c0-0.1,0.1-0.4,0.1-0.5c-2.9-0.7-5.8-1.3-8.6,0.1c-7.6,3.7-12.7,11.7-9.4,20.7c0.1,0.2,0.4,0.6,0.1,0.8
		c-0.4,0.3-0.7,0-0.9-0.1c-3.2-1-5.6-3.4-8-5.6c-2.6-2.5-5.1-5.1-7-8.3c-4.2-7-6.8-14.4-5.1-22.9c1.4-7.2,5.3-12.4,11.9-15.7
		c6.5-3.2,13.3-3.5,19.7,0.3c5.8,3.3,9.3,10.4,8.1,16.6c-1.4,7.3-8,11.7-15.1,11.3c-5.8-0.3-10-4.8-10.5-9.9
		c-0.4-3.5,1.6-6.9,4.8-8.4c3.1-1.4,6.5-1.6,9.2,1.2c1.2,1.3,2.1,4.3,1.4,5.9c-0.9,2.2-2.7,3.1-4.8,3.2c-2,0.1-3.4-1.3-3.6-3.2
		c-0.1-1.7,1.1-2.7,2.7-2.3c1,0.3,0.7,1.1,0.9,2c0.6-1.5,0.1-2.4-1.1-2.4c-1.3-0.2-3,0.7-3.2,1.7c-0.4,1.2,0.3,3.7,1.2,4.3
		c2.2,1.4,5.4,1.1,7.2-0.6c2-2,2.4-5.2,0.9-7.8c-2.4-4-6.8-5.1-11.2-3.2c-6.5,2.8-7.3,10.4-4.2,15.2c4,6.5,12,7.6,18.5,4.3
		c7.3-3.6,10-10.7,8.3-17.7c-1.8-7.8-7-12.5-14.6-14.3c-11.7-2.7-23.8,4.2-27.6,15.6c-2.5,7.6-1.4,14.9,1.9,22
		c2.7,5.9,6.7,10.8,11.7,14.9c0.1,0,0.1,0.2,0.2,0.4c-0.4,0.5-0.7,0.2-0.9,0.1c-7.2-2.6-14.5-3.8-22.1-4.5c-4.3-0.5-8.3-2-12.3-3.6
		c-6.8-2.8-13-6.7-18.4-11.7c-3.5-3.1-5.5-7.1-6.5-11.4c-2.2-8.7-0.4-16.6,6.1-23.2c4-4.1,9.1-5.5,14.6-5.3
		c5.2,0.2,9.7,2.2,13.5,5.8c6.8,6.8,6.2,17.3-0.4,22.8c-3.6,3.1-8.1,3.2-12.4,1.5c-2.2-0.8-3.9-2.2-5.4-4c-2.4-3-2.2-8.5,0.9-11.8
		c3-3,9.2-2.1,11.2,1.7c0.9,1.7,0,5.2-1.3,6.3c-0.8,0.6-3.6,0.1-4.5-0.9c-0.7-0.8-0.7-1.6,0.5-3.2c-0.9,0.3-1.6,0.9-1.7,2
		c-0.2,0.9,0.4,1.6,1.1,2.1c1.7,0.9,3.4,1.7,5,0.4c1.8-1.3,2.4-3.2,2.3-5.3c-0.3-2.8-2.6-5.1-5.9-5.9c-5-1.1-9.2,1.7-10.4,7
		c-1.2,5.8,1.2,10.5,7.3,13.4c5.5,2.5,12.3,1.6,16.2-2.8c4.2-4.5,5.8-10.1,4.2-16.1c-2-7.6-7.1-12-14.4-14.8
		c-5.8-1.9-11.6-1.5-17,1.1c-5.1,2.4-8.7,6.5-10.9,11.8c-2.4,5.5-3,11.1-1.7,16.9c0.1,0.4,0.2,0.7,0.3,1.1c-0.4,0.2-0.5,0.1-0.7-0.1
		c-4-4.9-7.6-10.2-10.4-15.9c-1.4-2.7-0.5-5.4,1.2-7.6c2-2.7,5.1-3.6,8.1-3.6c-0.1,0-0.1-0.1,0.1-0.1c-2-0.7-3.7-0.3-5.6,0.7
		c-3,1.5-4.8,4-5.2,7.2c-1.4-0.9-1.7-2-1.1-3.7c1.9-5.1,7.3-8,12.7-6.5c0.3,0,0.6,0.1,0.7-0.1c-1.8-1.8-5.7-1.1-7.9-0.2
		c-2.8,1.1-4.8,3.2-6.1,6c-0.1,0.4-0.1,0.8-0.7,0.7c-0.4,0-0.4-0.4-0.5-0.7c0-0.1,0-0.1,0-0.1c-1.3-3-1.1-3.6,1.6-5.6
		c0.7-0.5,1.6-0.8,2.1-1.7c0.7-1.2,0.7-3-0.4-3.9c-0.9-0.9-2.8-1-4-0.4c-0.7,0.4-1.4,1-1.8,1.9c-0.1,0.4-0.1,0.8-0.7,0.7
		c-0.4-0.1-0.4-0.6-0.4-0.8c-0.4-0.9-0.5-1.7-0.8-2.5c-1.9-4.3-0.5-8.2,2-12c4.6-7.3,14.6-8.9,21.2-3.7c5.2,4,6.3,11.9,2.1,16.6
		c-2.5,2.7-5.8,3.5-9.3,2.7c-3.1-0.7-5.2-2.5-6.1-5.8c-0.7-2.7,0.3-5.5,2.7-7.1c2-1.1,5-1,6.7,0.5c1.5,1.3,2,4.1,0.9,5.5
		c-1.1,1.7-2.9,2-4.8,0.8c-0.1,0-0.4,0-0.7,0.1c1.2,1.4,2.9,1.7,4.7,0.9c1.5-0.7,2.4-2.7,2.2-4.8c-0.4-3.6-4-5.4-7.7-4.6
		c-5.1,1-6.3,6.8-4.6,10.5c2.7,6,10.2,6.6,14.6,4c7.2-4.2,6.8-14.8,0.9-19.8c-7.6-6.4-19.3-4.2-24.2,4.5c-0.7,1-1.2,2.2-1.6,3.2
		c-0.1,0.3-0.1,0.7-0.5,0.7c-0.7-0.1-0.4-0.6-0.5-0.9c-0.6-3.3-0.9-6.5-1.2-9.9c-0.7-8.2-0.4-16.5,1.5-24.6
		c2.3-10.4,6.5-19.6,13.7-27.5c6.8-7.6,15.2-12.5,25.4-13.9c11.5-1.5,21.8,1.2,31.1,8.3c7.2,5.5,11.7,12.7,13.2,21.6
		c1.7,10.4-1,19.5-8.3,26.8c-5.7,5.6-13,7.7-21,6.5c-6.2-0.8-11.5-3.6-15.8-8c-8-8.3-7.4-21.1,0.6-28.4c4.8-4.5,12.2-4.9,18.4-1.4
		c4.5,2.4,7.4,6,7.3,11.3c-0.1,3.5-1.2,6.5-3.9,8.9c-3,2.5-7.3,2.5-10.9,0.1c-3.7-2.5-4.5-5.6-2.2-9.4c1.4-2.2,2.8-2.5,5.2-1.5
		c3.2,1.4,2.5,3.6,0.4,5.2c1.5,0.1,2.1-0.7,2.4-1.7c0.6-1.3,0.5-2.4-0.7-3.3c-0.8-0.7-1.8-1.1-2.8-1.6c-1.7-0.7-3.7,0-5.1,1.8
		c-2.6,3.5-3,8.1,1.7,11.3c4.5,3.2,9.2,3.2,13,0.4c5.2-3.9,6.5-12.3,3.1-17.8c-4.5-7-14.4-10.4-22.3-7.6c-5.8,2.2-9.4,6.5-11.4,12.3
		c-2.5,7.3-1.4,14.3,2.8,20.7c2.7,4,6.4,6.9,10.8,9c8.1,3.8,16.4,4.5,24.6,1c7.3-3,12.4-8.3,15.6-15.5c4.8-10.5,4.1-21-1.2-31.1
		c-3.2-5.8-7.7-10.6-13.3-14.3c-5.2-3.4-11-5.9-17.3-6.8c-9.4-1.5-18.4-0.1-27,4C11.9,297.1,8.6,299.7,4.7,302.8z M20.6,452.8
		c-0.4,0.5-0.7,1-1.1,1.5c-2.2,2.9-3.5,6-3.7,9.6c-0.5,6.5,5,13.8,11.3,15.1c0.7,0.2,2-0.1,2.2,0.7c0.2,0.7-1,1-1.5,1.6
		c0,0.1-0.1,0.1-0.1,0.2c-4.4,4.2-6.7,9.4-7.3,15.3c-0.5,4.2,0.1,8.3,2.5,12c3.4,5.2,8.3,8,14.6,8.1c3.5,0.1,6.6-0.8,9.2-3.4
		c2.4-2.5,3.6-5.5,4.1-9c0.8-5.1-1.6-9.1-6.5-10.7c-2.2-0.7-4.5-0.9-6.6,0.4c-2.2,1.4-2.7,3.8-2.8,6.3c-0.1,2.7,2.7,4.8,5.2,3.6
		c0.8-0.4,1-0.9,0.7-2c-0.6,0.3-0.1,0.9-0.7,1.1c-1.1,0.7-3.6-0.1-4.2-1.4c-1-2.2,0.7-6.3,3-7.1c3.3-1,8.9,0.7,10.1,5.5
		c0.7,2.5,0.2,5.1-0.8,7.4c-1.4,3.2-3.4,5.6-6.7,6.5c-6.7,1.8-15.1-2.2-17.5-8.9c-2-5.5-1.2-10.8,1.1-15.8c2.1-4.2,5.1-7.5,9.6-9.4
		c4.2-1.9,8.6-2,13-0.9c10,2.4,16.4,8.6,19.2,18.4c1.4,5.2,1,10.6-0.4,15.7c-1.8,6.8-5.4,12.4-10.8,16.9c-7.5,6.2-16.1,8.1-25.6,6.7
		c-10.4-1.4-18.6-6.5-25.2-14.7c-4.5-5.6-7.1-12.1-8.3-19.2c-1-6.2-0.7-12.3,0.7-18.4c1.4-6,3.6-11.4,6.9-16.6
		c3.2-5,7.2-9.1,11.7-12.7c1.4-1.1,3-2.1,4.5-3.2C20.6,452.7,20.6,452.7,20.6,452.8z M31.7,464.2L31.7,464.2L31.7,464.2L31.7,464.2z
		"/>
	<path class="st1" d="M111.6,467.9c-3.7-3.5-6.5-7.3-5.9-12.7c0.2-2.7,1.4-4.6,3.8-5.7c2.7-1.3,5.3-0.8,7.3,1.4
		c1.7,2.1,2.3,4.5,1.2,7c-0.5,1.1-1.1,2.4-1.4,3.7c-0.9,3.4-1.7,6.7,1,9.7c0.5,0.6,1.2,0.8,1.5,1.9
		C116.4,471.5,113.7,469.9,111.6,467.9z"/>
	<path class="st1" d="M96.2,466.2c-2.1-0.8-4.1-1-6.3-0.2c-2.7,1.1-4.8,3-6.8,5.1c-2.5,2.4-7.2,2.5-9.4,0.1c-3-3.2-1.8-7.6,0.8-9.5
		c2.5-2,5.6-2.6,8.9-2.2c5.5,0.7,9.9,3.9,14.2,7.3C97.1,466.5,96.6,466.3,96.2,466.2z"/>
	<path class="st1" d="M39.8,433.6c-4.4-1.8-8.9-3.6-12.6-6.6c-2.5-2.2-4.3-4.8-4.2-8.3c0.1-1.3,0.3-2.6,1.6-3.2
		c1.4-0.7,2.7-0.3,3.9,0.7c1.2,1,2.1,2.3,2.8,3.7c1.7,3.4,3.7,6.5,6.3,9.4c1.7,2,3.9,3.5,5.8,5.2C41.9,434.5,40.9,433.9,39.8,433.6z
		"/>
	<path class="st1" d="M99.6,497.7c-5.1-0.3-9.9-0.7-14.8-2.2c-2.6-0.9-4.9-2.2-6.2-4.8c-0.9-1.7-1.4-3.6-0.5-5.4c1-2,4.4-2,6.4-0.1
		c1.9,1.8,3.2,4,5.1,5.8c3,2.8,6.5,5.1,10.9,6.5C100,497.7,99.8,497.8,99.6,497.7z"/>
	<path class="st1" d="M102.3,495.4c-4-2.3-8-4.8-10.9-8.3c-2.2-2.7-3.6-5.8-3.3-9.4c0.2-1.8,1.3-3.7,2.4-3.8
		c1.7-0.3,2.7,0.9,3.6,2.2c0.7,1.2,0.9,2.7,1.3,4.1c1,5,2.6,9.7,6.2,13.7c0.6,0.7,0.9,1.1,1.6,2
		C102.5,495.5,102.3,495.5,102.3,495.4z"/>
	<path class="st1" d="M96.3,452.8c-1.3-3.6-0.1-7.6,2.8-9.4c2.7-1.7,5.8-0.3,6.5,2.7c0.5,2.1-0.7,3.5-1.6,5.1
		c-1.9,3-3.5,5.9-1.2,9.4C99.9,458.6,97.4,456.2,96.3,452.8z"/>
	<path class="st1" d="M72,459.9c-0.5,0.7-1,1.4-1.5,2c-1.2,1.6-3,2-4.9,1.7c-1.8-0.4-2.9-1.7-3.2-3.7c-0.4-3.4,2-5.8,5.5-6.8
		c4.6-1.3,8.5,0.7,12.4,2.8C76.4,454.9,74.2,457.1,72,459.9z"/>
	<path class="st1" d="M9.6,333.6c-2.4,1.7-5.1,2-7.9,1.4c-1.7-0.4-2.7-1.7-3.2-3.2c-0.6-1.6,0-3.1,1.3-4c1.8-1.3,3.6-1.5,5.1-0.6
		c1,0.7,2.1,1.2,3.2,1.7c2,0.9,4,1.2,6-0.1c0.3-0.1,0.6-0.1,1.1-0.4C13.6,330.7,11.7,332.3,9.6,333.6z"/>
	<path class="st1" d="M61,399.9c2.4-3.7,3.4-7.9,3.6-12.3c0-1.1,0.1-2.2,0.6-3.1c0.7-1.1,1.4-2.1,2.9-2.1s2.4,0.9,3,2.2
		c0.7,1.7,0.7,3.4-0.1,5.1c-1.1,2.9-3.3,5.1-5.5,7.1c-1.4,1.3-2.8,2.7-4.8,3.6C60.7,400.3,60.8,400,61,399.9z"/>
	<path class="st1" d="M57.5,400.4c0.8-4.6-0.4-8.9-2.2-13.2c-0.7-1.6-1.4-3-0.9-4.8c0.4-1.4,1.6-2.1,2.9-1.4
		c1.5,0.7,2.5,1.9,3.2,3.4c1.7,3.7,0.8,7.6-0.4,11.2c-0.6,1.8-1.1,3.5-2.2,5.1C57.3,400.5,57.3,400.3,57.5,400.4z"/>
	<path class="st1" d="M-20.6,346.9c-1.8-3.2-3.4-6.5-3.3-10.4c0.1-2.4,1-4.5,3.1-6.1c1.8-1.3,3.5-0.4,3.7,1.7
		c0.2,1.4-0.2,2.5-0.7,3.6c-1.7,3.4-2.3,6.8-1.7,10.4c0.2,1.4,0.7,2.7,1.1,4.3C-19.5,349.4-19.9,348-20.6,346.9z"/>
	<path class="st1" d="M88.4,511.8c-0.7,0.8-1.7,1.4-2.7,1.7c-1.7,0.4-2.8-0.7-2.6-2.2c0.2-2.7,1.8-4.4,4-5.5c3.7-2,7.9-2.2,11.9-2.7
		c0.4,0,0.7,0.1,1.1,0.1C95.2,504.9,91.6,507.8,88.4,511.8z"/>
	<path class="st1" d="M-28.5,329.5c0.8,0.1,1.4-0.1,2-0.8s0.4-1.6-0.1-2.2c-1.4-2.2-4.5-2.8-6.5-1.5c-2.2,1.7-2.9,5.2-1.1,7.3
		c1.1,1.5,2.6,2.5,3.9,3.8c2.2,2.2,4.9,4,6.5,6.8c0.3,0.4,0.7,0.8,0.2,1.7c-1.1-1.9-2.4-3.5-4-4.7c-2.4-2.1-5.1-4.2-7.5-6.4
		c-2.2-1.9-2.4-4.3-1.6-6.8c0.9-2.4,2.8-4,5.5-4.2c2.6,0,4.6,1.3,5.9,3.5c0.7,1.2,0.4,2.8-0.6,3.7c-0.9,0.7-2.4,0.9-3.7,0.2
		c-0.9-0.7-1.1-1.3-0.4-2.3C-30,328.6-29.6,329.2-28.5,329.5z"/>
	<path class="st1" d="M87.9,443.9c-0.8-3.6,1-6.3,4-6.4c2.2-0.1,3.5,1.4,3.2,3.6c-0.2,1.2-0.9,2.2-1.4,3.2c-1,1.7-2.2,3.5-2,5.7
		C90.4,448.1,88.5,446.3,87.9,443.9z"/>
	<path class="st1" d="M62.5,452.6c-0.7,1-1.5,2-2.4,2.8c-1.5,1.4-3.4,1.8-4.7,0.5c-1.6-1.6-1.5-4.7,0.2-6c2.5-2.1,7.3-2.1,10.8,0.1
		C64.4,450.1,63.3,451.2,62.5,452.6z"/>
	<path class="st1" d="M43,430.1c-1.4-1.7-2.2-3.7-1.4-6.1c0.4-1.5,1.6-2,2.9-1.4c1.8,0.8,2.2,2.4,2.5,4c0.7,2.4,1.7,4.8,3.2,6.9
		c0.7,1.1,1.7,2.2,2.4,3.2C49,435,45.6,433.1,43,430.1z"/>
	<path class="st1" d="M14,340.3c-0.7,2.3-2,4.4-4,5.8c-1.7,1.1-3.7,1-4.8-0.2s-0.7-3.3,0.7-4.8c0.5-0.6,1.2-0.7,1.9-0.9
		c2.7-0.7,5.2-1.3,6.7-4.2C14.7,337.4,14.4,338.8,14,340.3z"/>
	<path class="st1" d="M13.7,323.7c-2.2,0.7-4.4,0.3-6.3-0.9c-1.9-1.1-2.2-4.1-0.7-5.5c1.4-1.3,3.7-0.9,5.2,1c1.6,2,3.5,3.5,6.3,3
		C16.8,322.3,15.2,323,13.7,323.7z"/>
	<path class="st1" d="M0.2,465.1c-2.2,2.3-4.5,4.7-7.5,6.3c-1.7,0.9-3.6,1.2-5.5,0.6c-0.8-0.3-1.5-0.9-1.7-1.8
		c-0.1-0.9,0.5-1.6,1.1-2.1c0.7-0.5,1.7-0.7,2.6-0.7c1.9-0.1,3.7-0.5,5.7-0.9s3.7-1.3,5.3-2.3C0.7,464.5,0.5,464.8,0.2,465.1z"/>
	<path class="st1" d="M-33.7,343.1c-0.9-0.4-2-0.7-2.8-1.4c-1.4-0.9-2.2-2.9-1.7-3.8c0.6-0.7,2.7-0.9,4-0.1c4,2.4,6.5,6.3,8.6,10.2
		C-27.8,345.6-30.7,344.4-33.7,343.1z"/>
	<path class="st1" d="M-2.3,357.7c2.2-2.4,3.9-5.2,6.8-6.8c1.7-1,3.5-1.2,5.2-0.1c1.4,0.9,1.3,2.7-0.1,3.6c-0.4,0.3-0.9,0.4-1.4,0.5
		c-3.6,0.4-7.1,0.9-10.3,3.5C-2.2,357.8-2.3,357.7-2.3,357.7z"/>
	<path class="st1" d="M63.9,440.1c-2.3-1.5-4.8-3-6.7-5c-1.4-1.4-2.4-3.3-2-5.5c0.4-1.7,1.7-2.2,3.1-1c0.7,0.7,1.2,1.5,1.4,2.3
		c0.7,3.5,2.5,6.5,5.2,9.3C64.5,440.1,64.1,440.1,63.9,440.1z"/>
	<path class="st1" d="M16.8,356.2c1.7,0.5,2.7,1.4,3.5,2.9c0.7,1.4,0.1,2.5-1.5,2.4c-0.6,0-1.1-0.1-1.7-0.4
		c-3.2-2.1-6.5-3.6-10.5-3.8C10,356.2,13.4,355.2,16.8,356.2z"/>
	<path class="st1" d="M42.8,307.2c1.4-0.5,2.7-0.3,4.1,0.6c0.9,0.7,1,1.2,0.9,2.2s-0.8,1.4-1.7,1.4c-0.8,0.1-1.6,0-2.4-0.2
		c-1.8-0.4-3.6-0.6-5.4-0.3c-0.8,0.1-1.6,0.7-2.8,0.4C37.8,309.4,40.1,308.1,42.8,307.2z"/>
	<path class="st1" d="M106.7,432.9c1.4-0.2,2.4,0.3,3.2,1.4c0.5,0.8,0.6,1.7,0.1,2.5c-0.7,1.1-1.7,1.3-3,1.1c-2-0.3-3.9-0.5-5.7,1.5
		C101.8,435.8,103.9,433.4,106.7,432.9z"/>
	<path class="st1" d="M-12,480.1c-1.2,1.2-2.6,1.8-4.2,1.8c-1,0.1-2.2-0.2-2.2-1.4c-0.1-1.2,0.7-2,1.9-2.2c3.2-0.7,6.4-1.3,9.2-3.5
		C-8.5,476.9-10.1,478.6-12,480.1z"/>
	<path class="st1" d="M50.7,314c1,0.4,1.9,1,2.7,1.7c1,0.9,1.2,3,0.6,3.6c-0.7,0.7-2,0.3-3.1-0.9c-0.1-0.1-0.2-0.3-0.4-0.5
		c-1.4-1.4-2.7-2.7-4.4-3.7c-0.8-0.6-1.9-0.7-2.9-1.6C46,313,48.4,313.2,50.7,314z"/>
	<path class="st1" d="M25.5,397.5c-0.8,0.4-2,0.4-2.6-0.6c-0.6-0.7-0.3-1.7,0.3-2.4c0.7-0.9,1.7-1.2,2.6-1.3c3-0.4,5.5,0.7,8.3,2
		C31,395.1,28.2,396.2,25.5,397.5z"/>
	<path class="st1" d="M98,511c-0.4,0.5-0.7,1-1.1,1.5c-0.6,0.7-1.3,0.9-2.2,0.5c-0.9-0.4-0.8-1-0.8-1.9c0-1.1,0.7-2.1,1.4-2.8
		c2.3-2,5.2-2.8,8.2-3.5C101.3,506.5,99.5,508.8,98,511z"/>
	<path class="st1" d="M-1,462.5c-0.7,0.4-1.4,0.3-2.1,0.1c-0.9-0.3-1.2-0.9-0.8-1.9c0.6-1,1.5-1.8,2.4-2.2c2.7-1.1,5.4-2.1,7.8-3.8
		C4.6,458.2,2.3,460.7-1,462.5z"/>
	<path class="st1" d="M22.1,405.6c-0.2,0.6-0.7,0.8-1.1,1.1c-0.6,0.4-1,0.5-1.6,0.3c-0.6-0.3-0.7-0.9-0.7-1.5
		c0.1-1.2,0.5-2.2,1.3-3.2c2-2.3,4.8-2.9,7.6-3.7C25.2,400.5,23.4,402.9,22.1,405.6z"/>
	<path class="st1" d="M7,391.8c0.7,0.7,0.4,2.3-0.7,3.3c-0.8,0.7-1.6,1.4-2.4,2.2c-0.5,0.4-0.6,1.5-1.1,1.3
		c-0.8-0.2-0.5-1.4-0.8-2.1c-0.1-0.4-0.2-0.7-0.1-1.1c0-1.6,0.3-2.9,1.3-3.7C4.3,390.6,6.2,390.7,7,391.8z"/>
	<path class="st1" d="M-8.7,359.3c0.1-1.8,0.5-3.4,1.5-4.8c0.7-0.9,1.7-1.5,2.7-0.9c1.1,0.6,0.7,1.7,0.1,2.6c-1.7,2.3-3.4,4.7-4,7.6
		C-8.8,362.3-8.7,360.8-8.7,359.3z"/>
	<path class="st1" d="M-48.2,352.9c-1,1.4-2.2,1.7-3,0.8c-0.9-0.8-0.6-2.4,0.7-3.4c0.3-0.2,0.6-0.4,0.9-0.6c2.1-0.8,4.2-1.1,6.5-0.9
		C-45.1,350.1-46.9,351.3-48.2,352.9z"/>
	<path class="st1" d="M16.9,348.7c-0.7,0.9-1.5,1.4-2.6,0.9c-1-0.6-1.1-1.4-0.7-2.4c0.1-0.4,0.2-0.9,0.5-1.1
		c1.1-1.1,2.1-2.4,2.4-4.2C18.1,344,18.2,346.9,16.9,348.7z"/>
	<path class="st1" d="M-48.8,361.1c0,0.8-0.4,1.8-1.5,1.7c-1.1-0.1-1.2-1-1.3-2c-0.1-2.6,2-5.7,4.7-6.6
		C-48.4,356.3-48.6,358.7-48.8,361.1z"/>
	<path class="st1" d="M30,310.4c0.6-1.4,1.2-2.8,2.7-3.5c0.7-0.3,1.4-0.5,2,0.3c0.7,0.7,0.2,1.7-0.4,2.1c-2,1.4-3.7,3-5.2,5.1
		C29.1,313,29.6,311.6,30,310.4z"/>
	<path class="st1" d="M41,396.3c-1.7-1.6-3.6-2.7-5.8-3.4c-0.8-0.2-1.4-0.7-1.1-1.6c0.2-0.9,1-0.9,2-0.8c0.8,0.1,1.7,0.4,2.1,0.9
		c1.1,1.4,2.2,3,3.2,4.4C41.2,396.1,41.1,396.1,41,396.3z"/>
	<path class="st1" d="M18.6,314.6c0.9,0.8,1.7,1.8,2.6,2.7c0.4,0.4,0.2,0.7-0.2,0.7c-1.5,0.4-3,0.7-4.2-0.4c-0.9-0.7-1.1-2.7,0-3.3
		C17.3,313.9,18,314,18.6,314.6z"/>
	<path class="st1" d="M-43.1,347.1c-0.6,0-1.4-0.1-1.4-0.9c0-0.7,0.6-1.1,1.2-1.2c0.5-0.1,0.9,0,1.4,0.1c1.6,0.5,2.9,1.4,4,2.6
		C-39.7,346.9-41.3,346.9-43.1,347.1z"/>
	<path class="st1" d="M24.4,314.3c0.2-0.7,0.6-1.2,1.4-0.9c0.7,0.4,0.7,1,0.4,1.6c-0.6,1.3-0.9,2.5-1.2,4
		C24.3,317.4,23.8,316,24.4,314.3z"/>
	<path class="st1" d="M44,396.1c-0.4-0.5-0.7-1-0.1-1.5c0.7-0.4,1.1,0.1,1.6,0.6c1.1,1.4,0.7,3,0.6,4.6
		C45.4,398.4,44.8,397.2,44,396.1z"/>
	<path class="st1" d="M6.2,372.5c0.7-0.7,2.4-0.4,3.1,0.6C9,373.2,8.6,373,8.4,373c-1.5-0.4-2.2,0.3-2.1,1.8
		c0.1,0.7,0.3,1.1,0.7,1.5c-0.1,0-0.4,0-0.7,0.1C5.4,375.3,5.4,373.3,6.2,372.5z"/>
	<path class="st1" d="M-35.3,346.9c-0.5-0.4-1.1-0.6-0.7-1.2c0.4-0.6,1-0.4,1.5-0.1c1.1,0.6,1.1,1.7,1.5,2.9
		C-33.8,347.7-34.5,347.2-35.3,346.9z"/>
	<path class="st1" d="M9.9,388.3c1.7-0.1,3.5,0.8,3.7,2.3c-1.1-1.1-2.6-1.4-3.7-2.1C9.7,388.4,9.7,388.4,9.9,388.3z"/>
	<path class="st1" d="M30.2,467.9c-1.7-1.7-1.4-2.7,0.5-3.3C29.8,465.5,29.8,466.6,30.2,467.9z"/>
	<path class="st1" d="M103.6,428.5c-1.1,0.4-2.1-0.4-2.9-0.5c0-0.1,0.1-0.4,0.1-0.5C101.9,427.5,102.6,428,103.6,428.5z"/>
	<path class="st1" d="M103.4,432.4c-0.1,0.1-0.1,0.1-0.2,0.2c0.1-0.1,0-0.1,0-0.1C103.3,432.4,103.3,432.4,103.4,432.4
		C103.4,432.3,103.5,432.3,103.4,432.4z"/>
	<path class="st1" d="M9.3,374.3c0.1,0-0.1,0.1-0.1,0.2c-0.1,0-0.2-0.1-0.2-0.1c-0.1,0,0.1-0.1,0.1-0.2C9,374.1,9.2,374.1,9.3,374.3
		z"/>
	<path class="st1" d="M31.7,464.2c-0.1,0-0.2,0.1-0.4,0.2c0-0.1,0-0.1,0-0.2C31.6,464.2,31.6,464.2,31.7,464.2L31.7,464.2z"/>
	<path class="st1" d="M30.9,467.8L30.9,467.8L30.9,467.8L30.9,467.8C30.9,467.9,30.9,467.8,30.9,467.8z"/>
	<path class="st1" d="M6.8,488.3c0.8,0.3,1.4,0.7,2.3,0.9c1.4,0.4,2.2,1.2,3,2.3c1.7,2.5,0.4,6.5-2.7,7.3c-2.4,0.6-4.9-0.3-6.7-2.4
		c-2.5-3-3-6.5-2.7-10.1c0.1-1.5,0-3.1,0.8-4.5C1.3,485.6,3.8,487.2,6.8,488.3z"/>
	<path class="st1" d="M3.6,500.6c1.2,0.5,2.6,0.6,3.9,0.8c3,0.6,4,3.5,2,5.8c-1.4,1.6-4,1.7-6.2,0.2c-3.7-2.5-3.7-6.5-3.7-10.4
		C0.5,499.1,1.1,499.8,3.6,500.6z"/>
	<path class="st1" d="M30.1,519.6c3.7,2.3,7.6,3.3,12,3.1c0.9-0.1,1.7,0.4,2.4,0.7c1.9,1.1,1.6,3.5-0.4,4.5
		c-2.3,1.2-4.5,0.8-6.5-0.5c-2.1-1.2-3.8-2.9-5.4-4.7c-0.9-1-2.2-1.8-2.7-3.2C29.8,519.5,30,519.6,30.1,519.6z"/>
	<path class="st1" d="M52.6,515c0.7-0.5,1.4-0.7,2.2-0.9c0.9-0.2,1.9-0.1,2.4,0.7c0.5,0.7,0.4,1.7-0.2,2.5c-0.9,1.7-2.3,2.6-4,3.2
		c-4.2,1.6-8.3,0.4-12.4-0.7C45.2,519.6,49,517.7,52.6,515z"/>
	<path class="st1" d="M0.9,509.8c1.1,0.9,2.5,1,3.9,1.3c0.9,0.1,1.7,0.5,2.4,0.9c1.4,0.8,1.7,2.6,0.4,3.7c-2,1.8-4,1.4-5.8-1.1
		c-0.8-1.2-1.5-3.2-1.6-4.5C0.2,509.3,0.5,509.2,0.9,509.8z"/>
	<path class="st1" d="M23.2,516.3c0.9,2.2,2.4,3.7,3.8,5.6c0.8,1,1,2.2,0.1,3.2c-0.6,0.7-2.3,0.2-3.2-0.7c-0.1,0-0.1-0.1-0.2-0.2
		c-2.6-3.3-2-7.2-1.8-10.9C22.5,514.3,22.8,515.4,23.2,516.3z"/>
	<path class="st1" d="M12.5,473.3c0.5,2.2,1.3,4.1,3,5.5c0.4,0.3,0.6,0.7,0.7,1.3c0.4,1.3-0.5,2.2-1.9,2c-0.7-0.1-1.3-0.6-1.7-1.1
		c-1.7-2.7-0.9-5.5-0.7-8.3C12.4,472.7,12.5,472.9,12.5,473.3z"/>
	<path class="st1" d="M23.7,480.6c0.5,0.1,0.8,0.4,1.1,0.7c0.7,0.7,0.7,1.7-0.3,2.1c-0.6,0.3-1.2,0.3-2,0.2c-2.3-0.5-5.4-3.5-6-6.3
		C18.7,479.1,21.1,480.2,23.7,480.6z"/>
	<path class="st1" d="M18.2,512.7c0,0.1-0.1,0.4-0.1,0.6c-0.2,0.9-0.7,1-1.5,0.7c-0.7-0.4-0.9-1-0.9-1.7c-0.4-2.4,1.4-4.1,2.4-6.1
		C17.6,508.3,18.2,510.5,18.2,512.7z"/>
	<path class="st1" d="M11.6,466.9c-0.8,1.6-0.9,3.2-1.3,4.8c-0.1,0.8-0.4,1.9-1.5,1.6s-1.1-1.4-0.8-2.2
		C8.5,469.2,9.7,467.8,11.6,466.9z"/>
	<path class="st1" d="M13.6,461.7c-0.9,0.8-1.8,1.4-2.4,2.4c-0.3,0.6-0.8,0.6-1.2,0.3c-0.7-0.4-0.4-0.9-0.1-1.3
		C10.8,461.7,12.1,461.7,13.6,461.7z"/>
	<path class="st1" d="M0.8,481L0.8,481L0.8,481C0.9,481,0.8,481,0.8,481z"/>
	<path class="st1" d="M0.9,481.3C0.9,481.2,0.9,481.2,0.9,481.3C0.9,481.1,0.9,481.1,0.9,481.3C0.8,481.3,0.8,481.3,0.9,481.3z"/>
	<path class="st1" d="M0.8,481L0.8,481C0.8,481.1,0.8,481,0.8,481L0.8,481z"/>
</g>
<g class="st0">
	<path class="st1" d="M484.4,468.5C484.5,468.5,484.4,468.5,484.4,468.5L484.4,468.5C484.4,468.5,484.5,468.5,484.4,468.5
		C484.4,468.4,484.4,468.5,484.4,468.5z M506.2,374.7c0,0.1,0.1,0.1,0.1,0.2c0.1,0,0.2-0.1,0.2-0.1c0-0.1-0.1-0.1-0.1-0.2
		C506.4,374.7,506.3,374.7,506.2,374.7z M412,433C412,433.1,411.9,433.1,412,433c0,0.2,0.1,0.2,0.2,0.3c0-0.1,0.1-0.1,0.1-0.1
		C412.2,433.1,412,433,412,433z M484.8,465.2c0.9,0.9,0.9,2,0.5,3.3C486.8,467,486.6,465.7,484.8,465.2z M550,346
		c-1.1,0.5-1.1,1.7-1.5,2.9c0.7-0.5,1.5-0.9,2.3-1.6c0.4-0.3,1.1-0.5,0.7-1.2C551.1,345.5,550.4,345.8,550,346z M470,395.7
		c-1,1.4-0.7,3-0.6,4.6c0.6-1.3,1.1-2.5,2-3.6c0.4-0.5,0.9-1.1,0.1-1.5C470.9,394.8,470.4,395.2,470,395.7z M489.6,314.1
		c-0.7,0.3-0.7,1-0.4,1.6c0.6,1.3,0.9,2.6,1.2,4c0.7-1.5,1.1-3,0.7-4.7C490.9,314.4,490.5,313.6,489.6,314.1z M558.7,345.5
		c-0.6-0.1-1-0.1-1.4,0.1c-1.7,0.4-3,1.4-4,2.6c1.8-0.6,3.5-0.7,5.3-0.4c0.7,0.1,1.4-0.1,1.4-0.9C560,346,559.4,345.7,558.7,345.5z
		 M496.9,315.1c-0.9,0.8-1.8,1.7-2.6,2.7c-0.4,0.4-0.1,0.7,0.2,0.7c1.5,0.4,2.9,0.7,4.2-0.4c1-0.7,1-2.6,0-3.3
		C498.2,314.5,497.4,314.6,496.9,315.1z M479.5,391.1c-0.8,0.1-1.7,0.4-2.1,0.9c-1.1,1.4-2.2,3-3.2,4.4c0,0.1,0.3,0.2,0.4,0.4
		c1.8-1.4,3.6-2.6,5.8-3.4c0.7-0.2,1.4-0.7,1.1-1.6C481,391.1,480.3,391,479.5,391.1z M482.7,307.7c-0.7-0.3-1.5-0.5-2,0.3
		c-0.6,0.7-0.1,1.6,0.4,2.1c2,1.5,3.9,3.1,5.2,5.1c0-1.5-0.4-2.7-0.9-4C484.9,309.6,484.1,308.3,482.7,307.7z M562.3,354.8
		c1.4,2.2,1.7,4.5,2,6.9c0.1,0.8,0.4,1.8,1.6,1.7c1-0.1,1.2-1,1.3-2C567.1,358.8,565,355.8,562.3,354.8z M498.6,349.3
		c0.7,0.9,1.5,1.4,2.6,0.9c1-0.5,1-1.4,0.7-2.4c-0.1-0.4-0.3-0.8-0.5-1.1c-1.1-1.1-2.1-2.3-2.4-4.2
		C497.4,344.6,497.3,347.5,498.6,349.3z M565,350.6c-2.1-0.8-4.2-0.9-6.5-0.9c2,1.1,3.6,2.2,5.1,3.9c1.1,1.4,2.2,1.7,3,0.8
		c0.8-0.9,0.6-2.4-0.7-3.4C565.6,350.9,565.3,350.7,565,350.6z M520,354.2c-1.1,0.7-0.7,1.7-0.1,2.6c1.7,2.3,3.4,4.7,4,7.6
		c0.4-1.6,0.3-3,0.3-4.5c0-1.7-0.5-3.3-1.5-4.7C521.9,354.2,521,353.7,520,354.2z M508.4,392.4c-0.7,0.7-0.3,2.3,0.7,3.3
		c0.8,0.7,1.7,1.4,2.4,2.2c0.5,0.4,0.6,1.6,1.1,1.3c0.8-0.3,0.5-1.4,0.8-2.1c0.2-0.4,0.2-0.7,0.1-1.1c0-1.5-0.3-2.9-1.3-3.7
		C511.1,391.2,509.3,391.4,508.4,392.4z M487.9,399.2c2.4,2,4.2,4.3,5.5,7c0.2,0.6,0.7,0.9,1.1,1.1c0.5,0.4,0.9,0.5,1.6,0.3
		c0.7-0.3,0.7-0.9,0.7-1.5c0.1-1.1-0.5-2.2-1.3-3.2C493.6,400.6,490.7,400.1,487.9,399.2z M517,459.3c-2.7-1-5.2-2.2-7.8-3.8
		c1.7,3.4,4,5.9,7.3,7.8c0.7,0.4,1.4,0.2,2.1,0.1c0.9-0.3,1.2-0.8,0.8-1.9C518.8,460.3,517.9,459.7,517,459.3z M411.8,505.6
		c2.4,1.6,4.1,3.7,5.5,6.2c0.4,0.6,0.7,1.1,1.1,1.5c0.7,0.7,1.4,0.8,2.2,0.5c0.8-0.4,0.8-1.1,0.8-1.9c-0.1-1.1-0.7-2.1-1.4-2.8
		C417.6,506.9,414.7,506.3,411.8,505.6z M489.6,393.8c-3-0.4-5.7,0.7-8.3,2c3.1,0.1,6,1,8.6,2.5c0.8,0.4,2,0.3,2.6-0.6
		c0.6-0.8,0.2-1.6-0.3-2.4C491.7,394.2,490.6,393.9,489.6,393.8z M464.8,314.7c-1,0.4-1.9,1-2.7,1.7c-1,0.9-1.2,3-0.6,3.6
		c0.7,0.7,2,0.3,3.1-0.9c0.2-0.2,0.3-0.4,0.4-0.5c1.3-1.4,2.7-2.7,4.4-3.7c0.8-0.5,1.9-0.6,2.9-1.6
		C469.4,313.6,467.1,313.7,464.8,314.7z M532.1,478.8c-3.2-0.7-6.5-1.4-9.2-3.5c1,2.2,2.6,3.8,4.3,5.4c1.2,1.1,2.6,1.7,4.2,1.8
		c1.1,0,2.2-0.3,2.2-1.4C534,479.9,533.1,479,532.1,478.8z M408.7,433.6c-1.3-0.2-2.3,0.4-3.1,1.4c-0.6,0.7-0.6,1.7-0.1,2.5
		c0.7,1.1,1.7,1.4,3,1.1c2-0.4,3.8-0.6,5.7,1.5C413.7,436.5,411.5,434,408.7,433.6z M472.6,307.8c-1.4-0.5-2.8-0.2-4.1,0.6
		c-0.9,0.7-1.1,1.2-0.9,2.2c0.2,0.9,0.8,1.4,1.7,1.4c0.8,0.1,1.6,0,2.4-0.2c1.9-0.4,3.6-0.5,5.4-0.3c0.9,0.1,1.7,0.7,2.8,0.4
		C477.6,310.1,475.2,308.7,472.6,307.8z M498.5,356.9c-1.7,0.5-2.7,1.4-3.5,2.9c-0.7,1.4-0.1,2.5,1.5,2.5c0.6,0,1.1-0.1,1.7-0.4
		c3.1-2,6.5-3.7,10.5-3.8C505.5,356.9,502.1,355.8,498.5,356.9z M457.1,429.2c-0.8,0.6-1.2,1.5-1.4,2.3c-0.8,3.6-2.5,6.5-5.2,9.3
		c0.5-0.1,0.8-0.1,1-0.2c2.4-1.4,4.8-3,6.7-5c1.4-1.4,2.4-3.3,2-5.5C459.8,428.6,458.4,428.1,457.1,429.2z M511,351.4
		c-1.7-0.9-3.5-1.2-5.2-0.1c-1.4,0.9-1.3,2.8,0.1,3.6c0.5,0.2,0.9,0.4,1.4,0.5c3.6,0.4,7.1,0.9,10.3,3.5c0.1-0.6,0.2-0.7,0.1-0.7
		C515.7,355.8,513.9,353,511,351.4z M549.5,338.3c-4,2.4-6.5,6.2-8.6,10.2c2.4-2.2,5.2-3.6,8.2-4.9c0.9-0.4,2-0.8,2.8-1.4
		c1.5-0.9,2.2-2.8,1.7-3.8C553.1,337.8,550.9,337.6,549.5,338.3z M528.7,468.7c-0.7-0.4-1.7-0.7-2.6-0.7c-2-0.1-3.8-0.4-5.7-0.9
		c-2-0.5-3.7-1.3-5.3-2.3c-0.4,0.5-0.1,0.7,0.1,0.9c2.2,2.3,4.6,4.7,7.5,6.3c1.7,0.9,3.6,1.2,5.5,0.6c0.8-0.3,1.5-0.9,1.7-1.8
		C530.1,469.8,529.4,469.1,528.7,468.7z M503.6,318.9c-1.6,2-3.5,3.5-6.3,3c1.4,1.2,2.9,1.8,4.5,2.4c2.2,0.7,4.3,0.4,6.3-0.9
		c1.8-1.1,2.2-4.1,0.7-5.5C507.4,316.6,505.1,317,503.6,318.9z M507.7,340.8c-2.6-0.7-5.2-1.3-6.7-4.2c-0.2,1.5,0.1,3,0.5,4.4
		c0.7,2.3,2,4.4,4,5.8c1.7,1.1,3.7,1,4.8-0.2c1-1.3,0.7-3.4-0.7-4.8C509,341.1,508.4,341,507.7,340.8z M471,423.4
		c-1.8,0.8-2.2,2.4-2.5,4c-0.7,2.5-1.8,4.9-3.2,6.9c-0.7,1.1-1.6,2.2-2.4,3.2c3.6-2,7-3.8,9.6-6.8c1.4-1.7,2-3.7,1.4-6.1
		C473.5,423.2,472.3,422.7,471,423.4z M449.1,450.7c2,0.2,3,1.3,4,2.5c0.7,0.9,1.6,2,2.4,2.8c1.5,1.4,3.3,1.7,4.7,0.5
		c1.6-1.5,1.4-4.6-0.2-6C457.3,448.4,452.6,448.3,449.1,450.7z M423.4,438.1c-2.2-0.1-3.6,1.4-3.2,3.6c0.1,1.2,0.8,2.2,1.4,3.2
		c0.9,1.8,2.1,3.5,2,5.8c1.6-2.1,3.4-3.7,4-6.3C428.3,441,426.6,438.2,423.4,438.1z M546.8,323.1c-2.6-0.1-4.5,1.3-5.8,3.5
		c-0.7,1.2-0.5,2.7,0.6,3.7c0.9,0.8,2.4,0.9,3.7,0.2c0.9-0.6,1.1-1.3,0.4-2.3c-0.1,1.1-0.5,1.7-1.4,1.8c-0.8,0.1-1.4-0.1-2-0.8
		c-0.6-0.7-0.4-1.6,0.1-2.2c1.5-2.2,4.6-2.8,6.5-1.5c2.2,1.7,2.8,5.1,1.1,7.3c-1.1,1.4-2.7,2.6-3.9,3.8c-2.2,2.2-4.9,4-6.5,6.8
		c-0.3,0.5-0.8,0.9-0.2,1.7c1.1-1.9,2.5-3.4,4.1-4.6c2.5-2,5.1-4.2,7.5-6.4c2.2-2,2.4-4.3,1.6-6.8
		C551.5,324.8,549.5,323.1,546.8,323.1z M428.3,506.2c-3.7-1.9-7.9-2.1-11.9-2.7c-0.3-0.1-0.6,0.1-1.1,0.1c4.8,2,8.6,4.9,11.7,8.6
		c0.7,0.7,1.7,1.4,2.7,1.7c1.6,0.4,2.7-0.7,2.6-2.2C432.1,509.1,430.6,507.4,428.3,506.2z M532.5,332.8c-0.2,1.3,0.2,2.4,0.7,3.6
		c1.7,3.4,2.2,6.7,1.7,10.4c-0.2,1.4-0.7,2.7-1.1,4.3c1.3-1.1,1.7-2.4,2.2-3.6c1.8-3.2,3.4-6.5,3.3-10.4c-0.1-2.4-0.9-4.6-3.1-6.1
		C534.5,329.8,532.9,330.8,532.5,332.8z M458.3,381.6c-1.5,0.7-2.5,1.9-3.2,3.5c-1.6,3.9-0.8,7.6,0.4,11.2c0.7,1.7,1.2,3.6,2.2,5.1
		c0.4-0.2,0.5-0.4,0.4-0.7c-0.8-4.6,0.4-8.9,2.2-13.2c0.7-1.5,1.3-3,0.9-4.8C460.7,381.6,459.5,381,458.3,381.6z M447.5,383.1
		c-1.5,0-2.3,0.9-3,2.2c-0.7,1.7-0.7,3.5,0.1,5.1c1.1,2.9,3.3,5.1,5.5,7.1c1.4,1.3,2.8,2.7,4.8,3.6c-0.1-0.2-0.2-0.5-0.3-0.7
		c-2.4-3.7-3.5-8-3.6-12.3c-0.1-1-0.1-2.2-0.6-3.1C449.7,383.9,448.9,383.1,447.5,383.1z M510.3,327.7c-0.9,0.7-2.1,1.2-3.2,1.7
		c-2.1,0.9-4,1.2-6-0.1c-0.2-0.2-0.6-0.1-1.1-0.4c1.9,2.2,3.7,3.8,5.8,5.2c2.4,1.7,5.1,2,7.9,1.4c1.7-0.4,2.7-1.7,3.2-3.2
		c0.6-1.6-0.1-3.1-1.4-4.1C513.7,326.9,511.8,326.7,510.3,327.7z M447.5,453.7c-4.6-1.2-8.5,0.7-12.4,2.8c4-1.1,6.3,1.1,8.3,4
		c0.6,0.7,0.9,1.4,1.5,2c1.2,1.6,3,2.1,4.8,1.7s2.9-1.7,3.2-3.7C453.4,457.1,451,454.7,447.5,453.7z M416.5,444.1
		c-2.7-1.7-5.8-0.3-6.5,2.7c-0.6,2.1,0.7,3.5,1.6,5.1c1.9,2.9,3.5,6,1.2,9.4c2.7-2.2,5.2-4.5,6.5-8S419.4,445.8,416.5,444.1z
		 M425,474.4c-1.8-0.3-2.7,0.8-3.6,2.2c-0.7,1.2-0.9,2.7-1.3,4.1c-1.1,5.1-2.7,9.7-6.2,13.7c-0.4,0.6-0.9,1.1-1.6,2
		c0.6-0.1,0.7-0.1,0.9-0.2c4-2.2,8-4.8,10.9-8.3c2.2-2.7,3.6-5.8,3.3-9.4C427.4,476.6,426.1,474.6,425,474.4z M430.7,485.9
		c-1.9,1.8-3.1,4-5.1,5.8c-3,2.8-6.5,5.1-10.9,6.5c0.6,0.2,0.7,0.3,0.7,0.3c5.1-0.4,9.9-0.7,14.8-2.2c2.5-0.8,4.9-2.2,6.2-4.8
		c0.9-1.7,1.4-3.6,0.5-5.4C436,484,432.7,484,430.7,485.9z M491,416.1c-1.4-0.7-2.7-0.3-3.9,0.7c-1.2,1-2,2.2-2.8,3.7
		c-1.7,3.3-3.7,6.5-6.3,9.4c-1.8,2-3.7,3.6-5.8,5.4c1.3,0,2.2-0.6,3.4-0.9c4.4-1.8,8.9-3.6,12.6-6.6c2.5-2.2,4.3-4.8,4.2-8.3
		C492.5,417.9,492.3,416.7,491,416.1z M432,459.9c-5.6,0.7-9.9,3.9-14.2,7.3c0.5-0.2,1-0.4,1.4-0.6c2.1-0.9,4.1-1,6.3-0.2
		c2.7,1.1,4.8,3,6.8,5.1c2.4,2.5,7.1,2.4,9.4,0.1c3-3.2,1.7-7.6-0.8-9.5C438.4,460.1,435.2,459.5,432,459.9z M405.8,450
		c-2.7-1.2-5.2-0.7-7.3,1.4c-1.8,2-2.2,4.3-1.2,7c0.6,1.1,1,2.4,1.4,3.7c0.9,3.4,1.7,6.7-1.1,9.8c-0.5,0.6-1.1,0.8-1.5,1.9
		c2.9-1.6,5.4-3.1,7.5-5.2c3.6-3.4,6.5-7.3,5.9-12.7C409.5,453,408.3,451.2,405.8,450z M499.7,295.8c-8.6-4.2-17.7-5.5-27-4
		c-6.3,1-12,3.5-17.3,6.8c-5.6,3.7-10.2,8.3-13.3,14.3c-5.3,10.1-6,20.6-1.2,31.1c3.2,7.1,8.2,12.4,15.6,15.5
		c8.2,3.5,16.6,2.8,24.6-1c4.4-2.1,8-5.1,10.8-9c4.3-6.3,5.4-13.4,2.8-20.7c-2.1-5.7-5.5-10.1-11.4-12.3c-7.9-3-17.8,0.6-22.3,7.6
		c-3.5,5.5-2.2,13.8,3.1,17.8c3.8,2.8,8.5,2.7,13-0.4c4.6-3.2,4.2-7.9,1.7-11.3c-1.4-1.8-3.5-2.4-5.1-1.8c-1,0.5-2,0.9-2.8,1.6
		c-1.2,0.8-1.3,2.1-0.7,3.3c0.4,1,0.9,1.9,2.4,1.7c-2.2-1.6-3-3.8,0.4-5.2c2.4-1,3.9-0.7,5.2,1.5c2.2,3.7,1.6,6.8-2.2,9.4
		c-3.6,2.4-8,2.4-10.9-0.1c-2.7-2.3-3.8-5.4-3.9-8.9c-0.1-5.3,2.8-8.8,7.3-11.3c6.3-3.5,13.6-3,18.4,1.4c7.9,7.3,8.5,20.1,0.6,28.4
		c-4.2,4.5-9.6,7.1-15.8,8c-8.1,1.1-15.3-0.9-21-6.5c-7.3-7.3-10.1-16.5-8.3-26.8c1.5-8.9,6-16.1,13.2-21.6
		c9.4-7.1,19.6-9.8,31.1-8.3c10.3,1.4,18.7,6.4,25.4,13.9c7.1,7.9,11.3,17.1,13.7,27.5c1.8,8.1,2.2,16.4,1.5,24.6
		c-0.3,3.4-0.7,6.6-1.2,9.9c-0.1,0.4,0.1,0.9-0.5,0.9c-0.4,0-0.4-0.5-0.5-0.7c-0.4-1.1-0.9-2.2-1.6-3.2c-5-8.7-16.6-10.9-24.2-4.5
		c-5.9,5.1-6.4,15.5,0.9,19.8c4.5,2.6,12,1.9,14.6-4c1.7-3.6,0.6-9.4-4.6-10.5c-3.6-0.7-7.3,0.9-7.7,4.6c-0.2,2.1,0.7,4,2.2,4.8
		c1.8,0.8,3.5,0.5,4.7-0.9c0.9-1,0.9-3,0.1-3.8c-0.7-0.7-2.4-0.4-3.1,0.6c0.3,0.3,0.6,0,0.8-0.1c1.5-0.3,2.2,0.2,2.1,1.8
		c-0.1,0.6-0.3,1.1-0.7,1.5c-1.9,1.1-3.6,0.8-4.8-0.8c-1.1-1.5-0.7-4.3,0.9-5.5c1.8-1.5,4.8-1.7,6.7-0.5c2.4,1.5,3.5,4.4,2.7,7.1
		c-0.8,3.3-3,5.1-6.1,5.8c-3.6,0.7-6.8,0-9.3-2.7c-4.2-4.7-3.2-12.5,2.1-16.6c6.6-5.1,16.6-3.5,21.2,3.7c2.4,3.6,3.7,7.6,2,12
		c-0.4,0.9-0.5,1.7-0.8,2.5c-0.1,0.4-0.1,0.7-0.4,0.8c-0.5,0.1-0.5-0.4-0.7-0.7c-0.4-0.8-1-1.4-1.8-1.9c-1.2-0.7-3.1-0.5-4,0.4
		s-1,2.7-0.4,3.9c0.5,0.8,1.3,1.1,2.1,1.7c2.7,2,2.9,2.5,1.6,5.6c0,0.1,0,0.1,0,0.1c-0.1,0.4-0.1,0.7-0.5,0.7
		c-0.5,0.1-0.5-0.4-0.7-0.7c-1.3-2.7-3.3-4.8-6.1-6c-2.2-0.9-6.1-1.6-7.9,0.2c0.1,0.2,0.4,0.1,0.7,0.1c5.3-1.4,10.9,1.4,12.7,6.5
		c0.7,1.7,0.4,2.7-1.1,3.7c-0.5-3.3-2.3-5.7-5.2-7.2c-1.8-0.9-3.6-1.4-5.6-0.7c-1.7-0.1-3.5,0.8-3.7,2.3c1.1-1.1,2.5-1.4,3.7-2.1
		c3.2,0,6.3,0.9,8.1,3.6c1.7,2.2,2.7,4.9,1.2,7.6c-2.9,5.7-6.4,11-10.4,15.9c-0.1,0.1-0.3,0.2-0.7,0.1c0.1-0.4,0.2-0.7,0.3-1.1
		c1.3-5.8,0.7-11.4-1.7-16.9c-2.2-5.2-5.8-9.4-10.9-11.8c-5.5-2.6-11.2-3-17-1.1c-7.1,2.3-12.4,6.8-14.3,14.3
		c-1.5,6.1,0,11.6,4.2,16.1c4,4.4,10.8,5.4,16.2,2.8c6-2.9,8.5-7.6,7.3-13.4c-1.2-5.3-5.4-8.1-10.4-7c-3.4,0.8-5.7,3.1-5.9,5.9
		c-0.1,2.2,0.6,4.1,2.3,5.3c1.6,1.1,3.3,0.5,5-0.4c0.7-0.5,1.3-1.1,1.1-2.1c-0.1-1-0.7-1.7-1.7-2c1.1,1.6,1.3,2.3,0.5,3.2
		c-0.9,0.9-3.6,1.4-4.5,0.9c-1.4-1.1-2.2-4.7-1.3-6.3c2-3.7,8.2-4.7,11.2-1.7c3.2,3.3,3.3,8.8,0.9,11.8c-1.5,2-3.2,3.2-5.4,4
		c-4.4,1.7-8.9,1.6-12.4-1.5c-6.5-5.5-7.3-16.1-0.4-22.8c3.7-3.7,8.3-5.5,13.5-5.8c5.5-0.3,10.7,1.2,14.6,5.3
		c6.5,6.5,8.3,14.5,6.1,23.2c-1.1,4.4-3.2,8.3-6.5,11.4c-5.7,5.2-11.9,9.4-18.6,12.1c-4,1.7-8,3.1-12.3,3.6
		c-7.6,0.7-14.9,2-22.1,4.5c-0.4,0.1-0.7,0.4-0.9-0.1c0.1-0.1,0.1-0.4,0.2-0.4c5-4.1,9-9,11.7-14.9c3.2-7,4.4-14.3,1.9-22
		c-3.8-11.4-15.9-18.4-27.6-15.6c-7.6,1.7-12.8,6.5-14.6,14.3c-1.7,7,1.1,14,8.3,17.7c6.5,3.3,14.5,2.2,18.5-4.3
		c3.1-4.8,2.4-12.3-4.2-15.2c-4.4-1.9-8.8-0.7-11.2,3.2c-1.5,2.4-1.1,5.8,0.9,7.8c1.8,1.7,5.1,2,7.2,0.6c0.9-0.7,1.7-3.1,1.2-4.3
		c-0.3-0.9-2-1.9-3.2-1.7c-1.1,0.1-1.7,0.9-1.1,2.4c0.2-0.7,0-1.7,0.9-2c1.6-0.4,2.8,0.7,2.7,2.3c-0.1,2-1.7,3.4-3.6,3.2
		c-2.2-0.1-3.9-1-4.8-3.2c-0.7-1.5,0.1-4.5,1.4-5.9c2.7-2.8,6.1-2.6,9.2-1.2c3.2,1.4,5.1,5,4.9,8.3c-0.5,5.1-4.8,9.6-10.5,9.9
		c-7.1,0.3-13.7-4.1-15.1-11.3c-1.1-6.3,2.2-13.4,8.1-16.6c6.5-3.7,13.2-3.5,19.7-0.3s10.5,8.4,11.9,15.7c1.7,8.5-0.9,15.9-5.1,22.8
		c-1.9,3.2-4.4,5.8-7,8.3c-2.3,2.2-4.8,4.6-8,5.6c-0.4,0.1-0.7,0.4-0.9,0.1c-0.3-0.2,0-0.6,0.1-0.8c3.4-8.9-1.8-17-9.4-20.7
		c-2.8-1.4-5.8-0.7-8.6-0.1c-0.9-0.1-1.8,0.4-2.7,1c1.2,0.3,2.1-0.4,2.9-0.5c1.8-0.1,3.5-0.7,5.3-0.3c3.7,0.5,6.5,2.7,8.9,5.5
		c3.7,4.5,4.5,11.4,1.7,16.5c-0.3,0.5-0.5,1.1-1.4,1.2c2.7-8.6,0.7-15.3-7.7-19.3c-2.8-1.2-5.7-1.1-8.7,0.1c0.4,0.3,0.4,0.4,0.5,0.4
		s0.2,0,0.4-0.1c3.1-0.9,5.9-0.4,8.8,1c3.6,1.8,6.8,6.5,6.8,10.5c0,2.9-1,5.7-1.9,8.3c-0.1,0.5-0.6,0.7-0.9,0.9
		c-5.6,3.4-10.9,7.2-15.8,11.4c-7.3,6.2-13.7,13.3-19.5,21c-3.4,4.3-6.5,8.9-9.2,13.7c-1.1,2-2.2,4-3.3,6c-1.4,2.3-2.4,5-4.1,7.1
		l0.7,0.6c0.7-1.1,1.5-2.2,2.2-3.3c2.8-5.3,6-10.4,9.4-15.3c2.7-3.6,6.5-5,11.1-3.5c5.1,1.9,7.3,6.2,5.3,11.2c-0.7,2-2.2,3-4.1,3.3
		c-2.4,0.4-4.7-0.3-6.4-2.2c-0.5-0.6-0.8-1.2-0.8-2c0-1.4,1-2.5,2.5-2.7c1.4-0.1,2.1,0.6,2.4,2c0,0.2-0.1,0.7,0.4,0.7
		c0.6-1.7,0.4-2.6-1.1-3.5c-1.2-0.7-3.6-0.4-4.8,0.7c-1.1,1-1.5,3-0.7,4.6c0.7,1.5,2.2,2.5,3.7,3.4c3.9,2,8.4,1,10.8-2.3
		c2.4-3.6,2.2-9.4-0.9-11.9c-3.6-3-7.4-5.1-12.3-3.4c-0.3,0.1-0.5,0.2-0.7-0.1c-0.2-0.3,0.1-0.5,0.1-0.7c0.6-0.7,1.1-1.3,1.8-2
		c3.6-4.8,7.9-9.2,12.1-13.4c8-7.8,16.9-14.4,27.1-19.4c9.8-4.8,20.2-7.6,31.1-8.1c7.4-0.4,14.7,0.9,21.7,3.2
		c3.8,1.2,7.1,3.1,9.8,6.4c4.5,5.8,5.6,13.4,0,19.5c-5.1,5.5-13.2,5.8-18.1,0.2c-2.7-3.1-2.9-7.8-0.2-10.9c2.5-3,6-4.5,10-2.6
		c2.2,0.9,3.7,3.7,3.5,6c-0.3,2.7-2.4,4.3-4.8,4.6c-1.8,0.3-3.7-1.1-4.3-2.8c-0.4-1.4,0.5-2.7,2.2-3.6c0.2-0.1,0.4-0.3,0.7-0.4
		c-0.6-0.5-1-0.2-1.5,0c-2.5,1.1-3,4.5-0.7,6.4c2,1.6,4,1.8,6.2,0.7c2.3-1.3,3.5-3.7,3.2-6.1c-0.4-4-4.7-7-8.8-6.4
		c-7.3,1.1-10.9,9.4-6.5,15.5c0.3,0.4,0.9,0.7,0.7,1.3c-0.2,0.5-0.7,0.2-1.1,0.1c-13.9-1.1-27.1,8.3-30.2,22c-1.9,8.3-0.7,16.4,3,24
		c3.3,6.9,8.3,12.3,15.1,16.1c6.4,3.5,13.3,4.8,20.6,4.2c13-1.1,23.3-7,31.2-17.1c3.5-4.5,5.8-9.5,7.4-14.9
		c1.8-6.3,2.2-12.7,1.4-19.2c-1-9-3.8-17.3-8.9-24.8c-4.4-6.5-10-12.1-16.8-16.2c-4.7-2.9-9.6-4.9-14.8-6.2
		c-2.8-0.7-5.7-1.1-8.5-1.7c0.1-0.6,0.5-0.5,0.7-0.7c8-2.5,15.2-6.5,21.7-11.7c4.1-3.5,7.9-7.1,11.2-11.4c3.5-4.4,6.5-9.2,9-14
		c2.2-4.2,3.9-8.5,5.8-12.9c0.9-2.2,2.1-4.5,2.7-6.9c0.9-3.7,3.5-5.5,7.1-4.4c2.2,0.7,3.1,2.7,2.2,4.8c1.4-0.9,1.2-3.2-0.3-4.5
		c-2-1.6-4.7-1.8-7-0.4c-0.3,0.2-0.6,0.7-0.9,0.3c-0.4-0.3-0.1-0.7,0-0.9c0.1-0.7,0.3-1.4,0.5-2.1c1-4.1,1-8.4,3.4-12.3
		c2.9-4.8,6.1-9.3,11.4-11.5c6.3-2.6,13.3-1.1,17.1,5.2c3.4,5.6,0.9,12.9-5.1,14.9c-2.8,0.9-5.5,0.2-7.6-1.9c-2.2-2.2-3-4.9-1.9-7.9
		c0.8-2.2,3.6-3.7,5.6-3.4c2.1,0.4,3.8,2.3,4,4.5c0.1,1.5-1.1,3.3-2.6,3.6c-1.4,0.3-2.5-0.5-3.2-2c-0.3-0.9,0-1.6,0.7-2.1
		c0.6-0.3,1-0.4,1.4,0.1c0.7,0.7-0.3,1.1-0.5,2c0.9-0.1,1.7-0.2,1.6-1.1s-0.4-1.8-1.6-1.9c-1.4,0-2.4,0.7-2.7,2.2
		c-0.2,1.4,0.8,3.3,2.1,3.7c3,1.2,6.5-1.4,6.1-4.6c-0.4-5.1-5.4-7.6-9.6-5.1c-2.7,1.7-4.1,4.2-4,7.3c0.2,3.6,2,6.3,5.1,8
		c5.3,3,11,0.4,13.8-3.5c5.2-7.6,0.9-17.6-7.3-20.5c-7-2.5-12.9,0.2-18.1,4.8c-2.6,2.2-3.8,5.2-5.2,8.2c-0.1,0.3-0.1,0.9-0.7,0.7
		c-0.5-0.1-0.3-0.7-0.2-1c0.3-1.9,0-3.7,0.1-5.6c0.7-9,0.1-17.8-2.2-26.5c-1.3-5.1-3.2-10-5.7-14.6c-2.9-5.3-6.5-10.4-11.2-14.4
		C506.9,300.4,503.6,297.7,499.7,295.8z M495,453c1.5,1.1,3.1,2,4.5,3.2c4.5,3.7,8.6,7.9,11.7,12.7c3.3,5.1,5.6,10.7,6.9,16.6
		c1.3,6.1,1.7,12.3,0.7,18.4c-1.1,7.1-3.8,13.5-8.3,19.2c-6.5,8.1-14.8,13.3-25.2,14.9c-9.5,1.4-18.1-0.6-25.6-6.7
		c-5.3-4.5-9-10.1-10.8-16.9c-1.4-5.2-1.8-10.5-0.4-15.7c2.7-9.8,9.2-16.1,19.2-18.4c4.4-1,8.9-0.9,13,0.9c4.4,2,7.5,5.2,9.6,9.4
		c2.4,5.1,3.2,10.3,1.1,15.8c-2.4,6.6-10.9,10.7-17.5,8.9c-3.4-0.9-5.3-3.4-6.7-6.5c-1-2.4-1.4-4.9-0.8-7.4
		c1.1-4.9,6.7-6.5,10.1-5.5c2.3,0.7,4,5,3,7.1c-0.7,1.2-3.1,2.2-4.2,1.4c-0.5-0.3-0.1-0.9-0.7-1.1c-0.3,0.9-0.1,1.6,0.7,2
		c2.5,1.1,5.3-0.8,5.2-3.6c-0.1-2.4-0.7-4.9-2.8-6.3c-2.2-1.3-4.4-1.1-6.6-0.4c-4.9,1.6-7.3,5.6-6.5,10.7c0.5,3.5,1.7,6.5,4.1,9
		c2.6,2.5,5.8,3.5,9.2,3.4c6.3-0.2,11.2-3,14.6-8.1c2.4-3.6,3-7.8,2.5-12c-0.7-6-3-11.1-7.3-15.3c0-0.1-0.2-0.2-0.1-0.2
		c-0.5-0.6-1.7-0.8-1.5-1.6c0.3-0.9,1.5-0.6,2.2-0.7c6.4-1.2,11.8-8.5,11.3-15.1c-0.3-3.6-1.4-6.8-3.7-9.6c-0.4-0.5-0.7-1-1.1-1.5
		C494.9,453.4,494.9,453.3,495,453z M504.2,464.7c0.3,0.5,0.9,0.7,1.2,0.3c0.6-0.3,0.3-0.9,0.1-1.3c-0.9-1.4-2.2-1.5-3.7-1.4
		C502.7,463,503.6,463.7,504.2,464.7z M505.2,472.3c0.1,0.8,0.4,2,1.5,1.6c1.1-0.3,1.1-1.4,0.8-2.2c-0.7-1.9-1.7-3.2-3.5-4
		C504.7,469,504.9,470.6,505.2,472.3z M502.8,473.9c-0.5,2.2-1.2,4.1-3,5.5c-0.4,0.3-0.6,0.7-0.7,1.3c-0.3,1.4,0.4,2.3,1.9,2
		c0.7-0.1,1.3-0.6,1.7-1.1c1.7-2.7,0.9-5.5,0.7-8.3C503,473.3,502.9,473.6,502.8,473.9z M514.6,481.7
		C514.6,481.7,514.6,481.6,514.6,481.7C514.6,481.6,514.5,481.6,514.6,481.7C514.5,481.6,514.6,481.6,514.6,481.7
		C514.6,481.6,514.6,481.6,514.6,481.7z M514.7,481.9C514.7,481.8,514.6,481.8,514.7,481.9C514.6,481.8,514.6,481.7,514.7,481.9
		C514.6,481.9,514.7,481.9,514.7,481.9z M508.5,489c-0.8,0.4-1.5,0.7-2.3,0.9c-1.4,0.4-2.2,1.2-3,2.3c-1.7,2.5-0.4,6.6,2.7,7.3
		c2.5,0.6,4.9-0.4,6.7-2.4c2.4-3,2.9-6.5,2.7-10.1c-0.1-1.5,0-3.1-0.8-4.5C514.2,486.2,511.5,487.8,508.5,489z M484,464.8
		c-0.1,0.1-0.1,0.1-0.4,0.1c0.1,0,0.2,0.1,0.4,0.2C484.1,464.9,484,464.9,484,464.8z M483.8,464.9L483.8,464.9L483.8,464.9
		L483.8,464.9L483.8,464.9z M492.7,484.2c2.4-0.5,5.5-3.5,6-6.3c-2.2,1.9-4.5,2.8-7,3.3c-0.4,0.1-0.8,0.4-1.1,0.7
		c-0.7,0.7-0.6,1.7,0.3,2.1C491.5,484.2,492.1,484.4,492.7,484.2z M512,501.3c-1.2,0.5-2.6,0.6-3.9,0.8c-3,0.6-3.9,3.5-2,5.8
		c1.4,1.6,3.9,1.8,6.2,0.2c3.7-2.5,3.8-6.5,3.7-10.4C514.9,499.8,514.3,500.4,512,501.3z M514.4,510.3c-1.1,0.9-2.4,1-3.9,1.3
		c-0.9,0.2-1.7,0.5-2.4,0.9c-1.4,0.9-1.7,2.6-0.4,3.7c2,1.8,4,1.4,5.8-1.1c0.8-1.2,1.5-3.2,1.6-4.5
		C515.2,510,514.9,509.9,514.4,510.3z M497.1,513.3c0,0.2,0.1,0.4,0.1,0.6c0.2,0.9,0.7,1,1.5,0.7c0.7-0.4,0.9-1,0.9-1.7
		c0.4-2.5-1.4-4.1-2.4-6.1C497.8,508.9,497.3,511.1,497.1,513.3z M488.2,522.7c-0.7,0.9-1,2.2-0.1,3.2c0.6,0.7,2.3,0.1,3.2-0.7
		c0.1-0.1,0.1-0.1,0.2-0.2c2.7-3.3,2-7.1,1.8-10.9c-0.4,1.1-0.8,2.2-1.3,3.3C491.2,519.2,489.6,521,488.2,522.7z M486,520.3
		c-0.4-0.3-0.6-0.1-0.7-0.1c-3.6,2.2-7.6,3.3-12,3.1c-0.9-0.1-1.7,0.4-2.4,0.7c-1.9,1.1-1.6,3.5,0.4,4.5c2.2,1.2,4.5,0.8,6.5-0.5
		c2.1-1.2,3.8-2.9,5.4-4.7C484.1,522.4,485.3,521.6,486,520.3z M474.9,520.6c-4.5-0.3-8.3-2.2-12-4.8c-0.7-0.5-1.4-0.7-2.2-0.9
		c-0.9-0.2-2-0.1-2.4,0.7c-0.6,0.9-0.3,1.8,0.2,2.5c0.9,1.5,2.3,2.5,4,3.2C466.7,522.8,470.8,521.7,474.9,520.6z"/>
	<path class="st1" d="M499.7,295.8c-8.6-4.2-17.7-5.5-27-4c-6.3,1-12,3.5-17.3,6.8c-5.6,3.7-10.2,8.3-13.3,14.3
		c-5.3,10.1-6,20.6-1.2,31.1c3.2,7.1,8.2,12.4,15.6,15.5c8.2,3.5,16.6,2.8,24.6-1c4.4-2.1,8-5.1,10.8-9c4.3-6.3,5.4-13.4,2.8-20.7
		c-2.1-5.7-5.5-10.1-11.4-12.3c-7.9-3-17.8,0.6-22.3,7.6c-3.5,5.5-2.2,13.8,3.1,17.8c3.8,2.8,8.5,2.7,13-0.4
		c4.6-3.2,4.2-7.9,1.7-11.3c-1.4-1.8-3.5-2.4-5.1-1.8c-1,0.5-2,0.9-2.8,1.6c-1.2,0.8-1.3,2.1-0.7,3.3c0.4,1,0.9,1.9,2.4,1.7
		c-2.2-1.6-3-3.8,0.4-5.2c2.4-1,3.9-0.7,5.2,1.5c2.2,3.7,1.6,6.8-2.2,9.4c-3.6,2.4-8,2.4-10.9-0.1c-2.7-2.3-3.8-5.4-3.9-8.9
		c-0.1-5.3,2.8-8.8,7.3-11.3c6.3-3.5,13.6-3,18.4,1.4c7.9,7.3,8.5,20.1,0.6,28.4c-4.2,4.5-9.6,7.1-15.8,8c-8.1,1.1-15.3-0.9-21-6.5
		c-7.3-7.3-10.1-16.5-8.3-26.8c1.5-8.9,6-16.1,13.2-21.6c9.4-7.1,19.6-9.8,31.1-8.3c10.3,1.4,18.7,6.4,25.4,13.9
		c7.1,7.9,11.3,17.1,13.7,27.5c1.8,8.1,2.2,16.4,1.5,24.6c-0.3,3.4-0.7,6.6-1.2,9.9c-0.1,0.4,0.1,0.9-0.5,0.9
		c-0.4,0-0.4-0.5-0.5-0.7c-0.4-1.1-0.9-2.2-1.6-3.2c-5-8.7-16.6-10.9-24.2-4.5c-5.9,5.1-6.4,15.5,0.9,19.8c4.5,2.6,12,1.9,14.6-4
		c1.7-3.6,0.6-9.4-4.6-10.5c-3.6-0.7-7.3,0.9-7.7,4.6c-0.2,2.1,0.7,4,2.2,4.8c1.8,0.8,3.5,0.5,4.7-0.9c-0.3-0.1-0.6-0.1-0.7-0.1
		c-1.9,1.1-3.6,0.8-4.8-0.8c-1.1-1.5-0.7-4.3,0.9-5.5c1.8-1.5,4.8-1.7,6.7-0.5c2.4,1.5,3.5,4.4,2.7,7.1c-0.8,3.3-3,5.1-6.1,5.8
		c-3.6,0.7-6.8,0-9.3-2.7c-4.2-4.7-3.2-12.5,2.1-16.6c6.6-5.1,16.6-3.5,21.2,3.7c2.4,3.6,3.7,7.6,2,12c-0.4,0.9-0.5,1.7-0.8,2.5
		c-0.1,0.4-0.1,0.7-0.4,0.8c-0.5,0.1-0.5-0.4-0.7-0.7c-0.4-0.8-1-1.4-1.8-1.9c-1.2-0.7-3.1-0.5-4,0.4s-1,2.7-0.4,3.9
		c0.5,0.8,1.3,1.1,2.1,1.7c2.7,2,2.9,2.5,1.6,5.6c0,0.1,0,0.1,0,0.1c-0.1,0.4-0.1,0.7-0.5,0.7c-0.5,0.1-0.5-0.4-0.7-0.7
		c-1.3-2.7-3.3-4.8-6.1-6c-2.2-0.9-6.1-1.6-7.9,0.2c0.1,0.2,0.4,0.1,0.7,0.1c5.3-1.4,10.9,1.4,12.7,6.5c0.7,1.7,0.4,2.7-1.1,3.7
		c-0.5-3.3-2.3-5.7-5.2-7.2c-1.8-0.9-3.6-1.4-5.6-0.7c0.1,0.1,0.1,0.1,0.1,0.1c3.2,0,6.3,0.9,8.1,3.6c1.7,2.2,2.7,4.9,1.2,7.6
		c-2.9,5.7-6.4,11-10.4,15.9c-0.1,0.1-0.3,0.2-0.7,0.1c0.1-0.4,0.2-0.7,0.3-1.1c1.3-5.8,0.7-11.4-1.7-16.9
		c-2.2-5.2-5.8-9.4-10.9-11.8c-5.5-2.6-11.2-3-17-1.1c-7.2,2.8-12.4,7.2-14.4,14.8c-1.5,6.1,0,11.6,4.2,16.1
		c4,4.4,10.8,5.4,16.2,2.8c6-2.9,8.5-7.6,7.3-13.4c-1.2-5.3-5.4-8.1-10.4-7c-3.4,0.8-5.7,3.1-5.9,5.9c-0.1,2.2,0.6,4.1,2.3,5.3
		c1.6,1.1,3.3,0.5,5-0.4c0.7-0.5,1.3-1.1,1.1-2.1c-0.1-1-0.7-1.7-1.7-2c1.1,1.6,1.3,2.3,0.5,3.2c-0.9,0.9-3.6,1.4-4.5,0.9
		c-1.4-1.1-2.2-4.7-1.3-6.3c2-3.7,8.2-4.7,11.2-1.7c3.2,3.3,3.3,8.8,0.9,11.8c-1.5,2-3.2,3.2-5.4,4c-4.4,1.7-8.9,1.6-12.4-1.5
		c-6.5-5.5-7.3-16.1-0.4-22.8c3.7-3.7,8.3-5.5,13.5-5.8c5.5-0.3,10.7,1.2,14.6,5.3c6.5,6.5,8.3,14.5,6.1,23.2
		c-1.1,4.4-3.2,8.3-6.5,11.4c-5.5,5-11.6,8.9-18.4,11.7c-4,1.7-8,3.1-12.3,3.6c-7.6,0.7-14.9,2-22.1,4.5c-0.4,0.1-0.7,0.4-0.9-0.1
		c0.1-0.1,0.1-0.4,0.2-0.4c5-4.1,9-9,11.7-14.9c3.2-7,4.4-14.3,1.9-22c-3.8-11.4-15.9-18.4-27.6-15.6c-7.6,1.7-12.8,6.5-14.6,14.3
		c-1.7,7,1.1,14,8.3,17.7c6.5,3.3,14.5,2.2,18.5-4.3c3.1-4.8,2.4-12.3-4.2-15.2c-4.4-1.9-8.8-0.7-11.2,3.2c-1.5,2.4-1.1,5.8,0.9,7.8
		c1.8,1.7,5.1,2,7.2,0.6c0.9-0.7,1.7-3.1,1.2-4.3c-0.3-0.9-2-1.9-3.2-1.7c-1.1,0.1-1.7,0.9-1.1,2.4c0.2-0.7,0-1.7,0.9-2
		c1.6-0.4,2.8,0.7,2.7,2.3c-0.1,2-1.7,3.4-3.6,3.2c-2.2-0.1-3.9-1-4.8-3.2c-0.7-1.5,0.1-4.5,1.4-5.9c2.7-2.8,6.1-2.6,9.2-1.2
		c3.2,1.5,5.1,5.1,4.8,8.4c-0.5,5.1-4.8,9.6-10.5,9.9c-7.1,0.3-13.7-4.1-15.1-11.3c-1.1-6.3,2.2-13.4,8.1-16.6
		c6.5-3.7,13.2-3.5,19.7-0.3s10.5,8.4,11.9,15.7c1.7,8.5-0.9,15.9-5.1,22.9c-1.9,3.2-4.4,5.8-7,8.3c-2.3,2.2-4.8,4.6-8,5.6
		c-0.4,0.1-0.7,0.4-0.9,0.1c-0.3-0.2,0-0.6,0.1-0.8c3.4-8.9-1.8-17-9.4-20.7c-2.8-1.4-5.8-0.7-8.6-0.1c0.1,0.1,0.1,0.4,0.1,0.5
		c1.8-0.1,3.5-0.7,5.3-0.3c3.7,0.5,6.5,2.7,8.9,5.5c3.7,4.5,4.5,11.4,1.7,16.5c-0.3,0.5-0.5,1.1-1.4,1.2c2.7-8.6,0.7-15.3-7.7-19.3
		c-2.8-1.2-5.7-1.1-8.7,0.1c0.4,0.3,0.4,0.4,0.5,0.4s0.2,0,0.4-0.1c3.1-0.9,5.9-0.4,8.8,1c3.6,1.8,6.8,6.5,6.8,10.5
		c0,2.9-1,5.7-1.9,8.3c-0.1,0.5-0.6,0.7-0.9,0.9c-5.6,3.4-10.9,7.2-15.8,11.4c-7.3,6.2-13.7,13.3-19.5,21c-3.4,4.3-6.5,8.9-9.2,13.7
		c-1.1,2-2.2,4-3.3,6c-1.4,2.3-2.4,5-4.1,7.1l0.7,0.6c0.7-1.1,1.5-2.2,2.2-3.3c2.8-5.3,6-10.4,9.4-15.3c2.7-3.6,6.5-5,11.1-3.5
		c5.1,1.9,7.3,6.2,5.3,11.2c-0.7,2-2.2,3-4.1,3.3c-2.4,0.4-4.7-0.3-6.4-2.2c-0.5-0.6-0.8-1.2-0.8-2c0-1.4,1-2.5,2.5-2.7
		c1.4-0.1,2.1,0.6,2.4,2c0,0.2-0.1,0.7,0.4,0.7c0.6-1.7,0.4-2.6-1.1-3.5c-1.2-0.7-3.6-0.4-4.8,0.7c-1.1,1-1.5,3-0.7,4.6
		c0.7,1.5,2.2,2.5,3.7,3.4c3.9,2,8.4,1,10.8-2.3c2.4-3.6,2.2-9.4-0.9-11.9c-3.6-3-7.4-5.1-12.3-3.4c-0.3,0.1-0.5,0.2-0.7-0.1
		c-0.2-0.3,0.1-0.5,0.1-0.7c0.6-0.7,1.1-1.3,1.8-2c3.6-4.8,7.9-9.2,12.1-13.4c8-7.8,16.9-14.4,27.1-19.4c9.8-4.8,20.2-7.6,31.1-8.1
		c7.4-0.4,14.7,0.9,21.7,3.2c3.8,1.2,7.1,3.1,9.8,6.4c4.5,5.8,5.6,13.4,0,19.5c-5.1,5.5-13.2,5.8-18.1,0.2
		c-2.7-3.1-2.9-7.8-0.2-10.9c2.5-3,6-4.5,10-2.6c2.2,0.9,3.7,3.7,3.5,6c-0.3,2.7-2.4,4.3-4.8,4.6c-1.8,0.3-3.7-1.1-4.3-2.8
		c-0.4-1.4,0.5-2.7,2.2-3.6c0.2-0.1,0.4-0.3,0.7-0.4c-0.6-0.5-1-0.2-1.5,0c-2.5,1.1-3,4.5-0.7,6.4c2,1.6,4,1.8,6.2,0.7
		c2.3-1.3,3.5-3.7,3.2-6.1c-0.4-4-4.7-7-8.8-6.4c-7.3,1.1-10.9,9.4-6.5,15.5c0.3,0.4,0.9,0.7,0.7,1.3c-0.2,0.5-0.7,0.2-1.1,0.1
		c-13.9-1.1-27.1,8.3-30.2,22c-1.9,8.3-0.7,16.4,3,24c3.3,6.9,8.3,12.3,15.1,16.1c6.4,3.5,13.3,4.8,20.6,4.2
		c13-1.1,23.3-7,31.2-17.1c3.5-4.5,5.8-9.5,7.4-14.9c1.8-6.3,2.2-12.7,1.4-19.2c-1-9-3.8-17.3-8.9-24.8c-4.4-6.5-10-12.1-16.8-16.2
		c-4.7-2.9-9.6-4.9-14.8-6.2c-2.8-0.7-5.7-1.1-8.5-1.7c0.1-0.6,0.5-0.5,0.7-0.7c8-2.5,15.2-6.5,21.7-11.7c4.1-3.5,7.9-7.1,11.2-11.4
		c3.5-4.4,6.5-9.2,9-14c2.2-4.2,3.9-8.5,5.8-12.9c0.9-2.2,2.1-4.5,2.7-6.9c0.9-3.7,3.5-5.5,7.1-4.4c2.2,0.7,3.1,2.7,2.2,4.8
		c1.4-0.9,1.2-3.2-0.3-4.5c-2-1.6-4.7-1.8-7-0.4c-0.3,0.2-0.6,0.7-0.9,0.3c-0.4-0.3-0.1-0.7,0-0.9c0.1-0.7,0.3-1.4,0.5-2.1
		c1-4.1,1-8.4,3.4-12.3c2.9-4.8,6.1-9.3,11.4-11.5c6.3-2.6,13.3-1.1,17.1,5.2c3.4,5.6,0.9,12.9-5.1,14.9c-2.8,0.9-5.5,0.2-7.6-1.9
		c-2.2-2.2-3-4.9-1.9-7.9c0.8-2.2,3.6-3.7,5.6-3.4c2.1,0.4,3.8,2.3,4,4.5c0.1,1.5-1.1,3.3-2.6,3.6c-1.4,0.3-2.5-0.5-3.2-2
		c-0.3-0.9,0-1.6,0.7-2.1c0.5-0.3,1-0.4,1.4,0.1c0.7,0.7-0.3,1.1-0.5,2c0.9-0.1,1.7-0.2,1.6-1.1s-0.4-1.8-1.6-1.9
		c-1.4,0-2.4,0.7-2.7,2.2c-0.2,1.4,0.8,3.3,2.1,3.7c3,1.2,6.5-1.4,6.1-4.6c-0.4-5.1-5.4-7.6-9.6-5.1c-2.7,1.7-4.1,4.2-4,7.3
		c0.2,3.6,2,6.3,5.1,8c5.3,3,11,0.4,13.8-3.5c5.2-7.6,0.9-17.6-7.3-20.5c-7-2.5-12.9,0.2-18.1,4.8c-2.6,2.2-3.8,5.2-5.2,8.2
		c-0.1,0.3-0.1,0.9-0.7,0.7c-0.5-0.1-0.3-0.7-0.2-1c0.3-1.9,0-3.7,0.1-5.6c0.7-9,0.1-17.8-2.2-26.5c-1.3-5.1-3.2-10-5.7-14.6
		c-2.9-5.3-6.5-10.4-11.2-14.4C506.9,300.4,503.6,297.7,499.7,295.8z M495,453c1.5,1.1,3.1,2,4.5,3.2c4.5,3.7,8.6,7.9,11.7,12.7
		c3.3,5.1,5.6,10.7,6.9,16.6c1.3,6.1,1.7,12.3,0.7,18.4c-1.1,7.1-3.8,13.5-8.3,19.2c-6.5,8.1-14.8,13.3-25.2,14.9
		c-9.5,1.4-18.1-0.6-25.6-6.7c-5.3-4.5-9-10.1-10.8-16.9c-1.4-5.2-1.8-10.5-0.4-15.7c2.7-9.8,9.2-16.1,19.2-18.4
		c4.4-1,8.9-0.9,13,0.9c4.4,2,7.5,5.2,9.6,9.4c2.4,5.1,3.2,10.3,1.1,15.8c-2.4,6.6-10.9,10.7-17.5,8.9c-3.4-0.9-5.3-3.4-6.7-6.5
		c-1-2.4-1.4-4.9-0.8-7.4c1.1-4.9,6.7-6.5,10.1-5.5c2.3,0.7,4,5,3,7.1c-0.7,1.2-3.1,2.2-4.2,1.4c-0.5-0.3-0.1-0.9-0.7-1.1
		c-0.3,0.9-0.1,1.6,0.7,2c2.5,1.1,5.3-0.8,5.2-3.6c-0.1-2.4-0.7-4.9-2.8-6.3c-2.2-1.3-4.4-1.1-6.6-0.4c-4.9,1.6-7.3,5.6-6.5,10.7
		c0.5,3.5,1.7,6.5,4.1,9c2.6,2.5,5.8,3.5,9.2,3.4c6.3-0.2,11.2-3,14.6-8.1c2.4-3.6,3-7.8,2.5-12c-0.7-6-3-11.1-7.3-15.3
		c0-0.1-0.2-0.2-0.1-0.2c-0.5-0.6-1.7-0.8-1.5-1.6c0.3-0.9,1.5-0.6,2.2-0.7c6.4-1.2,11.8-8.5,11.3-15.1c-0.3-3.6-1.4-6.8-3.7-9.6
		c-0.4-0.5-0.7-1-1.1-1.5C494.9,453.4,494.9,453.3,495,453z M483.8,464.9L483.8,464.9L483.8,464.9L483.8,464.9z"/>
	<path class="st1" d="M396.3,473.8c0.3-0.9,1-1.3,1.5-1.9c2.7-3,2-6.4,1-9.7c-0.4-1.3-0.9-2.5-1.4-3.7c-1.1-2.5-0.5-5,1.2-7
		c2-2.2,4.5-2.6,7.3-1.4c2.4,1.1,3.6,3,3.8,5.7c0.6,5.4-2.2,9.4-5.9,12.7C401.6,470.6,399.1,472.2,396.3,473.8z"/>
	<path class="st1" d="M417.9,467.3c4.2-3.5,8.6-6.6,14.2-7.3c3.3-0.4,6.4,0.3,8.9,2.2c2.5,2,3.8,6.4,0.8,9.5
		c-2.2,2.4-6.9,2.4-9.4-0.1c-2-2.1-4-3.8-6.8-5.1c-2.2-0.8-4.1-0.7-6.3,0.2C418.8,467,418.4,467.1,417.9,467.3z"/>
	<path class="st1" d="M472.3,435.1c2-1.8,4.1-3.4,5.8-5.2c2.5-2.9,4.5-6,6.3-9.4c0.7-1.4,1.5-2.6,2.8-3.7c1.1-0.9,2.5-1.2,3.9-0.7
		c1.2,0.7,1.5,1.9,1.6,3.2c0,3.5-1.7,6.2-4.2,8.3c-3.7,3-8.2,4.9-12.6,6.6C474.5,434.5,473.5,435.1,472.3,435.1z"/>
	<path class="st1" d="M414.9,498.3c4.3-1.5,7.9-3.7,10.9-6.5c1.9-1.8,3.2-4,5.1-5.8c2-2,5.3-1.9,6.4,0.1c0.9,1.9,0.5,3.7-0.5,5.4
		c-1.3,2.4-3.6,3.8-6.2,4.8c-4.8,1.6-9.7,2-14.8,2.2C415.7,498.5,415.4,498.4,414.9,498.3z"/>
	<path class="st1" d="M412.3,496.2c0.7-0.7,1.1-1.4,1.6-2c3.6-3.8,5.1-8.6,6.2-13.7c0.3-1.4,0.5-2.9,1.3-4.1
		c0.9-1.2,1.9-2.4,3.6-2.2c1.1,0.1,2.2,2.1,2.4,3.8c0.4,3.7-1,6.7-3.3,9.4c-3,3.6-6.9,6.1-10.9,8.3C413,496.1,412.9,496,412.3,496.2
		z"/>
	<path class="st1" d="M412.7,461.3c2.2-3.6,0.7-6.5-1.2-9.4c-0.9-1.6-2.1-3-1.6-5.1c0.7-3,3.8-4.3,6.5-2.7c2.9,1.7,4.1,5.6,2.8,9.4
		C418,456.9,415.5,459.2,412.7,461.3z"/>
	<path class="st1" d="M435,456.6c3.9-2.1,7.9-4.1,12.4-2.8c3.6,0.9,5.8,3.5,5.5,6.8c-0.3,2-1.4,3.4-3.2,3.7
		c-1.9,0.3-3.6-0.1-4.9-1.7c-0.6-0.7-1-1.3-1.5-2C441.3,457.7,439,455.5,435,456.6z"/>
	<path class="st1" d="M500,329.1c0.7,0.2,0.9,0.2,1.1,0.4c2,1.2,4,1,6,0.1c1.1-0.5,2.2-1,3.2-1.7c1.5-0.9,3.3-0.7,5.1,0.6
		c1.3,0.9,1.9,2.4,1.3,4c-0.5,1.6-1.5,2.9-3.2,3.2c-2.7,0.7-5.3,0.4-7.9-1.4C503.8,332.9,501.9,331.3,500,329.1z"/>
	<path class="st1" d="M454.8,401.1c-2-0.8-3.3-2.2-4.8-3.6c-2.2-2-4.4-4.2-5.5-7.1c-0.7-1.7-0.7-3.5-0.1-5.1c0.5-1.2,1.4-2.2,3-2.2
		c1.4,0,2.2,0.9,2.9,2.1c0.5,0.9,0.6,2,0.6,3.1c0.2,4.4,1.1,8.6,3.6,12.3C454.7,400.6,454.7,400.8,454.8,401.1z"/>
	<path class="st1" d="M457.6,401.4c-0.9-1.6-1.6-3.3-2.2-5.1c-1.2-3.6-2.1-7.5-0.4-11.2c0.7-1.5,1.7-2.7,3.2-3.4
		c1.3-0.7,2.4,0,2.9,1.4c0.5,1.7-0.1,3.2-0.9,4.8c-1.9,4.2-3.1,8.5-2.2,13.2C458,400.9,458,401.2,457.6,401.4z"/>
	<path class="st1" d="M533.7,351.2c0.4-1.7,0.9-3,1.1-4.3c0.7-3.6,0-7.1-1.7-10.4c-0.6-1.1-0.9-2.2-0.7-3.6c0.4-2.1,2.1-3,3.7-1.7
		c2,1.5,2.9,3.6,3.1,6.1c0.1,3.7-1.4,7.1-3.3,10.4C535.4,348.6,535,350,533.7,351.2z"/>
	<path class="st1" d="M415.3,503.6c0.7-0.1,0.8-0.1,1.1-0.1c4,0.6,8.1,0.7,11.9,2.7c2.2,1.1,3.8,2.8,4,5.5c0.1,1.6-0.9,2.7-2.6,2.2
		c-1.1-0.2-2.2-0.8-2.7-1.7C423.9,508.5,420.2,505.6,415.3,503.6z"/>
	<path class="st1" d="M545.4,328.2c0.8,1,0.7,1.7-0.4,2.3c-1.1,0.7-2.7,0.6-3.7-0.2c-0.9-0.9-1.3-2.4-0.6-3.7
		c1.3-2.2,3.2-3.5,5.9-3.5c2.7,0.1,4.6,1.7,5.5,4.2c0.9,2.4,0.6,5.1-1.6,6.8c-2.4,2.2-5,4.3-7.5,6.4c-1.6,1.2-2.9,2.8-4,4.7
		c-0.6-0.9-0.1-1.3,0.2-1.7c1.6-2.8,4.2-4.6,6.5-6.8c1.3-1.3,2.8-2.4,3.9-3.8c1.7-2.2,1.1-5.6-1.1-7.3c-1.9-1.3-5-0.7-6.5,1.5
		c-0.5,0.7-0.7,1.4-0.1,2.2c0.5,0.7,1.1,0.9,2,0.8C545,329.8,545.5,329.3,545.4,328.2z"/>
	<path class="st1" d="M423.5,450.8c0.2-2.2-0.9-4-2-5.7c-0.6-1-1.2-2-1.4-3.2c-0.3-2.2,1-3.7,3.2-3.6c3.1,0.1,5,2.9,4,6.4
		C426.9,446.9,425.1,448.7,423.5,450.8z"/>
	<path class="st1" d="M449.1,450.7c3.5-2.2,8.2-2.2,10.8-0.1c1.7,1.3,1.9,4.4,0.2,6c-1.3,1.3-3.2,0.9-4.7-0.5
		c-0.9-0.8-1.7-1.8-2.4-2.8C452.1,451.9,451.1,450.8,449.1,450.7z"/>
	<path class="st1" d="M462.9,437.6c0.7-1,1.6-2.2,2.4-3.2c1.5-2.2,2.5-4.5,3.2-6.9c0.4-1.6,0.7-3.2,2.5-4c1.3-0.7,2.4-0.1,2.9,1.4
		c0.7,2.2,0.1,4.3-1.4,6.1C469.9,433.8,466.5,435.6,462.9,437.6z"/>
	<path class="st1" d="M500.9,336.5c1.4,3,4,3.6,6.7,4.2c0.7,0.2,1.4,0.4,1.9,0.9c1.4,1.4,1.8,3.6,0.7,4.8c-1.1,1.2-3.1,1.3-4.8,0.2
		c-2.1-1.4-3.4-3.5-4-5.8C501.1,339.5,500.8,338.1,500.9,336.5z"/>
	<path class="st1" d="M497.4,321.9c2.9,0.6,4.7-1,6.3-3c1.5-2,3.8-2.3,5.2-1c1.5,1.4,1.1,4.3-0.7,5.5c-2,1.2-4,1.6-6.3,0.9
		C500.2,323.7,498.7,322.9,497.4,321.9z"/>
	<path class="st1" d="M515.2,464.6c1.7,1.1,3.4,2,5.3,2.3s3.7,0.7,5.7,0.9c0.9,0.1,1.9,0.4,2.6,0.7c0.7,0.4,1.2,1.1,1.1,2.1
		c-0.1,0.8-0.8,1.5-1.7,1.8c-2,0.7-3.7,0.3-5.5-0.6c-3-1.6-5.2-3.9-7.5-6.3C514.9,465.4,514.8,465.2,515.2,464.6z"/>
	<path class="st1" d="M540.9,348.6c2.2-3.9,4.7-7.8,8.6-10.2c1.4-0.7,3.6-0.7,4,0.1c0.6,0.9-0.3,2.9-1.7,3.8
		c-0.9,0.7-1.9,0.9-2.8,1.4C546.1,345,543.2,346.3,540.9,348.6z"/>
	<path class="st1" d="M517.6,358.9c-3.2-2.4-6.6-3.1-10.3-3.5c-0.5-0.1-0.9-0.1-1.4-0.5c-1.4-0.9-1.6-2.7-0.1-3.6
		c1.7-1.1,3.6-0.9,5.2,0.1c2.9,1.7,4.7,4.3,6.8,6.8C517.7,358.3,517.7,358.4,517.6,358.9z"/>
	<path class="st1" d="M450.5,440.9c2.7-2.7,4.5-5.8,5.2-9.3c0.1-0.8,0.7-1.7,1.4-2.3c1.4-1.1,2.7-0.7,3.1,1c0.5,2.2-0.5,4.1-2,5.5
		c-2,2-4.4,3.5-6.7,5C451.4,440.7,451,440.8,450.5,440.9z"/>
	<path class="st1" d="M508.7,358c-4,0.2-7.3,1.8-10.5,3.8c-0.6,0.3-1.1,0.4-1.7,0.4c-1.5,0.1-2.2-1.1-1.5-2.4
		c0.7-1.4,1.9-2.4,3.5-2.9C502.1,355.8,505.5,356.9,508.7,358z"/>
	<path class="st1" d="M479.9,312c-1.2,0.3-2-0.3-2.8-0.4c-1.8-0.2-3.6-0.1-5.4,0.3c-0.8,0.2-1.6,0.4-2.4,0.2
		c-0.9-0.1-1.5-0.5-1.7-1.4c-0.1-0.9,0-1.6,0.9-2.2c1.3-0.9,2.6-1,4.1-0.6C475.2,308.7,477.6,310.1,479.9,312z"/>
	<path class="st1" d="M414.3,440.2c-1.8-2-3.7-1.8-5.7-1.5c-1.2,0.2-2.2-0.1-3-1.1c-0.5-0.8-0.5-1.7,0.1-2.5
		c0.7-1.1,1.8-1.6,3.2-1.4C411.5,434,413.7,436.5,414.3,440.2z"/>
	<path class="st1" d="M522.9,475.4c2.7,2.2,5.9,2.8,9.2,3.5c1.1,0.2,2,0.9,1.9,2.2c-0.1,1.2-1.2,1.5-2.2,1.4c-1.7,0-3-0.7-4.2-1.8
		C525.6,479.3,524,477.5,522.9,475.4z"/>
	<path class="st1" d="M472.3,313.5c-1,0.9-2.1,0.9-2.9,1.6c-1.7,0.9-3.1,2.3-4.4,3.7c-0.2,0.2-0.3,0.4-0.4,0.5
		c-1.1,1.1-2.4,1.6-3.1,0.9s-0.5-2.7,0.6-3.6c0.8-0.7,1.7-1.4,2.7-1.7C467.1,313.7,469.4,313.6,472.3,313.5z"/>
	<path class="st1" d="M481.3,395.7c2.7-1.1,5.3-2.2,8.3-2c0.9,0.1,2,0.4,2.6,1.3c0.6,0.8,0.8,1.7,0.3,2.4c-0.7,0.9-1.7,1-2.6,0.6
		C487.3,396.8,484.5,395.8,481.3,395.7z"/>
	<path class="st1" d="M411.8,505.6c3,0.7,5.9,1.4,8.2,3.5c0.8,0.7,1.4,1.8,1.4,2.8c0,0.8,0.1,1.5-0.8,1.9c-0.8,0.4-1.6,0.1-2.2-0.5
		c-0.5-0.5-0.7-1-1.1-1.5C415.8,509.4,414.2,507.2,411.8,505.6z"/>
	<path class="st1" d="M509.1,455.4c2.3,1.8,5.1,2.7,7.8,3.8c0.9,0.4,2,1.1,2.4,2.2c0.4,0.9,0.1,1.6-0.8,1.9
		c-0.7,0.2-1.4,0.3-2.1-0.1C513.2,461.3,510.8,458.7,509.1,455.4z"/>
	<path class="st1" d="M487.9,399.2c2.8,0.9,5.7,1.4,7.6,3.7c0.8,0.9,1.2,2,1.3,3.2c0,0.6-0.1,1.2-0.7,1.5c-0.6,0.2-1,0.1-1.6-0.3
		c-0.5-0.4-0.9-0.7-1.1-1.1C492,403.5,490.3,401.1,487.9,399.2z"/>
	<path class="st1" d="M512.4,392.1c1,0.9,1.4,2.2,1.3,3.7c0,0.4-0.1,0.8-0.1,1.1c-0.3,0.7,0,1.9-0.8,2.1c-0.7,0.2-0.7-0.9-1.1-1.3
		c-0.9-0.7-1.7-1.4-2.4-2.2c-1-0.9-1.4-2.5-0.7-3.3C509.3,391.4,511.1,391.2,512.4,392.1z"/>
	<path class="st1" d="M523.8,364.4c-0.7-3-2.2-5.2-4-7.6c-0.7-0.8-0.9-2,0.1-2.6c1-0.7,2-0.1,2.7,0.9c1,1.4,1.4,3,1.5,4.8
		C524.2,361.4,524.2,362.9,523.8,364.4z"/>
	<path class="st1" d="M558.6,349.7c2.2-0.2,4.3,0.1,6.5,0.9c0.4,0.1,0.7,0.4,0.9,0.6c1.1,0.9,1.6,2.5,0.7,3.4
		c-0.8,0.9-1.9,0.7-3-0.8C562.2,351.9,560.5,350.8,558.6,349.7z"/>
	<path class="st1" d="M498.9,342.5c0.4,1.9,1.3,3.1,2.4,4.2c0.3,0.2,0.4,0.7,0.5,1.1c0.4,1,0.3,2-0.7,2.4c-1,0.6-2,0-2.6-0.9
		C497.3,347.5,497.4,344.6,498.9,342.5z"/>
	<path class="st1" d="M562.4,354.8c2.7,0.9,4.8,4,4.7,6.6c-0.1,0.9-0.2,1.8-1.3,2c-1.1,0.1-1.5-0.8-1.5-1.7
		C564,359.4,563.8,357,562.4,354.8z"/>
	<path class="st1" d="M486.4,314.9c-1.4-2.2-3.3-3.6-5.2-5.1c-0.7-0.4-0.9-1.3-0.4-2.1s1.4-0.6,2-0.3c1.4,0.7,2.2,2,2.7,3.5
		C485.9,312.2,486.4,313.6,486.4,314.9z"/>
	<path class="st1" d="M474.2,396.6c1-1.4,2-3,3.2-4.4c0.4-0.6,1.2-0.9,2.1-0.9c0.8-0.1,1.7-0.1,2,0.8c0.2,0.9-0.4,1.4-1.1,1.6
		c-2.2,0.7-4,1.8-5.8,3.4C474.4,396.8,474.3,396.7,474.2,396.6z"/>
	<path class="st1" d="M498.7,314.9c1.1,0.7,0.9,2.5,0,3.3c-1.3,1-2.7,0.7-4.2,0.4c-0.4-0.1-0.7-0.4-0.2-0.7c0.9-0.8,1.7-1.8,2.6-2.7
		C497.4,314.6,498.2,314.5,498.7,314.9z"/>
	<path class="st1" d="M553.3,348.3c1.1-1.1,2.4-2.2,4-2.6c0.5-0.1,0.9-0.1,1.4-0.1c0.7,0.1,1.2,0.5,1.2,1.2
		c-0.1,0.9-0.9,0.9-1.4,0.9C556.8,347.6,555,347.6,553.3,348.3z"/>
	<path class="st1" d="M490.4,319.5c-0.3-1.4-0.7-2.7-1.2-4c-0.2-0.6-0.3-1.2,0.4-1.6c0.8-0.4,1.2,0.3,1.4,0.9
		C491.7,316.5,491.1,318,490.4,319.5z"/>
	<path class="st1" d="M469.5,400.3c-0.2-1.7-0.6-3.2,0.6-4.6c0.4-0.5,0.9-0.9,1.6-0.6c0.7,0.5,0.3,1.1-0.1,1.5
		C470.7,397.7,470,399,469.5,400.3z"/>
	<path class="st1" d="M509,376.9c-0.3-0.1-0.6-0.1-0.7-0.1c0.4-0.5,0.6-0.9,0.7-1.5c0.1-1.5-0.6-2.2-2.1-1.8c-0.2,0-0.6,0.3-0.8,0.1
		c0.7-0.9,2.4-1.1,3.1-0.6C510,374,509.9,375.9,509,376.9z"/>
	<path class="st1" d="M548.4,348.9c0.4-1.1,0.4-2.3,1.5-2.9c0.5-0.3,1.1-0.4,1.5,0.1c0.4,0.7-0.3,0.9-0.7,1.2
		C550,347.9,549.2,348.4,548.4,348.9z"/>
	<path class="st1" d="M505.5,389.1c-1.1,0.7-2.6,0.9-3.7,2.1c0.4-1.4,2.1-2.4,3.7-2.3C505.6,388.9,505.6,389,505.5,389.1z"/>
	<path class="st1" d="M484.8,465.2c2,0.6,2.2,1.7,0.5,3.3C485.6,467.2,485.7,466.1,484.8,465.2z"/>
	<path class="st1" d="M414.6,428.2c0.1,0.1,0.1,0.4,0.1,0.5c-0.8,0.1-1.7,0.9-2.9,0.5C412.8,428.6,413.6,428.1,414.6,428.2z"/>
	<path class="st1" d="M412,433c0,0.1,0.1,0.1,0.2,0.2c0,0-0.1,0,0,0.1C412.2,433.2,412.1,433.2,412,433L412,433z"/>
	<path class="st1" d="M506.5,374.6c0,0.1,0.2,0.2,0.1,0.2c0,0.1-0.1,0.1-0.2,0.1c0-0.1-0.2-0.2-0.1-0.2
		C506.3,374.7,506.4,374.7,506.5,374.6z"/>
	<path class="st1" d="M483.8,464.9c0.1-0.1,0.1-0.1,0.4,0c0,0.1,0,0.1,0,0.2C483.9,464.9,483.8,464.9,483.8,464.9L483.8,464.9z"/>
	<path class="st1" d="M484.6,468.5C484.6,468.5,484.5,468.5,484.6,468.5C484.5,468.5,484.5,468.5,484.6,468.5
		C484.5,468.4,484.6,468.5,484.6,468.5S484.5,468.5,484.6,468.5z"/>
	<path class="st1" d="M514.5,482.5c0.8,1.4,0.8,3,0.8,4.5c0.1,3.6-0.2,7.1-2.7,10.1c-1.9,2.2-4.2,3-6.7,2.4
		c-3.1-0.7-4.4-4.8-2.7-7.3c0.7-1.1,1.6-2,3-2.3c0.9-0.2,1.5-0.7,2.3-0.9C511.5,487.8,514.2,486.2,514.5,482.5z"/>
	<path class="st1" d="M515.8,497.7c0.1,3.9,0,7.9-3.7,10.4c-2.2,1.5-4.8,1.4-6.2-0.2c-2-2.2-0.9-5.2,2-5.8c1.3-0.3,2.7-0.4,3.9-0.8
		C514.3,500.4,514.9,499.8,515.8,497.7z"/>
	<path class="st1" d="M486,520.3c-0.6,1.4-1.9,2.2-2.7,3.2c-1.6,1.8-3.4,3.4-5.4,4.7c-2.1,1.3-4.2,1.7-6.5,0.5
		c-2-0.9-2.2-3.3-0.4-4.5c0.7-0.4,1.5-0.8,2.4-0.7c4.3,0.2,8.2-0.7,12-3.1C485.4,520.2,485.6,520.2,486,520.3z"/>
	<path class="st1" d="M474.9,520.6c-4.2,1-8.2,2.2-12.4,0.7c-1.7-0.7-3.1-1.5-4-3.2c-0.5-0.8-0.7-1.8-0.2-2.5
		c0.6-0.8,1.5-0.9,2.4-0.7c0.8,0.1,1.6,0.4,2.2,0.9C466.5,518.3,470.3,520.3,474.9,520.6z"/>
	<path class="st1" d="M515.2,510.7c-0.1,1.2-0.7,3.2-1.6,4.5c-1.7,2.5-3.9,3-5.8,1.1c-1.2-1.1-1-2.9,0.4-3.7
		c0.7-0.5,1.6-0.8,2.4-0.9c1.4-0.3,2.7-0.4,3.9-1.3C514.9,509.9,515.2,510,515.2,510.7z"/>
	<path class="st1" d="M493.3,513.8c0.1,3.7,0.8,7.7-1.8,10.9c-0.1,0-0.1,0.1-0.2,0.2c-0.9,0.9-2.6,1.4-3.2,0.7
		c-0.9-1-0.7-2.2,0.1-3.2c1.4-1.8,3-3.5,3.8-5.6C492.5,516.1,493,514.9,493.3,513.8z"/>
	<path class="st1" d="M503.5,473.2c0.2,2.8,0.9,5.6-0.7,8.3c-0.4,0.7-0.9,1-1.7,1.1c-1.4,0.3-2.2-0.7-1.9-2c0.1-0.5,0.3-0.9,0.7-1.3
		c1.7-1.4,2.4-3.5,3-5.5C502.9,473.6,503,473.3,503.5,473.2z"/>
	<path class="st1" d="M498.8,477.9c-0.6,2.7-3.6,5.8-6,6.3c-0.7,0.1-1.3,0.1-2-0.2c-0.9-0.4-1-1.4-0.3-2.1c0.4-0.3,0.7-0.6,1.1-0.7
		C494.3,480.8,496.7,479.8,498.8,477.9z"/>
	<path class="st1" d="M497.4,506.6c1.1,2,2.8,3.6,2.4,6.1c-0.1,0.7-0.3,1.4-0.9,1.7c-0.8,0.4-1.3,0.4-1.5-0.7
		c-0.1-0.1-0.1-0.4-0.1-0.6C497.3,511.1,497.8,508.9,497.4,506.6z"/>
	<path class="st1" d="M507.5,471.6c0.4,0.9,0.3,2-0.8,2.2c-1.1,0.3-1.4-0.7-1.5-1.6c-0.4-1.6-0.5-3.2-1.3-4.8
		C505.7,468.5,507,469.8,507.5,471.6z"/>
	<path class="st1" d="M505.6,463.7c0.3,0.4,0.6,0.9-0.1,1.3c-0.4,0.3-0.9,0.2-1.2-0.3c-0.7-0.9-1.6-1.6-2.4-2.4
		C503.3,462.3,504.7,462.3,505.6,463.7z"/>
	<path class="st1" d="M514.6,481.5C514.6,481.5,514.6,481.6,514.6,481.5L514.6,481.5C514.6,481.6,514.6,481.6,514.6,481.5z"/>
	<path class="st1" d="M514.5,481.7C514.6,481.7,514.6,481.7,514.5,481.7C514.5,481.7,514.5,481.8,514.5,481.7
		C514.7,481.9,514.6,481.9,514.5,481.7z"/>
	<path class="st1" d="M514.6,481.6C514.6,481.6,514.6,481.7,514.6,481.6L514.6,481.6L514.6,481.6z"/>
</g>
</svg>
